<svg width="317" height="48" viewBox="0 0 317 48" fill="none" xmlns="http://www.w3.org/2000/svg">
<g clip-path="url(#clip0_640_9606)">
<rect width="48" height="48" fill="#50C878"/>
<path d="M30.5948 -3.62812C30.009 -5.93546 28.8454 -7.2002 27.8566 -7.2002H1.92017C3.06106 -7.2002 4.20196 -5.19091 4.58226 -3.73975L11.5387 23.4973L15.1546 37.674C15.6181 39.4659 16.4476 40.7996 17.4364 40.7996H20.6309C19.7943 40.7996 18.7294 38.9019 18.5012 37.8973L16.5237 30.0833C16.2955 29.3019 16.0673 28.0741 16.8279 27.7392C17.5885 27.4043 17.8927 28.0741 18.197 29.302L20.4027 37.8973C20.8329 39.1714 21.9239 40.7996 22.9127 40.7996H26.4115C25.3466 40.7996 24.1297 39.0135 23.8254 37.8973L22 30.7531C21.8479 30.195 21.6958 29.1903 22.4564 28.7438C23.0648 28.5206 23.4451 28.8554 23.8254 30.0833L25.8791 37.8973C26.1833 39.0135 27.4002 40.7996 28.5411 40.7996H31.4314C30.5187 40.7996 29.4539 38.9019 29.1496 37.8973L26.7918 28.2973C26.6397 27.6275 26.471 26.5566 27.2481 26.1764C27.9327 25.8415 28.3129 26.5113 28.6932 27.9624L31.2793 37.8973C31.5835 38.9019 32.6484 40.7996 33.3329 40.7996H36.9524C36.1862 40.7768 34.85 39.1085 34.5499 37.8973L28.1608 12.3346C27.9327 11.4416 27.9327 10.5486 28.5411 10.102C29.2257 9.76716 29.682 10.4369 29.9102 11.3299L32.5723 21.5997C33.1808 23.9438 35.3865 25.2834 37.4402 23.9438L31.7483 0.948603L30.5948 -3.62812Z" fill="#001A13"/>
</g>
<path d="M78.8765 40V28.7002H71.2069V40H60.9808V8.04348H71.2069V19.3433H78.8765V8.04348H89.1026V40H78.8765ZM106.353 13.6678C114.534 13.6678 118.625 16.48 118.625 22.1044V40H113.512L110.597 37.0856C109.609 38.2445 108.262 39.1478 106.558 39.7955C104.854 40.4431 103.235 40.767 101.701 40.767C100.201 40.767 98.9907 40.6477 98.0704 40.409C97.15 40.1704 96.2467 39.7614 95.3605 39.1819C93.4175 37.9548 92.446 35.671 92.446 32.3304C92.446 26.1948 97.0818 23.127 106.353 23.127H108.399V21.2863C107.308 21.2181 106.405 21.184 105.689 21.184C101.837 21.184 98.5305 21.6442 95.7695 22.5645L94.5424 15.2529C97.9511 14.1962 101.888 13.6678 106.353 13.6678ZM102.774 31.2056V33.3019H104.871C106.371 33.3019 107.325 33.1315 107.734 32.7906C108.177 32.4497 108.399 32.0066 108.399 31.4612V29.0581H106.302C105.075 29.0581 104.172 29.1944 103.592 29.4671C103.047 29.7057 102.774 30.2852 102.774 31.2056ZM128.359 14.4348L130.916 16.9913C134.086 14.7757 137.494 13.6678 141.142 13.6678C143.528 13.6678 145.403 14.1962 146.766 15.2529C148.13 16.2755 148.811 17.7071 148.811 19.5478V40H138.585V22.1044H137C135.841 22.1044 134.955 22.2407 134.341 22.5134C133.762 22.752 133.472 23.2633 133.472 24.0473V40H123.246V14.4348H128.359ZM178.964 40H173.851L171.653 37.8525C170.153 39.7955 167.477 40.767 163.625 40.767C161.546 40.767 159.756 40.375 158.256 39.591C156.757 38.807 155.615 37.7332 154.831 36.3697C153.365 33.8132 152.632 30.7624 152.632 27.2174C152.632 22.8884 153.587 19.616 155.495 17.4004C156.211 16.5482 157.2 15.8494 158.461 15.304C159.722 14.7245 161.188 14.4348 162.858 14.4348H168.738V6.76522L178.964 5.99827V40ZM163.625 23.2804V33.3019H165.21C166.369 33.3019 167.221 33.1997 167.767 32.9951C168.346 32.7565 168.67 32.2452 168.738 31.4612V21.1329H167.153C165.926 21.1329 165.023 21.2692 164.443 21.5419C163.898 21.7805 163.625 22.36 163.625 23.2804ZM184.063 40V15.713L194.289 14.4348V40H184.063ZM184.626 12.7986C183.876 12.2191 183.501 11.1624 183.501 9.62853C183.501 8.09461 183.876 7.02087 184.626 6.40731C185.41 5.79375 186.927 5.48696 189.176 5.48696C191.46 5.48696 192.977 5.79375 193.727 6.40731C194.511 7.02087 194.903 8.09461 194.903 9.62853C194.903 11.1624 194.511 12.2191 193.727 12.7986C192.977 13.3781 191.46 13.6678 189.176 13.6678C186.927 13.6678 185.41 13.3781 184.626 12.7986ZM202.665 40L197.552 14.4348H207.573L209.67 29.6205H210.232L213.453 14.4348H221.123L223.986 29.6205H224.549L227.003 14.4348H237.024L231.911 40H219.333L217.339 29.007H216.93L214.732 40H202.665ZM242.434 37.4435C240.321 35.1937 239.264 31.785 239.264 27.2174C239.264 22.6497 240.321 19.2581 242.434 17.0424C244.582 14.7927 248.042 13.6678 252.814 13.6678C257.586 13.6678 261.029 14.7927 263.142 17.0424C265.29 19.2581 266.363 22.6497 266.363 27.2174C266.363 31.785 265.29 35.1937 263.142 37.4435C261.029 39.6591 257.586 40.767 252.814 40.767C248.042 40.767 244.582 39.6591 242.434 37.4435ZM250.257 23.2804V33.3019H251.842C253.069 33.3019 253.956 33.1826 254.501 32.944C255.081 32.6713 255.37 32.0748 255.37 31.1544V21.1329H253.785C252.558 21.1329 251.655 21.2692 251.075 21.5419C250.53 21.7805 250.257 22.36 250.257 23.2804ZM270.446 14.4348H275.559L278.371 17.2981C280.382 15.4574 282.905 14.2473 285.938 13.6678L286.552 23.3315C285.734 23.3656 284.66 23.5701 283.331 23.945C282.035 24.32 281.149 24.7972 280.672 25.3767V40H270.446V14.4348ZM304.141 40L300.204 29.8762H299.846V40H289.62V6.76522L299.846 5.99827V22.8713H300.204L303.885 14.4348H314.929L308.998 26.6038L315.185 40H304.141Z" fill="#001A13"/>
<defs>
<clipPath id="clip0_640_9606">
<rect width="48" height="48" fill="white"/>
</clipPath>
</defs>
</svg>
