<svg width="98" height="98" viewBox="0 0 98 98" fill="none" xmlns="http://www.w3.org/2000/svg">
<g clip-path="url(#clip0_640_9603)">
<rect width="98" height="98" fill="#50C878"/>
<path d="M62.464 -7.4077C61.268 -12.1185 58.8924 -14.7007 56.8736 -14.7007H3.92004C6.24938 -14.7007 8.57871 -10.5984 9.35516 -7.63561L23.5579 47.9734L30.9403 76.9175C31.8867 80.576 33.5802 83.2988 35.599 83.2988H42.1212C40.413 83.2988 38.2389 79.4244 37.7731 77.3733L33.7355 61.4199C33.2697 59.8245 32.8038 57.3176 34.3567 56.6339C35.9096 55.9501 36.5307 57.3176 37.1519 59.8245L41.6553 77.3733C42.5336 79.9747 44.761 83.2988 46.7798 83.2988H53.9231C51.7491 83.2988 49.2644 79.6523 48.6433 77.3733L44.9163 62.7873C44.6057 61.6478 44.2952 59.5966 45.8481 58.685C47.0904 58.2292 47.8668 58.9129 48.6433 61.4199L52.8361 77.3733C53.4573 79.6523 55.9419 83.2988 58.2712 83.2988H64.1722C62.3087 83.2988 60.1347 79.4244 59.5135 77.3733L54.6996 57.7734C54.389 56.4059 54.0446 54.2194 55.6313 53.4432C57.0289 52.7594 57.8053 54.1269 58.5818 57.0897L63.8616 77.3733C64.4828 79.4244 66.6568 83.2988 68.0544 83.2988H75.4443C73.8798 83.2523 71.1517 79.8462 70.539 77.3733L57.4947 25.1828C57.0289 23.3596 57.0289 21.5363 58.2712 20.6247C59.6688 19.941 60.6005 21.3084 61.0664 23.1317L66.5015 44.099C67.7438 48.885 72.2472 51.6199 76.44 48.885L64.8192 1.93645L62.464 -7.4077Z" fill="#001A13"/>
</g>
<defs>
<clipPath id="clip0_640_9603">
<rect width="98" height="98" fill="white"/>
</clipPath>
</defs>
</svg>
