<svg width="98" height="98" viewBox="0 0 98 98" fill="none" xmlns="http://www.w3.org/2000/svg">
<g clip-path="url(#clip0_2073_10462)">
<rect width="98" height="98" fill="#001A13"/>
<path d="M62.4641 -7.40818C61.2681 -12.119 58.8924 -14.7012 56.8737 -14.7012H3.9201C6.24944 -14.7012 8.57877 -10.5989 9.35522 -7.6361L23.5579 47.9729L30.9404 76.917C31.8868 80.5755 33.5803 83.2983 35.599 83.2983H42.1212C40.413 83.2983 38.239 79.4239 37.7731 77.3728L33.7356 61.4194C33.2697 59.824 32.8039 57.3171 34.3567 56.6334C35.9096 55.9496 36.5308 57.3171 37.152 59.824L41.6554 77.3728C42.5336 79.9742 44.7611 83.2983 46.7799 83.2983H53.9232C51.7491 83.2983 49.2645 79.6518 48.6433 77.3728L44.9164 62.7868C44.6058 61.6473 44.2953 59.5961 45.8482 58.6845C47.0905 58.2287 47.8669 58.9124 48.6433 61.4194L52.8362 77.3728C53.4573 79.6518 55.9419 83.2983 58.2713 83.2983H64.1722C62.3088 83.2983 60.1347 79.4239 59.5136 77.3728L54.6996 57.7729C54.3891 56.4054 54.0447 54.2189 55.6313 53.4427C57.0289 52.759 57.8054 54.1264 58.5818 57.0892L63.8617 77.3728C64.4828 79.4239 66.6569 83.2983 68.0545 83.2983H75.4443C73.8798 83.2518 71.1518 79.8457 70.5391 77.3728L57.4948 25.1824C57.0289 23.3591 57.0289 21.5359 58.2713 20.6242C59.6689 19.9405 60.6006 21.3079 61.0665 23.1312L66.5016 44.0985C67.7439 48.8846 72.2473 51.6194 76.4401 48.8846L64.8193 1.93596L62.4641 -7.40818Z" fill="#50C878"/>
</g>
<defs>
<clipPath id="clip0_2073_10462">
<rect width="98" height="98" fill="white"/>
</clipPath>
</defs>
</svg>
