<svg width="258" height="155" viewBox="0 0 258 155" fill="none" xmlns="http://www.w3.org/2000/svg">
<g clip-path="url(#clip0_640_9595)">
<rect width="98" height="98" transform="translate(80)" fill="#50C878"/>
<path d="M142.464 -7.4077C141.268 -12.1185 138.892 -14.7007 136.874 -14.7007H83.9202C86.2495 -14.7007 88.5788 -10.5984 89.3553 -7.63561L103.558 47.9734L110.94 76.9175C111.887 80.576 113.58 83.2988 115.599 83.2988H122.121C120.413 83.2988 118.239 79.4244 117.773 77.3733L113.736 61.4199C113.27 59.8245 112.804 57.3176 114.357 56.6339C115.91 55.9501 116.531 57.3176 117.152 59.8245L121.655 77.3733C122.534 79.9747 124.761 83.2988 126.78 83.2988H133.923C131.749 83.2988 129.265 79.6523 128.643 77.3733L124.916 62.7873C124.606 61.6478 124.295 59.5966 125.848 58.685C127.091 58.2292 127.867 58.9129 128.643 61.4199L132.836 77.3733C133.457 79.6523 135.942 83.2988 138.271 83.2988H144.172C142.309 83.2988 140.135 79.4244 139.514 77.3733L134.7 57.7734C134.389 56.4059 134.045 54.2194 135.631 53.4432C137.029 52.7594 137.805 54.1269 138.582 57.0897L143.862 77.3733C144.483 79.4244 146.657 83.2988 148.055 83.2988H155.444C153.88 83.2523 151.152 79.8462 150.539 77.3733L137.495 25.1828C137.029 23.3596 137.029 21.5363 138.271 20.6247C139.669 19.941 140.601 21.3084 141.067 23.1317L146.502 44.099C147.744 48.885 152.247 51.6199 156.44 48.885L144.819 1.93645L142.464 -7.4077Z" fill="#001A13"/>
</g>
<path d="M20.4522 154V142.7H12.7826V154H2.55652V122.043H12.7826V133.343H20.4522V122.043H30.6783V154H20.4522ZM47.9292 127.668C56.11 127.668 60.2005 130.48 60.2005 136.104V154H55.0874L52.173 151.086C51.1845 152.245 49.8381 153.148 48.1337 153.795C46.4294 154.443 44.8102 154.767 43.2763 154.767C41.7765 154.767 40.5664 154.648 39.6461 154.409C38.7257 154.17 37.8224 153.761 36.9361 153.182C34.9932 151.955 34.0217 149.671 34.0217 146.33C34.0217 140.195 38.6575 137.127 47.9292 137.127H49.9744V135.286C48.8836 135.218 47.9803 135.184 47.2645 135.184C43.4127 135.184 40.1062 135.644 37.3452 136.565L36.1181 129.253C39.5267 128.196 43.4638 127.668 47.9292 127.668ZM44.3501 145.206V147.302H46.4464C47.9462 147.302 48.9007 147.131 49.3097 146.791C49.7528 146.45 49.9744 146.007 49.9744 145.461V143.058H47.8781C46.6509 143.058 45.7476 143.194 45.1681 143.467C44.6227 143.706 44.3501 144.285 44.3501 145.206ZM69.9348 128.435L72.4914 130.991C75.6614 128.776 79.0701 127.668 82.7174 127.668C85.1035 127.668 86.9783 128.196 88.3418 129.253C89.7053 130.275 90.387 131.707 90.387 133.548V154H80.1609V136.104H78.5759C77.4169 136.104 76.5307 136.241 75.9171 136.513C75.3376 136.752 75.0479 137.263 75.0479 138.047V154H64.8218V128.435H69.9348ZM120.54 154H115.427L113.228 151.853C111.729 153.795 109.053 154.767 105.201 154.767C103.122 154.767 101.332 154.375 99.8322 153.591C98.3323 152.807 97.1904 151.733 96.4064 150.37C94.9407 147.813 94.2078 144.762 94.2078 141.217C94.2078 136.888 95.1622 133.616 97.0711 131.4C97.7869 130.548 98.7755 129.849 100.037 129.304C101.298 128.725 102.764 128.435 104.434 128.435H110.314V120.765L120.54 119.998V154ZM105.201 137.28V147.302H106.786C107.945 147.302 108.797 147.2 109.342 146.995C109.922 146.757 110.246 146.245 110.314 145.461V135.133H108.729C107.502 135.133 106.598 135.269 106.019 135.542C105.474 135.781 105.201 136.36 105.201 137.28ZM125.639 154V129.713L135.865 128.435V154H125.639ZM126.201 126.799C125.452 126.219 125.077 125.162 125.077 123.629C125.077 122.095 125.452 121.021 126.201 120.407C126.985 119.794 128.502 119.487 130.752 119.487C133.036 119.487 134.553 119.794 135.303 120.407C136.087 121.021 136.479 122.095 136.479 123.629C136.479 125.162 136.087 126.219 135.303 126.799C134.553 127.378 133.036 127.668 130.752 127.668C128.502 127.668 126.985 127.378 126.201 126.799ZM144.241 154L139.127 128.435H149.149L151.245 143.621H151.808L155.029 128.435H162.699L165.562 143.621H166.124L168.579 128.435H178.6L173.487 154H160.909L158.915 143.007H158.506L156.307 154H144.241ZM184.01 151.443C181.897 149.194 180.84 145.785 180.84 141.217C180.84 136.65 181.897 133.258 184.01 131.042C186.157 128.793 189.617 127.668 194.389 127.668C199.162 127.668 202.604 128.793 204.718 131.042C206.865 133.258 207.939 136.65 207.939 141.217C207.939 145.785 206.865 149.194 204.718 151.443C202.604 153.659 199.162 154.767 194.389 154.767C189.617 154.767 186.157 153.659 184.01 151.443ZM191.833 137.28V147.302H193.418C194.645 147.302 195.531 147.183 196.077 146.944C196.656 146.671 196.946 146.075 196.946 145.154V135.133H195.361C194.134 135.133 193.231 135.269 192.651 135.542C192.106 135.781 191.833 136.36 191.833 137.28ZM212.021 128.435H217.135L219.947 131.298C221.958 129.457 224.48 128.247 227.514 127.668L228.128 137.331C227.309 137.366 226.236 137.57 224.906 137.945C223.611 138.32 222.725 138.797 222.248 139.377V154H212.021V128.435ZM245.716 154L241.779 143.876H241.421V154H231.195V120.765L241.421 119.998V136.871H241.779L245.461 128.435H256.505L250.574 140.604L256.761 154H245.716Z" fill="#001A13"/>
<defs>
<clipPath id="clip0_640_9595">
<rect width="98" height="98" fill="white" transform="translate(80)"/>
</clipPath>
</defs>
</svg>
