<svg xmlns="http://www.w3.org/2000/svg" viewBox="0 0 16 16" fill="none"><path fill-rule="evenodd" clip-rule="evenodd" d="M8.99994 4.5L9.71964 5.2197L11.4697 3.46967L12.5303 4.53033L10.7803 6.28036L11.4999 7H15.9999V7.50002C15.9999 7.83907 15.9774 8.17287 15.9339 8.5C15.4886 11.8422 12.8422 14.4886 9.49994 14.9339C9.17772 14.9769 8.84904 14.9993 8.51523 15L8.49994 15L7.99994 15V10.5L7.28029 9.78035L1.28032 15.7803L0.219666 14.7196L6.21963 8.71969L5.49994 8H0.999939V7.50002C0.99994 7.16095 1.02244 6.82714 1.06603 6.5C1.51135 3.15779 4.15773 0.511407 7.49994 0.0661012C7.82708 0.0225144 8.16088 1.52588e-05 8.49994 1.52588e-05H8.99994V4.5ZM7.28029 7.65903L6.12126 6.5H2.5829C3.00443 3.98751 4.98745 2.00449 7.49994 1.58297V5.12132L8.65897 6.28035L7.28029 7.65903ZM8.34095 8.71969L9.49994 9.87868V13.4171C12.0124 12.9955 13.9955 11.0125 14.417 8.5H10.8786L9.71963 7.34101L8.34095 8.71969Z" fill="currentColor"/></svg>
