<svg width="353" height="48" viewBox="0 0 353 48" fill="none" xmlns="http://www.w3.org/2000/svg">
<path d="M23.1652 46.9565L25.8087 31.5826H15.8609L13.2174 46.9565H0L7.65217 3.47826H20.8696L18.1565 18.8522H28.1044L30.8174 3.47826H44.0348L36.3826 46.9565H23.1652Z" fill="#001A13"/>
<path d="M83.9924 13.913L78.2185 46.9565H71.6098L68.4794 42.9913C66.9953 44.6145 65.4881 45.8667 63.9576 46.7478C62.4736 47.5826 60.5489 48 58.1837 48C54.0098 48 51.0185 46.8406 49.2098 44.5217C47.4475 42.2029 46.5663 39.1884 46.5663 35.4783C46.5663 28.8464 48.3286 23.142 51.8533 18.3652C55.4243 13.542 60.3634 11.1304 66.6707 11.1304C72.004 11.1304 77.7779 12.058 83.9924 13.913ZM62.3576 24.2087L59.9924 37.8435H62.0098C63.0301 37.8435 63.8185 37.8203 64.375 37.7739C64.9315 37.6812 65.4649 37.4493 65.975 37.0783C66.5315 36.6609 66.8794 36.0812 67.0185 35.3391L69.5228 21.287H67.4359C65.8591 21.287 64.6765 21.4725 63.8881 21.8435C63.0996 22.1681 62.5895 22.9565 62.3576 24.2087Z" fill="#001A13"/>
<path d="M160.907 46.9565H154.298L151.933 44.0348C149.521 46.6783 145.834 48 140.872 48C133.173 48 129.324 43.7565 129.324 35.2696C129.324 31.9304 129.788 28.7768 130.715 25.8087C131.643 22.8406 132.686 20.4754 133.846 18.713C135.005 16.9043 136.651 15.3739 138.785 14.1217C140.918 12.8232 143.376 12.1739 146.159 12.1739H153.811L155.62 1.73913L169.046 0.695652L160.907 46.9565ZM145.046 24.2087L142.68 37.8435H144.698C146.182 37.8435 147.318 37.7043 148.107 37.4261C148.895 37.1014 149.428 36.4058 149.707 35.3391L152.211 21.287H150.124C148.547 21.287 147.365 21.4725 146.576 21.8435C145.788 22.1681 145.278 22.9565 145.046 24.2087Z" fill="#001A13"/>
<path d="M169.027 46.9565L174.801 13.913L188.366 12.1739L182.244 46.9565H169.027ZM175.357 7.51304C175.357 4.82319 176.053 2.89855 177.444 1.73913C178.882 0.57971 180.945 0 183.635 0C186.325 0 188.134 0.301448 189.061 0.904344C190.035 1.46087 190.522 2.41159 190.522 3.75652C190.522 6.49275 189.896 8.41739 188.644 9.53043C187.438 10.5971 185.398 11.1304 182.522 11.1304C179.693 11.1304 177.792 10.8754 176.818 10.3652C175.844 9.80869 175.357 8.85797 175.357 7.51304Z" fill="#001A13"/>
<path d="M194.613 46.9565V12.1739H207.552L206.578 32.8348H207.344L215.204 12.1739H225.083V32.8348H225.848L232.665 12.1739H245.674L232.944 46.9565H216.665V32H216.109L210.683 46.9565H194.613Z" fill="#001A13"/>
<path d="M247.191 35.3391C247.191 28.3826 248.953 22.6087 252.478 18.0174C256.049 13.4261 261.382 11.1304 268.478 11.1304C273.626 11.1304 277.382 12.1971 279.747 14.3304C282.159 16.4174 283.365 19.6406 283.365 24C283.365 28.3594 282.646 32.3014 281.208 35.8261C279.817 39.3507 277.475 42.2725 274.182 44.5913C270.889 46.8638 266.762 48 261.799 48C252.06 48 247.191 43.7797 247.191 35.3391ZM262.913 24.2087L260.547 37.8435H262.565C264.142 37.8435 265.324 37.6812 266.113 37.3565C266.901 36.9855 267.411 36.1739 267.643 34.9217L270.078 21.287H267.991C266.414 21.287 265.231 21.4725 264.443 21.8435C263.655 22.1681 263.144 22.9565 262.913 24.2087Z" fill="#001A13"/>
<path d="M292.676 12.1739H299.284L302.276 16.0696C305.29 13.5652 308.815 11.9188 312.849 11.1304L311.389 24.2783C310.322 24.3246 308.884 24.6029 307.076 25.113C305.267 25.6232 303.992 26.2725 303.249 27.0609L299.771 46.9565H286.554L292.676 12.1739Z" fill="#001A13"/>
<path d="M331.98 46.9565L329.267 33.1826H328.78L326.415 46.9565H313.197L321.128 1.73913L334.554 0.695652L330.519 23.6522H331.006L337.823 12.1739H352.084L341.51 28.7304L346.241 46.9565H331.98Z" fill="#001A13"/>
<path fill-rule="evenodd" clip-rule="evenodd" d="M85.1209 46.9109L92.1992 14.2915C92.4842 13.0774 93.1018 12.1061 94.1469 12.1061C94.8595 12.1061 95.572 13.563 95.8096 14.6153L100.154 34.365L97.8523 46.9109H85.1209ZM116.047 46.9109H116.027C116.034 46.9111 116.04 46.9111 116.047 46.9109Z" fill="#001A13"/>
<path d="M116.332 34.6887C115.049 35.66 113.672 34.6887 113.292 32.989L111.629 25.5424C111.486 24.8948 111.201 24.4092 110.774 24.652C110.394 24.9758 110.394 25.6233 110.536 26.2708L114.527 44.8064C114.714 45.6847 115.549 46.8943 116.027 46.9109H116.047H117.947C118.774 46.3715 119.185 45.8988 119.562 43.9161L126.736 12.1061H114.004L112.777 18.0148L116.332 34.6887Z" fill="#001A13"/>
<path d="M112.056 14.6962C111.691 13.0231 110.964 12.1061 110.346 12.1061H94.1469C94.8595 12.1061 95.572 13.563 95.8096 14.6153L100.154 34.365L102.413 44.6445C102.702 45.9439 103.22 46.9109 103.838 46.9109H105.833C105.311 46.9109 104.646 45.5349 104.503 44.8064L103.268 39.1405C103.125 38.5739 102.983 37.6836 103.458 37.4407C103.933 37.1979 104.123 37.6836 104.313 38.5739L105.691 44.8064C105.959 45.7303 106.641 46.9109 107.258 46.9109H109.444C108.779 46.9109 108.018 45.6158 107.828 44.8064L106.688 39.6262C106.593 39.2214 106.498 38.493 106.973 38.1692C107.353 38.0073 107.591 38.2502 107.828 39.1405L109.111 44.8064C109.301 45.6158 110.061 46.9109 110.774 46.9109H112.579C112.009 46.9109 111.344 45.5349 111.154 44.8064L109.681 37.8454C109.586 37.3598 109.481 36.5832 109.966 36.3076C110.394 36.0647 110.631 36.5504 110.869 37.6026L112.484 44.8064C112.674 45.5349 113.339 46.9109 113.767 46.9109H116.027C115.549 46.8943 114.714 45.6847 114.527 44.8064L110.536 26.2708C110.394 25.6233 110.394 24.9758 110.774 24.652C111.201 24.4092 111.486 24.8948 111.629 25.5424L113.292 32.989C113.672 34.6887 115.049 35.66 116.332 34.6887L112.777 18.0148L112.056 14.6962Z" fill="#50C878"/>
<path d="M107.258 46.9109C106.641 46.9109 105.959 45.7303 105.691 44.8064L104.313 38.5739C104.123 37.6836 103.933 37.1979 103.458 37.4407C102.983 37.6836 103.125 38.5739 103.268 39.1405L104.503 44.8064C104.646 45.5349 105.311 46.9109 105.833 46.9109H107.258Z" fill="#001A13"/>
<path d="M110.774 46.9109C110.061 46.9109 109.301 45.6158 109.111 44.8064L107.828 39.1405C107.591 38.2502 107.353 38.0073 106.973 38.1692C106.498 38.493 106.593 39.2214 106.688 39.6262L107.828 44.8064C108.018 45.6158 108.779 46.9109 109.444 46.9109H110.774Z" fill="#001A13"/>
<path d="M113.767 46.9109C113.339 46.9109 112.674 45.5349 112.484 44.8064L110.869 37.6026C110.631 36.5504 110.394 36.0647 109.966 36.3076C109.481 36.5832 109.586 37.3598 109.681 37.8454L111.154 44.8064C111.344 45.5349 112.009 46.9109 112.579 46.9109H113.767Z" fill="#001A13"/>
</svg>
