<svg width="1240" height="312" viewBox="0 0 1240 312" fill="none" xmlns="http://www.w3.org/2000/svg">
<g opacity="0.2">
<g clip-path="url(#clip0_327_8084)">
<path d="M104.981 -53.1959C103.335 -59.6803 100.065 -63.2346 97.2863 -63.2346H24.396C27.6023 -63.2346 30.8086 -57.5878 31.8774 -53.5096L51.4274 23.036L61.5893 62.8773C62.892 67.9132 65.2231 71.6613 68.0019 71.6613H76.9797C74.6284 71.6613 71.6358 66.3282 70.9945 63.5048L65.4369 41.545C64.7956 39.349 64.1544 35.8982 66.2919 34.957C68.4294 34.0159 69.2845 35.8982 70.1395 39.349L76.3384 63.5048C77.5473 67.0856 80.6134 71.6613 83.3922 71.6613H93.225C90.2325 71.6613 86.8123 66.6419 85.9573 63.5048L80.8272 43.4272C80.3997 41.8587 79.9722 39.0353 82.1098 37.7804C83.8198 37.153 84.8885 38.0941 85.9573 41.545L91.7287 63.5048C92.5838 66.6419 96.0038 71.6613 99.2101 71.6613H107.333C104.768 71.6613 101.775 66.3282 100.92 63.5048L94.2938 36.5256C93.8663 34.6433 93.3922 31.6335 95.5763 30.5651C97.5001 29.6239 98.5688 31.5062 99.6376 35.5845L106.905 63.5048C107.76 66.3282 110.753 71.6613 112.677 71.6613H122.849C120.695 71.5972 116.94 66.9087 116.097 63.5048L98.1413 -8.33512C97.5001 -10.8448 97.5001 -13.3545 99.2101 -14.6094C101.134 -15.5505 102.416 -13.6682 103.058 -11.1585L110.539 17.7029C112.249 24.2908 118.448 28.0554 124.219 24.2908L108.223 -40.3337L104.981 -53.1959Z" fill="#50C878"/>
</g>
<g clip-path="url(#clip1_327_8084)">
<path d="M37.9815 80.8041C36.3352 74.3197 33.0651 70.7654 30.2863 70.7654H-42.604C-39.3977 70.7654 -36.1914 76.4122 -35.1226 80.4904L-15.5726 157.036L-5.41069 196.877C-4.10799 201.913 -1.77691 205.661 1.0019 205.661H9.97966C7.62836 205.661 4.6358 200.328 3.99454 197.505L-1.56311 175.545C-2.20437 173.349 -2.84565 169.898 -0.708103 168.957C1.42944 168.016 2.28447 169.898 3.13949 173.349L9.33839 197.505C10.5473 201.086 13.6134 205.661 16.3922 205.661H26.225C23.2325 205.661 19.8123 200.642 18.9573 197.505L13.8272 177.427C13.3997 175.859 12.9722 173.035 15.1098 171.78C16.8198 171.153 17.8885 172.094 18.9573 175.545L24.7287 197.505C25.5838 200.642 29.0038 205.661 32.2101 205.661H40.3328C37.7677 205.661 34.7752 200.328 33.9202 197.505L27.2938 170.526C26.8663 168.643 26.3922 165.634 28.5763 164.565C30.5001 163.624 31.5688 165.506 32.6376 169.584L39.9053 197.505C40.7603 200.328 43.7529 205.661 45.6767 205.661H55.8487C53.6953 205.597 49.9401 200.909 49.0967 197.505L31.1413 125.665C30.5001 123.155 30.5001 120.645 32.2101 119.391C34.1339 118.45 35.4165 120.332 36.0577 122.841L43.5391 151.703C45.2492 158.291 51.4481 162.055 57.2194 158.291L41.2234 93.6663L37.9815 80.8041Z" fill="#50C878"/>
</g>
<g clip-path="url(#clip2_327_8084)">
<path d="M104.981 214.804C103.335 208.32 100.065 204.765 97.2863 204.765H24.396C27.6023 204.765 30.8086 210.412 31.8774 214.49L51.4274 291.036L61.5893 330.877C62.892 335.913 65.2231 339.661 68.0019 339.661H76.9797C74.6284 339.661 71.6358 334.328 70.9945 331.505L65.4369 309.545C64.7956 307.349 64.1544 303.898 66.2919 302.957C68.4294 302.016 69.2845 303.898 70.1395 307.349L76.3384 331.505C77.5473 335.086 80.6134 339.661 83.3922 339.661H93.225C90.2325 339.661 86.8123 334.642 85.9573 331.505L80.8272 311.427C80.3997 309.859 79.9722 307.035 82.1098 305.78C83.8198 305.153 84.8885 306.094 85.9573 309.545L91.7287 331.505C92.5838 334.642 96.0038 339.661 99.2101 339.661H107.333C104.768 339.661 101.775 334.328 100.92 331.505L94.2938 304.526C93.8663 302.643 93.3922 299.634 95.5763 298.565C97.5001 297.624 98.5688 299.506 99.6376 303.584L106.905 331.505C107.76 334.328 110.753 339.661 112.677 339.661H122.849C120.695 339.597 116.94 334.909 116.097 331.505L98.1413 259.665C97.5001 257.155 97.5001 254.645 99.2101 253.391C101.134 252.45 102.416 254.332 103.058 256.841L110.539 285.703C112.249 292.291 118.448 296.055 124.219 292.291L108.223 227.666L104.981 214.804Z" fill="#50C878"/>
</g>
<g clip-path="url(#clip3_327_8084)">
<path d="M238.981 -53.1959C237.335 -59.6803 234.065 -63.2346 231.286 -63.2346H158.396C161.602 -63.2346 164.809 -57.5878 165.877 -53.5096L185.427 23.036L195.589 62.8773C196.892 67.9132 199.223 71.6613 202.002 71.6613H210.98C208.628 71.6613 205.636 66.3282 204.995 63.5048L199.437 41.545C198.796 39.349 198.154 35.8982 200.292 34.957C202.429 34.0159 203.284 35.8982 204.139 39.349L210.338 63.5048C211.547 67.0856 214.613 71.6613 217.392 71.6613H227.225C224.232 71.6613 220.812 66.6419 219.957 63.5048L214.827 43.4272C214.4 41.8587 213.972 39.0353 216.11 37.7804C217.82 37.153 218.889 38.0941 219.957 41.545L225.729 63.5048C226.584 66.6419 230.004 71.6613 233.21 71.6613H241.333C238.768 71.6613 235.775 66.3282 234.92 63.5048L228.294 36.5256C227.866 34.6433 227.392 31.6335 229.576 30.5651C231.5 29.6239 232.569 31.5062 233.638 35.5845L240.905 63.5048C241.76 66.3282 244.753 71.6613 246.677 71.6613H256.849C254.695 71.5972 250.94 66.9087 250.097 63.5048L232.141 -8.33512C231.5 -10.8448 231.5 -13.3545 233.21 -14.6094C235.134 -15.5505 236.416 -13.6682 237.058 -11.1585L244.539 17.7029C246.249 24.2908 252.448 28.0554 258.219 24.2908L242.223 -40.3337L238.981 -53.1959Z" fill="#50C878"/>
</g>
<g clip-path="url(#clip4_327_8084)">
<path d="M171.981 80.8041C170.335 74.3197 167.065 70.7654 164.286 70.7654H91.396C94.6023 70.7654 97.8086 76.4122 98.8774 80.4904L118.427 157.036L128.589 196.877C129.892 201.913 132.223 205.661 135.002 205.661H143.98C141.628 205.661 138.636 200.328 137.995 197.505L132.437 175.545C131.796 173.349 131.154 169.898 133.292 168.957C135.429 168.016 136.284 169.898 137.139 173.349L143.338 197.505C144.547 201.086 147.613 205.661 150.392 205.661H160.225C157.232 205.661 153.812 200.642 152.957 197.505L147.827 177.427C147.4 175.859 146.972 173.035 149.11 171.78C150.82 171.153 151.889 172.094 152.957 175.545L158.729 197.505C159.584 200.642 163.004 205.661 166.21 205.661H174.333C171.768 205.661 168.775 200.328 167.92 197.505L161.294 170.526C160.866 168.643 160.392 165.634 162.576 164.565C164.5 163.624 165.569 165.506 166.638 169.584L173.905 197.505C174.76 200.328 177.753 205.661 179.677 205.661H189.849C187.695 205.597 183.94 200.909 183.097 197.505L165.141 125.665C164.5 123.155 164.5 120.645 166.21 119.391C168.134 118.45 169.416 120.332 170.058 122.841L177.539 151.703C179.249 158.291 185.448 162.055 191.219 158.291L175.223 93.6663L171.981 80.8041Z" fill="#50C878"/>
</g>
<g clip-path="url(#clip5_327_8084)">
<path d="M238.981 214.804C237.335 208.32 234.065 204.765 231.286 204.765H158.396C161.602 204.765 164.809 210.412 165.877 214.49L185.427 291.036L195.589 330.877C196.892 335.913 199.223 339.661 202.002 339.661H210.98C208.628 339.661 205.636 334.328 204.995 331.505L199.437 309.545C198.796 307.349 198.154 303.898 200.292 302.957C202.429 302.016 203.284 303.898 204.139 307.349L210.338 331.505C211.547 335.086 214.613 339.661 217.392 339.661H227.225C224.232 339.661 220.812 334.642 219.957 331.505L214.827 311.427C214.4 309.859 213.972 307.035 216.11 305.78C217.82 305.153 218.889 306.094 219.957 309.545L225.729 331.505C226.584 334.642 230.004 339.661 233.21 339.661H241.333C238.768 339.661 235.775 334.328 234.92 331.505L228.294 304.526C227.866 302.643 227.392 299.634 229.576 298.565C231.5 297.624 232.569 299.506 233.638 303.584L240.905 331.505C241.76 334.328 244.753 339.661 246.677 339.661H256.849C254.695 339.597 250.94 334.909 250.097 331.505L232.141 259.665C231.5 257.155 231.5 254.645 233.21 253.391C235.134 252.45 236.416 254.332 237.058 256.841L244.539 285.703C246.249 292.291 252.448 296.055 258.219 292.291L242.223 227.666L238.981 214.804Z" fill="#50C878"/>
</g>
<g clip-path="url(#clip6_327_8084)">
<path d="M372.981 -53.1959C371.335 -59.6803 368.065 -63.2346 365.286 -63.2346H292.396C295.602 -63.2346 298.809 -57.5878 299.877 -53.5096L319.427 23.036L329.589 62.8773C330.892 67.9132 333.223 71.6613 336.002 71.6613H344.98C342.628 71.6613 339.636 66.3282 338.995 63.5048L333.437 41.545C332.796 39.349 332.154 35.8982 334.292 34.957C336.429 34.0159 337.284 35.8982 338.139 39.349L344.338 63.5048C345.547 67.0856 348.613 71.6613 351.392 71.6613H361.225C358.232 71.6613 354.812 66.6419 353.957 63.5048L348.827 43.4272C348.4 41.8587 347.972 39.0353 350.11 37.7804C351.82 37.153 352.889 38.0941 353.957 41.545L359.729 63.5048C360.584 66.6419 364.004 71.6613 367.21 71.6613H375.333C372.768 71.6613 369.775 66.3282 368.92 63.5048L362.294 36.5256C361.866 34.6433 361.392 31.6335 363.576 30.5651C365.5 29.6239 366.569 31.5062 367.638 35.5845L374.905 63.5048C375.76 66.3282 378.753 71.6613 380.677 71.6613H390.849C388.695 71.5972 384.94 66.9087 384.097 63.5048L366.141 -8.33512C365.5 -10.8448 365.5 -13.3545 367.21 -14.6094C369.134 -15.5505 370.416 -13.6682 371.058 -11.1585L378.539 17.7029C380.249 24.2908 386.448 28.0554 392.219 24.2908L376.223 -40.3337L372.981 -53.1959Z" fill="#50C878"/>
</g>
<g clip-path="url(#clip7_327_8084)">
<path d="M305.981 80.8041C304.335 74.3197 301.065 70.7654 298.286 70.7654H225.396C228.602 70.7654 231.809 76.4122 232.877 80.4904L252.427 157.036L262.589 196.877C263.892 201.913 266.223 205.661 269.002 205.661H277.98C275.628 205.661 272.636 200.328 271.995 197.505L266.437 175.545C265.796 173.349 265.154 169.898 267.292 168.957C269.429 168.016 270.284 169.898 271.139 173.349L277.338 197.505C278.547 201.086 281.613 205.661 284.392 205.661H294.225C291.232 205.661 287.812 200.642 286.957 197.505L281.827 177.427C281.4 175.859 280.972 173.035 283.11 171.78C284.82 171.153 285.889 172.094 286.957 175.545L292.729 197.505C293.584 200.642 297.004 205.661 300.21 205.661H308.333C305.768 205.661 302.775 200.328 301.92 197.505L295.294 170.526C294.866 168.643 294.392 165.634 296.576 164.565C298.5 163.624 299.569 165.506 300.638 169.584L307.905 197.505C308.76 200.328 311.753 205.661 313.677 205.661H323.849C321.695 205.597 317.94 200.909 317.097 197.505L299.141 125.665C298.5 123.155 298.5 120.645 300.21 119.391C302.134 118.45 303.416 120.332 304.058 122.841L311.539 151.703C313.249 158.291 319.448 162.055 325.219 158.291L309.223 93.6663L305.981 80.8041Z" fill="#50C878"/>
</g>
<g clip-path="url(#clip8_327_8084)">
<path d="M372.981 214.804C371.335 208.32 368.065 204.765 365.286 204.765H292.396C295.602 204.765 298.809 210.412 299.877 214.49L319.427 291.036L329.589 330.877C330.892 335.913 333.223 339.661 336.002 339.661H344.98C342.628 339.661 339.636 334.328 338.995 331.505L333.437 309.545C332.796 307.349 332.154 303.898 334.292 302.957C336.429 302.016 337.284 303.898 338.139 307.349L344.338 331.505C345.547 335.086 348.613 339.661 351.392 339.661H361.225C358.232 339.661 354.812 334.642 353.957 331.505L348.827 311.427C348.4 309.859 347.972 307.035 350.11 305.78C351.82 305.153 352.889 306.094 353.957 309.545L359.729 331.505C360.584 334.642 364.004 339.661 367.21 339.661H375.333C372.768 339.661 369.775 334.328 368.92 331.505L362.294 304.526C361.866 302.643 361.392 299.634 363.576 298.565C365.5 297.624 366.569 299.506 367.638 303.584L374.905 331.505C375.76 334.328 378.753 339.661 380.677 339.661H390.849C388.695 339.597 384.94 334.909 384.097 331.505L366.141 259.665C365.5 257.155 365.5 254.645 367.21 253.391C369.134 252.45 370.416 254.332 371.058 256.841L378.539 285.703C380.249 292.291 386.448 296.055 392.219 292.291L376.223 227.666L372.981 214.804Z" fill="#50C878"/>
</g>
<g clip-path="url(#clip9_327_8084)">
<path d="M506.981 -53.1959C505.335 -59.6803 502.065 -63.2346 499.286 -63.2346H426.396C429.602 -63.2346 432.809 -57.5878 433.877 -53.5096L453.427 23.036L463.589 62.8773C464.892 67.9132 467.223 71.6613 470.002 71.6613H478.98C476.628 71.6613 473.636 66.3282 472.995 63.5048L467.437 41.545C466.796 39.349 466.154 35.8982 468.292 34.957C470.429 34.0159 471.284 35.8982 472.139 39.349L478.338 63.5048C479.547 67.0856 482.613 71.6613 485.392 71.6613H495.225C492.232 71.6613 488.812 66.6419 487.957 63.5048L482.827 43.4272C482.4 41.8587 481.972 39.0353 484.11 37.7804C485.82 37.153 486.889 38.0941 487.957 41.545L493.729 63.5048C494.584 66.6419 498.004 71.6613 501.21 71.6613H509.333C506.768 71.6613 503.775 66.3282 502.92 63.5048L496.294 36.5256C495.866 34.6433 495.392 31.6335 497.576 30.5651C499.5 29.6239 500.569 31.5062 501.638 35.5845L508.905 63.5048C509.76 66.3282 512.753 71.6613 514.677 71.6613H524.849C522.695 71.5972 518.94 66.9087 518.097 63.5048L500.141 -8.33512C499.5 -10.8448 499.5 -13.3545 501.21 -14.6094C503.134 -15.5505 504.416 -13.6682 505.058 -11.1585L512.539 17.7029C514.249 24.2908 520.448 28.0554 526.219 24.2908L510.223 -40.3337L506.981 -53.1959Z" fill="#50C878"/>
</g>
<g clip-path="url(#clip10_327_8084)">
<path d="M439.981 80.8041C438.335 74.3197 435.065 70.7654 432.286 70.7654H359.396C362.602 70.7654 365.809 76.4122 366.877 80.4904L386.427 157.036L396.589 196.877C397.892 201.913 400.223 205.661 403.002 205.661H411.98C409.628 205.661 406.636 200.328 405.995 197.505L400.437 175.545C399.796 173.349 399.154 169.898 401.292 168.957C403.429 168.016 404.284 169.898 405.139 173.349L411.338 197.505C412.547 201.086 415.613 205.661 418.392 205.661H428.225C425.232 205.661 421.812 200.642 420.957 197.505L415.827 177.427C415.4 175.859 414.972 173.035 417.11 171.78C418.82 171.153 419.889 172.094 420.957 175.545L426.729 197.505C427.584 200.642 431.004 205.661 434.21 205.661H442.333C439.768 205.661 436.775 200.328 435.92 197.505L429.294 170.526C428.866 168.643 428.392 165.634 430.576 164.565C432.5 163.624 433.569 165.506 434.638 169.584L441.905 197.505C442.76 200.328 445.753 205.661 447.677 205.661H457.849C455.695 205.597 451.94 200.909 451.097 197.505L433.141 125.665C432.5 123.155 432.5 120.645 434.21 119.391C436.134 118.45 437.416 120.332 438.058 122.841L445.539 151.703C447.249 158.291 453.448 162.055 459.219 158.291L443.223 93.6663L439.981 80.8041Z" fill="#50C878"/>
</g>
<g clip-path="url(#clip11_327_8084)">
<path d="M506.981 214.804C505.335 208.32 502.065 204.765 499.286 204.765H426.396C429.602 204.765 432.809 210.412 433.877 214.49L453.427 291.036L463.589 330.877C464.892 335.913 467.223 339.661 470.002 339.661H478.98C476.628 339.661 473.636 334.328 472.995 331.505L467.437 309.545C466.796 307.349 466.154 303.898 468.292 302.957C470.429 302.016 471.284 303.898 472.139 307.349L478.338 331.505C479.547 335.086 482.613 339.661 485.392 339.661H495.225C492.232 339.661 488.812 334.642 487.957 331.505L482.827 311.427C482.4 309.859 481.972 307.035 484.11 305.78C485.82 305.153 486.889 306.094 487.957 309.545L493.729 331.505C494.584 334.642 498.004 339.661 501.21 339.661H509.333C506.768 339.661 503.775 334.328 502.92 331.505L496.294 304.526C495.866 302.643 495.392 299.634 497.576 298.565C499.5 297.624 500.569 299.506 501.638 303.584L508.905 331.505C509.76 334.328 512.753 339.661 514.677 339.661H524.849C522.695 339.597 518.94 334.909 518.097 331.505L500.141 259.665C499.5 257.155 499.5 254.645 501.21 253.391C503.134 252.45 504.416 254.332 505.058 256.841L512.539 285.703C514.249 292.291 520.448 296.055 526.219 292.291L510.223 227.666L506.981 214.804Z" fill="#50C878"/>
</g>
<g clip-path="url(#clip12_327_8084)">
<path d="M640.981 -53.1959C639.335 -59.6803 636.065 -63.2346 633.286 -63.2346H560.396C563.602 -63.2346 566.809 -57.5878 567.877 -53.5096L587.427 23.036L597.589 62.8773C598.892 67.9132 601.223 71.6613 604.002 71.6613H612.98C610.628 71.6613 607.636 66.3282 606.995 63.5048L601.437 41.545C600.796 39.349 600.154 35.8982 602.292 34.957C604.429 34.0159 605.284 35.8982 606.139 39.349L612.338 63.5048C613.547 67.0856 616.613 71.6613 619.392 71.6613H629.225C626.232 71.6613 622.812 66.6419 621.957 63.5048L616.827 43.4272C616.4 41.8587 615.972 39.0353 618.11 37.7804C619.82 37.153 620.889 38.0941 621.957 41.545L627.729 63.5048C628.584 66.6419 632.004 71.6613 635.21 71.6613H643.333C640.768 71.6613 637.775 66.3282 636.92 63.5048L630.294 36.5256C629.866 34.6433 629.392 31.6335 631.576 30.5651C633.5 29.6239 634.569 31.5062 635.638 35.5845L642.905 63.5048C643.76 66.3282 646.753 71.6613 648.677 71.6613H658.849C656.695 71.5972 652.94 66.9087 652.097 63.5048L634.141 -8.33512C633.5 -10.8448 633.5 -13.3545 635.21 -14.6094C637.134 -15.5505 638.416 -13.6682 639.058 -11.1585L646.539 17.7029C648.249 24.2908 654.448 28.0554 660.219 24.2908L644.223 -40.3337L640.981 -53.1959Z" fill="#50C878"/>
</g>
<g clip-path="url(#clip13_327_8084)">
<path d="M573.981 80.8041C572.335 74.3197 569.065 70.7654 566.286 70.7654H493.396C496.602 70.7654 499.809 76.4122 500.877 80.4904L520.427 157.036L530.589 196.877C531.892 201.913 534.223 205.661 537.002 205.661H545.98C543.628 205.661 540.636 200.328 539.995 197.505L534.437 175.545C533.796 173.349 533.154 169.898 535.292 168.957C537.429 168.016 538.284 169.898 539.139 173.349L545.338 197.505C546.547 201.086 549.613 205.661 552.392 205.661H562.225C559.232 205.661 555.812 200.642 554.957 197.505L549.827 177.427C549.4 175.859 548.972 173.035 551.11 171.78C552.82 171.153 553.889 172.094 554.957 175.545L560.729 197.505C561.584 200.642 565.004 205.661 568.21 205.661H576.333C573.768 205.661 570.775 200.328 569.92 197.505L563.294 170.526C562.866 168.643 562.392 165.634 564.576 164.565C566.5 163.624 567.569 165.506 568.638 169.584L575.905 197.505C576.76 200.328 579.753 205.661 581.677 205.661H591.849C589.695 205.597 585.94 200.909 585.097 197.505L567.141 125.665C566.5 123.155 566.5 120.645 568.21 119.391C570.134 118.45 571.416 120.332 572.058 122.841L579.539 151.703C581.249 158.291 587.448 162.055 593.219 158.291L577.223 93.6663L573.981 80.8041Z" fill="#50C878"/>
</g>
<g clip-path="url(#clip14_327_8084)">
<path d="M640.981 214.804C639.335 208.32 636.065 204.765 633.286 204.765H560.396C563.602 204.765 566.809 210.412 567.877 214.49L587.427 291.036L597.589 330.877C598.892 335.913 601.223 339.661 604.002 339.661H612.98C610.628 339.661 607.636 334.328 606.995 331.505L601.437 309.545C600.796 307.349 600.154 303.898 602.292 302.957C604.429 302.016 605.284 303.898 606.139 307.349L612.338 331.505C613.547 335.086 616.613 339.661 619.392 339.661H629.225C626.232 339.661 622.812 334.642 621.957 331.505L616.827 311.427C616.4 309.859 615.972 307.035 618.11 305.78C619.82 305.153 620.889 306.094 621.957 309.545L627.729 331.505C628.584 334.642 632.004 339.661 635.21 339.661H643.333C640.768 339.661 637.775 334.328 636.92 331.505L630.294 304.526C629.866 302.643 629.392 299.634 631.576 298.565C633.5 297.624 634.569 299.506 635.638 303.584L642.905 331.505C643.76 334.328 646.753 339.661 648.677 339.661H658.849C656.695 339.597 652.94 334.909 652.097 331.505L634.141 259.665C633.5 257.155 633.5 254.645 635.21 253.391C637.134 252.45 638.416 254.332 639.058 256.841L646.539 285.703C648.249 292.291 654.448 296.055 660.219 292.291L644.223 227.666L640.981 214.804Z" fill="#50C878"/>
</g>
<g clip-path="url(#clip15_327_8084)">
<path d="M774.981 -53.1959C773.335 -59.6803 770.065 -63.2346 767.286 -63.2346H694.396C697.602 -63.2346 700.809 -57.5878 701.877 -53.5096L721.427 23.036L731.589 62.8773C732.892 67.9132 735.223 71.6613 738.002 71.6613H746.98C744.628 71.6613 741.636 66.3282 740.995 63.5048L735.437 41.545C734.796 39.349 734.154 35.8982 736.292 34.957C738.429 34.0159 739.284 35.8982 740.139 39.349L746.338 63.5048C747.547 67.0856 750.613 71.6613 753.392 71.6613H763.225C760.232 71.6613 756.812 66.6419 755.957 63.5048L750.827 43.4272C750.4 41.8587 749.972 39.0353 752.11 37.7804C753.82 37.153 754.889 38.0941 755.957 41.545L761.729 63.5048C762.584 66.6419 766.004 71.6613 769.21 71.6613H777.333C774.768 71.6613 771.775 66.3282 770.92 63.5048L764.294 36.5256C763.866 34.6433 763.392 31.6335 765.576 30.5651C767.5 29.6239 768.569 31.5062 769.638 35.5845L776.905 63.5048C777.76 66.3282 780.753 71.6613 782.677 71.6613H792.849C790.695 71.5972 786.94 66.9087 786.097 63.5048L768.141 -8.33512C767.5 -10.8448 767.5 -13.3545 769.21 -14.6094C771.134 -15.5505 772.416 -13.6682 773.058 -11.1585L780.539 17.7029C782.249 24.2908 788.448 28.0554 794.219 24.2908L778.223 -40.3337L774.981 -53.1959Z" fill="#50C878"/>
</g>
<g clip-path="url(#clip16_327_8084)">
<path d="M707.981 80.8041C706.335 74.3197 703.065 70.7654 700.286 70.7654H627.396C630.602 70.7654 633.809 76.4122 634.877 80.4904L654.427 157.036L664.589 196.877C665.892 201.913 668.223 205.661 671.002 205.661H679.98C677.628 205.661 674.636 200.328 673.995 197.505L668.437 175.545C667.796 173.349 667.154 169.898 669.292 168.957C671.429 168.016 672.284 169.898 673.139 173.349L679.338 197.505C680.547 201.086 683.613 205.661 686.392 205.661H696.225C693.232 205.661 689.812 200.642 688.957 197.505L683.827 177.427C683.4 175.859 682.972 173.035 685.11 171.78C686.82 171.153 687.889 172.094 688.957 175.545L694.729 197.505C695.584 200.642 699.004 205.661 702.21 205.661H710.333C707.768 205.661 704.775 200.328 703.92 197.505L697.294 170.526C696.866 168.643 696.392 165.634 698.576 164.565C700.5 163.624 701.569 165.506 702.638 169.584L709.905 197.505C710.76 200.328 713.753 205.661 715.677 205.661H725.849C723.695 205.597 719.94 200.909 719.097 197.505L701.141 125.665C700.5 123.155 700.5 120.645 702.21 119.391C704.134 118.45 705.416 120.332 706.058 122.841L713.539 151.703C715.249 158.291 721.448 162.055 727.219 158.291L711.223 93.6663L707.981 80.8041Z" fill="#50C878"/>
</g>
<g clip-path="url(#clip17_327_8084)">
<path d="M774.981 214.804C773.335 208.32 770.065 204.765 767.286 204.765H694.396C697.602 204.765 700.809 210.412 701.877 214.49L721.427 291.036L731.589 330.877C732.892 335.913 735.223 339.661 738.002 339.661H746.98C744.628 339.661 741.636 334.328 740.995 331.505L735.437 309.545C734.796 307.349 734.154 303.898 736.292 302.957C738.429 302.016 739.284 303.898 740.139 307.349L746.338 331.505C747.547 335.086 750.613 339.661 753.392 339.661H763.225C760.232 339.661 756.812 334.642 755.957 331.505L750.827 311.427C750.4 309.859 749.972 307.035 752.11 305.78C753.82 305.153 754.889 306.094 755.957 309.545L761.729 331.505C762.584 334.642 766.004 339.661 769.21 339.661H777.333C774.768 339.661 771.775 334.328 770.92 331.505L764.294 304.526C763.866 302.643 763.392 299.634 765.576 298.565C767.5 297.624 768.569 299.506 769.638 303.584L776.905 331.505C777.76 334.328 780.753 339.661 782.677 339.661H792.849C790.695 339.597 786.94 334.909 786.097 331.505L768.141 259.665C767.5 257.155 767.5 254.645 769.21 253.391C771.134 252.45 772.416 254.332 773.058 256.841L780.539 285.703C782.249 292.291 788.448 296.055 794.219 292.291L778.223 227.666L774.981 214.804Z" fill="#50C878"/>
</g>
<g clip-path="url(#clip18_327_8084)">
<path d="M908.981 -53.1959C907.335 -59.6803 904.065 -63.2346 901.286 -63.2346H828.396C831.602 -63.2346 834.809 -57.5878 835.877 -53.5096L855.427 23.036L865.589 62.8773C866.892 67.9132 869.223 71.6613 872.002 71.6613H880.98C878.628 71.6613 875.636 66.3282 874.995 63.5048L869.437 41.545C868.796 39.349 868.154 35.8982 870.292 34.957C872.429 34.0159 873.284 35.8982 874.139 39.349L880.338 63.5048C881.547 67.0856 884.613 71.6613 887.392 71.6613H897.225C894.232 71.6613 890.812 66.6419 889.957 63.5048L884.827 43.4272C884.4 41.8587 883.972 39.0353 886.11 37.7804C887.82 37.153 888.889 38.0941 889.957 41.545L895.729 63.5048C896.584 66.6419 900.004 71.6613 903.21 71.6613H911.333C908.768 71.6613 905.775 66.3282 904.92 63.5048L898.294 36.5256C897.866 34.6433 897.392 31.6335 899.576 30.5651C901.5 29.6239 902.569 31.5062 903.638 35.5845L910.905 63.5048C911.76 66.3282 914.753 71.6613 916.677 71.6613H926.849C924.695 71.5972 920.94 66.9087 920.097 63.5048L902.141 -8.33512C901.5 -10.8448 901.5 -13.3545 903.21 -14.6094C905.134 -15.5505 906.416 -13.6682 907.058 -11.1585L914.539 17.7029C916.249 24.2908 922.448 28.0554 928.219 24.2908L912.223 -40.3337L908.981 -53.1959Z" fill="#50C878"/>
</g>
<g clip-path="url(#clip19_327_8084)">
<path d="M841.981 80.8041C840.335 74.3197 837.065 70.7654 834.286 70.7654H761.396C764.602 70.7654 767.809 76.4122 768.877 80.4904L788.427 157.036L798.589 196.877C799.892 201.913 802.223 205.661 805.002 205.661H813.98C811.628 205.661 808.636 200.328 807.995 197.505L802.437 175.545C801.796 173.349 801.154 169.898 803.292 168.957C805.429 168.016 806.284 169.898 807.139 173.349L813.338 197.505C814.547 201.086 817.613 205.661 820.392 205.661H830.225C827.232 205.661 823.812 200.642 822.957 197.505L817.827 177.427C817.4 175.859 816.972 173.035 819.11 171.78C820.82 171.153 821.889 172.094 822.957 175.545L828.729 197.505C829.584 200.642 833.004 205.661 836.21 205.661H844.333C841.768 205.661 838.775 200.328 837.92 197.505L831.294 170.526C830.866 168.643 830.392 165.634 832.576 164.565C834.5 163.624 835.569 165.506 836.638 169.584L843.905 197.505C844.76 200.328 847.753 205.661 849.677 205.661H859.849C857.695 205.597 853.94 200.909 853.097 197.505L835.141 125.665C834.5 123.155 834.5 120.645 836.21 119.391C838.134 118.45 839.416 120.332 840.058 122.841L847.539 151.703C849.249 158.291 855.448 162.055 861.219 158.291L845.223 93.6663L841.981 80.8041Z" fill="#50C878"/>
</g>
<g clip-path="url(#clip20_327_8084)">
<path d="M908.981 214.804C907.335 208.32 904.065 204.765 901.286 204.765H828.396C831.602 204.765 834.809 210.412 835.877 214.49L855.427 291.036L865.589 330.877C866.892 335.913 869.223 339.661 872.002 339.661H880.98C878.628 339.661 875.636 334.328 874.995 331.505L869.437 309.545C868.796 307.349 868.154 303.898 870.292 302.957C872.429 302.016 873.284 303.898 874.139 307.349L880.338 331.505C881.547 335.086 884.613 339.661 887.392 339.661H897.225C894.232 339.661 890.812 334.642 889.957 331.505L884.827 311.427C884.4 309.859 883.972 307.035 886.11 305.78C887.82 305.153 888.889 306.094 889.957 309.545L895.729 331.505C896.584 334.642 900.004 339.661 903.21 339.661H911.333C908.768 339.661 905.775 334.328 904.92 331.505L898.294 304.526C897.866 302.643 897.392 299.634 899.576 298.565C901.5 297.624 902.569 299.506 903.638 303.584L910.905 331.505C911.76 334.328 914.753 339.661 916.677 339.661H926.849C924.695 339.597 920.94 334.909 920.097 331.505L902.141 259.665C901.5 257.155 901.5 254.645 903.21 253.391C905.134 252.45 906.416 254.332 907.058 256.841L914.539 285.703C916.249 292.291 922.448 296.055 928.219 292.291L912.223 227.666L908.981 214.804Z" fill="#50C878"/>
</g>
<g clip-path="url(#clip21_327_8084)">
<path d="M1042.98 -53.1959C1041.34 -59.6803 1038.07 -63.2346 1035.29 -63.2346H962.396C965.602 -63.2346 968.809 -57.5878 969.877 -53.5096L989.427 23.036L999.589 62.8773C1000.89 67.9132 1003.22 71.6613 1006 71.6613H1014.98C1012.63 71.6613 1009.64 66.3282 1008.99 63.5048L1003.44 41.545C1002.8 39.349 1002.15 35.8982 1004.29 34.957C1006.43 34.0159 1007.28 35.8982 1008.14 39.349L1014.34 63.5048C1015.55 67.0856 1018.61 71.6613 1021.39 71.6613H1031.23C1028.23 71.6613 1024.81 66.6419 1023.96 63.5048L1018.83 43.4272C1018.4 41.8587 1017.97 39.0353 1020.11 37.7804C1021.82 37.153 1022.89 38.0941 1023.96 41.545L1029.73 63.5048C1030.58 66.6419 1034 71.6613 1037.21 71.6613H1045.33C1042.77 71.6613 1039.78 66.3282 1038.92 63.5048L1032.29 36.5256C1031.87 34.6433 1031.39 31.6335 1033.58 30.5651C1035.5 29.6239 1036.57 31.5062 1037.64 35.5845L1044.91 63.5048C1045.76 66.3282 1048.75 71.6613 1050.68 71.6613H1060.85C1058.7 71.5972 1054.94 66.9087 1054.1 63.5048L1036.14 -8.33512C1035.5 -10.8448 1035.5 -13.3545 1037.21 -14.6094C1039.13 -15.5505 1040.42 -13.6682 1041.06 -11.1585L1048.54 17.7029C1050.25 24.2908 1056.45 28.0554 1062.22 24.2908L1046.22 -40.3337L1042.98 -53.1959Z" fill="#50C878"/>
</g>
<g clip-path="url(#clip22_327_8084)">
<path d="M975.981 80.8041C974.335 74.3197 971.065 70.7654 968.286 70.7654H895.396C898.602 70.7654 901.809 76.4122 902.877 80.4904L922.427 157.036L932.589 196.877C933.892 201.913 936.223 205.661 939.002 205.661H947.98C945.628 205.661 942.636 200.328 941.995 197.505L936.437 175.545C935.796 173.349 935.154 169.898 937.292 168.957C939.429 168.016 940.284 169.898 941.139 173.349L947.338 197.505C948.547 201.086 951.613 205.661 954.392 205.661H964.225C961.232 205.661 957.812 200.642 956.957 197.505L951.827 177.427C951.4 175.859 950.972 173.035 953.11 171.78C954.82 171.153 955.889 172.094 956.957 175.545L962.729 197.505C963.584 200.642 967.004 205.661 970.21 205.661H978.333C975.768 205.661 972.775 200.328 971.92 197.505L965.294 170.526C964.866 168.643 964.392 165.634 966.576 164.565C968.5 163.624 969.569 165.506 970.638 169.584L977.905 197.505C978.76 200.328 981.753 205.661 983.677 205.661H993.849C991.695 205.597 987.94 200.909 987.097 197.505L969.141 125.665C968.5 123.155 968.5 120.645 970.21 119.391C972.134 118.45 973.416 120.332 974.058 122.841L981.539 151.703C983.249 158.291 989.448 162.055 995.219 158.291L979.223 93.6663L975.981 80.8041Z" fill="#50C878"/>
</g>
<g clip-path="url(#clip23_327_8084)">
<path d="M1042.98 214.804C1041.34 208.32 1038.07 204.765 1035.29 204.765H962.396C965.602 204.765 968.809 210.412 969.877 214.49L989.427 291.036L999.589 330.877C1000.89 335.913 1003.22 339.661 1006 339.661H1014.98C1012.63 339.661 1009.64 334.328 1008.99 331.505L1003.44 309.545C1002.8 307.349 1002.15 303.898 1004.29 302.957C1006.43 302.016 1007.28 303.898 1008.14 307.349L1014.34 331.505C1015.55 335.086 1018.61 339.661 1021.39 339.661H1031.23C1028.23 339.661 1024.81 334.642 1023.96 331.505L1018.83 311.427C1018.4 309.859 1017.97 307.035 1020.11 305.78C1021.82 305.153 1022.89 306.094 1023.96 309.545L1029.73 331.505C1030.58 334.642 1034 339.661 1037.21 339.661H1045.33C1042.77 339.661 1039.78 334.328 1038.92 331.505L1032.29 304.526C1031.87 302.643 1031.39 299.634 1033.58 298.565C1035.5 297.624 1036.57 299.506 1037.64 303.584L1044.91 331.505C1045.76 334.328 1048.75 339.661 1050.68 339.661H1060.85C1058.7 339.597 1054.94 334.909 1054.1 331.505L1036.14 259.665C1035.5 257.155 1035.5 254.645 1037.21 253.391C1039.13 252.45 1040.42 254.332 1041.06 256.841L1048.54 285.703C1050.25 292.291 1056.45 296.055 1062.22 292.291L1046.22 227.666L1042.98 214.804Z" fill="#50C878"/>
</g>
<g clip-path="url(#clip24_327_8084)">
<path d="M1176.98 -53.1959C1175.34 -59.6803 1172.07 -63.2346 1169.29 -63.2346H1096.4C1099.6 -63.2346 1102.81 -57.5878 1103.88 -53.5096L1123.43 23.036L1133.59 62.8773C1134.89 67.9132 1137.22 71.6613 1140 71.6613H1148.98C1146.63 71.6613 1143.64 66.3282 1142.99 63.5048L1137.44 41.545C1136.8 39.349 1136.15 35.8982 1138.29 34.957C1140.43 34.0159 1141.28 35.8982 1142.14 39.349L1148.34 63.5048C1149.55 67.0856 1152.61 71.6613 1155.39 71.6613H1165.23C1162.23 71.6613 1158.81 66.6419 1157.96 63.5048L1152.83 43.4272C1152.4 41.8587 1151.97 39.0353 1154.11 37.7804C1155.82 37.153 1156.89 38.0941 1157.96 41.545L1163.73 63.5048C1164.58 66.6419 1168 71.6613 1171.21 71.6613H1179.33C1176.77 71.6613 1173.78 66.3282 1172.92 63.5048L1166.29 36.5256C1165.87 34.6433 1165.39 31.6335 1167.58 30.5651C1169.5 29.6239 1170.57 31.5062 1171.64 35.5845L1178.91 63.5048C1179.76 66.3282 1182.75 71.6613 1184.68 71.6613H1194.85C1192.7 71.5972 1188.94 66.9087 1188.1 63.5048L1170.14 -8.33512C1169.5 -10.8448 1169.5 -13.3545 1171.21 -14.6094C1173.13 -15.5505 1174.42 -13.6682 1175.06 -11.1585L1182.54 17.7029C1184.25 24.2908 1190.45 28.0554 1196.22 24.2908L1180.22 -40.3337L1176.98 -53.1959Z" fill="#50C878"/>
</g>
<g clip-path="url(#clip25_327_8084)">
<path d="M1109.98 80.8041C1108.34 74.3197 1105.07 70.7654 1102.29 70.7654H1029.4C1032.6 70.7654 1035.81 76.4122 1036.88 80.4904L1056.43 157.036L1066.59 196.877C1067.89 201.913 1070.22 205.661 1073 205.661H1081.98C1079.63 205.661 1076.64 200.328 1075.99 197.505L1070.44 175.545C1069.8 173.349 1069.15 169.898 1071.29 168.957C1073.43 168.016 1074.28 169.898 1075.14 173.349L1081.34 197.505C1082.55 201.086 1085.61 205.661 1088.39 205.661H1098.23C1095.23 205.661 1091.81 200.642 1090.96 197.505L1085.83 177.427C1085.4 175.859 1084.97 173.035 1087.11 171.78C1088.82 171.153 1089.89 172.094 1090.96 175.545L1096.73 197.505C1097.58 200.642 1101 205.661 1104.21 205.661H1112.33C1109.77 205.661 1106.78 200.328 1105.92 197.505L1099.29 170.526C1098.87 168.643 1098.39 165.634 1100.58 164.565C1102.5 163.624 1103.57 165.506 1104.64 169.584L1111.91 197.505C1112.76 200.328 1115.75 205.661 1117.68 205.661H1127.85C1125.7 205.597 1121.94 200.909 1121.1 197.505L1103.14 125.665C1102.5 123.155 1102.5 120.645 1104.21 119.391C1106.13 118.45 1107.42 120.332 1108.06 122.841L1115.54 151.703C1117.25 158.291 1123.45 162.055 1129.22 158.291L1113.22 93.6663L1109.98 80.8041Z" fill="#50C878"/>
</g>
<g clip-path="url(#clip26_327_8084)">
<path d="M1176.98 214.804C1175.34 208.32 1172.07 204.765 1169.29 204.765H1096.4C1099.6 204.765 1102.81 210.412 1103.88 214.49L1123.43 291.036L1133.59 330.877C1134.89 335.913 1137.22 339.661 1140 339.661H1148.98C1146.63 339.661 1143.64 334.328 1142.99 331.505L1137.44 309.545C1136.8 307.349 1136.15 303.898 1138.29 302.957C1140.43 302.016 1141.28 303.898 1142.14 307.349L1148.34 331.505C1149.55 335.086 1152.61 339.661 1155.39 339.661H1165.23C1162.23 339.661 1158.81 334.642 1157.96 331.505L1152.83 311.427C1152.4 309.859 1151.97 307.035 1154.11 305.78C1155.82 305.153 1156.89 306.094 1157.96 309.545L1163.73 331.505C1164.58 334.642 1168 339.661 1171.21 339.661H1179.33C1176.77 339.661 1173.78 334.328 1172.92 331.505L1166.29 304.526C1165.87 302.643 1165.39 299.634 1167.58 298.565C1169.5 297.624 1170.57 299.506 1171.64 303.584L1178.91 331.505C1179.76 334.328 1182.75 339.661 1184.68 339.661H1194.85C1192.7 339.597 1188.94 334.909 1188.1 331.505L1170.14 259.665C1169.5 257.155 1169.5 254.645 1171.21 253.391C1173.13 252.45 1174.42 254.332 1175.06 256.841L1182.54 285.703C1184.25 292.291 1190.45 296.055 1196.22 292.291L1180.22 227.666L1176.98 214.804Z" fill="#50C878"/>
</g>
<g clip-path="url(#clip27_327_8084)">
<path d="M1310.98 -53.1959C1309.34 -59.6803 1306.07 -63.2346 1303.29 -63.2346H1230.4C1233.6 -63.2346 1236.81 -57.5878 1237.88 -53.5096L1257.43 23.036L1267.59 62.8773C1268.89 67.9132 1271.22 71.6613 1274 71.6613H1282.98C1280.63 71.6613 1277.64 66.3282 1276.99 63.5048L1271.44 41.545C1270.8 39.349 1270.15 35.8982 1272.29 34.957C1274.43 34.0159 1275.28 35.8982 1276.14 39.349L1282.34 63.5048C1283.55 67.0856 1286.61 71.6613 1289.39 71.6613H1299.23C1296.23 71.6613 1292.81 66.6419 1291.96 63.5048L1286.83 43.4272C1286.4 41.8587 1285.97 39.0353 1288.11 37.7804C1289.82 37.153 1290.89 38.0941 1291.96 41.545L1297.73 63.5048C1298.58 66.6419 1302 71.6613 1305.21 71.6613H1313.33C1310.77 71.6613 1307.78 66.3282 1306.92 63.5048L1300.29 36.5256C1299.87 34.6433 1299.39 31.6335 1301.58 30.5651C1303.5 29.6239 1304.57 31.5062 1305.64 35.5845L1312.91 63.5048C1313.76 66.3282 1316.75 71.6613 1318.68 71.6613H1328.85C1326.7 71.5972 1322.94 66.9087 1322.1 63.5048L1304.14 -8.33512C1303.5 -10.8448 1303.5 -13.3545 1305.21 -14.6094C1307.13 -15.5505 1308.42 -13.6682 1309.06 -11.1585L1316.54 17.7029C1318.25 24.2908 1324.45 28.0554 1330.22 24.2908L1314.22 -40.3337L1310.98 -53.1959Z" fill="#50C878"/>
</g>
<g clip-path="url(#clip28_327_8084)">
<path d="M1243.98 80.8041C1242.34 74.3197 1239.07 70.7654 1236.29 70.7654H1163.4C1166.6 70.7654 1169.81 76.4122 1170.88 80.4904L1190.43 157.036L1200.59 196.877C1201.89 201.913 1204.22 205.661 1207 205.661H1215.98C1213.63 205.661 1210.64 200.328 1209.99 197.505L1204.44 175.545C1203.8 173.349 1203.15 169.898 1205.29 168.957C1207.43 168.016 1208.28 169.898 1209.14 173.349L1215.34 197.505C1216.55 201.086 1219.61 205.661 1222.39 205.661H1232.23C1229.23 205.661 1225.81 200.642 1224.96 197.505L1219.83 177.427C1219.4 175.859 1218.97 173.035 1221.11 171.78C1222.82 171.153 1223.89 172.094 1224.96 175.545L1230.73 197.505C1231.58 200.642 1235 205.661 1238.21 205.661H1246.33C1243.77 205.661 1240.78 200.328 1239.92 197.505L1233.29 170.526C1232.87 168.643 1232.39 165.634 1234.58 164.565C1236.5 163.624 1237.57 165.506 1238.64 169.584L1245.91 197.505C1246.76 200.328 1249.75 205.661 1251.68 205.661H1261.85C1259.7 205.597 1255.94 200.909 1255.1 197.505L1237.14 125.665C1236.5 123.155 1236.5 120.645 1238.21 119.391C1240.13 118.45 1241.42 120.332 1242.06 122.841L1249.54 151.703C1251.25 158.291 1257.45 162.055 1263.22 158.291L1247.22 93.6663L1243.98 80.8041Z" fill="#50C878"/>
</g>
<g clip-path="url(#clip29_327_8084)">
<path d="M1310.98 214.804C1309.34 208.32 1306.07 204.765 1303.29 204.765H1230.4C1233.6 204.765 1236.81 210.412 1237.88 214.49L1257.43 291.036L1267.59 330.877C1268.89 335.913 1271.22 339.661 1274 339.661H1282.98C1280.63 339.661 1277.64 334.328 1276.99 331.505L1271.44 309.545C1270.8 307.349 1270.15 303.898 1272.29 302.957C1274.43 302.016 1275.28 303.898 1276.14 307.349L1282.34 331.505C1283.55 335.086 1286.61 339.661 1289.39 339.661H1299.23C1296.23 339.661 1292.81 334.642 1291.96 331.505L1286.83 311.427C1286.4 309.859 1285.97 307.035 1288.11 305.78C1289.82 305.153 1290.89 306.094 1291.96 309.545L1297.73 331.505C1298.58 334.642 1302 339.661 1305.21 339.661H1313.33C1310.77 339.661 1307.78 334.328 1306.92 331.505L1300.29 304.526C1299.87 302.643 1299.39 299.634 1301.58 298.565C1303.5 297.624 1304.57 299.506 1305.64 303.584L1312.91 331.505C1313.76 334.328 1316.75 339.661 1318.68 339.661H1328.85C1326.7 339.597 1322.94 334.909 1322.1 331.505L1304.14 259.665C1303.5 257.155 1303.5 254.645 1305.21 253.391C1307.13 252.45 1308.42 254.332 1309.06 256.841L1316.54 285.703C1318.25 292.291 1324.45 296.055 1330.22 292.291L1314.22 227.666L1310.98 214.804Z" fill="#50C878"/>
</g>
</g>
<defs>
<clipPath id="clip0_327_8084">
<rect width="134" height="134" fill="white" transform="translate(19 -43)"/>
</clipPath>
<clipPath id="clip1_327_8084">
<rect width="134" height="134" fill="white" transform="translate(-48 91)"/>
</clipPath>
<clipPath id="clip2_327_8084">
<rect width="134" height="134" fill="white" transform="translate(19 225)"/>
</clipPath>
<clipPath id="clip3_327_8084">
<rect width="134" height="134" fill="white" transform="translate(153 -43)"/>
</clipPath>
<clipPath id="clip4_327_8084">
<rect width="134" height="134" fill="white" transform="translate(86 91)"/>
</clipPath>
<clipPath id="clip5_327_8084">
<rect width="134" height="134" fill="white" transform="translate(153 225)"/>
</clipPath>
<clipPath id="clip6_327_8084">
<rect width="134" height="134" fill="white" transform="translate(287 -43)"/>
</clipPath>
<clipPath id="clip7_327_8084">
<rect width="134" height="134" fill="white" transform="translate(220 91)"/>
</clipPath>
<clipPath id="clip8_327_8084">
<rect width="134" height="134" fill="white" transform="translate(287 225)"/>
</clipPath>
<clipPath id="clip9_327_8084">
<rect width="134" height="134" fill="white" transform="translate(421 -43)"/>
</clipPath>
<clipPath id="clip10_327_8084">
<rect width="134" height="134" fill="white" transform="translate(354 91)"/>
</clipPath>
<clipPath id="clip11_327_8084">
<rect width="134" height="134" fill="white" transform="translate(421 225)"/>
</clipPath>
<clipPath id="clip12_327_8084">
<rect width="134" height="134" fill="white" transform="translate(555 -43)"/>
</clipPath>
<clipPath id="clip13_327_8084">
<rect width="134" height="134" fill="white" transform="translate(488 91)"/>
</clipPath>
<clipPath id="clip14_327_8084">
<rect width="134" height="134" fill="white" transform="translate(555 225)"/>
</clipPath>
<clipPath id="clip15_327_8084">
<rect width="134" height="134" fill="white" transform="translate(689 -43)"/>
</clipPath>
<clipPath id="clip16_327_8084">
<rect width="134" height="134" fill="white" transform="translate(622 91)"/>
</clipPath>
<clipPath id="clip17_327_8084">
<rect width="134" height="134" fill="white" transform="translate(689 225)"/>
</clipPath>
<clipPath id="clip18_327_8084">
<rect width="134" height="134" fill="white" transform="translate(823 -43)"/>
</clipPath>
<clipPath id="clip19_327_8084">
<rect width="134" height="134" fill="white" transform="translate(756 91)"/>
</clipPath>
<clipPath id="clip20_327_8084">
<rect width="134" height="134" fill="white" transform="translate(823 225)"/>
</clipPath>
<clipPath id="clip21_327_8084">
<rect width="134" height="134" fill="white" transform="translate(957 -43)"/>
</clipPath>
<clipPath id="clip22_327_8084">
<rect width="134" height="134" fill="white" transform="translate(890 91)"/>
</clipPath>
<clipPath id="clip23_327_8084">
<rect width="134" height="134" fill="white" transform="translate(957 225)"/>
</clipPath>
<clipPath id="clip24_327_8084">
<rect width="134" height="134" fill="white" transform="translate(1091 -43)"/>
</clipPath>
<clipPath id="clip25_327_8084">
<rect width="134" height="134" fill="white" transform="translate(1024 91)"/>
</clipPath>
<clipPath id="clip26_327_8084">
<rect width="134" height="134" fill="white" transform="translate(1091 225)"/>
</clipPath>
<clipPath id="clip27_327_8084">
<rect width="134" height="134" fill="white" transform="translate(1225 -43)"/>
</clipPath>
<clipPath id="clip28_327_8084">
<rect width="134" height="134" fill="white" transform="translate(1158 91)"/>
</clipPath>
<clipPath id="clip29_327_8084">
<rect width="134" height="134" fill="white" transform="translate(1225 225)"/>
</clipPath>
</defs>
</svg>
