<svg width="1440" height="572" viewBox="0 0 1440 572" fill="none" xmlns="http://www.w3.org/2000/svg">
<path d="M1171.74 359.287H1282.68V344.216H1171.74V359.287Z" fill="white"/>
<path d="M1282.68 327.864H1171.74V342.934H1282.68V327.864Z" fill="white"/>
<path d="M1282.68 313.114H1171.74V326.26H1282.68V313.114Z" fill="white"/>
<path fill-rule="evenodd" clip-rule="evenodd" d="M1171.74 311.511H1282.68V293.234L1171.74 293.132V311.511ZM1207.33 307.984H1176.55V299.006V296.441H1184.89H1197.71H1207.33V299.006V307.984ZM1242.92 307.984H1212.14V299.006V296.441H1217.91H1231.06H1242.92V299.006V307.984ZM1277.87 307.984H1247.41V299.006V296.441H1253.83H1266.33H1277.87V299.006V307.984Z" fill="white"/>
<path d="M1421.52 282.974V275.92L1402.14 253.475L1360.6 205.379L1355.21 211.792L1354.14 213.074L1346.87 221.731L1345.55 223.297L1338.52 231.671L1337.44 232.954L1330.14 241.65L1328.82 243.214L1321.48 251.959L1320.2 253.486L1313.21 261.812L1311.86 263.415L1305.13 271.431H1149.94V277.844H1305.13L1360.6 213.074L1414.79 275.248L1421.52 282.974Z" fill="white"/>
<path d="M1201.24 166.581V152.473L1196.73 157.374L1195.63 158.565L1187.36 167.543L1186.49 168.49L1178.8 176.842L1177.32 178.445L1169.94 186.461L1168.76 187.743L1161.47 195.663L1159.9 197.363L1152.52 205.379L1151.21 206.802L1143.2 215.505L1141.89 216.922L1134.51 224.938L1133.33 226.22L1125.06 235.198L1123.88 236.481L1119.16 241.611H898.876H816.792H752.663V252.834H769.978H779.277H1106.33H1123.65L1201.24 166.581Z" fill="#DFF1E1"/>
<path d="M965.89 181.651L942.162 164.337L937.65 167.543L936.183 168.585L924.848 176.639L922.85 178.059L917.794 181.651V186.461V187.743V188.385L942.162 170.749L965.89 187.743V181.651Z" fill="white"/>
<path d="M1060.8 181.651L1037.07 164.337L1032.56 167.543L1031.09 168.584L1019.6 176.751L1017.22 178.445L1012.7 181.651V186.461V187.743V188.385L1037.07 170.749L1060.8 187.743V181.651Z" fill="white"/>
<path fill-rule="evenodd" clip-rule="evenodd" d="M1054.39 185.82H1019.76V186.461V225.258H1054.07H1054.39V185.82ZM1034.51 187.102H1021.04V205.379H1034.51V187.102ZM1051.82 187.102H1038.03V205.379H1051.82V187.102ZM1051.82 208.585H1038.03V222.693H1051.82V208.585ZM1034.51 222.693V208.585H1021.04V222.693H1034.51Z" fill="white"/>
<path fill-rule="evenodd" clip-rule="evenodd" d="M959.477 185.82H924.848V186.461V225.258H959.156H959.477V185.82ZM939.597 187.102H926.13V205.379H939.597V187.102ZM956.912 187.102H943.124V205.379H956.912V187.102ZM956.912 208.585H943.124V222.693H956.912V208.585ZM939.597 222.693V208.585H926.13V222.693H939.597Z" fill="white"/>
<path fill-rule="evenodd" clip-rule="evenodd" d="M865.528 185.82H830.899V186.461V225.258H865.207H865.528V185.82ZM845.648 187.102H832.181V205.379H845.648V187.102ZM862.963 187.102H849.175V205.379H862.963V187.102ZM862.963 208.585H849.175V222.693H862.963V208.585ZM845.648 222.693V208.585H832.181V222.693H845.648Z" fill="white"/>
<path d="M871.941 181.651L848.213 164.337L844.152 167.222L842.347 168.505L830.614 176.842L829.26 177.804L823.844 181.651V186.461V187.743V188.385L848.213 170.749L871.941 187.743V181.651Z" fill="white"/>
<path d="M894.707 273.996V277.844H894.247V316.962H848.535V277.844H844.367V316.962H800.76V281.371L795.95 281.586V322.733H898.876H899.838V273.623L894.707 273.996Z" fill="white"/>
<path fill-rule="evenodd" clip-rule="evenodd" d="M962.363 344.216H966.531V325.94V320.489V294.838V290.028V268.772L963.004 269.029L950.899 269.909C955.324 272.909 958.399 278.218 958.194 284.577H926.13C926.13 279.914 927.324 274.816 930.848 271.368L922.603 271.967V344.216H962.363ZM945.689 289.387H955.309V287.784H944.086V311.19H945.689V289.387ZM924.527 287.784H933.505V289.387H926.13V311.19H924.527V287.784ZM961.08 303.495H956.591V317.283H961.08V303.495ZM945.689 318.886H955.309V317.283H944.086V340.689H945.689V318.886ZM924.527 317.283H933.505V318.886H926.13V340.689H924.527V317.283Z" fill="white"/>
<path fill-rule="evenodd" clip-rule="evenodd" d="M941.2 282.012L932.222 272.713C933.02 272.047 933.739 271.522 934.422 271.108L930.848 271.368C927.324 274.816 926.13 279.914 926.13 284.577H958.194C958.399 278.218 955.324 272.909 950.899 269.909L947.162 270.181C948.471 270.672 949.783 271.527 951.461 273.034L942.483 282.012L942.778 270.5L940.909 270.636L941.2 282.012ZM931.26 274.317L940.238 282.974H928.054C928.396 279.193 928.998 277.253 931.26 274.317ZM955.95 282.974C955.473 279.632 954.918 277.743 952.743 274.317L943.124 282.974H955.95Z" fill="#F5F5F5"/>
<path fill-rule="evenodd" clip-rule="evenodd" d="M1089.02 322.733V267.583L985.128 267.904V268.866V322.733H1088.37H1089.02ZM1033.87 316.962H990.258V278.164V273.355H1033.87V278.164V316.962ZM1038.68 273.355H1083.89V278.164V316.962H1038.68V278.164V273.355Z" fill="white"/>
<path d="M863.417 395.198L955.629 359.287H892.463L763.738 395.198H863.417Z" fill="white"/>
<path d="M137.353 575H414.707L863.417 395.198H763.738L137.353 575Z" fill="white"/>
<path d="M414.707 575H555.79L929.657 395.198H863.417L414.707 575Z" fill="#155D3E"/>
<path d="M929.657 395.198L555.79 575H668.014L977.433 395.198H929.657Z" fill="#288554"/>
<path d="M977.433 395.198L668.014 575H742.082L1022.96 395.198H977.433Z" fill="#155D3E"/>
<path d="M1022.96 395.198L742.082 575H773.184L1043.81 395.198H1022.96Z" fill="#288554"/>
<path d="M1043.81 395.198L773.184 575H830.258L1090.94 395.198H1043.81Z" fill="#155D3E"/>
<path d="M1090.94 395.198L830.258 575H852.062L1097.67 395.198H1090.94Z" fill="#288554"/>
<path d="M852.062 575H873.866L1111.65 395.198H1097.67L852.062 575Z" fill="#155D3E"/>
<path d="M1157.31 359.287H1149.94H1139.04H1126.53H1106.33H1101.23C1096.9 368.378 1085.17 371.792 1085.17 371.792L1089.02 374.205C1080.36 383.335 1036.43 382.373 1030.02 379.166C1026.81 377.563 1025.53 375.15 1030.66 373.716C1035.13 372.693 1039 372.433 1043.16 371.15C1038.96 368.924 1031.32 365.362 1028.05 359.287H966.531H955.629L863.417 395.198H929.657H977.433H1022.96H1043.81H1090.94H1097.67H1111.65L1160.52 359.287H1157.31Z" fill="#0A442D"/>
<path d="M1085.17 371.792C1085.17 371.792 1096.9 368.378 1101.23 359.287H1054.03C1055.92 364.682 1059.41 370.079 1064.33 374.998C1072.24 374.669 1077.31 374.957 1085.17 371.792Z" fill="#288554"/>
<path d="M1102.8 352.233C1102.8 340.048 1087.61 331.042 1064.01 330.108C1052.99 337.02 1050.12 348.151 1054.03 359.287H1101.23C1102.2 357.233 1102.8 354.891 1102.8 352.233Z" fill="#288554"/>
<path d="M1064.01 330.108C1045.41 330.108 1026.49 340.048 1026.49 353.194C1026.49 355.466 1027.08 357.487 1028.05 359.287H1054.03C1050.12 348.151 1052.99 337.02 1064.01 330.108Z" fill="#0A442D"/>
<path d="M1089.02 374.205L1085.17 371.792C1077.31 374.957 1072.24 374.669 1064.33 374.998C1059.41 370.079 1055.92 364.682 1054.03 359.287H1028.05C1031.32 365.362 1038.96 368.924 1043.16 371.15C1039 372.433 1035.13 372.693 1030.66 373.716C1025.53 375.15 1026.81 377.563 1030.02 379.166C1036.43 382.373 1080.36 383.335 1089.02 374.205Z" fill="#0A442D"/>
<path d="M1139.04 359.287C1144.93 356.752 1147.55 354.969 1149.94 350.309V315.038C1145.7 300.668 1142.56 292.507 1136.15 277.844C1134.89 274.958 1132 274.637 1130.7 277.844C1120.2 303.658 1113.33 324.657 1113.38 336.842C1113.43 347.987 1116.46 352.989 1126.53 359.287H1139.04Z" fill="#0A442D"/>
<path fill-rule="evenodd" clip-rule="evenodd" d="M1421.52 282.974H1414.79V313.114V317.924V329.146V359.287H1440.44H1449.42H1480.84H1509.06H1561V322.413L1555.87 323.695V322.413H1554.59V323.695L1545.93 325.619V322.413H1544.33V325.94L1536.31 327.864V322.733H1534.71V328.184L1526.69 329.788V322.733H1525.41V330.429L1509.06 333.956V322.733H1507.77V333.956L1501.04 334.918L1507.13 330.429L1506.17 328.826L1493.34 332.353L1492.7 331.391L1498.47 324.657L1497.83 323.375L1490.14 325.619V323.375H1487.89V326.581H1487.25L1485.33 325.299L1492.7 315.038L1491.42 313.435H1490.14V303.816L1492.7 300.609H1495.91L1498.15 303.495H1499.44L1501.36 300.609H1504.89L1507.13 303.495V315.679H1508.74V305.098L1511.3 302.533H1514.51L1516.75 305.419H1517.39L1519.64 302.533H1523.16L1525.41 305.098V315.679H1526.69V303.495L1529.26 300.609H1532.46L1534.71 303.495V315.679H1536.31V303.495L1538.23 300.609H1542.08L1544.33 303.495V315.679H1545.93V303.816L1548.49 300.609H1552.34L1554.59 303.816V315.679H1555.87V305.098L1558.43 302.212H1561V276.882H1493.34L1494.95 285.539H1468.98C1465.22 276.29 1461.57 269.777 1456.68 264.938C1451.21 259.516 1444.18 256.193 1433.71 253.475L1428.25 222.373C1420.27 210.965 1415.91 210.677 1408.37 222.373L1402.14 253.475L1421.52 275.92V282.974ZM1443.32 303.495L1447.17 324.657L1462.88 322.092L1460 311.511H1461.6L1468.01 323.054H1469.94L1471.86 307.343H1473.46L1475.71 319.206L1478.27 314.076V303.816L1475.71 300.609H1472.18L1469.3 303.495V315.679H1468.66V303.495L1466.09 300.609H1462.88L1460 303.816L1457.43 300.609H1454.23L1451.66 304.136V315.679H1450.7V305.098L1448.13 301.571H1445.25L1443.32 303.495ZM1479.24 309.587H1479.88L1482.44 304.136L1484.05 304.778L1481.48 318.244V321.13H1483.08L1488.21 315.679V303.816L1485.65 300.289H1482.44L1479.24 303.816V309.587Z" fill="#0A442D"/>
<path d="M1484.07 376.708L1480.84 359.287H1449.42C1450.44 362.974 1451.9 364.954 1456.79 368.265L1454.55 368.906C1448.7 369.109 1446.89 370.502 1445.25 374.357C1461.01 377.929 1472.07 378.966 1484.07 376.708Z" fill="#0A442D"/>
<path d="M1509.06 359.287H1480.84L1484.07 376.708C1490.46 375.506 1497.12 373.371 1504.89 370.188L1502.64 367.623L1509.06 359.287Z" fill="#0A442D"/>
<path d="M1561 575V359.287H1509.06L1502.64 367.623L1504.89 370.188C1497.12 373.371 1490.46 375.506 1484.07 376.708L1519.96 575H1561Z" fill="#288554"/>
<path d="M1440.44 359.287V575H1519.96L1484.07 376.708C1472.07 378.966 1461.01 377.929 1445.25 374.357C1446.89 370.502 1448.7 369.109 1454.55 368.906L1456.79 368.265C1451.9 364.954 1450.44 362.974 1449.42 359.287H1440.44Z" fill="#155D3E"/>
<path d="M1414.79 359.287L1383.36 575H1440.44V359.287H1414.79Z" fill="#288554"/>
<path d="M1414.79 359.287L1373.75 365.195L1315.71 575H1383.36L1414.79 359.287Z" fill="#155D3E"/>
<path d="M1344.57 369.395L1256.39 575H1315.71L1373.75 365.195L1344.57 369.395Z" fill="#288554"/>
<path d="M1191.3 575L1299.04 375.95L1283.29 378.216L1166.06 575H1191.3Z" fill="#288554"/>
<path d="M1341.68 366.982C1345.65 364.887 1347.8 362.642 1348.64 359.287C1348.95 358.061 1349.08 356.687 1349.06 355.118C1349.06 351.241 1346.46 345.547 1339.76 341.236C1334.82 338.06 1327.65 335.634 1317.63 335.239C1305.13 344.216 1304.49 359.928 1317.63 368.973C1326.27 370.213 1333.04 369.417 1341.68 366.982Z" fill="#288554"/>
<path d="M1341.68 370.188V369.811V366.982C1333.04 369.417 1326.27 370.213 1317.63 368.973C1304.49 359.928 1305.13 344.216 1317.63 335.239C1313.01 335.239 1308.81 335.854 1305.13 336.922C1294.01 340.146 1287.49 347.493 1287.49 354.477C1287.49 356.384 1287.74 357.948 1288.18 359.287C1288.89 361.458 1290.12 363.033 1291.67 364.509C1292.53 365.321 1293.48 366.103 1294.49 366.938L1294.55 366.982L1292.3 368.906C1290.85 368.798 1289.89 368.835 1288.95 368.973C1288.29 369.069 1287.64 369.215 1286.85 369.395C1282.11 370.72 1282.85 373.284 1285.77 374.173C1286.01 374.246 1286.26 374.308 1286.53 374.357C1288.77 374.765 1294.72 375.292 1301.96 375.53C1316.44 376.006 1336.12 375.32 1341.68 370.188Z" fill="#0A442D"/>
<path d="M1373.75 365.195L1414.79 359.287H1382.08H1377.27H1373.75H1348.64C1347.8 362.642 1345.65 364.887 1341.68 366.982V369.811L1344.57 369.395L1373.75 365.195Z" fill="#155D3E"/>
<path d="M1299.04 375.95L1301.96 375.53C1294.72 375.292 1288.77 374.765 1286.53 374.357C1286.26 374.308 1286.01 374.246 1285.77 374.173L1283.29 378.216L1299.04 375.95Z" fill="#155D3E"/>
<path d="M1294.49 366.938C1293.48 366.103 1292.53 365.321 1291.67 364.509L1288.95 368.973C1289.89 368.835 1290.85 368.798 1292.3 368.906L1294.55 366.982L1294.49 366.938Z" fill="#155D3E"/>
<path d="M1165.33 395.198L1283.29 378.216L1285.77 374.173C1282.85 373.284 1282.11 370.72 1286.85 369.395C1287.64 369.215 1288.29 369.069 1288.95 368.973L1291.67 364.509C1290.12 363.033 1288.89 361.458 1288.18 359.287H1283.97H1282.68H1171.74H1170.46H1160.52L1111.65 395.198H1165.33Z" fill="#BDBDBD"/>
<path fill-rule="evenodd" clip-rule="evenodd" d="M1349.06 355.118C1349.08 356.687 1348.95 358.061 1348.64 359.287H1373.75V280.088H1339.76V341.236C1346.46 345.547 1349.06 351.241 1349.06 355.118ZM1370.86 312.152H1366.37V325.94H1370.86V312.152Z" fill="white"/>
<path d="M1268.7 232.954H1185.05L1180.66 237.763L1177.12 241.65H1239.72L1268.7 232.954Z" fill="#0A442D"/>
<path d="M1186.22 231.671H1272.97L1300.88 223.297H1193.87L1190.66 226.811L1186.22 231.671Z" fill="#0A442D"/>
<path d="M1195.29 221.731H1306.1L1334.95 213.074H1203.2L1195.29 221.731Z" fill="#0A442D"/>
<path d="M1360.6 205.379H1249.34H1236.51H1210.22L1204.37 211.792H1339.23L1360.6 205.379Z" fill="#0A442D"/>
<path d="M1060.8 181.651V187.743V230.389L1064.42 226.22L1065.53 224.938L1072.49 216.922L1073.73 215.505L1081.28 206.802L1082.52 205.379L1089.48 197.363L1090.96 195.663L1097.83 187.743L1098.95 186.461L1103.12 181.651H1060.8Z" fill="#001A13"/>
<path d="M965.89 181.651V187.743V230.389L969.51 226.22L970.623 224.938L977.585 216.922L978.816 215.505L981.762 212.112L986.373 206.802L987.609 205.379L994.57 197.363L996.046 195.663L1002.92 187.743L1004.04 186.461L1008.21 181.651H965.89Z" fill="#001A13"/>
<path d="M871.941 181.651V187.743V230.389L875.561 226.22L876.674 224.938L883.636 216.922L884.866 215.505L889.205 210.509L892.424 206.802L893.66 205.379L900.621 197.363L902.097 195.663L910.089 186.461L914.265 181.651H871.941Z" fill="#001A13"/>
<path d="M849.175 120.729V152.165L902.097 152.211V136.47L892.463 141.032L887.263 143.495L882.523 145.739H873.545V143.495V137.723V129.707V123.936V120.729H849.175Z" fill="#001A13"/>
<path d="M892.463 137.723H880.279V143.495H887.263L892.463 141.032V137.723Z" fill="#0A442D"/>
<path d="M878.355 137.723H873.545V143.495H878.355V137.723Z" fill="#0A442D"/>
<path d="M902.097 136.47V130.99H892.784V136.47H902.097Z" fill="#0A442D"/>
<path d="M886.371 123.936H898.876V129.707H886.371V123.936Z" fill="#0A442D"/>
<path d="M878.355 123.936H873.545V129.707H878.355V123.936Z" fill="#0A442D"/>
<path fill-rule="evenodd" clip-rule="evenodd" d="M873.545 145.739H882.523L887.263 143.495H880.279V137.723H892.463V141.032L902.097 136.47H892.784V130.99H902.097V120.729H873.545V123.936H878.355V129.707H873.545V137.723H878.355V143.495H873.545V145.739ZM898.876 123.936H886.371V129.707H898.876V123.936Z" fill="#8ED799"/>
<path d="M1032.56 167.543L1037.07 164.337H1086.13L1089.28 167.543H1108.52L1133.12 158.565H1010.52L992.794 165.94L994.367 167.543H1032.56Z" fill="#0A442D"/>
<path d="M1013.38 157.374H1136.39L1149.94 152.428L1091.58 152.377L1081.83 152.368L1025.53 152.319L1013.38 157.374Z" fill="#0A442D"/>
<path d="M1019.6 176.751L1031.09 168.584H995.389L1003.4 176.751H1019.6Z" fill="#0A442D"/>
<path d="M1012.7 181.651L1017.22 178.445H1005.07L1008.21 181.651L1004.04 186.461H1012.7V181.651Z" fill="#0A442D"/>
<path d="M1012.7 188.385V187.743H1002.92L996.046 195.663H1012.7V188.385Z" fill="#0A442D"/>
<path d="M987.609 205.379H1001.16L1012.7 201.371V197.363H994.57L987.609 205.379Z" fill="#0A442D"/>
<path d="M997.057 206.802H986.373L981.762 212.112L997.057 206.802Z" fill="#0A442D"/>
<path d="M832.182 235.198H916.465L929.657 230.389H917.794V226.22H875.561L871.941 230.389H843.725L832.182 235.198Z" fill="#0A442D"/>
<path d="M816.792 241.611H898.876L912.947 236.481H829.104L816.792 241.611Z" fill="#0A442D"/>
<path d="M876.674 224.938H917.794V216.922H883.636L876.674 224.938Z" fill="#0A442D"/>
<path d="M884.866 215.505H917.794V206.802H897.902L889.205 210.509L884.866 215.505Z" fill="#0A442D"/>
<path d="M901.242 205.379H917.794V198.325L901.242 205.379Z" fill="#0A442D"/>
<path d="M1037.07 164.337L1060.8 181.651H1103.12L1099.98 178.445L1098.4 176.842L1094.35 172.713L1090.3 168.584L1089.28 167.543L1086.13 164.337H1037.07Z" fill="#155D3E"/>
<path d="M942.162 164.337L965.89 181.651H1008.21L1005.07 178.445L1003.4 176.751L995.389 168.584L994.367 167.543L992.794 165.94L991.22 164.337H942.162Z" fill="#155D3E"/>
<path d="M848.213 164.337L871.941 181.651H914.265L910.739 178.059L909.545 176.842L901.441 168.585L900.418 167.543L897.271 164.337H848.213Z" fill="#155D3E"/>
<path d="M1106.33 252.834H779.277V282.333L794.667 281.643L795.95 281.586V267.904H899.838V273.623L917.794 272.317V260.85H966.531V268.772L1106.33 258.605V252.834Z" fill="#001A13"/>
<path d="M950.899 269.909L963.004 269.029V265.339H922.603V271.967L930.848 271.368C933.382 268.889 937.119 267.262 942.483 267.262C945.487 267.262 948.407 268.22 950.899 269.909Z" fill="#0A442D"/>
<path d="M963.004 269.029L966.531 268.772V260.85H917.794V272.317L921 272.084V264.056H963.004V265.339V269.029Z" fill="#288554"/>
<path d="M963.004 264.056H921V272.084L922.603 271.967V265.339H963.004V264.056Z" fill="#669B7E"/>
<path d="M930.848 271.368L934.422 271.108C936.496 269.849 938.242 269.604 940.88 269.507L940.909 270.636L942.778 270.5L942.804 269.507C944.506 269.558 945.832 269.682 947.162 270.181L950.899 269.909C948.407 268.22 945.487 267.262 942.483 267.262C937.119 267.262 933.382 268.889 930.848 271.368Z" fill="#669B7E"/>
<path d="M844.367 273.355H800.76V277.844H844.367V273.355Z" fill="#0A442D"/>
<path d="M894.247 273.355H848.535V277.844H894.247V273.355Z" fill="#0A442D"/>
<path d="M962.363 344.216H922.603H921H917.794H908.816V352.874H893.104L892.463 352.894V359.287H955.629V351.912H962.363V344.216Z" fill="#0A442D"/>
<path d="M966.531 344.216H962.363V351.912H955.629V359.287H966.531V344.216Z" fill="#8ED799"/>
<path d="M779.277 359.287H892.463V352.894L779.277 356.401V359.287Z" fill="#155D3E"/>
<path d="M137.353 575L763.738 395.198H722.523L-0.5 551.395V575H137.353Z" fill="#155D3E"/>
<path d="M763.738 395.198L892.463 359.287H779.277H730.539L604.206 395.198H638.194H722.523H763.738Z" fill="#0A442D"/>
<path d="M-0.5 551.395L722.523 395.198H638.194L-0.5 516.124V551.395Z" fill="#288554"/>
<path d="M638.194 395.198H604.206L-0.5 501.054V516.124L638.194 395.198Z" fill="#155D3E"/>
<path d="M604.206 395.198L730.539 359.287H690.987C685.769 364.802 678.275 366.982 678.275 366.982L682.122 369.396C673.465 378.525 629.537 377.563 623.124 374.357C621.69 373.64 620.64 372.76 620.378 371.879L-0.5 478.289V501.054L604.206 395.198Z" fill="#288554"/>
<path d="M625.054 359.287H596.511H572.784L-0.5 446.545V478.289L620.378 371.879C620.054 370.79 620.931 369.699 623.766 368.906C628.238 367.884 632.102 367.623 636.271 366.341C633.323 364.781 628.689 362.564 625.054 359.287Z" fill="#155D3E"/>
<path d="M-0.5 446.545L572.784 359.287H407.333L-0.5 401.816V446.545Z" fill="#288554"/>
<path d="M-0.5 401.816L407.333 359.287H330.699L-0.5 386.585V401.816Z" fill="#155D3E"/>
<path d="M330.699 359.287L-0.5 357.086V386.585L330.699 359.287Z" fill="#288554"/>
<path d="M1123.65 252.834H1106.33V258.605H1128.45L1168 214.036L1172.06 209.453L1183.93 196.08L1195.47 198.004V201.852H1208.29V199.607L1235.42 204.183L1201.24 166.581L1123.65 252.834Z" fill="#001A13"/>
<path d="M1176.55 209.453H1172.06L1168 214.036H1176.55V209.453Z" fill="#0A442D"/>
<path d="M1163.73 221.731H1176.55V226.22H1163.73V221.731Z" fill="#0A442D"/>
<path d="M1185.05 232.954H1174.95V237.763H1180.66L1185.05 232.954Z" fill="#0A442D"/>
<path d="M1127.17 262.132H1140V266.942H1127.17V262.132Z" fill="#0A442D"/>
<path d="M1109.22 290.349H1122.04V295.158H1109.22V290.349Z" fill="#0A442D"/>
<path d="M1106.33 275.599H1097.67V280.409H1106.33V275.599Z" fill="#0A442D"/>
<path d="M1099.92 306.381V311.511H1106.33H1106.97V306.381H1106.33H1099.92Z" fill="#0A442D"/>
<path d="M902.082 312.794H914.908V317.283H902.082V312.794Z" fill="#0A442D"/>
<path d="M1106.33 322.733H1097.67V327.864H1106.33H1106.97V322.733H1106.33Z" fill="#0A442D"/>
<path d="M966.531 320.489V325.94H974.868V320.489H966.531Z" fill="#0A442D"/>
<path d="M968.455 297.082C978.459 296.826 981.601 296.975 981.922 297.082V302.533H968.455V297.082Z" fill="#0A442D"/>
<path d="M1009.82 328.505H1022.96V333.635H1009.82V328.505Z" fill="#0A442D"/>
<path d="M838.916 342.613H852.062V347.102H838.916V342.613Z" fill="#0A442D"/>
<path d="M823.525 339.086H836.671V344.216H823.525V339.086Z" fill="#0A442D"/>
<path d="M788.575 291.311H779.277V296.12H788.575V291.311Z" fill="#0A442D"/>
<path d="M954.667 37.042L929.978 152.235L996.046 152.293L990.07 120.73C984.97 130.301 967.172 132.914 967.172 128.425C967.172 121.691 975.724 117.046 975.509 108.866C974.547 98.2846 960.915 93.475 960.439 89.3067C959.156 78.0842 969.273 71.7856 970.379 54.998C970.251 47.4369 968.289 41.5048 963.325 29.6124C959.234 29.885 955.422 32.3616 954.667 37.042Z" fill="#001A13"/>
<path d="M974.226 37.042C972.869 31.7826 967.921 29.3061 963.325 29.6124C968.289 41.5048 970.251 47.4369 970.379 54.998C969.273 71.7856 959.156 78.0842 960.439 89.3067C960.915 93.475 974.547 98.2846 975.509 108.866C975.724 117.046 967.172 121.691 967.172 128.425C967.172 132.914 984.97 130.301 990.07 120.73L974.226 37.042Z" fill="#0A442D"/>
<path d="M1082.87 106.301L1069.78 37.042C1068.52 32.623 1064.38 29.9906 1060.16 29.7185C1058.05 34.4155 1056.31 40.2485 1058.23 43.7756C1066.57 57.5632 1069.05 69.5224 1068.49 76.1604C1064.75 102.312 1042.84 117.844 1044.45 130.99C1047.65 144.457 1056.79 136.892 1081.83 152.368L1091.58 152.377L1082.87 106.301Z" fill="#0A442D"/>
<path d="M1123 7.22237C1121.13 1.96911 1115.74 -0.649424 1111.14 0.137635C1119.48 18.2254 1121.75 27.6871 1123 43.7756C1119.34 73.3427 1094.27 99.2466 1096.07 112.713C1097.4 122.653 1099.93 124.478 1106.97 134.517C1109.86 139.647 1109.24 140.612 1109.22 143.174C1124.36 148.017 1132.8 146.774 1147.81 140.93L1123 7.22237Z" fill="#0A442D"/>
<path d="M1091.58 152.377L1149.94 152.428L1147.81 140.93C1132.8 146.774 1124.36 148.017 1109.22 143.174C1109.24 140.612 1109.86 139.647 1106.97 134.517C1099.93 124.478 1097.4 122.653 1096.07 112.713C1094.27 99.2466 1119.34 73.3427 1123 43.7756C1121.75 27.6871 1119.48 18.2254 1111.14 0.137635C1107.88 0.695667 1105.02 2.96566 1104.09 7.22237L1082.87 106.301L1091.58 152.377Z" fill="#001A13"/>
<path d="M1049.9 37.042L1025.53 152.319L1081.83 152.368C1056.79 136.892 1047.65 144.457 1044.45 130.99C1042.84 117.844 1064.75 102.312 1068.49 76.1604C1069.05 69.5224 1066.57 57.5632 1058.23 43.7756C1056.31 40.2485 1058.05 34.4155 1060.16 29.7185C1055.8 29.4378 1051.36 31.669 1049.9 37.042Z" fill="#001A13"/>
<path d="M1196.73 157.374L1201.24 152.473L1149.94 152.428L1136.39 157.374H1196.73Z" fill="#50C878"/>
<path d="M1187.36 167.543L1195.63 158.565H1133.12L1108.52 167.543H1187.36Z" fill="#50C878"/>
<path d="M1178.8 176.842L1186.49 168.49L1105.71 168.569L1094.35 172.713L1098.4 176.842H1178.8Z" fill="#50C878"/>
<path d="M1119.16 241.611L1123.88 236.481H912.947L898.876 241.611H1119.16Z" fill="#50C878"/>
<path d="M1125.06 235.198L1133.33 226.22H1064.42L1060.8 230.389H1012.7V226.22H969.51L965.89 230.389H929.657L916.465 235.198H1125.06Z" fill="#50C878"/>
<path d="M1134.51 224.938L1141.89 216.922H1107.19H1072.49L1065.53 224.938H1134.51Z" fill="#50C878"/>
<path d="M1143.2 215.505L1151.21 206.802H1081.28L1073.73 215.505H1143.2Z" fill="#50C878"/>
<path d="M1152.52 205.379L1159.9 197.363H1089.48L1082.52 205.379H1152.52Z" fill="#50C878"/>
<path d="M1161.47 195.663L1168.76 187.743H1097.83L1090.96 195.663H1161.47Z" fill="#50C878"/>
<path d="M1169.94 186.461L1177.32 178.445H1099.98L1103.12 181.651L1098.95 186.461H1169.94Z" fill="#50C878"/>
<path d="M1090.3 168.584L1094.35 172.713L1105.71 168.569L1090.3 168.584Z" fill="#0A442D"/>
<path d="M977.585 216.922L970.623 224.938H1012.7V216.922H977.585Z" fill="#50C878"/>
<path d="M981.762 212.112L978.816 215.505H1012.7V206.802H997.057L981.762 212.112Z" fill="#50C878"/>
<path d="M1012.7 201.371L1001.16 205.379H1012.7V201.371Z" fill="#50C878"/>
<path d="M900.621 197.363L893.66 205.379H901.242L917.794 198.325V197.363H900.621Z" fill="#50C878"/>
<path d="M892.424 206.802L889.205 210.509L897.902 206.802H892.424Z" fill="#50C878"/>
<path d="M917.794 188.385V187.743H908.975L902.097 195.663H917.794V188.385Z" fill="#50C878"/>
<path d="M917.794 181.651L922.85 178.059H910.739L914.265 181.651L910.089 186.461H917.794V181.651Z" fill="#50C878"/>
<path d="M924.848 176.639L936.183 168.585H901.441L909.545 176.842L924.848 176.639Z" fill="#50C878"/>
<path d="M937.65 167.543L942.162 164.337H991.22L992.794 165.94L1010.52 158.565H829.161L821.186 167.222H844.152L848.213 164.337H897.271L900.418 167.543H937.65Z" fill="#50C878"/>
<path d="M902.097 152.211L849.175 152.165L835.068 152.152L830.258 157.374H1013.38L1025.53 152.319L996.046 152.293L929.978 152.235L902.097 152.211Z" fill="#50C878"/>
<path d="M830.614 176.842L842.347 168.505H820.005L812.326 176.842H830.614Z" fill="#50C878"/>
<path d="M823.844 181.651L829.26 177.804H811.44L803.465 186.461H823.844V181.651Z" fill="#50C878"/>
<path d="M823.844 188.385V187.743H802.283L794.988 195.663H823.844V188.385Z" fill="#50C878"/>
<path d="M786.039 205.379H823.844V197.363H793.423L786.039 205.379Z" fill="#50C878"/>
<path d="M776.711 215.505H823.844V206.802H784.727L776.711 215.505Z" fill="#50C878"/>
<path d="M768.022 224.938H823.844V216.922H775.406L768.022 224.938Z" fill="#50C878"/>
<path d="M832.182 235.198L843.725 230.389H823.844V226.22H766.841L764.848 228.384L758.57 235.198H832.182Z" fill="#50C878"/>
<path d="M752.663 241.611H816.792L829.104 236.481H757.389L752.663 241.611Z" fill="#50C878"/>
<path d="M1201.24 152.473V166.581L1235.42 204.183L1236.51 205.379H1249.34L1201.24 152.473Z" fill="#288554"/>
<path d="M1355.21 211.792L1360.6 205.379L1339.23 211.792H1355.21Z" fill="#288554"/>
<path d="M1346.87 221.731L1354.14 213.074H1334.95L1306.1 221.731H1346.87Z" fill="#288554"/>
<path d="M1338.52 231.671L1345.55 223.297H1300.88L1272.97 231.671H1338.52Z" fill="#288554"/>
<path d="M1330.14 241.65L1337.44 232.954H1268.7L1239.72 241.65H1330.14Z" fill="#288554"/>
<path d="M1321.48 251.959L1328.82 243.214H1175.69L1167.71 251.959H1321.48Z" fill="#288554"/>
<path d="M1313.21 261.812L1320.2 253.486L1166.32 253.475L1158.72 261.812H1313.21Z" fill="#288554"/>
<path d="M1305.13 271.431L1311.86 263.415H1157.25L1149.94 271.431H1305.13Z" fill="#288554"/>
<path fill-rule="evenodd" clip-rule="evenodd" d="M1149.94 277.844V271.431L1157.25 263.415L1158.72 261.812L1166.32 253.475L1167.71 251.959L1175.69 243.214L1177.12 241.65L1180.66 237.763H1174.95V232.954H1185.05L1186.22 231.671H1182.32V226.811H1190.66L1193.87 223.297L1195.29 221.731L1203.2 213.074L1204.37 211.792L1210.22 205.379H1236.51L1235.42 204.183L1208.29 199.607V201.852H1195.47V198.004L1183.93 196.08L1172.06 209.453H1176.55V214.036H1168L1128.45 258.605H1106.33V275.599V280.409V281.371H1114.99V285.86H1106.33V306.381H1106.97V311.511H1106.33V322.733H1106.97V327.864H1106.33V359.287H1126.53C1116.46 352.989 1113.43 347.987 1113.38 336.842C1113.33 324.657 1120.2 303.658 1130.7 277.844C1132 274.637 1134.89 274.958 1136.15 277.844C1142.56 292.507 1145.7 300.668 1149.94 315.038V293.876H1144.49V289.387H1149.94V283.615V277.844ZM1176.55 221.731H1163.73V226.22H1176.55V221.731ZM1140 262.132H1127.17V266.942H1140V262.132ZM1122.04 290.349H1109.22V295.158H1122.04V290.349ZM1182.32 215.639H1169.5V220.128H1182.32V215.639ZM1146.73 256.04H1133.91V260.85H1146.73V256.04Z" fill="#B6E3BD"/>
<path d="M1133.91 256.04H1146.73V260.85H1133.91V256.04Z" fill="#50C878"/>
<path d="M1114.99 281.371H1106.33V285.86H1114.99V281.371Z" fill="#50C878"/>
<path d="M1149.94 289.387H1144.49V293.876H1149.94V289.387Z" fill="#50C878"/>
<path d="M1186.22 231.671L1190.66 226.811H1182.32V231.671H1186.22Z" fill="#50C878"/>
<path d="M1169.5 215.639H1182.32V220.128H1169.5V215.639Z" fill="#50C878"/>
<path d="M1090.94 296.441H1104.41V301.571H1090.94V296.441Z" fill="#50C878"/>
<path fill-rule="evenodd" clip-rule="evenodd" d="M966.531 325.94V344.216V359.287H1028.05C1027.08 357.487 1026.49 355.466 1026.49 353.194C1026.49 340.048 1045.41 330.108 1064.01 330.108C1087.61 331.042 1102.8 340.048 1102.8 352.233C1102.8 354.891 1102.2 357.233 1101.23 359.287H1106.33V327.864H1097.67V322.733H1106.33V311.511H1099.92V306.381H1106.33V285.86V281.371V280.409H1097.67V275.599H1106.33V258.605L966.531 268.772V290.028H974.868V294.838H966.531V320.489H974.868V325.94H966.531ZM1089.02 267.583V322.733H1088.37V324.657H984.166V268.866H985.128V267.904L1089.02 267.583ZM1104.41 296.441H1090.94V301.571H1104.41V296.441ZM983.525 331.07H970.379V335.559H983.525V331.07ZM981.922 297.082C981.601 296.975 978.459 296.826 968.455 297.082V302.533H981.922V297.082ZM1022.96 328.505H1009.82V333.635H1022.96V328.505ZM1028.09 334.597H1015.27V339.086H1028.09V334.597Z" fill="#8ED799"/>
<path fill-rule="evenodd" clip-rule="evenodd" d="M899.838 322.733H898.876V324.978H794.667V281.643L779.277 282.333V291.311H788.575V296.12H779.277V332.032H788.575V337.162H779.277V356.401L892.463 352.894V352.874H893.104H908.816V344.216H917.794V311.511H908.816V306.381H917.794V272.317L899.838 273.623V322.733ZM843.405 332.032H830.258V337.162H843.405V332.032ZM836.671 339.086H823.525V344.216H836.671V339.086ZM852.062 342.613H838.916V347.102H852.062V342.613ZM914.908 312.794H902.082V317.283H914.908V312.794ZM797.874 340.689H783.766V345.82H797.874V340.689Z" fill="#B6E3BD"/>
<path d="M894.707 277.844V273.996L899.838 273.623V267.904H795.95V281.586L800.76 281.371V277.844V273.355H844.367V277.844H848.535V273.355H894.247V277.844H894.707Z" fill="#288554"/>
<path d="M795.95 322.733V281.586L794.667 281.643V324.978H898.876V322.733H795.95Z" fill="#001A13"/>
<path d="M917.794 306.381H908.816V311.511H917.794V306.381Z" fill="#50C878"/>
<path d="M966.531 290.028V294.838H974.868V290.028H966.531Z" fill="#50C878"/>
<path d="M970.379 331.07H983.525V335.559H970.379V331.07Z" fill="#50C878"/>
<path d="M1015.27 334.597H1028.09V339.086H1015.27V334.597Z" fill="#50C878"/>
<path d="M830.258 332.032H843.405V337.162H830.258V332.032Z" fill="#50C878"/>
<path d="M783.766 340.689H797.874V345.82H783.766V340.689Z" fill="#0A442D"/>
<path d="M788.575 332.032H779.277V337.162H788.575V332.032Z" fill="#50C878"/>
<path d="M844.367 316.962V277.844H800.76V281.371V316.962H844.367Z" fill="#8ED799"/>
<path d="M894.247 316.962V277.844H848.535V316.962H894.247Z" fill="#B6E3BD"/>
<path d="M922.603 344.216V271.967L921 272.084V344.216H922.603Z" fill="#001A13"/>
<path d="M921 272.084L917.794 272.317V306.381V311.511V344.216H921V272.084Z" fill="#8ED799"/>
<path d="M932.222 272.713L941.2 282.012L940.909 270.636L934.422 271.108C933.739 271.522 933.02 272.047 932.222 272.713Z" fill="#B6E3BD"/>
<path d="M951.461 273.034C949.783 271.527 948.471 270.672 947.162 270.181L942.778 270.5L942.483 282.012L951.461 273.034Z" fill="#B6E3BD"/>
<path d="M955.95 282.974C955.473 279.632 954.918 277.743 952.743 274.317L943.124 282.974H955.95Z" fill="#B6E3BD"/>
<path d="M931.26 274.317L940.238 282.974H928.054C928.396 279.193 928.998 277.253 931.26 274.317Z" fill="#B6E3BD"/>
<path d="M940.88 269.507C938.242 269.604 936.496 269.849 934.422 271.108L940.909 270.636L940.88 269.507Z" fill="#B6E3BD"/>
<path d="M942.804 269.507L942.778 270.5L947.162 270.181C945.832 269.682 944.506 269.558 942.804 269.507Z" fill="#B6E3BD"/>
<path d="M990.258 316.962H1033.87V278.164H990.258V316.962Z" fill="#B6E3BD"/>
<path d="M1083.89 316.962V278.164H1038.68V316.962H1083.89Z" fill="#B6E3BD"/>
<path fill-rule="evenodd" clip-rule="evenodd" d="M1037.07 170.749L1012.7 188.385V195.663V197.363V201.371V205.379V206.802V215.505V216.922V224.938V226.22V230.389H1060.8V187.743L1037.07 170.749ZM1019.76 185.82H1054.39V225.258H1054.07V226.734H1018.15V186.461H1019.76V185.82Z" fill="#B4C432"/>
<path fill-rule="evenodd" clip-rule="evenodd" d="M942.162 170.749L917.794 188.385V195.663V197.363V198.325V205.379V206.802V215.505V216.922V224.938V226.22V230.389H929.657H965.89V187.743L942.162 170.749ZM924.848 185.82H959.477V225.258H959.156V226.734H923.245V186.461H924.848V185.82Z" fill="#B4C432"/>
<path fill-rule="evenodd" clip-rule="evenodd" d="M848.213 170.749L823.844 188.385V195.663V197.363V205.379V206.802V215.505V216.922V224.938V226.22V230.389H843.725H871.941V187.743L848.213 170.749ZM830.899 185.82H865.528V225.258H865.207V226.734H829.295V186.461H830.899V185.82Z" fill="#B4C432"/>
<path d="M1051.82 208.585H1038.03V222.693H1051.82V208.585Z" fill="#288554"/>
<path d="M1051.82 187.102H1038.03V205.379H1051.82V187.102Z" fill="#288554"/>
<path d="M1034.51 187.102H1021.04V205.379H1034.51V187.102Z" fill="#288554"/>
<path d="M1034.51 222.693V208.585H1021.04V222.693H1034.51Z" fill="#288554"/>
<path d="M956.912 187.102H943.124V205.379H956.912V187.102Z" fill="#288554"/>
<path d="M956.912 208.585H943.124V222.693H956.912V208.585Z" fill="#288554"/>
<path d="M939.597 222.693V208.585H926.13V222.693H939.597Z" fill="#288554"/>
<path d="M939.597 187.102H926.13V205.379H939.597V187.102Z" fill="#288554"/>
<path d="M862.963 187.102H849.175V205.379H862.963V187.102Z" fill="#288554"/>
<path d="M845.648 187.102H832.181V205.379H845.648V187.102Z" fill="#288554"/>
<path d="M862.963 208.585H849.175V222.693H862.963V208.585Z" fill="#288554"/>
<path d="M845.648 222.693V208.585H832.181V222.693H845.648Z" fill="#288554"/>
<path d="M830.899 225.258V186.461H829.295V226.734H865.207V225.258H830.899Z" fill="#001A13"/>
<path d="M924.848 225.258V186.461H923.245V226.734H959.156V225.258H924.848Z" fill="#001A13"/>
<path d="M1019.76 225.258V186.461H1018.15V226.734H1054.07V225.258H1019.76Z" fill="#001A13"/>
<path d="M1555.87 323.695L1561 322.413V302.212H1558.43L1555.87 305.098V315.679H1554.59V303.816L1552.34 300.609H1548.49L1545.93 303.816V315.679H1544.33V303.495L1542.08 300.609H1538.23L1536.31 303.495V315.679H1534.71V303.495L1532.46 300.609H1529.26L1526.69 303.495V315.679H1525.41V305.098L1523.16 302.533H1519.64L1517.39 305.419H1516.75L1514.51 302.533H1511.3L1508.74 305.098V315.679H1507.13V303.495L1504.89 300.609H1501.36L1499.44 303.495H1498.15L1495.91 300.609H1492.7L1490.14 303.816V313.435H1491.42L1492.7 315.038L1485.33 325.299L1487.25 326.581H1487.89V323.375H1490.14V325.619L1497.83 323.375L1498.47 324.657L1492.7 331.391L1493.34 332.353L1506.17 328.826L1507.13 330.429L1501.04 334.918L1507.77 333.956V322.733H1509.06V333.956L1525.41 330.429V322.733H1526.69V329.788L1534.71 328.184V322.733H1536.31V327.864L1544.33 325.94V322.413H1545.93V325.619L1554.59 323.695V322.413H1555.87V323.695Z" fill="#DFF1E1"/>
<path d="M1443.32 303.495L1447.17 324.657L1462.88 322.092L1460 311.511H1461.6L1468.01 323.054H1469.94L1471.86 307.343H1473.46L1475.71 319.206L1478.27 314.076V303.816L1475.71 300.609H1472.18L1469.3 303.495V315.679H1468.66V303.495L1466.09 300.609H1462.88L1460 303.816L1457.43 300.609H1454.23L1451.66 304.136V315.679H1450.7V305.098L1448.13 301.571H1445.25L1443.32 303.495Z" fill="#DFF1E1"/>
<path d="M1479.24 309.587H1479.88L1482.44 304.136L1484.05 304.778L1481.48 318.244V321.13H1483.08L1488.21 315.679V303.816L1485.65 300.289H1482.44L1479.24 303.816V309.587Z" fill="#DFF1E1"/>
<path d="M945.689 289.387H955.309V287.784H944.086V311.19H945.689V289.387Z" fill="#F5F5F5"/>
<path d="M924.527 287.784H933.505V289.387H926.13V311.19H924.527V287.784Z" fill="#F5F5F5"/>
<path d="M924.527 317.283H933.505V318.886H926.13V340.689H924.527V317.283Z" fill="#F5F5F5"/>
<path d="M945.689 318.886H955.309V317.283H944.086V340.689H945.689V318.886Z" fill="#F5F5F5"/>
<path d="M961.08 303.495H956.591V317.283H961.08V303.495Z" fill="#001A13"/>
<path d="M1370.86 312.152H1366.37V325.94H1370.86V312.152Z" fill="#001A13"/>
<path d="M1305.13 277.844H1149.94V283.615L1305.13 283.295V277.844Z" fill="#001A13"/>
<path d="M1360.6 213.074L1305.13 277.844V283.295L1344.57 237.443L1383.04 262.391L1389.57 266.621L1414.79 282.974V275.248L1360.6 213.074Z" fill="#001A13"/>
<path d="M1149.94 359.287H1157.31V321.451H1155.39V316.641H1157.31V315.038V310.228V294.196L1170.46 293.227V289.387H1222.53L1305.13 283.295L1149.94 283.615V289.387V293.876V315.038V350.309V359.287Z" fill="#0A442D"/>
<path d="M1157.31 359.287H1160.52H1170.46V340.048H1161.8V334.597H1170.46V293.227L1157.31 294.196V310.228H1163.08V315.038H1157.31V316.641H1166.29V321.451H1157.31V359.287Z" fill="#DFF1E1"/>
<path fill-rule="evenodd" clip-rule="evenodd" d="M1287.49 354.477C1287.49 347.493 1294.01 340.146 1305.13 336.922V307.022H1296.15V302.212H1305.13V283.295L1222.53 289.387H1283.97V325.299H1290.38V330.108H1283.97V359.287H1288.18C1287.74 357.948 1287.49 356.384 1287.49 354.477ZM1302.88 296.12H1289.42V300.609H1302.88V296.12ZM1299.04 331.391H1285.57V336.521H1299.04V331.391Z" fill="#DFF1E1"/>
<path fill-rule="evenodd" clip-rule="evenodd" d="M1414.79 313.114V282.974L1389.57 266.621H1377.27V262.391H1383.04L1344.57 237.443L1305.13 283.295V302.212V307.022V336.922C1308.81 335.854 1313.01 335.239 1317.63 335.239C1327.65 335.634 1334.82 338.06 1339.76 341.236V280.088V276.882H1377.27V331.07H1389.78V335.559H1377.27V359.287H1382.08C1382.08 350.629 1392.66 345.178 1400.68 347.743C1398.11 336.521 1403.22 329.477 1414.79 329.146V317.924H1407.41V313.114H1414.79ZM1396.19 324.016H1382.72V329.146H1396.19V324.016ZM1396.19 302.854H1383.36V298.365H1396.19V302.854ZM1400.36 290.349H1387.53V294.838H1400.36V290.349ZM1383.04 268.545H1370.22V273.034H1383.04V268.545ZM1333.02 271.11H1320.2V275.599H1333.02V271.11ZM1329.18 285.86H1315.71V290.349H1329.18V285.86ZM1326.61 310.228H1313.14V315.038H1326.61V310.228ZM1332.38 316.641H1319.56V321.13H1332.38V316.641ZM1326.61 323.054H1313.79V327.543H1326.61V323.054Z" fill="#B4C432"/>
<path d="M1373.75 359.287H1377.27V335.559V331.07V276.882H1339.76V280.088H1373.75V359.287Z" fill="#001A13"/>
<path d="M1383.36 302.854H1396.19V298.365H1383.36V302.854Z" fill="#8ED799"/>
<path d="M1387.53 290.349H1400.36V294.838H1387.53V290.349Z" fill="#0A442D"/>
<path d="M1389.78 331.07H1377.27V335.559H1389.78V331.07Z" fill="#0A442D"/>
<path d="M1414.79 317.924V313.114H1407.41V317.924H1414.79Z" fill="#0A442D"/>
<path d="M1383.04 262.391H1377.27V266.621H1389.57L1383.04 262.391Z" fill="#0A442D"/>
<path d="M1313.79 323.054H1326.61V327.543H1313.79V323.054Z" fill="#0A442D"/>
<path d="M1313.14 310.228H1326.61V315.038H1313.14V310.228Z" fill="#0A442D"/>
<path d="M1315.71 285.86H1329.18V290.349H1315.71V285.86Z" fill="#B6E3BD"/>
<path d="M1320.2 271.11H1333.02V275.599H1320.2V271.11Z" fill="#B6E3BD"/>
<path d="M1319.56 316.641H1332.38V321.13H1319.56V316.641Z" fill="#B6E3BD"/>
<path d="M1382.72 324.016H1396.19V329.146H1382.72V324.016Z" fill="#B6E3BD"/>
<path d="M1414.79 359.287V329.146C1403.22 329.477 1398.11 336.521 1400.68 347.743C1392.66 345.178 1382.08 350.629 1382.08 359.287H1414.79Z" fill="#0A442D"/>
<path d="M1370.22 268.545H1383.04V273.034H1370.22V268.545Z" fill="#B6E3BD"/>
<path d="M1421.52 282.974L1414.79 275.248V282.974H1421.52Z" fill="#0A442D"/>
<path d="M1247.41 307.984H1277.87V299.006H1268.9H1256.39H1247.41V307.984Z" fill="#8ED799"/>
<path d="M1212.14 307.984H1242.92V299.006H1234.59H1220.48H1212.14V307.984Z" fill="#8ED799"/>
<path d="M1176.55 307.984H1207.33V299.006H1200.6H1187.77H1176.55V307.984Z" fill="#8ED799"/>
<path d="M1247.41 296.441V299.006H1256.39L1253.83 296.441H1247.41Z" fill="#0A442D"/>
<path d="M1277.87 296.441H1266.33L1268.9 299.006H1277.87V296.441Z" fill="#0A442D"/>
<path d="M1266.33 296.441H1253.83L1256.39 299.006H1268.9L1266.33 296.441Z" fill="#50C878"/>
<path d="M1242.92 296.441H1231.06L1234.59 299.006H1242.92V296.441Z" fill="#0A442D"/>
<path d="M1212.14 296.441V299.006H1220.48L1217.91 296.441H1212.14Z" fill="#0A442D"/>
<path d="M1207.33 296.441H1197.71L1200.6 299.006H1207.33V296.441Z" fill="#0A442D"/>
<path d="M1176.55 296.441V299.006H1187.77L1184.89 296.441H1176.55Z" fill="#0A442D"/>
<path d="M1197.71 296.441H1184.89L1187.77 299.006H1200.6L1197.71 296.441Z" fill="#50C878"/>
<path d="M1231.06 296.441H1217.91L1220.48 299.006H1234.59L1231.06 296.441Z" fill="#50C878"/>
<path d="M1305.13 302.212H1296.15V307.022H1305.13V302.212Z" fill="#0A442D"/>
<path d="M1290.38 325.299H1283.97V330.108H1290.38V325.299Z" fill="#0A442D"/>
<path d="M1289.42 296.12H1302.88V300.609H1289.42V296.12Z" fill="#50C878"/>
<path d="M1285.57 331.391H1299.04V336.521H1285.57V331.391Z" fill="#50C878"/>
<path d="M1170.46 334.597H1161.8V340.048H1170.46V334.597Z" fill="#50C878"/>
<path d="M1155.39 321.451H1157.31H1166.29V316.641H1157.31H1155.39V321.451Z" fill="#50C878"/>
<path d="M1157.31 310.228V315.038H1163.08V310.228H1157.31Z" fill="#0A442D"/>
<path d="M1171.74 313.114H1282.68V311.511H1171.74V313.114Z" fill="#288554"/>
<path d="M1171.74 327.864H1282.68V326.26H1171.74V327.864Z" fill="#288554"/>
<path d="M1171.74 344.216H1282.68V342.934H1171.74V344.216Z" fill="#288554"/>
<path d="M1171.74 293.132L1282.68 293.234V291.952H1187.75L1171.74 293.132Z" fill="#288554"/>
<path d="M1171.74 290.157V291.952H1187.75L1212.73 290.109L1171.74 290.157Z" fill="#001A13"/>
<path d="M1171.74 359.287V344.216V342.934V327.864V326.26V313.114V311.511V293.132L1170.46 293.227V334.597V340.048V359.287H1171.74Z" fill="#001A13"/>
<path d="M1170.46 289.387V293.227L1171.74 293.132V291.952V290.157L1212.73 290.109L1222.53 289.387H1170.46Z" fill="#001A13"/>
<path d="M1282.68 291.952V290.028L1212.73 290.109L1187.75 291.952H1282.68Z" fill="white"/>
<path d="M1282.68 344.216V359.287H1283.97V330.108V325.299V289.387H1222.53L1212.73 290.109L1282.68 290.028V291.952V293.234V311.511V313.114V326.26V327.864V342.934V344.216Z" fill="#001A13"/>
<path d="M695.91 347.423C695.91 335.239 680.714 326.232 657.112 325.299C638.515 325.299 619.597 335.239 619.597 348.385C619.597 351.826 620.942 354.691 622.928 357.086C623.576 357.869 624.293 358.601 625.054 359.287C628.243 362.162 632.2 364.22 635.113 365.735C635.521 365.948 635.908 366.149 636.271 366.341C637.675 366.786 639.032 367.183 640.355 367.534C652.261 370.688 661.464 370.08 678.275 366.982C678.275 366.982 685.769 364.802 690.987 359.287C691.715 358.517 692.399 357.682 693.012 356.779C694.744 354.228 695.91 351.133 695.91 347.423Z" fill="#0A442D"/>
<path d="M682.122 369.396L678.275 366.982C661.464 370.08 652.261 370.688 640.355 367.534C639.032 367.183 637.675 366.786 636.271 366.341C633.788 367.105 631.414 367.506 628.954 367.921C627.284 368.204 625.575 368.492 623.766 368.906C620.931 369.699 620.054 370.79 620.378 371.879C620.64 372.76 621.69 373.64 623.124 374.357C629.537 377.563 673.465 378.525 682.122 369.396Z" fill="#001A13"/>
<path d="M1256.39 575L1344.57 369.395L1341.68 369.811V370.188C1336.12 375.32 1316.44 376.006 1301.96 375.53L1299.04 375.95L1191.3 575H1256.39Z" fill="#155D3E"/>
<path d="M823.844 205.379H786.039L784.727 206.802H823.844V205.379Z" fill="#001A13"/>
<path d="M823.844 215.505H776.711L775.406 216.922H823.844V215.505Z" fill="#001A13"/>
<path d="M823.844 224.938H768.022L766.841 226.22H823.844V224.938Z" fill="#001A13"/>
<path d="M758.57 235.198L757.389 236.481H829.104L832.182 235.198H758.57Z" fill="#001A13"/>
<path d="M916.465 235.198H832.182L829.104 236.481H912.947L916.465 235.198Z" fill="#001A13"/>
<path d="M1123.88 236.481L1125.06 235.198H916.465L912.947 236.481H1123.88Z" fill="#001A13"/>
<path d="M970.623 224.938L969.51 226.22H1012.7V224.938H970.623Z" fill="#001A13"/>
<path d="M1133.33 226.22L1134.51 224.938H1065.53L1064.42 226.22H1133.33Z" fill="#001A13"/>
<path d="M978.816 215.505L977.585 216.922H1012.7V215.505H978.816Z" fill="#001A13"/>
<path d="M997.057 206.802H1012.7V205.379H1001.16L997.057 206.802Z" fill="#001A13"/>
<path d="M987.609 205.379L986.373 206.802H997.057L1001.16 205.379H987.609Z" fill="#001A13"/>
<path d="M996.046 195.663L994.57 197.363H1012.7V195.663H996.046Z" fill="#001A13"/>
<path d="M1012.7 187.743V186.461H1004.04L1002.92 187.743H1012.7Z" fill="#001A13"/>
<path d="M1017.22 178.445L1019.6 176.751H1003.4L1005.07 178.445H1017.22Z" fill="#001A13"/>
<path d="M1031.09 168.584L1032.56 167.543H994.367L995.389 168.584H1031.09Z" fill="#001A13"/>
<path d="M1010.52 158.565H1133.12L1136.39 157.374H1013.38L1010.52 158.565Z" fill="#001A13"/>
<path d="M876.674 224.938L875.561 226.22H917.794V224.938H876.674Z" fill="#001A13"/>
<path d="M884.866 215.505L883.636 216.922H917.794V215.505H884.866Z" fill="#001A13"/>
<path d="M897.902 206.802H917.794V205.379H901.242L897.902 206.802Z" fill="#001A13"/>
<path d="M893.66 205.379L892.424 206.802H897.902L901.242 205.379H893.66Z" fill="#001A13"/>
<path d="M902.097 195.663L900.621 197.363H917.794V195.663H902.097Z" fill="#001A13"/>
<path d="M917.794 187.743V186.461H910.089L908.975 187.743H917.794Z" fill="#001A13"/>
<path d="M922.85 178.059L924.848 176.639L909.545 176.842L910.739 178.059H922.85Z" fill="#001A13"/>
<path d="M936.183 168.585L937.65 167.543H900.418L901.441 168.585H936.183Z" fill="#001A13"/>
<path d="M829.161 158.565H1010.52L1013.38 157.374H830.258L829.161 158.565Z" fill="#001A13"/>
<path d="M1108.52 167.543H1089.28L1090.3 168.584L1105.71 168.569L1108.52 167.543Z" fill="#001A13"/>
<path d="M823.844 195.663H794.988L793.423 197.363H823.844V195.663Z" fill="#001A13"/>
<path d="M823.844 187.743V186.461H803.465L802.283 187.743H823.844Z" fill="#001A13"/>
<path d="M829.26 177.804L830.614 176.842H812.326L811.44 177.804H829.26Z" fill="#001A13"/>
<path d="M842.347 168.505L844.152 167.222H821.186L820.005 168.505H842.347Z" fill="#001A13"/>
<path d="M1141.89 216.922L1143.2 215.505H1073.73L1072.49 216.922H1107.19H1141.89Z" fill="#001A13"/>
<path d="M1151.21 206.802L1152.52 205.379H1082.52L1081.28 206.802H1151.21Z" fill="#001A13"/>
<path d="M1159.9 197.363L1161.47 195.663H1090.96L1089.48 197.363H1159.9Z" fill="#001A13"/>
<path d="M1168.76 187.743L1169.94 186.461H1098.95L1097.83 187.743H1168.76Z" fill="#001A13"/>
<path d="M1177.32 178.445L1178.8 176.842H1098.4L1099.98 178.445H1177.32Z" fill="#001A13"/>
<path d="M1186.49 168.49L1187.36 167.543H1108.52L1105.71 168.569L1186.49 168.49Z" fill="#001A13"/>
<path d="M1195.63 158.565L1196.73 157.374H1136.39L1133.12 158.565H1195.63Z" fill="#001A13"/>
<path d="M990.258 273.355V278.164H1033.87V273.355H990.258Z" fill="#0A442D"/>
<path d="M1083.89 273.355H1038.68V278.164H1083.89V273.355Z" fill="#0A442D"/>
</svg>
