<svg width="128" height="128" viewBox="0 0 128 128" fill="none" xmlns="http://www.w3.org/2000/svg">
<path d="M65.0238 116.174V105.481H44.867V116.174H65.0238Z" fill="#B4C432"/>
<path d="M76.3312 116.174V105.481H69.3255V116.174H76.3312Z" fill="#0E6D4A"/>
<path d="M86.2866 116.174V105.481H79.4039C79.3055 106.268 79.3629 112.937 79.4039 116.174H86.2866Z" fill="#669B7E"/>
<path d="M110.622 116.174C112.466 116.174 113.449 115.437 113.449 113.839V107.939C113.449 106.587 112.628 105.468 110.622 105.481H86.2866V116.174H110.622Z" fill="#0A442D"/>
<path d="M79.4039 116.174C79.3629 112.937 79.3055 106.268 79.4039 105.481H76.3312V116.174H79.4039Z" fill="#0A442D"/>
<path d="M69.3255 116.174V105.481H65.0238V116.174H69.3255Z" fill="#0A442D"/>
<path d="M12.4196 105.481C10.6989 105.481 9.59278 106.587 9.59278 107.939V113.839C9.59278 114.945 10.6989 116.174 12.4196 116.174H44.867V105.481H12.4196Z" fill="#0A442D"/>
<path d="M59.2471 105.481V94.6655H39.0904V105.481H59.2471Z" fill="#B4C432"/>
<path d="M70.5546 105.481V94.6655H63.5489V105.481H70.5546Z" fill="#0E6D4A"/>
<path d="M80.51 105.481V94.6655H73.6272C73.5289 95.4521 73.5863 102.245 73.6272 105.481H80.51Z" fill="#669B7E"/>
<path d="M104.846 105.481C106.689 105.481 107.672 104.621 107.672 103.023V97.1236C107.672 95.7717 106.851 94.6527 104.846 94.6655H80.51V105.481H104.846Z" fill="#0A442D"/>
<path d="M73.6272 105.481C73.5863 102.245 73.5289 95.4521 73.6272 94.6655H70.5546V105.481H73.6272Z" fill="#0A442D"/>
<path d="M63.5489 105.481V94.6655H59.2471V105.481H63.5489Z" fill="#0A442D"/>
<path d="M6.64302 94.6655C4.92232 94.6655 3.81616 95.7716 3.81616 97.1236V103.023C3.81616 104.129 4.92232 105.481 6.64302 105.481H39.0904V94.6655H6.64302Z" fill="#0A442D"/>
<path fill-rule="evenodd" clip-rule="evenodd" d="M84.6355 87.8686L84.6358 87.9968C84.3112 87.9836 83.9877 87.9663 83.6653 87.9451C83.9898 87.9236 84.3132 87.8981 84.6355 87.8686Z" fill="#0A442D"/>
<path d="M17.7046 83.8497C15.9839 83.8497 14.8778 84.9558 14.8778 86.3078V92.2073C14.8778 93.3135 16.1068 94.6655 17.8275 94.6655H50.152V83.8497H17.7046Z" fill="#0A442D"/>
<path fill-rule="evenodd" clip-rule="evenodd" d="M48.8609 48.8805C48.8499 49.2281 48.8443 49.577 48.8443 49.9273C48.8443 52.5415 49.1531 55.0834 49.7362 57.5183L68.1185 79.5749C69.8676 80.3484 71.6982 80.9709 73.5936 81.4256L48.8609 48.8805Z" fill="#669B7E"/>
<path d="M118.899 54.0549C118.677 56.1197 118.291 58.1351 117.754 60.0876H122.819C123.356 58.1351 123.742 56.1197 123.964 54.0549H118.899Z" fill="#669B7E"/>
<path d="M116.844 62.9452C116.082 65.0487 115.14 67.0658 114.038 68.9778H119.102C120.205 67.0658 121.147 65.0487 121.909 62.9452H116.844Z" fill="#0E6D4A"/>
<path d="M119.119 49.9273C119.119 51.3219 119.045 52.6991 118.899 54.0549H123.964C124.11 52.6991 124.184 51.3219 124.184 49.9273C124.184 28.8846 107.177 11.8262 86.1978 11.8262C85.3468 11.8262 84.5024 11.8542 83.6653 11.9095C103.464 13.2166 119.119 29.7382 119.119 49.9273Z" fill="#0A442D"/>
<path fill-rule="evenodd" clip-rule="evenodd" d="M114.038 68.9778C110.383 75.315 104.96 80.4983 98.4467 83.8497H103.512C110.025 80.4983 115.448 75.315 119.102 68.9778H114.038ZM83.6653 87.9451C83.9898 87.9236 84.3132 87.8981 84.6355 87.8686L84.6358 87.9968C84.3112 87.9836 83.9877 87.9663 83.6653 87.9451Z" fill="#0A442D"/>
<path d="M117.754 60.0876C117.487 61.0561 117.184 62.0092 116.844 62.9452H121.909C122.249 62.0092 122.552 61.0561 122.819 60.0876H117.754Z" fill="#0A442D"/>
<path d="M84.3501 48.466H87.6204V50.7612H85.7134L84.3501 48.466Z" fill="#0A442D"/>
<path d="M75.0345 45.7882V44.258L75.9498 45.7882H75.0345Z" fill="#0A442D"/>
<path d="M67.788 64.5327V66.4378H72.4906L84.5701 82.1319C97.0019 80.8124 107.329 72.4166 111.472 61.0358L97.0172 42.3071V32.7818H94.4854V45.7882H97.9179V48.466H94.4854V51.1438H97.9179V53.8216H94.4854V64.5327H86.4762L80.7553 53.8216H75.0345V64.5327H67.788Z" fill="#0A442D"/>
<path fill-rule="evenodd" clip-rule="evenodd" d="M117.754 60.0876C118.291 58.1351 118.677 56.1197 118.899 54.0549C119.045 52.6991 119.119 51.3219 119.119 49.9273C119.119 29.7382 103.464 13.2166 83.6653 11.9095C82.8283 11.8542 81.9839 11.8262 81.1329 11.8262C78.0405 11.8262 75.3687 12.229 72.4906 12.9284C62.5798 15.3369 51.5368 23.9511 47.0381 33.1087C44.5462 38.1811 43.1463 43.8902 43.1463 49.9273C43.1463 64.7147 51.5451 77.5346 63.8191 83.8497H70.3088H74.6105H81.6162H84.6889H91.5716H98.4467C104.96 80.4983 110.383 75.315 114.038 68.9778C115.14 67.0658 116.082 65.0487 116.844 62.9452C117.184 62.0092 117.487 61.0561 117.754 60.0876ZM51.1476 35.5252C50.8299 36.1895 50.5334 36.866 50.2592 37.5539C48.9943 40.7261 48.2014 44.1389 47.9674 47.7047C47.9191 48.4393 47.8947 49.1804 47.8947 49.9273C47.8947 51.9872 48.0809 54.0034 48.4374 55.96C48.8377 58.1563 49.4524 60.2774 50.2592 62.3007C53.7152 70.9683 60.6942 77.8408 69.4204 81.137C71.0515 81.7531 72.7437 82.2443 74.4853 82.5989C76.6332 83.0362 78.8563 83.2658 81.1329 83.2658C82.5263 83.2658 83.8997 83.1798 85.2481 83.0128C97.5843 81.4849 107.827 73.1771 112.155 61.9211C113.334 58.8568 114.074 55.5739 114.298 52.1499C114.347 51.4152 114.371 50.6741 114.371 49.9273C114.371 33.2422 102.151 19.4198 86.1978 16.9734C84.5463 16.7202 82.8549 16.5888 81.1329 16.5888C79.8484 16.5888 78.5808 16.6619 77.3342 16.8042C76.0175 16.9544 74.724 17.1819 73.4586 17.4819C63.9408 19.7861 55.2886 26.8565 51.1476 35.5252Z" fill="#B4C432"/>
<path d="M67.788 64.5327V60.328L50.9366 38.434C49.7016 41.6968 48.977 45.2116 48.8609 48.8805L73.5936 81.4256C76.0124 82.0059 78.5369 82.3132 81.1329 82.3132C82.294 82.3132 83.4407 82.2518 84.5701 82.1319L72.4906 66.4378H67.788V64.5327Z" fill="#669B7E"/>
<path fill-rule="evenodd" clip-rule="evenodd" d="M50.2592 37.5539C50.5334 36.866 50.8299 36.1895 51.1476 35.5252C55.2886 26.8565 63.9408 19.7861 73.4586 17.4819C74.724 17.1819 76.0175 16.9544 77.3342 16.8042C78.5808 16.6619 79.8484 16.5888 81.1329 16.5888C82.8549 16.5888 84.5463 16.7202 86.1978 16.9734C102.151 19.4198 114.371 33.2422 114.371 49.9273C114.371 50.6741 114.347 51.4152 114.298 52.1499C114.074 55.5739 113.334 58.8568 112.155 61.9211C107.827 73.1771 97.5843 81.4849 85.2481 83.0128C83.8997 83.1798 82.5263 83.2658 81.1329 83.2658C78.8563 83.2658 76.6332 83.0362 74.4853 82.5989C72.7437 82.2443 71.0515 81.7531 69.4204 81.137C60.6942 77.8408 53.7152 70.9683 50.2592 62.3007C49.4524 60.2774 48.8377 58.1563 48.4374 55.96C48.0809 54.0034 47.8947 51.9872 47.8947 49.9273C47.8947 49.1804 47.9191 48.4393 47.9674 47.7047C48.2014 44.1389 48.9943 40.7261 50.2592 37.5539ZM113.421 49.9273C113.421 50.296 113.415 50.6633 113.403 51.0291C113.286 54.5344 112.614 57.8985 111.472 61.0358C107.329 72.4166 97.0019 80.8124 84.5701 82.1319C83.4407 82.2518 82.294 82.3132 81.1329 82.3132C78.5369 82.3132 76.0124 82.0059 73.5936 81.4256C71.6982 80.9709 69.8676 80.3484 68.1185 79.5749C59.0086 75.5459 52.1064 67.4166 49.7362 57.5183C49.1531 55.0834 48.8443 52.5415 48.8443 49.9273C48.8443 49.577 48.8499 49.2281 48.8609 48.8805C48.977 45.2116 49.7016 41.6968 50.9366 38.434C51.2566 37.5888 51.6108 36.7605 51.9976 35.9508C56.1385 27.2822 64.0117 20.7487 73.5295 18.4444C74.9895 18.0909 76.4882 17.837 78.018 17.6901C79.0431 17.5917 80.0821 17.5413 81.1329 17.5413C83.1684 17.5413 85.16 17.7303 87.091 18.0916C102.077 20.8957 113.421 34.0827 113.421 49.9273Z" fill="#0A442D"/>
<path d="M49.7362 57.5183L68.1185 79.5749C59.0086 75.5459 52.1064 67.4166 49.7362 57.5183Z" fill="#669B7E"/>
<path d="M67.788 60.328V53.8216H64.3555V51.1438H67.788V48.466H64.3555V45.7882H67.788V32.7818H75.0345L82.7596 45.7882H87.6204V32.7818H89.6657L78.018 17.6901C76.4882 17.837 74.9895 18.0909 73.5295 18.4444C64.0117 20.7487 56.1385 27.2822 51.9976 35.9508C51.6108 36.7605 51.2566 37.5888 50.9366 38.434L67.788 60.328Z" fill="#0A442D"/>
<path d="M113.403 51.0291C113.415 50.6633 113.421 50.296 113.421 49.9273C113.421 34.0827 102.077 20.8957 87.091 18.0916L113.403 51.0291Z" fill="#0E6D4A"/>
<path d="M113.403 51.0291L87.091 18.0916C85.16 17.7303 83.1684 17.5413 81.1329 17.5413C80.0821 17.5413 79.0431 17.5917 78.018 17.6901L89.6657 32.7818H94.4854H97.0172V42.3071L111.472 61.0358C112.614 57.8985 113.286 54.5344 113.403 51.0291Z" fill="#B4C432"/>
<path fill-rule="evenodd" clip-rule="evenodd" d="M67.788 53.8216V60.328V64.5327H75.0345V53.8216H80.7553L86.4762 64.5327H94.4854V53.8216H97.9179V51.1438H94.4854V48.466H97.9179V45.7882H94.4854V32.7818H89.6657H87.6204V45.7882H82.7596L75.0345 32.7818H67.788V45.7882H64.3555V48.466H67.788V51.1438H64.3555V53.8216H67.788ZM87.6204 48.466H84.3501L85.7134 50.7612H87.6204V48.466ZM75.0345 48.466V51.1438H79.1535L77.5516 48.466H75.0345ZM75.0345 44.258V45.7882H75.9498L75.0345 44.258Z" fill="#B4C432"/>
<path fill-rule="evenodd" clip-rule="evenodd" d="M48.8443 49.9273C48.8443 49.577 48.8499 49.2281 48.8609 48.8805L73.5936 81.4256C71.6982 80.9709 69.8676 80.3484 68.1185 79.5749L49.7362 57.5183C49.1531 55.0834 48.8443 52.5415 48.8443 49.9273ZM87.6204 48.466H84.3501L85.7134 50.7612H87.6204V48.466ZM75.0345 44.258V45.7882H75.9498L75.0345 44.258Z" fill="#0A442D"/>
<path d="M75.0345 51.1438V48.466H77.5516L79.1535 51.1438H75.0345Z" fill="#0A442D"/>
<path d="M91.5716 83.8497V86.5717V87.6501V94.6655H84.6355C84.6141 92.977 84.6416 90.2312 84.6358 87.9968L84.6355 87.8686C84.6309 85.8766 84.6428 84.218 84.6889 83.8497H91.5716Z" fill="#669B7E"/>
<path d="M81.6162 88.0254V83.8497H74.6105V87.4689V94.6655H81.6162V88.0254Z" fill="#0E6D4A"/>
<path d="M84.6355 87.8686C84.6309 85.8766 84.6428 84.218 84.6889 83.8497H81.6162V88.0254V94.6655H84.6355C84.6141 92.977 84.6416 90.2312 84.6358 87.9968C84.3112 87.9836 83.9877 87.9663 83.6653 87.9451C83.9898 87.9236 84.3132 87.8981 84.6355 87.8686Z" fill="#0A442D"/>
<path d="M70.3088 83.8497V86.4593V94.6655H74.6105V87.4689V83.8497H70.3088Z" fill="#0A442D"/>
<path d="M70.3088 94.6655V86.4593V83.8497H63.8191H50.152V94.6655H70.3088Z" fill="#B4C432"/>
<path d="M116.03 94.6655C117.874 94.6655 118.734 93.8052 118.734 92.2073V86.3078C118.734 84.9559 117.913 83.8369 115.907 83.8497H103.512H98.4467H91.5716V86.5717V87.6501V94.6655H116.03Z" fill="#0A442D"/>
</svg>
