<svg width="128" height="128" viewBox="0 0 128 128" fill="none" xmlns="http://www.w3.org/2000/svg">
<path d="M103.105 52.0706C103.105 30.3071 85.2729 12.8963 64.271 12.1049L64.2702 27.5372C77.4012 27.5372 88.0459 38.1669 88.0459 51.2792C88.0459 64.3916 77.4012 75.0212 64.2702 75.0212L64.271 116.174L80.914 94.8062C95.9719 75.0212 103.105 65.1287 103.105 52.0706Z" fill="#0A442D"/>
<path d="M32.5701 76.2083L64.271 116.174L64.2702 75.0212C51.1393 75.0212 40.4945 64.3916 40.4945 51.2792C40.4945 38.1669 51.1393 27.5372 64.2702 27.5372L64.271 12.1049C41.6841 13.292 24.6449 31.4942 24.6449 50.0921C24.6449 59.5889 26.2299 67.8986 32.5701 76.2083Z" fill="#669B7E"/>
<path d="M94.3869 94.8062H80.914L64.271 116.174H114.992C114.992 109.447 111.029 94.8062 94.3869 94.8062Z" fill="#0E6D4A"/>
<path d="M29.4 94.8062C16.7196 94.8062 11.1704 109.051 11.1712 116.174H64.271L32.5701 76.2083C26.2299 67.8986 24.6449 59.5889 24.6449 50.0921C24.6449 31.4942 41.6841 13.292 64.271 12.1049C40.4945 9.335 16.7196 27.5372 16.7196 52.0706C17.8952 70.0322 28.2112 80.561 39.3065 94.8062H29.4Z" fill="#0A442D"/>
<path d="M64.2702 27.5372V75.0212C77.4012 75.0212 88.0459 64.3916 88.0459 51.2792C88.0459 38.1669 77.4012 27.5372 64.2702 27.5372Z" fill="#B4C432"/>
<path d="M40.4945 51.2792C40.4945 64.3916 51.1393 75.0212 64.2702 75.0212V27.5372C51.1393 27.5372 40.4945 38.1669 40.4945 51.2792Z" fill="white"/>
<path d="M108.364 75.9503L109.355 84.7996L118.378 85.7719L109.355 86.7442L108.364 95.5935L107.372 86.7442L98.3487 85.7719L107.372 84.7996L108.364 75.9503Z" fill="#0A442D"/>
<path d="M101.519 72.647L101.944 76.4396L105.811 76.8563L101.944 77.273L101.519 81.0655L101.094 77.273L97.2267 76.8563L101.094 76.4396L101.519 72.647Z" fill="#0A442D"/>
<path d="M20.3933 75.9503L21.3848 84.7996L30.4082 85.7719L21.3848 86.7442L20.3933 95.5935L19.4019 86.7442L10.3785 85.7719L19.4019 84.7996L20.3933 75.9503Z" fill="#B4C432"/>
<path d="M13.9137 72.4157L14.3386 76.2083L18.2058 76.625L14.3386 77.0417L13.9137 80.8342L13.4888 77.0417L9.62158 76.625L13.4888 76.2083L13.9137 72.4157Z" fill="#B4C432"/>
</svg>
