<svg width="1200" height="475" viewBox="0 0 1200 475" fill="none" xmlns="http://www.w3.org/2000/svg">
<path d="M825.544 329.332L627.388 474.957H870.883L968.578 315.18L870.274 329.332H825.544Z" fill="white"/>
<path d="M875.618 299.405H968.069V286.847H875.618V299.405Z" fill="white"/>
<path d="M968.069 273.22H875.618V285.778H968.069V273.22Z" fill="white"/>
<path d="M968.069 260.928H875.618V271.884H968.069V260.928Z" fill="white"/>
<path fill-rule="evenodd" clip-rule="evenodd" d="M875.618 259.592H968.069V244.362L875.618 244.277V259.592ZM905.277 256.653H879.626V249.172V247.034H886.573H897.261H905.277V249.172V256.653ZM934.937 256.653H909.285V249.172V247.034H914.095H925.05H934.937V249.172V256.653ZM964.061 256.653H938.677V249.172V247.034H944.021H954.442H964.061V249.172V256.653Z" fill="white"/>
<path d="M1083.77 235.812V229.933L1067.61 211.229L1033 171.149L1028.51 176.493L1027.61 177.562L1021.56 184.776L1020.46 186.081L1014.6 193.059L1013.7 194.128L1007.62 201.375L1006.52 202.679L1000.4 209.966L999.332 211.238L993.505 218.176L992.383 219.512L986.774 226.192H857.448V231.536H986.774L1033 177.562L1078.16 229.373L1083.77 235.812Z" fill="white"/>
<path d="M900.2 138.818V127.061L896.44 131.145L895.525 132.138L888.636 139.619L887.909 140.408L881.5 147.368L880.27 148.704L874.118 155.384L873.134 156.453L867.057 163.053L865.753 164.469L859.601 171.149L858.509 172.335L851.831 179.587L850.743 180.768L844.592 187.448L843.608 188.517L836.718 195.999L835.734 197.067L831.797 201.343H648.23H579.826H526.386V210.695H540.815H548.564H821.109H835.538L900.2 138.818Z" fill="white"/>
<path d="M704.075 151.376L684.302 136.947L680.541 139.619L679.32 140.487L669.873 147.199L668.208 148.382L663.995 151.376V155.384V156.453V156.987L684.302 142.291L704.075 156.453V151.376Z" fill="white"/>
<path d="M783.166 151.376L763.393 136.947L759.633 139.619L758.412 140.486L748.834 147.292L746.847 148.704L743.086 151.376V155.384V156.453V156.987L763.393 142.291L783.166 156.453V151.376Z" fill="white"/>
<path fill-rule="evenodd" clip-rule="evenodd" d="M777.822 154.85H748.965V155.384V187.715H777.555H777.822V154.85ZM761.256 155.918H750.033V171.149H761.256V155.918ZM775.685 155.918H764.195V171.149H775.685V155.918ZM775.685 173.821H764.195V185.578H775.685V173.821ZM761.256 185.578V173.821H750.033V185.578H761.256Z" fill="white"/>
<path fill-rule="evenodd" clip-rule="evenodd" d="M698.731 154.85H669.873V155.384V187.715H698.464H698.731V154.85ZM682.164 155.918H670.942V171.149H682.164V155.918ZM696.593 155.918H685.104V171.149H696.593V155.918ZM696.593 173.821H685.104V185.578H696.593V173.821ZM682.164 185.578V173.821H670.942V185.578H682.164Z" fill="white"/>
<path fill-rule="evenodd" clip-rule="evenodd" d="M620.44 154.85H591.582V155.384V187.715H620.173H620.44V154.85ZM603.873 155.918H592.651V171.149H603.873V155.918ZM618.302 155.918H606.813V171.149H618.302V155.918ZM618.302 173.821H606.813V185.578H618.302V173.821ZM603.873 185.578V173.821H592.651V185.578H603.873Z" fill="white"/>
<path d="M625.784 151.376L606.011 136.947L602.626 139.352L601.122 140.421L591.345 147.368L590.216 148.17L585.704 151.376V155.384V156.453V156.987L606.011 142.291L625.784 156.453V151.376Z" fill="white"/>
<path d="M644.756 228.33V231.536H644.372V264.135H606.279V231.536H602.806V264.135H566.466V234.476L562.458 234.655V268.945H648.23H649.031V228.019L644.756 228.33Z" fill="white"/>
<path fill-rule="evenodd" clip-rule="evenodd" d="M701.136 286.847H704.609V271.617V267.074V245.698V241.69V223.977L701.67 224.191L691.582 224.924C695.27 227.424 697.833 231.849 697.662 237.148H670.942C670.942 233.261 671.937 229.013 674.874 226.14L668.003 226.639V286.847H701.136ZM687.241 241.156H695.257V239.82H685.905V259.325H687.241V241.156ZM669.606 239.82H677.088V241.156H670.942V259.325H669.606V239.82ZM700.067 252.912H696.326V264.402H700.067V252.912ZM687.241 265.738H695.257V264.402H685.905V283.908H687.241V265.738ZM669.606 264.402H677.088V265.738H670.942V283.908H669.606V264.402Z" fill="white"/>
<path fill-rule="evenodd" clip-rule="evenodd" d="M683.5 235.01L676.019 227.261C676.684 226.706 677.283 226.269 677.852 225.923L674.874 226.14C671.937 229.013 670.942 233.261 670.942 237.148H697.662C697.833 231.849 695.27 227.424 691.582 224.924L688.468 225.151C689.559 225.56 690.653 226.273 692.051 227.528L684.569 235.01L684.815 225.417L683.257 225.53L683.5 235.01ZM675.217 228.597L682.699 235.812H672.545C672.83 232.661 673.332 231.044 675.217 228.597ZM695.792 235.812C695.394 233.027 694.932 231.453 693.12 228.597L685.104 235.812H695.792Z" fill="#F5F5F5"/>
<path fill-rule="evenodd" clip-rule="evenodd" d="M806.68 268.945V222.986L720.107 223.253V224.055V268.945H806.146H806.68ZM760.721 264.135H724.382V231.804V227.796H760.721V231.804V264.135ZM764.729 227.796H802.405V231.804V264.135H764.729V231.804V227.796Z" fill="white"/>
<path d="M618.681 329.332L695.524 299.405H642.886L535.615 329.332H618.681Z" fill="white"/>
<path d="M13.6273 474.957H244.756L618.681 329.332H535.615L13.6273 474.957Z" fill="white"/>
<path d="M244.756 474.957H362.325L673.881 329.332H618.681L244.756 474.957Z" fill="#155D3E"/>
<path d="M673.881 329.332L362.325 474.957H455.845L713.694 329.332H673.881Z" fill="#288554"/>
<path d="M713.694 329.332L455.845 474.957H517.568L751.637 329.332H713.694Z" fill="#155D3E"/>
<path d="M751.637 329.332L517.568 474.957H543.487L769.005 329.332H751.637Z" fill="#288554"/>
<path d="M769.005 329.332L543.487 474.957H591.049L808.283 329.332H769.005Z" fill="#155D3E"/>
<path d="M808.283 329.332L591.049 474.957H609.218L813.894 329.332H808.283Z" fill="#288554"/>
<path d="M609.218 474.957H627.388L825.544 329.332H813.894L609.218 474.957Z" fill="#155D3E"/>
<path d="M863.594 299.405H857.448H848.363H837.943H821.109H816.857C813.253 306.981 803.474 309.826 803.474 309.826L806.68 311.837C799.466 319.446 762.859 318.644 757.515 315.972C754.843 314.636 753.774 312.625 758.049 311.43C761.777 310.578 764.997 310.361 768.47 309.292C764.966 307.437 758.599 304.468 755.872 299.405H704.609H695.524L618.681 329.332H673.881H713.694H751.637H769.005H808.283H813.894H825.544L866.266 299.405H863.594Z" fill="#0A442D"/>
<path d="M803.474 309.826C803.474 309.826 813.253 306.981 816.857 299.405H777.525C779.103 303.902 782.007 308.399 786.106 312.498C792.702 312.224 796.925 312.464 803.474 309.826Z" fill="#288554"/>
<path d="M818.17 293.527C818.17 283.373 805.506 275.868 785.838 275.09C776.659 280.85 774.269 290.126 777.525 299.405H816.857C817.671 297.695 818.17 295.742 818.17 293.527Z" fill="#288554"/>
<path d="M785.838 275.09C770.341 275.09 754.576 283.373 754.576 294.329C754.576 296.222 755.064 297.906 755.872 299.405H777.525C774.269 290.126 776.659 280.85 785.838 275.09Z" fill="#0A442D"/>
<path d="M806.68 311.837L803.474 309.826C796.925 312.464 792.702 312.224 786.106 312.498C782.007 308.399 779.103 303.902 777.525 299.405H755.872C758.599 304.468 764.966 307.437 768.47 309.292C764.997 310.361 761.777 310.578 758.049 311.43C753.774 312.625 754.843 314.636 757.515 315.972C762.859 318.644 799.466 319.446 806.68 311.837Z" fill="#0A442D"/>
<path d="M848.363 299.405C853.272 297.293 855.462 295.808 857.448 291.924V262.532C853.916 250.557 851.298 243.756 845.959 231.536C844.908 229.132 842.503 228.864 841.416 231.536C832.663 253.049 826.944 270.548 826.987 280.701C827.027 289.989 829.552 294.158 837.943 299.405H848.363Z" fill="#0A442D"/>
<path fill-rule="evenodd" clip-rule="evenodd" d="M1083.77 235.812H1078.16V260.928V264.936V274.289V299.405H1099.53H1107.01H1133.2H1156.71H1200V268.677L1195.72 269.746V268.677H1194.66V269.746L1187.44 271.349V268.677H1186.11V271.617L1179.43 273.22V268.945H1178.09V273.487L1171.41 274.823V268.945H1170.34V275.357L1156.71 278.297V268.945H1155.64V278.297L1150.03 279.098L1155.11 275.357L1154.31 274.021L1143.62 276.961L1143.09 276.159L1147.9 270.548L1147.36 269.479L1140.95 271.349V269.479H1139.08V272.151H1138.54L1136.94 271.082L1143.09 262.532L1142.02 261.196H1140.95V253.18L1143.09 250.508H1145.76L1147.63 252.912H1148.7L1150.3 250.508H1153.24L1155.11 252.912V263.066H1156.45V254.248L1158.58 252.111H1161.26L1163.13 254.516H1163.66L1165.53 252.111H1168.47L1170.34 254.248V263.066H1171.41V252.912L1173.55 250.508H1176.22L1178.09 252.912V263.066H1179.43V252.912L1181.03 250.508H1184.24L1186.11 252.912V263.066H1187.44V253.18L1189.58 250.508H1192.79L1194.66 253.18V263.066H1195.72V254.248L1197.86 251.844H1200V230.735H1143.62L1144.96 237.949H1123.31C1120.18 230.242 1117.14 224.815 1113.07 220.781C1108.51 216.263 1102.65 213.494 1093.92 211.229L1089.38 185.311C1082.72 175.804 1079.09 175.564 1072.81 185.311L1067.61 211.229L1083.77 229.933V235.812ZM1101.94 252.912L1105.14 270.548L1118.24 268.41L1115.83 259.592H1117.17L1122.51 269.212H1124.11L1125.72 256.119H1127.05L1128.92 266.005L1131.06 261.73V253.18L1128.92 250.508H1125.99L1123.58 252.912V263.066H1123.05V252.912L1120.91 250.508H1118.24L1115.83 253.18L1113.69 250.508H1111.02L1108.88 253.447V263.066H1108.08V254.248L1105.95 251.309H1103.54L1101.94 252.912ZM1131.86 257.989H1132.4L1134.54 253.447L1135.87 253.981L1133.73 265.204V267.608H1135.07L1139.35 263.066V253.18L1137.21 250.24H1134.54L1131.86 253.18V257.989Z" fill="#0A442D"/>
<path d="M1135.9 313.923L1133.2 299.405H1107.01C1107.86 302.478 1109.09 304.128 1113.16 306.887L1111.29 307.421C1106.42 307.591 1104.91 308.751 1103.54 311.964C1116.68 314.941 1125.89 315.805 1135.9 313.923Z" fill="#0A442D"/>
<path d="M1156.71 299.405H1133.2L1135.9 313.923C1141.22 312.922 1146.76 311.143 1153.24 308.49L1151.37 306.353L1156.71 299.405Z" fill="#0A442D"/>
<path d="M1200 474.957V299.405H1156.71L1151.37 306.353L1153.24 308.49C1146.76 311.143 1141.22 312.922 1135.9 313.923L1165.8 474.957H1200Z" fill="#288554"/>
<path d="M1099.53 299.405V474.957H1165.8L1135.9 313.923C1125.89 315.805 1116.68 314.941 1103.54 311.964C1104.91 308.751 1106.42 307.591 1111.29 307.421L1113.16 306.887C1109.09 304.128 1107.86 302.478 1107.01 299.405H1099.53Z" fill="#155D3E"/>
<path d="M1078.16 299.405L1051.97 474.957H1099.53V299.405H1078.16Z" fill="#288554"/>
<path d="M1078.16 299.405L1043.95 304.329L995.591 474.957H1051.97L1078.16 299.405Z" fill="#155D3E"/>
<path d="M1019.64 307.829L946.159 474.957H995.591L1043.95 304.329L1019.64 307.829Z" fill="#288554"/>
<path d="M891.917 474.957L981.697 313.292L968.578 315.18L870.883 474.957H891.917Z" fill="#288554"/>
<path d="M1017.23 305.818C1020.54 304.072 1022.34 302.202 1023.03 299.405C1023.29 298.384 1023.4 297.239 1023.38 295.932C1023.38 292.701 1021.22 287.956 1015.63 284.364C1011.51 281.717 1005.54 279.695 997.194 279.365C986.774 286.847 986.239 299.94 997.194 307.477C1004.4 308.511 1010.04 307.847 1017.23 305.818Z" fill="#288554"/>
<path d="M1017.23 308.49V308.176V305.818C1010.04 307.847 1004.4 308.511 997.194 307.477C986.239 299.94 986.774 286.847 997.194 279.365C993.337 279.365 989.845 279.878 986.774 280.769C977.505 283.455 972.077 289.577 972.077 295.397C972.077 296.987 972.28 298.29 972.647 299.405C973.242 301.215 974.268 302.528 975.562 303.758C976.273 304.434 977.066 305.086 977.911 305.782L977.956 305.818L976.086 307.421C974.879 307.331 974.072 307.362 973.288 307.477C972.738 307.558 972.199 307.679 971.543 307.829C967.594 308.934 968.205 311.07 970.638 311.811C970.839 311.872 971.052 311.923 971.276 311.964C973.145 312.304 978.098 312.743 984.129 312.941C996.204 313.338 1012.6 312.767 1017.23 308.49Z" fill="#0A442D"/>
<path d="M1043.95 304.329L1078.16 299.405H1050.9H1046.89H1043.95H1023.03C1022.34 302.202 1020.54 304.072 1017.23 305.818V308.176L1019.64 307.829L1043.95 304.329Z" fill="#155D3E"/>
<path d="M981.697 313.292L984.129 312.941C978.098 312.743 973.145 312.304 971.276 311.964C971.052 311.923 970.839 311.872 970.638 311.811L968.578 315.18L981.697 313.292Z" fill="#155D3E"/>
<path d="M977.911 305.782C977.066 305.086 976.273 304.434 975.562 303.758L973.288 307.477C974.072 307.362 974.879 307.331 976.086 307.421L977.956 305.818L977.911 305.782Z" fill="#155D3E"/>
<path d="M870.274 329.332L968.578 315.18L970.638 311.811C968.205 311.07 967.594 308.934 971.543 307.829C972.199 307.679 972.738 307.558 973.288 307.477L975.562 303.758C974.268 302.528 973.242 301.215 972.647 299.405H969.138H968.069H875.618H874.549H866.266L825.544 329.332H870.274Z" fill="white"/>
<path fill-rule="evenodd" clip-rule="evenodd" d="M1023.38 295.932C1023.4 297.239 1023.29 298.384 1023.03 299.405H1043.95V233.407H1015.63V284.364C1021.22 287.956 1023.38 292.701 1023.38 295.932ZM1041.55 260.127H1037.81V271.617H1041.55V260.127Z" fill="white"/>
<path d="M956.416 194.128H886.711L883.053 198.136L880.097 201.375H932.265L956.416 194.128Z" fill="#0A442D"/>
<path d="M887.686 193.059H959.978L983.235 186.081H894.055L891.383 189.009L887.686 193.059Z" fill="#0A442D"/>
<path d="M895.245 184.776H987.584L1011.63 177.562H901.83L895.245 184.776Z" fill="#0A442D"/>
<path d="M1033 171.149H940.281H929.593H907.682L902.805 176.493H1015.19L1033 171.149Z" fill="#0A442D"/>
<path d="M783.166 151.376V156.453V191.991L786.183 188.517L787.111 187.448L792.912 180.768L793.938 179.587L800.235 172.335L801.266 171.149L807.067 164.469L808.296 163.053L814.028 156.453L814.956 155.384L818.437 151.376H783.166Z" fill="#001A13"/>
<path d="M704.075 151.376V156.453V191.991L707.091 188.517L708.02 187.448L713.821 180.768L714.846 179.587L717.301 176.76L721.144 172.335L722.174 171.149L727.975 164.469L729.205 163.053L734.937 156.453L735.865 155.384L739.345 151.376H704.075Z" fill="#001A13"/>
<path d="M625.784 151.376V156.453V191.991L628.8 188.517L629.729 187.448L635.53 180.768L636.555 179.587L640.171 175.424L642.853 172.335L643.883 171.149L649.684 164.469L650.914 163.053L657.574 155.384L661.054 151.376H625.784Z" fill="#001A13"/>
<path d="M606.813 100.608V126.804L650.914 126.842V113.725L642.886 117.527L638.552 119.579L634.603 121.45H627.121V119.579V114.769V108.089V103.28V100.608H606.813Z" fill="#001A13"/>
<path d="M642.886 114.769H632.732V119.579H638.552L642.886 117.527V114.769Z" fill="#0A442D"/>
<path d="M631.129 114.769H627.121V119.579H631.129V114.769Z" fill="#0A442D"/>
<path d="M650.914 113.725V109.158H643.153V113.725H650.914Z" fill="#0A442D"/>
<path d="M637.809 103.28H648.23V108.089H637.809V103.28Z" fill="#0A442D"/>
<path d="M631.129 103.28H627.121V108.089H631.129V103.28Z" fill="#0A442D"/>
<path fill-rule="evenodd" clip-rule="evenodd" d="M627.121 121.45H634.603L638.552 119.579H632.732V114.769H642.886V117.527L650.914 113.725H643.153V109.158H650.914V100.608H627.121V103.28H631.129V108.089H627.121V114.769H631.129V119.579H627.121V121.45ZM648.23 103.28H637.809V108.089H648.23V103.28Z" fill="#8ED799"/>
<path d="M759.633 139.619L763.393 136.947H804.275L806.898 139.619H822.931L843.433 132.138H741.265L726.495 138.283L727.806 139.619H759.633Z" fill="#0A442D"/>
<path d="M743.651 131.145H846.154L857.448 127.023L808.818 126.981L800.695 126.974L753.774 126.933L743.651 131.145Z" fill="#0A442D"/>
<path d="M748.834 147.292L758.412 140.486H728.657L735.337 147.292H748.834Z" fill="#0A442D"/>
<path d="M743.086 151.376L746.847 148.704H736.723L739.345 151.376L735.865 155.384H743.086V151.376Z" fill="#0A442D"/>
<path d="M743.086 156.987V156.453H734.937L729.205 163.053H743.086V156.987Z" fill="#0A442D"/>
<path d="M722.174 171.149H733.465L743.086 167.809V164.469H727.975L722.174 171.149Z" fill="#0A442D"/>
<path d="M730.048 172.335H721.144L717.301 176.76L730.048 172.335Z" fill="#0A442D"/>
<path d="M592.652 195.999H662.888L673.881 191.991H663.995V188.517H628.8L625.784 191.991H602.271L592.652 195.999Z" fill="#0A442D"/>
<path d="M579.826 201.343H648.23L659.956 197.067H590.087L579.826 201.343Z" fill="#0A442D"/>
<path d="M629.729 187.448H663.995V180.768H635.53L629.729 187.448Z" fill="#0A442D"/>
<path d="M636.555 179.587H663.995V172.335H647.418L640.171 175.424L636.555 179.587Z" fill="#0A442D"/>
<path d="M650.202 171.149H663.995V165.27L650.202 171.149Z" fill="#0A442D"/>
<path d="M763.393 136.947L783.166 151.376H818.437L815.814 148.704L814.503 147.368L811.126 143.927L807.749 140.486L806.898 139.619L804.275 136.947H763.393Z" fill="#155D3E"/>
<path d="M684.302 136.947L704.075 151.376H739.345L736.723 148.704L735.337 147.292L728.657 140.486L727.806 139.619L726.495 138.283L725.184 136.947H684.302Z" fill="#155D3E"/>
<path d="M606.011 136.947L625.784 151.376H661.054L658.116 148.382L657.121 147.368L650.367 140.487L649.515 139.619L646.893 136.947H606.011Z" fill="#155D3E"/>
<path d="M821.109 210.695H548.564V235.277L561.389 234.703L562.458 234.655V223.253H649.031V228.019L663.995 226.931V217.375H704.609V223.977L821.109 215.504V210.695Z" fill="#001A13"/>
<path d="M691.582 224.924L701.67 224.191V221.116H668.003V226.639L674.874 226.14C676.985 224.074 680.099 222.719 684.569 222.719C687.072 222.719 689.506 223.516 691.582 224.924Z" fill="#0A442D"/>
<path d="M701.67 224.191L704.609 223.977V217.375H663.995V226.931L666.667 226.736V220.047H701.67V221.116V224.191Z" fill="#288554"/>
<path d="M701.67 220.047H666.667V226.736L668.003 226.639V221.116H701.67V220.047Z" fill="#669B7E"/>
<path d="M674.874 226.14L677.852 225.923C679.58 224.874 681.035 224.67 683.233 224.589L683.257 225.53L684.815 225.417L684.836 224.589C686.255 224.632 687.36 224.735 688.468 225.151L691.582 224.924C689.506 223.516 687.072 222.719 684.569 222.719C680.099 222.719 676.985 224.074 674.874 226.14Z" fill="#669B7E"/>
<path d="M602.806 227.796H566.466V231.536H602.806V227.796Z" fill="#0A442D"/>
<path d="M644.372 227.796H606.279V231.536H644.372V227.796Z" fill="#0A442D"/>
<path d="M701.136 286.847H668.003H666.667H663.995H656.513V294.061H643.42L642.886 294.078V299.405H695.524V293.26H701.136V286.847Z" fill="#0A442D"/>
<path d="M704.609 286.847H701.136V293.26H695.524V299.405H704.609V286.847Z" fill="#8ED799"/>
<path d="M548.564 299.405H642.886V294.078L548.564 297.001V299.405Z" fill="#155D3E"/>
<path d="M13.6273 474.957L535.615 329.332H501.269L0 461.329V474.957H13.6273Z" fill="#155D3E"/>
<path d="M535.615 329.332L642.886 299.405H548.564H507.949L402.672 329.332H430.995H501.269H535.615Z" fill="#0A442D"/>
<path d="M0 461.329L501.269 329.332H430.995L0 431.937V461.329Z" fill="#288554"/>
<path d="M430.995 329.332H402.672L0 419.379V431.937L430.995 329.332Z" fill="#155D3E"/>
<path d="M402.672 329.332L507.949 299.405H474.989C470.641 304.001 464.395 305.818 464.395 305.818L467.602 307.83C460.387 315.438 423.781 314.636 418.437 311.964C417.241 311.366 416.367 310.633 416.148 309.899L0 400.407V419.379L402.672 329.332Z" fill="#288554"/>
<path d="M420.045 299.405H396.259H376.486L0 373.955V400.407L416.148 309.899C415.878 308.992 416.609 308.082 418.971 307.422C422.699 306.57 425.918 306.353 429.392 305.284C426.936 303.984 423.074 302.137 420.045 299.405Z" fill="#155D3E"/>
<path d="M0 373.955L376.486 299.405H238.611L0 336.68V373.955Z" fill="#288554"/>
<path d="M0 336.68L238.611 299.405H174.749L0 323.988V336.68Z" fill="#155D3E"/>
<path d="M174.749 299.405H0V323.988L174.749 299.405Z" fill="#288554"/>
<path d="M835.538 210.695H821.109V215.504H839.546L872.496 178.363L875.885 174.544L885.772 163.4L895.391 165.003V168.21H906.079V166.339L928.687 170.153L900.2 138.818L835.538 210.695Z" fill="#001A13"/>
<path d="M879.626 174.544H875.885L872.496 178.363H879.626V174.544Z" fill="#0A442D"/>
<path d="M868.938 184.776H879.626V188.517H868.938V184.776Z" fill="#0A442D"/>
<path d="M886.711 194.128H878.29V198.136H883.053L886.711 194.128Z" fill="#0A442D"/>
<path d="M838.477 218.444H849.165V222.452H838.477V218.444Z" fill="#0A442D"/>
<path d="M823.514 241.957H834.202V245.965H823.514V241.957Z" fill="#0A442D"/>
<path d="M821.109 229.666H813.894V233.674H821.109V229.666Z" fill="#0A442D"/>
<path d="M815.765 255.317V259.592H821.109H821.643V255.317H821.109H815.765Z" fill="#0A442D"/>
<path d="M650.902 260.661H661.59V264.402H650.902V260.661Z" fill="#0A442D"/>
<path d="M821.109 268.945H813.894V273.22H821.109H821.643V268.945H821.109Z" fill="#0A442D"/>
<path d="M704.609 267.074V271.617H711.556V267.074H704.609Z" fill="#0A442D"/>
<path d="M706.212 247.568C714.549 247.355 717.168 247.479 717.435 247.568V252.111H706.212V247.568Z" fill="#0A442D"/>
<path d="M740.681 273.754H751.637V278.029H740.681V273.754Z" fill="#0A442D"/>
<path d="M598.263 285.511H609.218V289.252H598.263V285.511Z" fill="#0A442D"/>
<path d="M585.438 282.572H596.393V286.847H585.438V282.572Z" fill="#0A442D"/>
<path d="M556.313 242.759H548.564V246.767H556.313V242.759Z" fill="#0A442D"/>
<path d="M694.723 30.8683L674.148 126.863L729.205 126.911L724.225 100.608C719.975 108.584 705.144 110.762 705.144 107.021C705.144 101.41 712.27 97.5384 712.091 90.7215C711.289 81.9038 699.929 77.8958 699.532 74.4222C698.464 65.0702 706.894 59.8214 707.816 45.8317C707.709 39.5308 706.074 34.5873 701.937 24.677C698.529 24.9042 695.352 26.968 694.723 30.8683Z" fill="#001A13"/>
<path d="M711.022 30.8683C709.891 26.4855 705.768 24.4217 701.937 24.677C706.074 34.5873 707.709 39.5308 707.816 45.8317C706.894 59.8214 698.464 65.0702 699.532 74.4222C699.929 77.8958 711.289 81.9038 712.091 90.7215C712.27 97.5384 705.144 101.41 705.144 107.021C705.144 110.762 719.975 108.584 724.225 100.608L711.022 30.8683Z" fill="#0A442D"/>
<path d="M801.559 88.5838L790.648 30.8683C789.596 27.1858 786.148 24.9922 782.632 24.7654C780.875 28.6796 779.426 33.5405 781.029 36.4797C787.976 47.9693 790.039 57.9353 789.579 63.467C786.456 85.2601 768.203 98.2031 769.539 109.158C772.211 120.381 779.826 114.076 800.695 126.974L808.818 126.981L801.559 88.5838Z" fill="#0A442D"/>
<path d="M835.003 6.01864C833.44 1.64092 828.949 -0.541187 825.117 0.114696C832.064 15.1878 833.957 23.0726 835.003 36.4797C831.948 61.1189 811.057 82.7055 812.558 93.9279C813.667 102.211 815.772 103.732 821.643 112.098C824.048 116.373 823.531 117.177 823.514 119.312C836.134 123.348 843.166 122.312 855.671 117.442L835.003 6.01864Z" fill="#0A442D"/>
<path d="M808.818 126.981L857.448 127.023L855.671 117.442C843.166 122.312 836.134 123.348 823.514 119.312C823.531 117.177 824.048 116.373 821.643 112.098C815.772 103.732 813.667 102.211 812.558 93.9279C811.057 82.7055 831.948 61.1189 835.003 36.4797C833.957 23.0726 832.064 15.1878 825.117 0.114696C822.4 0.579722 820.014 2.47138 819.238 6.01864L801.559 88.5838L808.818 126.981Z" fill="#001A13"/>
<path d="M774.081 30.8683L753.774 126.933L800.695 126.974C779.826 114.076 772.211 120.381 769.539 109.158C768.203 98.2031 786.456 85.2601 789.579 63.467C790.039 57.9353 787.976 47.9693 781.029 36.4797C779.426 33.5405 780.875 28.6796 782.632 24.7654C779.004 24.5315 775.303 26.3908 774.081 30.8683Z" fill="#001A13"/>
<path d="M526.386 210.695V201.343L530.324 197.067L531.309 195.999L536.54 190.32L525.852 134.542C524.491 129.966 521.299 127.852 518.103 127.722C518.55 129.112 519.533 130.306 520.623 131.631C522.788 134.261 525.377 137.408 525.05 143.627C524.674 150.775 522.712 152.875 520.764 154.96C519.071 156.772 517.388 158.573 516.767 163.667C516.472 166.083 518.556 168.917 520.775 170.347C529.325 175.157 532.699 179.712 531.309 195.197L524.248 203.213C524.357 214.135 526.974 220.805 534.937 233.407L543.754 229.132L540.815 210.695H526.386Z" fill="#0A442D"/>
<path d="M464.395 215.504C463.861 221.383 465.197 225.391 467.067 229.132H489.78L496.29 198.403C484.168 191.991 467.067 199.472 464.395 215.504Z" fill="#0A442D"/>
<path d="M896.44 131.145L900.2 127.061L857.448 127.023L846.154 131.145H896.44Z" fill="#50C878"/>
<path d="M888.636 139.619L895.525 132.138H843.433L822.931 139.619H888.636Z" fill="#50C878"/>
<path d="M881.5 147.368L887.909 140.408L820.589 140.474L811.126 143.927L814.503 147.368H881.5Z" fill="#50C878"/>
<path d="M831.797 201.343L835.734 197.067H659.956L648.23 201.343H831.797Z" fill="#50C878"/>
<path d="M836.718 195.999L843.608 188.517H786.183L783.166 191.991H743.086V188.517H707.091L704.075 191.991H673.881L662.888 195.999H836.718Z" fill="#50C878"/>
<path d="M844.592 187.448L850.743 180.768H821.828H792.912L787.111 187.448H844.592Z" fill="#50C878"/>
<path d="M851.831 179.587L858.509 172.335H800.235L793.938 179.587H851.831Z" fill="#50C878"/>
<path d="M859.601 171.149L865.753 164.469H807.067L801.266 171.149H859.601Z" fill="#50C878"/>
<path d="M867.057 163.053L873.134 156.453H814.028L808.296 163.053H867.057Z" fill="#50C878"/>
<path d="M874.118 155.384L880.27 148.704H815.814L818.437 151.376L814.956 155.384H874.118Z" fill="#50C878"/>
<path d="M807.749 140.486L811.126 143.927L820.589 140.474L807.749 140.486Z" fill="#0A442D"/>
<path d="M713.821 180.768L708.02 187.448H743.086V180.768H713.821Z" fill="#50C878"/>
<path d="M717.301 176.76L714.846 179.587H743.086V172.335H730.048L717.301 176.76Z" fill="#50C878"/>
<path d="M743.086 167.809L733.465 171.149H743.086V167.809Z" fill="#50C878"/>
<path d="M649.684 164.469L643.883 171.149H650.202L663.995 165.27V164.469H649.684Z" fill="#50C878"/>
<path d="M642.853 172.335L640.171 175.424L647.418 172.335H642.853Z" fill="#50C878"/>
<path d="M663.995 156.987V156.453H656.646L650.914 163.053H663.995V156.987Z" fill="#50C878"/>
<path d="M663.995 151.376L668.208 148.382H658.116L661.054 151.376L657.574 155.384H663.995V151.376Z" fill="#50C878"/>
<path d="M669.873 147.199L679.32 140.487H650.367L657.121 147.368L669.873 147.199Z" fill="#50C878"/>
<path d="M680.541 139.619L684.302 136.947H725.184L726.495 138.283L741.265 132.138H590.134L583.489 139.352H602.626L606.011 136.947H646.893L649.515 139.619H680.541Z" fill="#50C878"/>
<path d="M650.914 126.842L606.813 126.804L595.057 126.794L591.049 131.145H743.651L753.774 126.933L729.205 126.911L674.148 126.863L650.914 126.842Z" fill="#50C878"/>
<path d="M591.345 147.368L601.122 140.421H582.504L576.105 147.368H591.345Z" fill="#50C878"/>
<path d="M585.704 151.376L590.216 148.17H575.366L568.721 155.384H585.704V151.376Z" fill="#50C878"/>
<path d="M585.704 156.987V156.453H567.736L561.657 163.053H585.704V156.987Z" fill="#50C878"/>
<path d="M554.199 171.149H585.704V164.469H560.352L554.199 171.149Z" fill="#50C878"/>
<path d="M546.426 179.587H585.704V172.335H553.106L546.426 179.587Z" fill="#50C878"/>
<path d="M539.185 187.448H585.704V180.768H545.338L539.185 187.448Z" fill="#50C878"/>
<path d="M592.652 195.999L602.271 191.991H585.704V188.517H538.2L536.54 190.32L531.309 195.999H592.652Z" fill="#50C878"/>
<path d="M526.386 201.343H579.826L590.087 197.067H530.324L526.386 201.343Z" fill="#50C878"/>
<path d="M900.2 127.061V138.818L928.687 170.153L929.593 171.149H940.281L900.2 127.061Z" fill="#288554"/>
<path d="M1028.51 176.493L1033 171.149L1015.19 176.493H1028.51Z" fill="#288554"/>
<path d="M1021.56 184.776L1027.61 177.562H1011.63L987.584 184.776H1021.56Z" fill="#288554"/>
<path d="M1014.6 193.059L1020.46 186.081H983.235L959.978 193.059H1014.6Z" fill="#288554"/>
<path d="M1007.62 201.375L1013.7 194.128H956.416L932.265 201.375H1007.62Z" fill="#288554"/>
<path d="M1000.4 209.966L1006.52 202.679H878.907L872.257 209.966H1000.4Z" fill="#288554"/>
<path d="M993.505 218.176L999.332 211.238L871.104 211.229L864.764 218.176H993.505Z" fill="#288554"/>
<path d="M986.774 226.192L992.383 219.512H863.545L857.448 226.192H986.774Z" fill="#288554"/>
<path fill-rule="evenodd" clip-rule="evenodd" d="M857.448 231.536V226.192L863.545 219.512L864.764 218.176L871.104 211.229L872.257 209.966L878.907 202.679L880.097 201.375L883.053 198.136H878.29V194.128H886.711L887.686 193.059H884.436V189.009H891.383L894.055 186.081L895.245 184.776L901.83 177.562L902.805 176.493L907.682 171.149H929.593L928.687 170.153L906.079 166.339V168.21H895.391V165.003L885.772 163.4L875.885 174.544H879.626V178.363H872.496L839.546 215.504H821.109V229.666V233.674V234.476H828.323V238.216H821.109V255.317H821.643V259.592H821.109V268.945H821.643V273.22H821.109V299.405H837.943C829.552 294.158 827.027 289.989 826.987 280.701C826.944 270.548 832.663 253.049 841.416 231.536C842.503 228.864 844.908 229.132 845.959 231.536C851.298 243.756 853.916 250.557 857.448 262.532V244.896H852.906V241.156H857.448V236.346V231.536ZM879.626 184.776H868.938V188.517H879.626V184.776ZM849.165 218.444H838.477V222.452H849.165V218.444ZM834.202 241.957H823.514V245.965H834.202V241.957ZM884.436 179.699H873.747V183.44H884.436V179.699ZM854.776 213.367H844.088V217.375H854.776V213.367Z" fill="#B6E3BD"/>
<path d="M844.088 213.367H854.776V217.375H844.088V213.367Z" fill="#50C878"/>
<path d="M828.323 234.476H821.109V238.216H828.323V234.476Z" fill="#50C878"/>
<path d="M857.448 241.156H852.906V244.896H857.448V241.156Z" fill="#50C878"/>
<path d="M887.686 193.059L891.383 189.009H884.436V193.059H887.686Z" fill="#50C878"/>
<path d="M873.747 179.699H884.436V183.44H873.747V179.699Z" fill="#50C878"/>
<path d="M808.283 247.034H819.506V251.309H808.283V247.034Z" fill="#50C878"/>
<path fill-rule="evenodd" clip-rule="evenodd" d="M704.609 271.617V286.847V299.405H755.872C755.064 297.906 754.576 296.222 754.576 294.329C754.576 283.373 770.341 275.09 785.838 275.09C805.506 275.868 818.17 283.373 818.17 293.527C818.17 295.742 817.671 297.695 816.857 299.405H821.109V273.22H813.894V268.945H821.109V259.592H815.765V255.317H821.109V238.216V234.476V233.674H813.894V229.666H821.109V215.504L704.609 223.977V241.69H711.556V245.698H704.609V267.074H711.556V271.617H704.609ZM806.68 222.986V268.945H806.146V270.548H719.305V224.055H720.107V223.253L806.68 222.986ZM819.506 247.034H808.283V251.309H819.506V247.034ZM718.771 275.892H707.816V279.633H718.771V275.892ZM717.435 247.568C717.168 247.479 714.549 247.355 706.212 247.568V252.111H717.435V247.568ZM751.637 273.754H740.681V278.029H751.637V273.754ZM755.912 278.831H745.224V282.572H755.912V278.831Z" fill="#8ED799"/>
<path fill-rule="evenodd" clip-rule="evenodd" d="M649.031 268.945H648.23V270.815H561.389V234.703L548.564 235.277V242.759H556.313V246.767H548.564V276.693H556.313V280.969H548.564V297.001L642.886 294.078V294.061H643.42H656.513V286.847H663.995V259.592H656.513V255.317H663.995V226.931L649.031 228.019V268.945ZM602.004 276.693H591.049V280.969H602.004V276.693ZM596.393 282.572H585.438V286.847H596.393V282.572ZM609.218 285.511H598.263V289.252H609.218V285.511ZM661.59 260.661H650.902V264.402H661.59V260.661ZM564.061 283.908H552.305V288.183H564.061V283.908Z" fill="#B6E3BD"/>
<path d="M644.756 231.536V228.33L649.031 228.019V223.253H562.458V234.655L566.466 234.476V231.536V227.796H602.806V231.536H606.279V227.796H644.372V231.536H644.756Z" fill="#288554"/>
<path d="M562.458 268.945V234.655L561.389 234.703V270.815H648.23V268.945H562.458Z" fill="#001A13"/>
<path d="M663.995 255.317H656.513V259.592H663.995V255.317Z" fill="#50C878"/>
<path d="M704.609 241.69V245.698H711.556V241.69H704.609Z" fill="#50C878"/>
<path d="M707.816 275.892H718.771V279.633H707.816V275.892Z" fill="#50C878"/>
<path d="M745.224 278.831H755.912V282.572H745.224V278.831Z" fill="#50C878"/>
<path d="M591.049 276.693H602.004V280.969H591.049V276.693Z" fill="#50C878"/>
<path d="M552.305 283.908H564.061V288.183H552.305V283.908Z" fill="#0A442D"/>
<path d="M556.313 276.693H548.564V280.969H556.313V276.693Z" fill="#50C878"/>
<path d="M602.806 264.135V231.536H566.466V234.476V264.135H602.806Z" fill="#8ED799"/>
<path d="M644.372 264.135V231.536H606.279V264.135H644.372Z" fill="#B6E3BD"/>
<path d="M668.003 286.847V226.639L666.667 226.736V286.847H668.003Z" fill="#001A13"/>
<path d="M666.667 226.736L663.995 226.931V255.317V259.592V286.847H666.667V226.736Z" fill="#8ED799"/>
<path d="M676.019 227.261L683.5 235.01L683.257 225.53L677.852 225.923C677.283 226.269 676.684 226.706 676.019 227.261Z" fill="#B6E3BD"/>
<path d="M692.051 227.528C690.653 226.273 689.559 225.56 688.468 225.151L684.815 225.417L684.569 235.01L692.051 227.528Z" fill="#B6E3BD"/>
<path d="M695.792 235.812C695.394 233.027 694.932 231.453 693.12 228.597L685.104 235.812H695.792Z" fill="#B6E3BD"/>
<path d="M675.217 228.597L682.699 235.812H672.545C672.83 232.661 673.332 231.044 675.217 228.597Z" fill="#B6E3BD"/>
<path d="M683.233 224.589C681.035 224.67 679.58 224.874 677.852 225.923L683.257 225.53L683.233 224.589Z" fill="#B6E3BD"/>
<path d="M684.836 224.589L684.815 225.417L688.468 225.151C687.36 224.735 686.255 224.632 684.836 224.589Z" fill="#B6E3BD"/>
<path d="M724.382 264.135H760.721V231.804H724.382V264.135Z" fill="#B6E3BD"/>
<path d="M802.405 264.135V231.804H764.729V264.135H802.405Z" fill="#B6E3BD"/>
<path fill-rule="evenodd" clip-rule="evenodd" d="M763.393 142.291L743.086 156.987V163.053V164.469V167.809V171.149V172.335V179.587V180.768V187.448V188.517V191.991H783.166V156.453L763.393 142.291ZM748.965 154.85H777.822V187.715H777.555V188.945H747.629V155.384H748.965V154.85Z" fill="#B6E3BD"/>
<path fill-rule="evenodd" clip-rule="evenodd" d="M684.302 142.291L663.995 156.987V163.053V164.469V165.27V171.149V172.335V179.587V180.768V187.448V188.517V191.991H673.881H704.075V156.453L684.302 142.291ZM669.873 154.85H698.731V187.715H698.464V188.945H668.537V155.384H669.873V154.85Z" fill="#B6E3BD"/>
<path fill-rule="evenodd" clip-rule="evenodd" d="M606.011 142.291L585.704 156.987V163.053V164.469V171.149V172.335V179.587V180.768V187.448V188.517V191.991H602.271H625.784V156.453L606.011 142.291ZM591.582 154.85H620.44V187.715H620.173V188.945H590.246V155.384H591.582V154.85Z" fill="#B6E3BD"/>
<path d="M775.685 173.821H764.195V185.578H775.685V173.821Z" fill="#288554"/>
<path d="M775.685 155.918H764.195V171.149H775.685V155.918Z" fill="#288554"/>
<path d="M761.256 155.918H750.033V171.149H761.256V155.918Z" fill="#288554"/>
<path d="M761.256 185.578V173.821H750.033V185.578H761.256Z" fill="#288554"/>
<path d="M696.593 155.918H685.104V171.149H696.593V155.918Z" fill="#288554"/>
<path d="M696.593 173.821H685.104V185.578H696.593V173.821Z" fill="#288554"/>
<path d="M682.164 185.578V173.821H670.942V185.578H682.164Z" fill="#288554"/>
<path d="M682.164 155.918H670.942V171.149H682.164V155.918Z" fill="#288554"/>
<path d="M618.302 155.918H606.813V171.149H618.302V155.918Z" fill="#288554"/>
<path d="M603.873 155.918H592.651V171.149H603.873V155.918Z" fill="#288554"/>
<path d="M618.302 173.821H606.813V185.578H618.302V173.821Z" fill="#288554"/>
<path d="M603.873 185.578V173.821H592.651V185.578H603.873Z" fill="#288554"/>
<path d="M591.582 187.715V155.384H590.246V188.945H620.173V187.715H591.582Z" fill="#001A13"/>
<path d="M669.873 187.715V155.384H668.537V188.945H698.464V187.715H669.873Z" fill="#001A13"/>
<path d="M748.965 187.715V155.384H747.629V188.945H777.555V187.715H748.965Z" fill="#001A13"/>
<path d="M1195.72 269.746L1200 268.677V251.844H1197.86L1195.72 254.248V263.066H1194.66V253.18L1192.79 250.508H1189.58L1187.44 253.18V263.066H1186.11V252.912L1184.24 250.508H1181.03L1179.43 252.912V263.066H1178.09V252.912L1176.22 250.508H1173.55L1171.41 252.912V263.066H1170.34V254.248L1168.47 252.111H1165.53L1163.66 254.516H1163.13L1161.26 252.111H1158.58L1156.45 254.248V263.066H1155.11V252.912L1153.24 250.508H1150.3L1148.7 252.912H1147.63L1145.76 250.508H1143.09L1140.95 253.18V261.196H1142.02L1143.09 262.532L1136.94 271.082L1138.54 272.151H1139.08V269.479H1140.95V271.349L1147.36 269.479L1147.9 270.548L1143.09 276.159L1143.62 276.961L1154.31 274.021L1155.11 275.357L1150.03 279.098L1155.64 278.297V268.945H1156.71V278.297L1170.34 275.357V268.945H1171.41V274.823L1178.09 273.487V268.945H1179.43V273.22L1186.11 271.617V268.677H1187.44V271.349L1194.66 269.746V268.677H1195.72V269.746Z" fill="#DFF1E1"/>
<path d="M1101.94 252.912L1105.14 270.548L1118.24 268.41L1115.83 259.592H1117.17L1122.51 269.212H1124.11L1125.72 256.119H1127.05L1128.92 266.005L1131.06 261.73V253.18L1128.92 250.508H1125.99L1123.58 252.912V263.066H1123.05V252.912L1120.91 250.508H1118.24L1115.83 253.18L1113.69 250.508H1111.02L1108.88 253.447V263.066H1108.08V254.248L1105.95 251.309H1103.54L1101.94 252.912Z" fill="#DFF1E1"/>
<path d="M1131.86 257.989H1132.4L1134.54 253.447L1135.87 253.981L1133.73 265.204V267.608H1135.07L1139.35 263.066V253.18L1137.21 250.24H1134.54L1131.86 253.18V257.989Z" fill="#DFF1E1"/>
<path d="M687.241 241.156H695.257V239.82H685.905V259.325H687.241V241.156Z" fill="#F5F5F5"/>
<path d="M669.606 239.82H677.088V241.156H670.942V259.325H669.606V239.82Z" fill="#F5F5F5"/>
<path d="M669.606 264.402H677.088V265.738H670.942V283.908H669.606V264.402Z" fill="#F5F5F5"/>
<path d="M687.241 265.738H695.257V264.402H685.905V283.908H687.241V265.738Z" fill="#F5F5F5"/>
<path d="M700.067 252.912H696.326V264.402H700.067V252.912Z" fill="#001A13"/>
<path d="M1041.55 260.127H1037.81V271.617H1041.55V260.127Z" fill="#001A13"/>
<path d="M986.774 231.536H857.448V236.346L986.774 236.079V231.536Z" fill="#001A13"/>
<path d="M1033 177.562L986.774 231.536V236.079L1019.64 197.869L1051.7 218.659L1057.14 222.184L1078.16 235.812V229.373L1033 177.562Z" fill="#001A13"/>
<path d="M857.448 299.405H863.594V267.876H861.991V263.868H863.594V262.532V258.524V245.164L874.549 244.356V241.156H917.938L986.774 236.079L857.448 236.346V241.156V244.896V262.532V291.924V299.405Z" fill="#0A442D"/>
<path d="M863.594 299.405H866.266H874.549V283.373H867.335V278.831H874.549V244.356L863.594 245.164V258.524H868.403V262.532H863.594V263.868H871.076V267.876H863.594V299.405Z" fill="#DFF1E1"/>
<path fill-rule="evenodd" clip-rule="evenodd" d="M972.077 295.397C972.077 289.577 977.505 283.455 986.774 280.769V255.852H979.292V251.844H986.774V236.079L917.938 241.156H969.138V271.082H974.482V275.09H969.138V299.405H972.647C972.28 298.29 972.077 296.987 972.077 295.397ZM984.903 246.767H973.681V250.508H984.903V246.767ZM981.697 276.159H970.474V280.434H981.697V276.159Z" fill="#DFF1E1"/>
<path fill-rule="evenodd" clip-rule="evenodd" d="M1078.16 260.928V235.812L1057.14 222.184H1046.89V218.659H1051.7L1019.64 197.869L986.774 236.079V251.844V255.852V280.769C989.845 279.878 993.337 279.365 997.194 279.365C1005.54 279.695 1011.51 281.717 1015.63 284.364V233.407V230.735H1046.89V275.892H1057.31V279.633H1046.89V299.405H1050.9C1050.9 292.191 1059.72 287.649 1066.4 289.786C1064.26 280.434 1068.51 274.564 1078.16 274.289V264.936H1072.01V260.928H1078.16ZM1062.66 270.013H1051.44V274.289H1062.66V270.013ZM1062.66 252.378H1051.97V248.637H1062.66V252.378ZM1066.13 241.957H1055.44V245.698H1066.13V241.957ZM1051.7 223.788H1041.02V227.528H1051.7V223.788ZM1010.02 225.925H999.332V229.666H1010.02V225.925ZM1006.81 238.216H995.591V241.957H1006.81V238.216ZM1004.68 258.524H993.454V262.532H1004.68V258.524ZM1009.49 263.868H998.798V267.608H1009.49V263.868ZM1004.68 269.212H993.988V272.953H1004.68V269.212Z" fill="#50C878"/>
<path d="M1043.95 299.405H1046.89V279.633V275.892V230.735H1015.63V233.407H1043.95V299.405Z" fill="#001A13"/>
<path d="M1051.97 252.378H1062.66V248.637H1051.97V252.378Z" fill="#8ED799"/>
<path d="M1055.44 241.957H1066.13V245.698H1055.44V241.957Z" fill="#0A442D"/>
<path d="M1057.31 275.892H1046.89V279.633H1057.31V275.892Z" fill="#0A442D"/>
<path d="M1078.16 264.936V260.928H1072.01V264.936H1078.16Z" fill="#0A442D"/>
<path d="M1051.7 218.659H1046.89V222.184H1057.14L1051.7 218.659Z" fill="#0A442D"/>
<path d="M993.988 269.212H1004.68V272.953H993.988V269.212Z" fill="#0A442D"/>
<path d="M993.454 258.524H1004.68V262.532H993.454V258.524Z" fill="#0A442D"/>
<path d="M995.591 238.216H1006.81V241.957H995.591V238.216Z" fill="#B6E3BD"/>
<path d="M999.332 225.925H1010.02V229.666H999.332V225.925Z" fill="#B6E3BD"/>
<path d="M998.798 263.868H1009.49V267.608H998.798V263.868Z" fill="#B6E3BD"/>
<path d="M1051.44 270.013H1062.66V274.289H1051.44V270.013Z" fill="#B6E3BD"/>
<path d="M1078.16 299.405V274.289C1068.51 274.564 1064.26 280.434 1066.4 289.786C1059.72 287.649 1050.9 292.191 1050.9 299.405H1078.16Z" fill="#0A442D"/>
<path d="M1041.02 223.788H1051.7V227.528H1041.02V223.788Z" fill="#B6E3BD"/>
<path d="M1083.77 235.812L1078.16 229.373V235.812H1083.77Z" fill="#0A442D"/>
<path d="M938.677 256.653H964.061V249.172H956.58H946.159H938.677V256.653Z" fill="#8ED799"/>
<path d="M909.285 256.653H934.937V249.172H927.989H916.232H909.285V256.653Z" fill="#8ED799"/>
<path d="M879.626 256.653H905.277V249.172H899.666H888.978H879.626V256.653Z" fill="#8ED799"/>
<path d="M938.677 247.034V249.172H946.159L944.021 247.034H938.677Z" fill="#0A442D"/>
<path d="M964.061 247.034H954.442L956.58 249.172H964.061V247.034Z" fill="#0A442D"/>
<path d="M954.442 247.034H944.021L946.159 249.172H956.58L954.442 247.034Z" fill="#50C878"/>
<path d="M934.937 247.034H925.05L927.989 249.172H934.937V247.034Z" fill="#0A442D"/>
<path d="M909.285 247.034V249.172H916.232L914.095 247.034H909.285Z" fill="#0A442D"/>
<path d="M905.277 247.034H897.261L899.666 249.172H905.277V247.034Z" fill="#0A442D"/>
<path d="M879.626 247.034V249.172H888.978L886.573 247.034H879.626Z" fill="#0A442D"/>
<path d="M897.261 247.034H886.573L888.978 249.172H899.666L897.261 247.034Z" fill="#50C878"/>
<path d="M925.05 247.034H914.095L916.232 249.172H927.989L925.05 247.034Z" fill="#50C878"/>
<path d="M986.774 251.844H979.292V255.852H986.774V251.844Z" fill="#0A442D"/>
<path d="M974.482 271.082H969.138V275.09H974.482V271.082Z" fill="#0A442D"/>
<path d="M973.681 246.767H984.903V250.508H973.681V246.767Z" fill="#50C878"/>
<path d="M970.474 276.159H981.697V280.434H970.474V276.159Z" fill="#50C878"/>
<path d="M874.549 278.831H867.335V283.373H874.549V278.831Z" fill="#50C878"/>
<path d="M861.991 267.876H863.594H871.076V263.868H863.594H861.991V267.876Z" fill="#50C878"/>
<path d="M863.594 258.524V262.532H868.403V258.524H863.594Z" fill="#0A442D"/>
<path d="M875.618 260.928H968.069V259.592H875.618V260.928Z" fill="#288554"/>
<path d="M875.618 273.22H968.069V271.884H875.618V273.22Z" fill="#288554"/>
<path d="M875.618 286.847H968.069V285.778H875.618V286.847Z" fill="#288554"/>
<path d="M875.618 244.277L968.069 244.362V243.293H888.954L875.618 244.277Z" fill="#288554"/>
<path d="M875.618 241.797V243.293H888.954L909.776 241.758L875.618 241.797Z" fill="#001A13"/>
<path d="M875.618 299.405V286.847V285.778V273.22V271.884V260.928V259.592V244.277L874.549 244.356V278.831V283.373V299.405H875.618Z" fill="#001A13"/>
<path d="M874.549 241.156V244.356L875.618 244.277V243.293V241.797L909.776 241.758L917.938 241.156H874.549Z" fill="#001A13"/>
<path d="M968.069 243.293V241.69L909.776 241.758L888.954 243.293H968.069Z" fill="white"/>
<path d="M968.069 286.847V299.405H969.138V275.09V271.082V241.156H917.938L909.776 241.758L968.069 241.69V243.293V244.362V259.592V260.928V271.884V273.22V285.778V286.847Z" fill="#001A13"/>
<path d="M479.092 289.519C479.092 279.366 466.428 271.86 446.76 271.082C431.263 271.082 415.498 279.366 415.498 290.321C415.498 293.189 416.619 295.576 418.273 297.572C418.814 298.224 419.411 298.834 420.045 299.405C422.702 301.801 426 303.517 428.427 304.779C428.767 304.956 429.09 305.124 429.392 305.284C430.562 305.655 431.693 305.986 432.796 306.278C442.718 308.906 450.387 308.4 464.395 305.818C464.395 305.818 470.641 304.001 474.989 299.405C475.596 298.764 476.166 298.068 476.677 297.316C478.12 295.19 479.092 292.611 479.092 289.519Z" fill="#0A442D"/>
<path d="M467.602 307.83L464.395 305.818C450.387 308.4 442.718 308.906 432.796 306.278C431.693 305.986 430.562 305.655 429.392 305.284C427.323 305.921 425.345 306.255 423.295 306.601C421.903 306.836 420.479 307.077 418.971 307.422C416.609 308.082 415.878 308.992 416.148 309.899C416.367 310.633 417.241 311.366 418.437 311.964C423.781 314.636 460.387 315.438 467.602 307.83Z" fill="#001A13"/>
<path fill-rule="evenodd" clip-rule="evenodd" d="M517.334 127.729C517.334 127.729 517.334 127.729 517.334 127.729C517.344 127.728 517.354 127.728 517.364 127.727C517.378 127.726 517.393 127.726 517.408 127.725C517.639 127.714 517.871 127.713 518.103 127.722C518.55 129.112 519.533 130.306 520.623 131.631C522.788 134.261 525.377 137.408 525.05 143.627C524.674 150.775 522.712 152.875 520.764 154.96C519.071 156.772 517.388 158.573 516.767 163.667C516.472 166.083 518.556 168.917 520.775 170.347C529.325 175.157 532.699 179.712 531.309 195.197L524.248 203.213C524.357 214.135 526.974 220.805 534.937 233.407L543.754 229.132" fill="white"/>
<path d="M548.564 210.695H540.815L543.754 229.132L534.937 233.407C526.974 220.805 524.357 214.135 524.248 203.213L531.309 195.197C532.699 179.712 529.325 175.157 520.775 170.347C518.556 168.917 516.472 166.083 516.767 163.667C517.388 158.573 519.071 156.772 520.764 154.96C522.712 152.875 524.674 150.775 525.05 143.627C525.377 137.408 522.788 134.261 520.623 131.631C519.533 130.306 518.55 129.112 518.103 127.722C517.871 127.713 517.639 127.714 517.408 127.725L517.364 127.727L517.334 127.729C513.894 127.929 510.621 130.401 509.82 134.542L496.29 198.403L489.78 229.132H467.067C465.197 225.391 463.861 221.383 464.395 215.504C464.395 215.504 422.83 219.391 396.259 222.452C239.655 240.491 0 299.405 0 299.405L418.273 297.572C416.619 295.576 415.498 293.189 415.498 290.321C415.498 279.366 431.263 271.082 446.76 271.082C466.428 271.86 479.092 279.366 479.092 289.519C479.092 292.611 478.12 295.19 476.677 297.316L548.564 297.001V280.969V276.693V246.767V242.759V235.277V210.695Z" fill="#001A13"/>
</svg>
