<svg width="128" height="128" viewBox="0 0 128 128" fill="none" xmlns="http://www.w3.org/2000/svg">
<path d="M74.3075 44.6484C73.3752 43.4811 72.8178 42.0012 72.8178 40.3911C72.8178 36.6209 75.8742 33.5645 79.6445 33.5645C83.4147 33.5645 86.4711 36.6209 86.4711 40.3911C86.4711 41.0409 86.3803 41.6696 86.2107 42.265C85.3963 45.1242 82.7649 47.2178 79.6445 47.2178C77.4843 47.2178 75.5584 46.2145 74.3075 44.6484Z" fill="white"/>
<path d="M85.3333 79.6445L93.8667 71.1111L104.676 60.3022L95.0045 50.5228L76.8278 68.2667L75.6622 69.4045C72.8178 72.2489 72.8178 76.2311 75.6622 79.0756C78.6485 82.0618 81.92 83.0578 85.3333 79.6445Z" fill="#669B7E"/>
<path d="M108.658 56.32L98.9867 46.6489L95.0045 50.5228L104.676 60.3022L108.658 56.32Z" fill="#0E6D4A"/>
<path d="M99.5556 34.7023L98.9867 46.6489L108.658 56.32L120.036 55.7511L128 47.7867V36.9778L118.329 46.6489C111.315 45.8088 109.277 43.6385 108.658 36.9778L118.329 27.3067H107.52L100.28 34.1334L99.5556 34.7023Z" fill="#B4C432"/>
<path d="M90.4533 100.124H70.5422H69.9733V112.071L72.8178 114.916H79.6445H87.6089L90.4533 112.071V100.124Z" fill="#0A442D"/>
<path d="M3.41333 100.124V111.502L6.25778 114.347H21.0489L23.8933 111.502V100.124H3.41333Z" fill="#0A442D"/>
<path d="M63.7156 75.6623V72.2489H30.72V75.6623H63.7156Z" fill="#B4C432"/>
<path d="M23.8933 100.124H69.9733V87.04H23.8933V100.124Z" fill="#B4C432"/>
<path d="M3.98222 65.3938L0 69.9734V77.3689H23.8933L19.3422 65.3938H3.98222Z" fill="#669B7E"/>
<path fill-rule="evenodd" clip-rule="evenodd" d="M70.5422 100.124H90.4533H93.8667V71.1111L85.3333 79.6445C81.92 83.0578 78.6485 82.0618 75.6622 79.0756C72.8178 76.2311 72.8178 72.2489 75.6622 69.4045L76.8278 68.2667L73.9556 67.6978V61.44L69.9733 58.5956L63.7156 64.2845L55.9395 56.8889H33.9437H30.72H21.0489H11.3778L3.98222 65.3938H19.3422L23.8933 77.3689H0V100.124H3.41333H23.8933V87.04H69.9733V100.124H70.5422ZM63.7156 72.2489V75.6623H30.72V72.2489H63.7156Z" fill="#0E6D4A"/>
<path fill-rule="evenodd" clip-rule="evenodd" d="M98.9867 46.6489L99.5556 34.7023L100.28 34.1334L97.28 30.72L103.538 25.0311L95.5733 16.4978L89.8844 22.1867L85.9022 19.3423V13.0845H73.9556V19.3423L69.9733 21.6178L64.2844 16.4978L56.32 25.0311L61.44 30.1511L59.7333 34.7023H51.7689V38.1156V46.6489H59.1644L62.0089 50.6311L55.9395 56.8889L63.7156 64.2845L69.9733 58.5956L73.9556 61.44V67.6978L76.8278 68.2667L95.0045 50.5228L98.9867 46.6489ZM72.8178 40.3911C72.8178 42.0012 73.3752 43.4811 74.3075 44.6484C75.5584 46.2145 77.4843 47.2178 79.6445 47.2178C82.7649 47.2178 85.3963 45.1242 86.2107 42.265C86.3803 41.6696 86.4711 41.0409 86.4711 40.3911C86.4711 36.6209 83.4147 33.5645 79.6445 33.5645C75.8742 33.5645 72.8178 36.6209 72.8178 40.3911Z" fill="#0A442D"/>
<path d="M19.9111 38.1156L11.3778 56.8889H21.0489L29.7007 38.1156H19.9111Z" fill="#0A442D"/>
<path fill-rule="evenodd" clip-rule="evenodd" d="M21.0489 56.8889L29.7007 38.1156H38.1867L30.72 56.8889H21.0489ZM42.4296 38.1156L33.9437 56.8889H55.9395L62.0089 50.6311L59.1644 46.6489H51.7689V38.1156H42.4296Z" fill="#669B7E"/>
<path d="M33.9437 56.8889L42.4296 38.1156H38.1867L30.72 56.8889H33.9437Z" fill="#0A442D"/>
</svg>
