<svg width="128" height="128" viewBox="0 0 128 128" fill="none" xmlns="http://www.w3.org/2000/svg">
<path d="M108.964 74.8213C108.694 77.3346 108.224 79.7877 107.571 82.1643H113.73C114.383 79.7877 114.853 77.3346 115.123 74.8213H108.964Z" fill="#669B7E"/>
<path d="M106.465 85.6426C105.538 88.203 104.393 90.6582 103.052 92.9856H109.211C110.552 90.6582 111.697 88.203 112.624 85.6426H106.465Z" fill="#0E6D4A"/>
<path d="M109.232 69.7972C109.232 71.4947 109.141 73.171 108.964 74.8213H115.123C115.3 73.171 115.391 71.4947 115.391 69.7972C115.391 44.184 94.709 23.4204 69.1969 23.4204C68.1621 23.4204 67.1352 23.4545 66.1174 23.5218C90.1936 25.1128 109.232 45.2229 109.232 69.7972Z" fill="#0A442D"/>
<path d="M103.052 92.9856C95.5479 106.009 81.9176 115.028 66.1174 116.073C67.1352 116.14 68.1621 116.174 69.1969 116.174C86.2951 116.174 101.224 106.848 109.211 92.9856H103.052Z" fill="#0A442D"/>
<path d="M107.571 82.1643C107.247 83.3432 106.878 84.5033 106.465 85.6426H112.624C113.037 84.5033 113.406 83.3432 113.73 82.1643H107.571Z" fill="#0A442D"/>
<path d="M53.7054 30.3045C55.2442 29.9393 56.8171 29.6625 58.4184 29.4796C59.9343 29.3064 61.4757 29.2175 63.0378 29.2175C65.1318 29.2175 67.1887 29.3773 69.1969 29.6856C88.5968 32.6634 103.457 49.488 103.457 69.7972C103.457 70.7062 103.428 71.6083 103.369 72.5025C103.096 76.6703 102.196 80.6662 100.763 84.3962C95.499 98.097 83.0436 108.209 68.0421 110.069C66.4024 110.272 64.7323 110.377 63.0378 110.377C60.2693 110.377 57.5659 110.097 54.9539 109.565C52.836 109.134 50.7782 108.536 48.7947 107.786C38.1832 103.774 29.6963 95.4084 25.4937 84.8582C24.5126 82.3954 23.765 79.8135 23.2783 77.1402C22.8448 74.7586 22.6183 72.3045 22.6183 69.7972C22.6183 68.8881 22.648 67.986 22.7067 67.0919C22.9912 62.7515 23.9555 58.5975 25.4937 54.7362C25.8272 53.899 26.1877 53.0755 26.574 52.2669C24.7165 51.3149 23.0523 50.3439 21.5766 49.3255C18.5463 55.4997 16.844 62.4489 16.844 69.7972C16.844 95.4104 37.5257 116.174 63.0378 116.174C64.0726 116.174 65.0995 116.14 66.1174 116.073C81.9176 115.028 95.5479 106.009 103.052 92.9856C104.393 90.6582 105.538 88.203 106.465 85.6426C106.878 84.5033 107.247 83.3432 107.571 82.1643C108.224 79.7877 108.694 77.3346 108.964 74.8213C109.141 73.171 109.232 71.4947 109.232 69.7972C109.232 45.2229 90.1936 25.1128 66.1174 23.5218C65.0995 23.4545 64.0726 23.4204 63.0378 23.4204C59.2773 23.4204 55.6217 23.8715 52.1219 24.7228C52.962 26.5905 53.5003 28.4933 53.7054 30.3045Z" fill="#B4C432"/>
<path d="M53.799 31.9228C53.799 31.7748 53.7966 31.6259 53.7916 31.4761C53.779 31.0908 53.7501 30.6998 53.7054 30.3045C53.5003 28.4933 52.962 26.5905 52.1219 24.7228C49.1208 18.0507 42.2697 11.8262 33.0118 11.8262C24.543 11.8262 12.6096 18.3962 12.6096 32.3093C12.6096 40.116 15.4884 45.124 21.5766 49.3255C23.0523 50.3439 24.7165 51.3149 26.574 52.2669C26.9122 52.4402 27.2567 52.6128 27.6076 52.785C27.6126 52.7875 27.6176 52.7899 27.6226 52.7924L45.3302 62.0677L38.4011 52.4059C44.5603 52.4059 53.799 45.0629 53.799 31.9228Z" fill="#669B7E"/>
<path fill-rule="evenodd" clip-rule="evenodd" d="M23.7932 68.523C23.9345 64.0573 24.8156 59.779 26.3175 55.8076C26.7065 54.7788 27.1373 53.7705 27.6076 52.785C27.2567 52.6128 26.9122 52.4402 26.574 52.2669C26.1877 53.0755 25.8272 53.899 25.4937 54.7362C23.9555 58.5975 22.9912 62.7515 22.7067 67.0919C22.648 67.986 22.6183 68.8881 22.6183 69.7972C22.6183 72.3045 22.8448 74.7586 23.2783 77.1402C23.765 79.8135 24.5126 82.3954 25.4937 84.8582C29.6963 95.4084 38.1832 103.774 48.7947 107.786C50.7782 108.536 52.836 109.134 54.9539 109.565C57.5659 110.097 60.2693 110.377 63.0378 110.377C64.7323 110.377 66.4024 110.272 68.0421 110.069C83.0436 108.209 95.499 98.097 100.763 84.3962C102.196 80.6662 103.096 76.6703 103.369 72.5025C103.428 71.6083 103.457 70.7062 103.457 69.7972C103.457 49.488 88.5968 32.6634 69.1969 29.6856C67.1887 29.3773 65.1318 29.2175 63.0378 29.2175C61.4757 29.2175 59.9343 29.3064 58.4184 29.4796C56.8171 29.6625 55.2442 29.9393 53.7054 30.3045C53.7501 30.6998 53.779 31.0908 53.7916 31.4761C55.5671 31.0459 57.3895 30.7368 59.2499 30.558C60.4964 30.4382 61.76 30.3769 63.0378 30.3769C65.5131 30.3769 67.9349 30.6069 70.2832 31.0467C88.5073 34.4598 102.302 50.5111 102.302 69.7972C102.302 70.246 102.295 70.6931 102.28 71.1383C102.138 75.405 101.321 79.4998 99.9318 83.3186C94.8935 97.1713 82.3354 107.391 67.2176 108.997C65.8442 109.143 64.4497 109.217 63.0378 109.217C59.8809 109.217 56.8109 108.843 53.8696 108.137C51.5646 107.584 49.3386 106.826 47.2115 105.884C36.1334 100.98 27.74 91.0853 24.8577 79.037C24.1486 76.0733 23.7731 72.9793 23.7731 69.7972C23.7731 69.3708 23.7798 68.9461 23.7932 68.523Z" fill="#0A442D"/>
<path d="M59.2499 30.558C57.3895 30.7368 55.5671 31.0459 53.7916 31.4761C53.7966 31.6259 53.799 31.7748 53.799 31.9228C53.799 45.0629 44.5603 52.4059 38.4011 52.4059L45.3302 62.0677L27.6226 52.7924L27.6076 52.785C27.1373 53.7705 26.7065 54.7788 26.3175 55.8076C24.8156 59.779 23.9345 64.0573 23.7932 68.523C23.7798 68.9461 23.7731 69.3708 23.7731 69.7972C23.7731 72.9793 24.1486 76.0733 24.8577 79.037C27.74 91.0853 36.1334 100.98 47.2115 105.884C49.3386 106.826 51.5646 107.584 53.8696 108.137C56.8109 108.843 59.8809 109.217 63.0378 109.217C64.4497 109.217 65.8442 109.143 67.2176 108.997C82.3354 107.391 94.8935 97.1713 99.9318 83.3186C101.321 79.4998 102.138 75.405 102.28 71.1383C102.295 70.6931 102.302 70.246 102.302 69.7972C102.302 50.5111 88.5073 34.4598 70.2832 31.0467C67.9349 30.6069 65.5131 30.3769 63.0378 30.3769C61.76 30.3769 60.4964 30.4382 59.2499 30.558Z" fill="white"/>
<path d="M44.1507 27.0149L41.0991 24.0542L30.3973 34.4372L25.4497 29.6369L22.3981 32.5976L30.3973 40.3585L37.274 33.6867L44.1507 27.0149Z" fill="white"/>
<path fill-rule="evenodd" clip-rule="evenodd" d="M73.1207 59.2902C73.2204 59.2245 73.3137 59.1626 73.3985 59.1059H75.2367L76.3397 57.9997L75.2367 56.5248V54.4969L71.9279 48.7817V47.3068L68.619 44.9101H66.9646V53.7594H65.1264V43.6196H59.6116V53.7594H57.5895V44.9101H55.7513L52.4425 47.3068V48.7817L49.3174 54.4969V56.5248L48.3983 57.9997L49.3174 59.1059H51.1557L51.4498 59.2902L54.0969 60.9495H70.2735C70.5404 60.9495 72.1403 59.9368 73.1207 59.2902ZM51.891 58.1841C53.4841 57.3852 56.744 55.7874 57.0381 55.7874H67.5161L72.847 58.1841L72.1117 58.3684L67.6999 56.8935H57.2219L52.4425 58.3684L51.891 58.1841Z" fill="#B2C32E"/>
<path d="M59.6116 53.7594V43.6196L57.5895 44.9101V53.7594H59.6116Z" fill="#0A442D"/>
<path d="M66.9646 53.7594V44.9101L65.1264 43.6196V53.7594H66.9646Z" fill="#0A442D"/>
<path d="M57.0381 55.7874C56.744 55.7874 53.4841 57.3852 51.891 58.1841L52.4425 58.3684L57.2219 56.8935H67.6999L72.1117 58.3684L72.847 58.1841L67.5161 55.7874H57.0381Z" fill="#0A442D"/>
<path fill-rule="evenodd" clip-rule="evenodd" d="M65.1914 71.2736C65.2556 71.1575 65.2968 71.0343 65.3102 70.9049L65.1264 63.3461C66.4145 62.6364 67.6999 62.24 69.722 63.3461L70.2735 63.1618C67.9262 61.7573 66.5971 61.7335 64.0234 63.1618V69.9831C63.9589 70.3691 63.7953 70.4882 63.2881 70.5362H60.7146C60.5663 70.6106 60.6872 70.925 60.9567 71.2736C61.3552 71.7892 62.0786 72.3798 62.7366 72.3798C63.6773 72.3798 64.8194 71.9467 65.1914 71.2736Z" fill="#0A442D"/>
<path fill-rule="evenodd" clip-rule="evenodd" d="M59.9793 63.1618C58.4833 61.8567 57.2961 61.9951 54.6484 63.5305L55.016 63.8992C57.1544 62.6835 58.2647 62.2843 59.6116 63.5305L59.9793 63.1618Z" fill="#0A442D"/>
<path fill-rule="evenodd" clip-rule="evenodd" d="M57.7734 63.5305C57.0381 63.5305 56.6704 64.0836 56.6704 64.6367C56.6704 65.1897 57.0381 65.7428 57.7734 65.7428C58.5087 65.7428 58.8763 65.23 58.8763 64.6367C58.8763 64.0434 58.5087 63.5305 57.7734 63.5305Z" fill="#0A442D"/>
<path fill-rule="evenodd" clip-rule="evenodd" d="M67.5161 63.5305C66.7808 63.5305 66.4131 64.0836 66.4131 64.6367C66.4131 65.1897 66.7808 65.7428 67.5161 65.7428C68.2514 65.7428 68.619 65.23 68.619 64.6367C68.619 64.0434 68.2514 63.5305 67.5161 63.5305Z" fill="#0A442D"/>
<path d="M70.6411 92.475C70.6411 91.7376 71.2506 90.8158 72.2955 90.8158C73.3404 90.8158 73.95 91.7376 73.95 92.475C73.95 93.2125 73.3985 94.1343 72.2955 94.1343C71.1926 94.1343 70.6411 93.2125 70.6411 92.475Z" fill="#0A442D"/>
<path d="M52.4425 91.0001C51.3976 91.0001 50.788 91.9219 50.788 92.6594C50.788 93.3968 51.3395 94.3186 52.4425 94.3186C53.5454 94.3186 54.0969 93.3968 54.0969 92.6594C54.0969 91.9219 53.4873 91.0001 52.4425 91.0001Z" fill="#0A442D"/>
<path fill-rule="evenodd" clip-rule="evenodd" d="M47.1115 81.0947L49.6851 89.7096L47.2954 95.7935H77.4426L75.0529 89.7096L77.4426 80.9623C76.2755 80.4201 75.045 80.0142 73.7661 79.7845L71.3764 89.1565H53.3616L50.788 79.8272C49.5079 80.0831 48.2774 80.5201 47.1115 81.0947ZM72.2955 90.8158C71.2506 90.8158 70.6411 91.7376 70.6411 92.475C70.6411 93.2125 71.1926 94.1343 72.2955 94.1343C73.3985 94.1343 73.95 93.2125 73.95 92.475C73.95 91.7376 73.3404 90.8158 72.2955 90.8158ZM50.788 92.6594C50.788 91.9219 51.3976 91.0001 52.4425 91.0001C53.4873 91.0001 54.0969 91.9219 54.0969 92.6594C54.0969 93.3968 53.5454 94.3186 52.4425 94.3186C51.3395 94.3186 50.788 93.3968 50.788 92.6594Z" fill="#B2C32E"/>
<path d="M53.3616 79.5699C55.7513 89.7096 68.9867 89.894 71.3764 79.5699L70.6411 78.4637L65.494 83.4414H59.7954L54.0969 78.4637L53.3616 79.5699Z" fill="#75A082"/>
<path d="M73.7866 68.6926L74.0521 61.5025C77.252 61.5025 77.6264 67.2177 73.7866 68.6926Z" fill="#75A082"/>
<path d="M50.7268 61.5025L51.125 68.6926C47.663 67.4021 47.1115 61.5025 50.7268 61.5025Z" fill="#75A082"/>
<path fill-rule="evenodd" clip-rule="evenodd" d="M65.3102 70.9049C65.2968 71.0343 65.2556 71.1575 65.1914 71.2736H65.494L67.5161 72.9329L68.619 72.7485L69.5382 71.458L69.9058 69.0613L72.847 66.4803V63.5305L71.5602 62.24V61.3182L69.9058 61.8713H54.6484L53.3616 61.3182V62.24L52.4425 63.5305V66.4803L55.3836 69.0613V71.458L56.4866 72.7485L57.5895 72.9329L59.0601 71.2736H60.9567C60.6872 70.925 60.5663 70.6106 60.7146 70.5362H63.2881C63.7953 70.4882 63.9589 70.3691 64.0234 69.9831V63.1618C66.5971 61.7335 67.9262 61.7573 70.2735 63.1618L69.722 63.3461C67.6999 62.24 66.4145 62.6364 65.1264 63.3461L65.3102 70.9049ZM54.6484 63.5305C57.2961 61.9951 58.4833 61.8567 59.9793 63.1618L59.6116 63.5305C58.2647 62.2843 57.1544 62.6835 55.016 63.8992L54.6484 63.5305ZM56.6704 64.6367C56.6704 64.0836 57.0381 63.5305 57.7734 63.5305C58.5087 63.5305 58.8763 64.0434 58.8763 64.6367C58.8763 65.23 58.5087 65.7428 57.7734 65.7428C57.0381 65.7428 56.6704 65.1897 56.6704 64.6367ZM66.4131 64.6367C66.4131 64.0836 66.7808 63.5305 67.5161 63.5305C68.2514 63.5305 68.619 64.0434 68.619 64.6367C68.619 65.23 68.2514 65.7428 67.5161 65.7428C66.7808 65.7428 66.4131 65.1897 66.4131 64.6367Z" fill="#75A082"/>
<path fill-rule="evenodd" clip-rule="evenodd" d="M54.0969 60.9495L51.4498 59.2902H50.6042L50.7268 61.5025L51.125 68.6926L51.1557 69.2457L54.0969 75.3295V78.4637L59.7954 83.4414H65.494L70.6411 78.4637V75.3295L73.7661 69.2457L73.7866 68.6926L74.0521 61.5025L74.1338 59.2902H73.1207C72.1403 59.9368 70.5404 60.9495 70.2735 60.9495H54.0969ZM62.7366 72.3798C62.0786 72.3798 61.3552 71.7892 60.9567 71.2736H59.0601L57.5895 72.9329L56.4866 72.7485L55.3836 71.458V69.0613L52.4425 66.4803V63.5305L53.3616 62.24V61.3182L54.6484 61.8713H69.9058L71.5602 61.3182V62.24L72.847 63.5305V66.4803L69.9058 69.0613L69.5382 71.458L68.619 72.7485L67.5161 72.9329L65.494 71.2736H65.1914C64.8194 71.9467 63.6773 72.3798 62.7366 72.3798ZM65.1264 74.039H60.3469V74.9608L62.0013 76.4357H63.4719L65.1264 74.9608V74.039Z" fill="#0E6D4A"/>
<path d="M47.1115 81.0947C40.7148 84.2478 36.2659 91.5442 36.2659 95.7935H47.2954L49.6851 89.7096L47.1115 81.0947Z" fill="#0A442D"/>
<path d="M71.3764 79.5699C68.9867 89.894 55.7513 89.7096 53.3616 79.5699C52.4853 79.5699 51.6261 79.6597 50.788 79.8272L53.3616 89.1565H71.3764L73.7661 79.7845C72.9864 79.6444 72.1887 79.5699 71.3764 79.5699Z" fill="#0A442D"/>
<path d="M88.4721 95.7935C88.4721 91.2176 83.9378 83.9797 77.4426 80.9623L75.0529 89.7096L77.4426 95.7935H88.4721Z" fill="#0A442D"/>
<path d="M60.3469 74.039H65.1264V74.9608L63.4719 76.4357H62.0013L60.3469 74.9608V74.039Z" fill="white"/>
<path d="M77.4426 95.7935H47.2954L44.0152 104.346C55.6626 110.875 69.9209 111.018 81.4558 104.761L77.4426 95.7935Z" fill="#B2C32E"/>
<path d="M88.4721 95.7935H77.4426L81.4558 104.761C83.9385 103.414 86.295 101.771 88.4721 99.8314V95.7935Z" fill="#0A442D"/>
<path d="M47.2954 95.7935H36.2659V98.6468C38.6563 100.903 41.2628 102.803 44.0152 104.346L47.2954 95.7935Z" fill="#0A442D"/>
</svg>
