<svg width="128" height="128" viewBox="0 0 128 128" fill="none" xmlns="http://www.w3.org/2000/svg">
<path d="M60.471 24.1092L62.6113 43.2403L82.0913 45.3423L62.6113 47.4443L60.471 66.5754L58.3307 47.4443L38.8507 45.3423L58.3307 43.2403L60.471 24.1092Z" fill="#0A442D"/>
<path d="M79.1597 11.8262L80.077 20.0252L88.4256 20.9261L80.077 21.8269L79.1597 30.026L78.2425 21.8269L69.8939 20.9261L78.2425 20.0252L79.1597 11.8262Z" fill="#0A442D"/>
<path d="M81.3583 83.6404C92.9242 82.4252 101.097 93.0139 115.439 116.174C115.439 115.03 108.355 100.92 104.812 94.0082L102.98 86.1429C99.4123 75.6064 95.5459 72.6023 86.8564 70.0549C75.1223 65.8253 71.4643 64.1984 69.9985 63.2622C67.4334 61.6238 65.15 63.4438 65.969 66.8373C68.3027 73.6374 70.9662 74.6522 76.2295 75.4176L82.8255 78.9927C80.8776 81.9865 79.4954 83.1215 76.5945 84.4521C78.2398 84.066 79.7703 83.8121 81.3583 83.6404Z" fill="#B4C432"/>
<path d="M13.2008 83.2828L20.8961 98.2984C20.8961 98.2984 27.9007 103.258 30.9567 101.873C38.8505 98.2984 61.5716 89.7181 61.5716 89.7181C52.3377 77.6951 47.0867 73.4715 40.3163 65.7648C38.1178 63.2622 32.6211 63.6197 35.554 68.2673L37.3849 71.485L37.0183 71.8425L30.4224 65.4073C27.4908 62.5472 21.6277 62.9047 24.1928 67.1949L30.9567 79.7077L30.4223 80.0653L23.4599 72.9151C21.6263 71.1276 16.4975 70.77 19.0639 75.4176L25.4767 87.9305L24.9257 88.2881L18.3296 81.1379C16.4975 79.3503 10.6342 78.6353 13.2008 83.2828Z" fill="#669B7E"/>
<path d="M78.0617 116.174H115.439C101.097 93.0139 92.9242 82.4252 81.3583 83.6404C79.7703 83.8121 78.2398 84.066 76.5945 84.4521C72.8543 85.3297 68.521 86.8901 61.5716 89.7181C61.5716 89.7181 38.8505 98.2984 30.9567 101.873C27.9007 103.258 20.8961 98.2984 20.8961 98.2984C25.2935 106.879 32.9876 109.755 38.4855 109.739C42.5151 109.727 56.8052 106.934 59.7381 106.164C64.4483 104.927 69.9229 104.804 71.0979 105.091C74.0282 105.806 77.1909 109.313 78.0617 112.599V116.174Z" fill="#0A442D"/>
</svg>
