<svg width="128" height="128" viewBox="0 0 128 128" fill="none" xmlns="http://www.w3.org/2000/svg">
<path d="M66.2385 21.8133C65.8629 23.5798 64.9211 25.138 63.6113 26.2902H63.6545H77.821C80.5852 26.2902 82.6583 28.7009 82.6583 30.7672V31.8003V32.1447H89.2232V96.5442H95.4426V24.9127C95.1609 22.619 94.2029 21.9649 91.2964 21.8133H66.2385Z" fill="#B4C432"/>
<path d="M52.641 26.2902C51.3313 25.138 50.3895 23.5798 50.0139 21.8133H19.7732C16.6635 21.8133 16.6635 23.8796 16.6635 25.9458V113.075C16.6635 114.452 17.5273 116.174 19.7732 116.174H91.2964C94.0605 116.174 95.4426 114.796 95.4426 113.075V109.826L86.8046 109.943V113.075H23.5739V34.8998H25.9926V32.1447H33.9396V31.8003V30.7672C33.9396 29.0453 35.6672 26.2902 38.4314 26.2902H52.641Z" fill="#B4C432"/>
<path fill-rule="evenodd" clip-rule="evenodd" d="M63.6113 26.2902C64.9211 25.138 65.8629 23.5798 66.2385 21.8133C66.3566 21.2578 66.4187 20.6818 66.4187 20.0913C66.4187 15.5266 62.706 11.8262 58.1262 11.8262C53.5463 11.8262 49.8337 15.5266 49.8337 20.0913C49.8337 20.6818 49.8958 21.2578 50.0139 21.8133C50.3895 23.5798 51.3313 25.138 52.641 26.2902H38.4314C35.6672 26.2902 33.9396 29.0453 33.9396 30.7672V31.8003H82.6583V30.7672C82.6583 28.7009 80.5852 26.2902 77.821 26.2902H63.6545H63.6113ZM62.2725 20.0913C62.2725 20.7059 62.1379 21.2891 61.8965 21.8133C61.2414 23.2359 59.7995 24.2239 58.1262 24.2239C56.4528 24.2239 55.011 23.2359 54.3559 21.8133C54.1145 21.2891 53.9799 20.7059 53.9799 20.0913C53.9799 17.809 55.8363 15.9588 58.1262 15.9588C60.4161 15.9588 62.2725 17.809 62.2725 20.0913Z" fill="#0A442D"/>
<path d="M82.6583 31.8003H33.9396V32.1447V37.6548H82.6583V32.1447V31.8003Z" fill="#669B7E"/>
<path d="M40.159 49.0195C40.159 51.3018 38.3027 53.152 36.0128 53.152C33.7228 53.152 31.8665 51.3018 31.8665 49.0195C31.8665 46.7371 33.7228 44.8869 36.0128 44.8869C38.3027 44.8869 40.159 46.7371 40.159 49.0195Z" fill="#0E6D4A"/>
<path d="M43.2687 45.92H73.6747V52.1189H43.2687V45.92Z" fill="#0E6D4A"/>
<path d="M43.2687 62.4504H82.6583V68.6492H43.2687V62.4504Z" fill="#669B7E"/>
<path d="M40.159 65.5498C40.159 67.8322 38.3027 69.6824 36.0128 69.6824C33.7228 69.6824 31.8665 67.8322 31.8665 65.5498C31.8665 63.2674 33.7228 61.4172 36.0128 61.4172C38.3027 61.4172 40.159 63.2674 40.159 65.5498Z" fill="#669B7E"/>
<path d="M43.2687 78.9807H73.6747V85.1796H43.2687V78.9807Z" fill="#0E6D4A"/>
<path d="M40.159 82.0802C40.159 84.3625 38.3027 86.2127 36.0128 86.2127C33.7228 86.2127 31.8665 84.3625 31.8665 82.0802C31.8665 79.7978 33.7228 77.9476 36.0128 77.9476C38.3027 77.9476 40.159 79.7978 40.159 82.0802Z" fill="#0E6D4A"/>
<path d="M95.4426 96.5442H89.2232H42.2322V104.465C42.2322 107.909 36.7038 109.91 34.2851 109.943H86.8046L95.4426 109.826L109.955 109.631C113.755 109.631 116.174 106.531 116.174 103.776V96.5442H95.4426Z" fill="#0A442D"/>
<path fill-rule="evenodd" clip-rule="evenodd" d="M42.2322 96.5442H89.2232V32.1447H82.6583V37.6548H33.9396V32.1447H25.9926V34.8998V103.432C25.9926 106.531 29.7933 109.943 34.2851 109.943C36.7038 109.91 42.2322 107.909 42.2322 104.465V96.5442ZM36.0128 53.152C38.3027 53.152 40.159 51.3018 40.159 49.0195C40.159 46.7371 38.3027 44.8869 36.0128 44.8869C33.7228 44.8869 31.8665 46.7371 31.8665 49.0195C31.8665 51.3018 33.7228 53.152 36.0128 53.152ZM36.0128 69.6824C38.3027 69.6824 40.159 67.8322 40.159 65.5498C40.159 63.2674 38.3027 61.4172 36.0128 61.4172C33.7228 61.4172 31.8665 63.2674 31.8665 65.5498C31.8665 67.8322 33.7228 69.6824 36.0128 69.6824ZM36.0128 86.2127C38.3027 86.2127 40.159 84.3625 40.159 82.0802C40.159 79.7978 38.3027 77.9476 36.0128 77.9476C33.7228 77.9476 31.8665 79.7978 31.8665 82.0802C31.8665 84.3625 33.7228 86.2127 36.0128 86.2127ZM73.6747 45.92H43.2687V52.1189H73.6747V45.92ZM82.6583 62.4504H43.2687V68.6492H82.6583V62.4504ZM73.6747 78.9807H43.2687V85.1796H73.6747V78.9807Z" fill="white"/>
<path d="M86.8046 109.943H34.2851C29.7933 109.943 25.9926 106.531 25.9926 103.432V34.8998H23.5739V113.075H86.8046V109.943Z" fill="#0E6D4A"/>
<path d="M19.7732 116.174C17.5273 116.174 16.6635 114.452 16.6635 113.075V25.9458C16.6635 23.8796 16.6635 21.8133 19.7732 21.8133H15.6269C12.5172 21.8133 11.8262 22.8464 11.8262 25.9458V113.075C11.8262 114.452 13.2082 116.174 15.2814 116.174H19.7732Z" fill="#0A442D"/>
<path d="M61.8965 21.8133C62.1379 21.2891 62.2725 20.7059 62.2725 20.0913C62.2725 17.809 60.4161 15.9588 58.1262 15.9588C55.8363 15.9588 53.9799 17.809 53.9799 20.0913C53.9799 20.7059 54.1145 21.2891 54.3559 21.8133C55.011 23.2359 56.4528 24.2239 58.1262 24.2239C59.7995 24.2239 61.2414 23.2359 61.8965 21.8133Z" fill="white"/>
</svg>
