<svg width="128" height="128" viewBox="0 0 128 128" fill="none" xmlns="http://www.w3.org/2000/svg">
<path d="M63.6389 115.454C69.0376 115.454 71.9147 112.216 71.9147 110.417H55.7228C55.7228 112.576 58.6028 115.454 63.6389 115.454Z" fill="#0E6D4A"/>
<path d="M75.8727 106.819H64.3599H52.1246C51.4064 106.819 50.6839 107.538 50.6853 108.618C50.6867 109.697 51.4064 110.417 52.8457 110.417H55.7228H71.9147H75.1531C76.5938 110.417 77.3134 109.697 77.3134 108.618C77.3134 107.538 76.5938 106.819 75.8727 106.819Z" fill="#0A442D"/>
<path d="M52.1246 101.781V105.061V106.819H64.3599H75.8727V105.267V101.781H52.1246Z" fill="#669B7E"/>
<path d="M52.1246 101.781H75.8727C77.3134 101.781 77.3134 100.702 77.3134 99.6223C77.3134 98.5428 76.5938 97.8232 75.8727 97.8232H52.1246C51.4064 97.8232 50.6881 98.5428 50.6867 99.6223C50.6853 100.702 50.6853 101.781 52.1246 101.781Z" fill="#0A442D"/>
<path d="M75.8727 97.8232V93.8651H70.6259H57.3742H52.1246V97.8232H75.8727Z" fill="#669B7E"/>
<path fill-rule="evenodd" clip-rule="evenodd" d="M75.8727 93.8651C77.3134 93.8651 77.3134 93.1455 77.3134 91.7062C77.3134 91.6507 77.3113 91.5973 77.3071 91.546C77.2033 90.267 75.845 90.2669 75.1531 90.2669H68.6777V70.8367H72.9956C75.1531 70.8367 75.8727 69.3974 75.8727 67.2385C75.8727 64.7197 74.075 62.9206 71.5563 62.9206C67.9581 62.9206 66.5188 65.0795 66.5188 66.8786V69.0376H60.7617V66.159C60.7617 64.3599 59.6822 62.5608 56.4439 62.5608C53.2055 62.5608 51.4064 64.3599 51.4064 66.8786C51.4064 69.3974 52.1246 70.8367 53.9251 70.8367H58.9626V90.2669H52.4844C51.5818 90.2669 50.9304 90.7715 50.7415 91.5694C50.7048 91.7244 50.6856 91.8904 50.6853 92.066C50.6839 93.1455 50.6867 93.8651 52.1246 93.8651H57.3742H70.6259H75.8727ZM60.7617 90.2669H66.5188V70.8367H60.7617V90.2669ZM58.9626 66.8786C58.9626 65.7992 57.8831 65.0795 56.4439 65.0795C55.0046 65.0795 53.5653 65.4394 53.5653 66.8786C53.5653 68.3179 53.9251 69.0376 55.0046 69.0376H58.9626V66.8786ZM72.2759 69.0376C73.3554 69.0376 73.7152 68.6777 73.7152 67.2385C73.7152 65.7992 72.9364 65.3275 71.5563 65.0795C70.095 65.2341 69.4152 65.5413 68.6777 66.8786V69.0376H72.2759Z" fill="#0A442D"/>
<path d="M50.7415 91.5694C50.9304 90.7715 51.5818 90.2669 52.4844 90.2669C52.2628 85.4637 51.4445 82.9831 48.1666 79.1125C43.1507 73.8747 41.33 69.7572 41.33 62.5608C41.33 51.0466 51.4064 40.9716 63.279 40.9716C75.1517 40.9716 86.3089 49.2475 86.3089 62.201C86.3089 70.4768 84.6441 74.2547 79.1111 79.1125C75.8376 82.7028 75.1938 85.2429 75.1531 90.2669C75.845 90.2669 77.2033 90.267 77.3071 91.546C87.5326 86.5971 94.5848 76.1221 94.5848 64.0001C94.5848 47.1086 80.8916 33.4154 64.0001 33.4154C47.1086 33.4154 33.4154 47.1086 33.4154 64.0001C33.4154 76.1413 40.4899 86.6301 50.7415 91.5694Z" fill="#0A442D"/>
<path d="M78.7527 54.2849C78.7527 57.4645 76.1752 60.0421 72.9956 60.0421C69.816 60.0421 67.2385 57.4645 67.2385 54.2849C67.2385 51.1054 69.816 48.5278 72.9956 48.5278C76.1752 48.5278 78.7527 51.1054 78.7527 54.2849Z" fill="white"/>
<path fill-rule="evenodd" clip-rule="evenodd" d="M52.4844 90.2669H58.9626V70.8367H53.9251C52.1246 70.8367 51.4064 69.3974 51.4064 66.8786C51.4064 64.3599 53.2055 62.5608 56.4439 62.5608C59.6822 62.5608 60.7617 64.3599 60.7617 66.159V69.0376H66.5188V66.8786C66.5188 65.0795 67.9581 62.9206 71.5563 62.9206C74.075 62.9206 75.8727 64.7197 75.8727 67.2385C75.8727 69.3974 75.1531 70.8367 72.9956 70.8367H68.6777V90.2669H75.1531C75.1938 85.2429 75.8376 82.7028 79.1111 79.1125C84.6441 74.2547 86.3089 70.4768 86.3089 62.201C86.3089 49.2475 75.1517 40.9716 63.279 40.9716C51.4064 40.9716 41.33 51.0466 41.33 62.5608C41.33 69.7572 43.1507 73.8747 48.1666 79.1125C51.4445 82.9831 52.2628 85.4637 52.4844 90.2669ZM72.9956 60.0421C76.1752 60.0421 78.7527 57.4645 78.7527 54.2849C78.7527 51.1054 76.1752 48.5278 72.9956 48.5278C69.816 48.5278 67.2385 51.1054 67.2385 54.2849C67.2385 57.4645 69.816 60.0421 72.9956 60.0421Z" fill="#B4C432"/>
<path d="M73.7152 67.2385C73.7152 68.6777 73.3554 69.0376 72.2759 69.0376H68.6777V66.8786C69.4152 65.5413 70.095 65.2341 71.5563 65.0795C72.9364 65.3275 73.7152 65.7992 73.7152 67.2385Z" fill="#B4C432"/>
<path d="M56.4439 65.0795C57.8831 65.0795 58.9626 65.7992 58.9626 66.8786V69.0376H55.0046C53.9251 69.0376 53.5653 68.3179 53.5653 66.8786C53.5653 65.4394 55.0046 65.0795 56.4439 65.0795Z" fill="#B4C432"/>
<path d="M66.5188 90.2669H60.7617V70.8367H66.5188V90.2669Z" fill="#B4C432"/>
<path d="M52.1246 105.061V101.781C50.6853 101.781 50.6853 100.702 50.6867 99.6223C50.6881 98.5428 51.4064 97.8232 52.1246 97.8232V93.8651C50.6867 93.8651 50.6839 93.1455 50.6853 92.066C50.6856 91.8904 50.7048 91.7244 50.7415 91.5694C40.4899 86.6301 33.4154 76.1413 33.4154 64.0001C33.4154 47.1086 47.1086 33.4154 64.0001 33.4154C80.8916 33.4154 94.5848 47.1086 94.5848 64.0001C94.5848 76.1221 87.5326 86.5971 77.3071 91.546C77.3113 91.5973 77.3134 91.6507 77.3134 91.7062C77.3134 93.1455 77.3134 93.8651 75.8727 93.8651V97.8232C76.5938 97.8232 77.3134 98.5428 77.3134 99.6223C77.3134 100.702 77.3134 101.781 75.8727 101.781V105.267C94.1304 100.228 107.538 83.5001 107.538 63.6403C107.538 39.7935 88.2067 20.4619 64.3599 20.4619C40.5131 20.4619 21.1815 39.7935 21.1815 63.6403C21.1815 83.2373 34.2368 99.785 52.1246 105.061Z" fill="white"/>
<path fill-rule="evenodd" clip-rule="evenodd" d="M116.174 64.0001C116.174 92.8149 92.8149 116.174 64.0001 116.174C35.1852 116.174 11.8262 92.8149 11.8262 64.0001C11.8262 35.1852 35.1852 11.8262 64.0001 11.8262C92.8149 11.8262 116.174 35.1852 116.174 64.0001ZM75.8727 105.267V106.819C76.5938 106.819 77.3134 107.538 77.3134 108.618C77.3134 109.697 76.5938 110.417 75.1531 110.417H71.9147C71.9147 112.216 69.0376 115.454 63.6389 115.454C58.6028 115.454 55.7228 112.576 55.7228 110.417H52.8457C51.4064 110.417 50.6867 109.697 50.6853 108.618C50.6839 107.538 51.4064 106.819 52.1246 106.819V105.061C34.2368 99.785 21.1815 83.2373 21.1815 63.6403C21.1815 39.7935 40.5131 20.4619 64.3599 20.4619C88.2067 20.4619 107.538 39.7935 107.538 63.6403C107.538 83.5001 94.1304 100.228 75.8727 105.267Z" fill="#B4C432"/>
</svg>
