<svg width="624" height="600" viewBox="0 0 624 600" fill="none" xmlns="http://www.w3.org/2000/svg">
<path fill-rule="evenodd" clip-rule="evenodd" d="M104.554 78.704L73.099 85.2923C63.1385 87.5077 50.9539 90.8308 39.1385 94.5231C48.3632 108.545 58.6941 120.722 67.3226 130.894L67.3397 130.914L166.134 257.731V255.399V245.523L73.099 126.483C70.6265 123.278 67.3715 119.419 63.9335 115.343C59.0296 109.529 53.7531 103.273 49.8461 97.8462C59.4461 94.5231 70.1538 91.9385 78.6368 89.9339L104.554 84.7309V78.704Z" fill="#001A13"/>
<path d="M298.598 82.3499L282.207 61.3588C280.701 59.4341 279.675 58.0396 278.734 56.76L278.733 56.7585C277.295 54.8034 276.055 53.1162 273.6 50.2154C266.252 51.9428 263.849 52.473 261.894 52.9044C260.088 53.303 258.663 53.6174 254.074 54.7135L193.133 66.9479C193.15 66.6127 193.159 66.2762 193.159 65.9385V60.5854L260.941 46.739C270.277 45.0462 270.277 44.6383 277.662 43.9385C283.569 50.546 286.415 53.3819 291.288 59.8082L298.598 69.2359V82.3499Z" fill="#001A13"/>
<path fill-rule="evenodd" clip-rule="evenodd" d="M170.846 88.5939L174.356 88.5366L174.109 88.2294C173.037 88.4341 171.947 88.558 170.846 88.5939ZM143.835 120.209L145.976 119.838C145.25 119.983 144.537 120.11 143.835 120.209Z" fill="#001A13"/>
<path fill-rule="evenodd" clip-rule="evenodd" d="M75.6016 214.982L75.8403 215.28V214.982H75.6016Z" fill="#001A13"/>
<path d="M109.108 256.841L115.186 264.369C115.186 270.646 115.186 285.287 115.186 291.067C108.171 291.067 93.6012 291.067 85.3079 291.067H26.5815C20.8973 291.067 6.22129 291.067 0 291.067C0 286.025 0 269.453 0 261.601V204.523C0 195.87 0.432174 183.265 0.432174 175.881C9.72546 175.881 24.381 175.881 30.4965 175.881H44.3024L49.1682 181.959H33.3565C27.4509 181.959 11.6172 181.959 6.07871 181.959C6.07871 186.262 6.07871 200.484 6.07871 207.578V258.632C6.07871 266.201 6.07871 280.27 6.07871 284.988C11.2479 284.988 25.0917 284.988 29.8546 284.988H82.3827C89.315 284.988 101.676 284.988 109.108 284.988C109.108 279.162 109.108 265.707 109.108 258.632V256.841Z" fill="#DFF1E1"/>
<path fill-rule="evenodd" clip-rule="evenodd" d="M170.175 88.6049L170.846 88.5939C170.623 88.6012 170.399 88.6049 170.175 88.6049Z" fill="white"/>
<path fill-rule="evenodd" clip-rule="evenodd" d="M227.671 273.206L227.77 273.272L227.79 273.285L227.806 273.296L227.942 273.385H225.793L225.966 278.081C219.177 278.081 218.383 290.214 226.529 293.345L226.573 294.519L233.202 307.434V314.087L231.642 316.435C229.919 316.435 228.227 316.593 226.573 316.891C223.859 317.378 221.249 318.24 218.773 319.391C204.993 325.797 195.374 341.161 195.374 350.875H218.773H282.731H306.13C306.13 341.855 296.691 326.366 283.121 319.672C280.647 318.452 278.037 317.525 275.321 316.981C273.543 316.626 271.72 316.435 269.861 316.435L268.301 314.087V307.434L274.541 294.519L274.606 293.345C281.951 290.605 283.121 278.081 275.451 278.081L275.711 273.385H273.917L274.541 272.994H278.441L280.391 270.646L278.441 267.515V263.21L271.811 251.077V247.946L264.791 242.859H260.891L256.601 240.119H244.902L241.002 242.859H237.492L230.472 247.946V251.077L223.453 263.21V267.515L221.113 270.646L223.453 272.994H227.353C227.453 273.061 227.56 273.132 227.671 273.206Z" fill="#8ED799"/>
<path fill-rule="evenodd" clip-rule="evenodd" d="M227.942 273.385C227.896 273.355 227.851 273.325 227.806 273.296C227.801 273.292 227.796 273.288 227.79 273.285C227.784 273.281 227.777 273.276 227.77 273.272C227.737 273.25 227.704 273.228 227.671 273.206C227.56 273.132 227.453 273.061 227.353 272.994H223.453L221.113 270.646L223.453 267.515V263.21L230.472 251.077V247.946L237.492 242.859H241.002V261.644H244.902V240.119H256.601V261.644H260.891V242.859H264.791L271.811 247.946V251.077L278.441 263.21V267.515L280.391 270.646L278.441 272.994H274.541L273.917 273.385L268.301 276.907H233.982C233.416 276.907 230.022 274.757 227.942 273.385ZM272.981 271.037C269.601 269.341 262.685 265.949 262.061 265.949H239.832L228.523 271.037L230.082 271.428L239.442 268.297H261.671L271.811 271.428L272.981 271.037Z" fill="#B2C32E"/>
<path d="M256.601 261.644V240.119L260.891 242.859V261.644H256.601Z" fill="#0A442D"/>
<path d="M241.002 261.644V242.859L244.902 240.119V261.644H241.002Z" fill="#0A442D"/>
<path d="M262.061 265.949C262.685 265.949 269.601 269.341 272.981 271.037L271.811 271.428L261.671 268.297H239.442L230.082 271.428L228.523 271.037L239.832 265.949H262.061Z" fill="#0A442D"/>
<path fill-rule="evenodd" clip-rule="evenodd" d="M244.764 298.824C244.628 298.577 244.54 298.316 244.512 298.041L244.902 281.995C242.169 280.488 239.442 279.647 235.152 281.995L233.982 281.604C238.962 278.622 241.782 278.572 247.242 281.604V296.084C247.379 296.904 247.726 297.156 248.802 297.258H254.262C254.576 297.416 254.32 298.084 253.748 298.824C252.902 299.918 251.368 301.172 249.972 301.172C247.976 301.172 245.553 300.253 244.764 298.824Z" fill="#0A442D"/>
<path fill-rule="evenodd" clip-rule="evenodd" d="M255.822 281.604C258.995 278.833 261.514 279.127 267.131 282.386L266.351 283.169C261.815 280.588 259.459 279.741 256.601 282.386L255.822 281.604Z" fill="#0A442D"/>
<path fill-rule="evenodd" clip-rule="evenodd" d="M260.501 282.386C262.061 282.386 262.841 283.561 262.841 284.735C262.841 285.909 262.061 287.083 260.501 287.083C258.941 287.083 258.161 285.994 258.161 284.735C258.161 283.475 258.941 282.386 260.501 282.386Z" fill="#0A442D"/>
<path fill-rule="evenodd" clip-rule="evenodd" d="M239.832 282.386C241.392 282.386 242.172 283.561 242.172 284.735C242.172 285.909 241.392 287.083 239.832 287.083C238.272 287.083 237.492 285.994 237.492 284.735C237.492 283.475 238.272 282.386 239.832 282.386Z" fill="#0A442D"/>
<path d="M233.202 343.831C233.202 342.265 231.909 340.308 229.692 340.308C227.476 340.308 226.183 342.265 226.183 343.831C226.183 345.396 227.353 347.353 229.692 347.353C232.032 347.353 233.202 345.396 233.202 343.831Z" fill="#0A442D"/>
<path d="M271.811 340.7C274.028 340.7 275.321 342.656 275.321 344.222C275.321 345.787 274.151 347.744 271.811 347.744C269.471 347.744 268.301 345.787 268.301 344.222C268.301 342.656 269.594 340.7 271.811 340.7Z" fill="#0A442D"/>
<path fill-rule="evenodd" clip-rule="evenodd" d="M283.121 319.672L277.661 337.96L282.731 350.875H218.773L223.843 337.96L218.773 319.391C221.249 318.24 223.859 317.378 226.573 316.891L231.642 336.786H269.861L275.321 316.981C278.037 317.525 280.647 318.452 283.121 319.672ZM229.692 340.308C231.909 340.308 233.202 342.265 233.202 343.831C233.202 345.396 232.032 347.353 229.692 347.353C227.353 347.353 226.183 345.396 226.183 343.831C226.183 342.265 227.476 340.308 229.692 340.308ZM275.321 344.222C275.321 342.656 274.028 340.7 271.811 340.7C269.594 340.7 268.301 342.656 268.301 344.222C268.301 345.787 269.471 347.744 271.811 347.744C274.151 347.744 275.321 345.787 275.321 344.222Z" fill="#B4C432"/>
<path d="M269.861 316.435C264.791 337.96 236.712 338.351 231.642 316.435L233.202 314.087L244.122 324.654H256.211L268.301 314.087L269.861 316.435Z" fill="#75A082"/>
<path d="M226.529 293.345L225.966 278.081C219.177 278.081 218.383 290.214 226.529 293.345Z" fill="#75A082"/>
<path d="M275.451 278.081L274.606 293.345C281.951 290.605 283.121 278.081 275.451 278.081Z" fill="#75A082"/>
<path fill-rule="evenodd" clip-rule="evenodd" d="M244.512 298.041C244.54 298.316 244.628 298.577 244.764 298.824H244.122L239.832 302.346L237.492 301.955L235.542 299.215L234.762 294.127L228.523 288.648V282.386L231.252 279.647V277.69L234.762 278.864H267.131L269.861 277.69V279.647L271.811 282.386V288.648L265.571 294.127V299.215L263.231 301.955L260.891 302.346L257.771 298.824H253.748C254.32 298.084 254.576 297.416 254.262 297.258H248.802C247.726 297.156 247.379 296.904 247.242 296.084V281.604C241.782 278.572 238.962 278.622 233.982 281.604L235.152 281.995C239.442 279.647 242.169 280.488 244.902 281.995L244.512 298.041ZM267.131 282.386C261.514 279.127 258.995 278.833 255.822 281.604L256.601 282.386C259.459 279.741 261.815 280.588 266.351 283.169L267.131 282.386ZM262.841 284.735C262.841 283.561 262.061 282.386 260.501 282.386C258.941 282.386 258.161 283.475 258.161 284.735C258.161 285.994 258.941 287.083 260.501 287.083C262.061 287.083 262.841 285.909 262.841 284.735ZM242.172 284.735C242.172 283.561 241.392 282.386 239.832 282.386C238.272 282.386 237.492 283.475 237.492 284.735C237.492 285.994 238.272 287.083 239.832 287.083C241.392 287.083 242.172 285.909 242.172 284.735Z" fill="#75A082"/>
<path fill-rule="evenodd" clip-rule="evenodd" d="M268.301 276.907L273.917 273.385H275.711L275.451 278.081L274.606 293.345L274.541 294.519L268.301 307.434V314.087L256.211 324.654H244.122L233.202 314.087V307.434L226.573 294.519L226.529 293.345L225.966 278.081L225.793 273.385H227.942C230.022 274.757 233.416 276.907 233.982 276.907H268.301ZM249.972 301.172C251.368 301.172 252.902 299.918 253.748 298.824H257.771L260.891 302.346L263.231 301.955L265.571 299.215V294.127L271.811 288.648V282.386L269.861 279.647V277.69L267.131 278.864H234.762L231.252 277.69V279.647L228.523 282.386V288.648L234.762 294.127L235.542 299.215L237.492 301.955L239.832 302.346L244.122 298.824H244.764C245.553 300.253 247.976 301.172 249.972 301.172ZM244.902 304.694H255.042V306.651L251.532 309.782H248.412L244.902 306.651V304.694Z" fill="#0E6D4A"/>
<path d="M283.121 319.672C296.691 326.366 306.13 341.855 306.13 350.875H282.731L277.661 337.96L283.121 319.672Z" fill="#0A442D"/>
<path d="M231.642 316.435C236.712 338.351 264.791 337.96 269.861 316.435C271.72 316.435 273.543 316.626 275.321 316.981L269.861 336.786H231.642L226.573 316.891C228.227 316.593 229.919 316.435 231.642 316.435Z" fill="#0A442D"/>
<path d="M195.374 350.875C195.374 341.161 204.993 325.797 218.773 319.391L223.843 337.96L218.773 350.875H195.374Z" fill="#0A442D"/>
<path d="M255.042 304.694H244.902V306.651L248.412 309.782H251.532L255.042 306.651V304.694Z" fill="white"/>
<path fill-rule="evenodd" clip-rule="evenodd" d="M403.732 81.8895C403.732 62.653 387.097 50.0618 373.235 50.0617H344.816C337.628 50.0617 330.973 53.1643 325.835 58.106C323.312 60.532 321.155 63.4011 319.48 66.564C316.449 72.2881 314.996 78.9742 315.811 85.7368C316.515 91.5832 318.915 97.4866 323.457 102.875C325.093 104.816 327.007 106.69 329.22 108.471L327.26 116.515L326.833 118.264L325.883 122.165L324.021 129.806H347.935L365.263 114.067C365.955 114.222 366.647 114.353 367.34 114.46C372.192 121.412 380.163 123.161 391.6 120.363L398.185 127.008L395.759 117.215C406.156 110.569 405.463 96.5792 402.097 92.7319C403.152 89.4141 403.732 85.7854 403.732 81.8895Z" fill="#8ED799"/>
<path fill-rule="evenodd" clip-rule="evenodd" d="M188.458 64.5826L188.483 63.6549C188.483 63.9653 188.475 64.2746 188.458 64.5826ZM127.519 83.9289L127.47 83.9288L127.436 83.9286L127.38 83.9279C127.399 83.9282 127.417 83.9284 127.436 83.9286C127.447 83.9287 127.459 83.9287 127.47 83.9288C127.486 83.9289 127.503 83.9289 127.519 83.9289ZM160.612 66.9615H163.459H167.255H167.73V68.8597H169.153V70.7578H170.577V72.656H176.271V70.7578H173.899V49.1664V46.5565L171.051 44.2044V21.406L163.459 15.9489H145.189L137.597 21.1688V34.2185H133.563V37.5403H132.614L121.7 46.5565V49.4037V70.7578H119.327V72.656H152.07H158.714H163.934V70.7578H162.51V68.8597H160.612V66.9615ZM127.219 24.8128L127.812 30.119L133.215 30.702L127.812 31.285L127.219 36.5912L126.625 31.285L121.222 30.702L126.625 30.119L127.219 24.8128ZM132.402 21.406L132.656 23.6801L134.972 23.93L132.656 24.1798L132.402 26.4539L132.148 24.1798L129.832 23.93L132.148 23.6801L132.402 21.406Z" fill="#8ED799"/>
<path d="M49.1682 181.959L70.6861 208.841L75.6016 214.982L75.8403 215.28L79.537 219.899L109.108 256.841V258.632C109.108 265.707 109.108 279.162 109.108 284.988C101.676 284.988 89.315 284.988 82.3827 284.988H29.8546C25.0917 284.988 11.2479 284.988 6.07871 284.988C6.07871 280.27 6.07871 266.201 6.07871 258.632V207.578C6.07871 200.484 6.07871 186.262 6.07871 181.959C11.6172 181.959 27.4509 181.959 33.3565 181.959H49.1682Z" fill="#8ED799"/>
<path fill-rule="evenodd" clip-rule="evenodd" d="M79.537 219.899V253.261H75.8403V215.28L79.537 219.899ZM70.6861 208.841H62.1784C61.9551 209.891 61.3953 210.818 60.6168 211.502H69.0629C70.7059 211.502 71.9382 212.935 71.9382 214.163V214.778V214.982H75.6016L70.6861 208.841Z" fill="#B4C432"/>
<path d="M54.0962 211.502C53.3177 210.818 52.7579 209.891 52.5346 208.841H34.5598C32.7115 208.841 32.7115 210.07 32.7115 211.298V263.086C32.7115 263.905 33.2249 264.928 34.5598 264.928H77.0725C78.7155 264.928 79.537 264.11 79.537 263.086V261.155L74.4027 261.225V263.086H36.819V216.62H38.2566V214.982H42.9802V214.778V214.163C42.9802 213.14 44.0071 211.502 45.6501 211.502H54.0962Z" fill="#B4C432"/>
<path fill-rule="evenodd" clip-rule="evenodd" d="M60.6168 211.502C61.3953 210.818 61.9551 209.891 62.1784 208.841C62.2486 208.511 62.2855 208.169 62.2855 207.818C62.2855 205.105 60.0787 202.905 57.3565 202.905C54.6343 202.905 52.4275 205.105 52.4275 207.818C52.4275 208.169 52.4644 208.511 52.5346 208.841C52.7579 209.891 53.3177 210.818 54.0962 211.502H45.6501C44.0071 211.502 42.9802 213.14 42.9802 214.163V214.778H71.9382V214.163C71.9382 212.935 70.7059 211.502 69.0629 211.502H60.6168ZM59.821 207.818C59.821 208.183 59.741 208.53 59.5975 208.841C59.2081 209.687 58.3511 210.274 57.3565 210.274C56.3619 210.274 55.5049 209.687 55.1155 208.841C54.972 208.53 54.892 208.183 54.892 207.818C54.892 206.461 55.9954 205.361 57.3565 205.361C58.7176 205.361 59.821 206.461 59.821 207.818Z" fill="#0A442D"/>
<path d="M71.9382 214.778H42.9802V214.982V218.257H71.9382V214.982V214.778Z" fill="#669B7E"/>
<path d="M46.677 225.012C46.677 226.369 45.5736 227.469 44.2125 227.469C42.8514 227.469 41.748 226.369 41.748 225.012C41.748 223.656 42.8514 222.556 44.2125 222.556C45.5736 222.556 46.677 223.656 46.677 225.012Z" fill="#0E6D4A"/>
<path d="M48.5254 223.17H66.5984V226.855H48.5254V223.17Z" fill="#0E6D4A"/>
<path d="M48.5254 232.996H71.9382V236.68H48.5254V232.996Z" fill="#669B7E"/>
<path d="M46.677 234.838C46.677 236.195 45.5736 237.294 44.2125 237.294C42.8514 237.294 41.748 236.195 41.748 234.838C41.748 233.481 42.8514 232.382 44.2125 232.382C45.5736 232.382 46.677 233.481 46.677 234.838Z" fill="#669B7E"/>
<path d="M48.5254 242.821H66.5984V246.506H48.5254V242.821Z" fill="#0E6D4A"/>
<path d="M46.677 244.663C46.677 246.02 45.5736 247.12 44.2125 247.12C42.8514 247.12 41.748 246.02 41.748 244.663C41.748 243.307 42.8514 242.207 44.2125 242.207C45.5736 242.207 46.677 243.307 46.677 244.663Z" fill="#0E6D4A"/>
<path d="M79.537 253.261H75.8403H47.9092V257.969C47.9092 260.016 44.6232 261.205 43.1856 261.225H74.4027L79.537 261.155L88.1628 261.039C90.4219 261.039 91.8596 259.197 91.8596 257.559V253.261H79.537Z" fill="#0A442D"/>
<path fill-rule="evenodd" clip-rule="evenodd" d="M47.9092 253.261H75.8403V215.28V214.982H75.6016H71.9382V218.257H42.9802V214.982H38.2566V216.62V257.355C38.2566 259.197 40.5157 261.225 43.1856 261.225C44.6232 261.205 47.9092 260.016 47.9092 257.969V253.261ZM44.2125 227.469C45.5736 227.469 46.677 226.369 46.677 225.012C46.677 223.656 45.5736 222.556 44.2125 222.556C42.8514 222.556 41.748 223.656 41.748 225.012C41.748 226.369 42.8514 227.469 44.2125 227.469ZM44.2125 237.294C45.5736 237.294 46.677 236.195 46.677 234.838C46.677 233.481 45.5736 232.382 44.2125 232.382C42.8514 232.382 41.748 233.481 41.748 234.838C41.748 236.195 42.8514 237.294 44.2125 237.294ZM44.2125 247.12C45.5736 247.12 46.677 246.02 46.677 244.663C46.677 243.307 45.5736 242.207 44.2125 242.207C42.8514 242.207 41.748 243.307 41.748 244.663C41.748 246.02 42.8514 247.12 44.2125 247.12ZM66.5984 223.17H48.5254V226.855H66.5984V223.17ZM71.9382 232.996H48.5254V236.68H71.9382V232.996ZM66.5984 242.821H48.5254V246.506H66.5984V242.821Z" fill="white"/>
<path d="M74.4027 261.225H43.1856C40.5157 261.225 38.2566 259.197 38.2566 257.355V216.62H36.819V263.086H74.4027V261.225Z" fill="#0E6D4A"/>
<path d="M34.5598 264.928C33.2249 264.928 32.7115 263.905 32.7115 263.086V211.298C32.7115 210.07 32.7115 208.841 34.5598 208.841H32.0953C30.2469 208.841 29.8362 209.455 29.8362 211.298V263.086C29.8362 263.905 30.6577 264.928 31.89 264.928H34.5598Z" fill="#0A442D"/>
<path d="M59.5975 208.841C59.741 208.53 59.821 208.183 59.821 207.818C59.821 206.461 58.7176 205.361 57.3565 205.361C55.9954 205.361 54.892 206.461 54.892 207.818C54.892 208.183 54.972 208.53 55.1155 208.841C55.5049 209.687 56.3619 210.274 57.3565 210.274C58.3511 210.274 59.2081 209.687 59.5975 208.841Z" fill="white"/>
<path fill-rule="evenodd" clip-rule="evenodd" d="M403.732 81.8895C403.732 62.653 387.097 50.0618 373.235 50.0617C363.995 50.0617 355.776 52.9948 349.701 58.106C346.878 60.4805 344.518 63.3251 342.733 66.564C340.29 70.9981 338.924 76.1713 338.924 81.8895C338.924 83.2199 338.992 84.5021 339.122 85.7368C339.892 93.106 342.821 98.7791 346.202 102.875C348.359 105.489 350.701 107.461 352.784 108.821L351.006 116.515L350.602 118.264L349.701 122.165L347.935 129.806L365.263 114.067C365.955 114.222 366.647 114.353 367.34 114.46C382.195 116.749 397.22 108.06 402.097 92.7319C403.152 89.4141 403.732 85.7854 403.732 81.8895ZM358.613 86.8787V98.6777H366.547V86.8787H372.81L379.073 98.6777H387.842V86.8787H391.6V83.929H387.842V80.9792H391.6V78.0295H387.842V63.7021H380.326V78.0295H375.005L366.547 63.7021H358.613V78.0295H354.855V80.9792H358.613V83.929H354.855V86.8787H358.613Z" fill="#B4C432"/>
<path fill-rule="evenodd" clip-rule="evenodd" d="M358.613 86.8787H354.855V83.929H358.613V80.9792H354.855V78.0295H358.613V63.7021H366.547L375.005 78.0295H380.326V63.7021H387.842V78.0295H391.6V80.9792H387.842V83.929H391.6V86.8787H387.842V98.6777H379.073L372.81 86.8787H366.547V98.6777H358.613V86.8787ZM380.326 80.9792H376.746L378.238 83.5076H380.326V80.9792ZM366.547 80.9792V83.929H371.056L369.303 80.9792H366.547ZM366.547 76.3439V78.0295H367.549L366.547 76.3439Z" fill="white"/>
<path d="M366.547 83.929V80.9792H369.303L371.056 83.929H366.547Z" fill="#B4C432"/>
<path d="M376.746 80.9792H380.326V83.5076H378.238L376.746 80.9792Z" fill="#B4C432"/>
<path d="M338.924 81.8895C338.924 76.1713 340.29 70.9981 342.733 66.564C341.347 66.5129 326.654 66.5427 319.48 66.564C316.449 72.2881 314.996 78.9742 315.811 85.7368H339.122C338.992 84.5021 338.924 83.2199 338.924 81.8895Z" fill="#0A442D"/>
<path d="M349.701 58.106H325.835C323.312 60.532 321.155 63.4011 319.48 66.564C326.654 66.5427 341.347 66.5129 342.733 66.564C344.518 63.3251 346.878 60.4805 349.701 58.106Z" fill="#669B7E"/>
<path d="M373.235 50.0617H344.816C337.628 50.0617 330.973 53.1643 325.835 58.106H349.701C355.776 52.9948 363.995 50.0617 373.235 50.0617Z" fill="#0A442D"/>
<path d="M339.122 85.7368H315.811C316.515 91.5832 318.915 97.4866 323.457 102.875H346.202C342.821 98.7791 339.892 93.106 339.122 85.7368Z" fill="#0E6D4A"/>
<path d="M352.784 108.821C350.701 107.461 348.359 105.489 346.202 102.875H323.457C325.093 104.816 327.007 106.69 329.22 108.471L352.784 108.821Z" fill="#0A442D"/>
<path d="M352.784 108.821L329.22 108.471L327.26 116.515H351.006L352.784 108.821Z" fill="#669B7E"/>
<path d="M351.006 116.515H327.26L326.833 118.264H350.602L351.006 116.515Z" fill="#0A442D"/>
<path d="M350.602 118.264H326.833L325.883 122.165H349.701L350.602 118.264Z" fill="#0E6D4A"/>
<path d="M324.021 129.806H347.935L349.701 122.165H325.883L324.021 129.806Z" fill="#0A442D"/>
<path d="M395.759 117.215C406.156 110.569 405.463 96.5792 402.097 92.7319C397.22 108.06 382.195 116.749 367.34 114.46C372.192 121.412 380.163 123.161 391.6 120.363L398.185 127.008L395.759 117.215Z" fill="#0A442D"/>
<path d="M158.714 66.9615H160.612H163.459V51.3018C163.459 49.641 161.798 47.9086 159.663 47.9086C159.081 48.6011 158.739 49.5235 158.714 50.59V66.9615Z" fill="#B4C432"/>
<path d="M139.969 54.6236H142.817V59.369H139.969V54.6236Z" fill="#B4C432"/>
<path d="M147.087 54.6236V59.369H144.24V54.6236H147.087Z" fill="#B4C432"/>
<path d="M144.24 60.7926H147.087V65.0634H144.24V60.7926Z" fill="#B4C432"/>
<path d="M139.969 60.7926H142.817V65.0634H139.969V60.7926Z" fill="#B4C432"/>
<path d="M126.445 54.6236H129.292V59.369H126.445V54.6236Z" fill="#B4C432"/>
<path d="M133.563 54.6236V59.369H130.716V54.6236H133.563Z" fill="#B4C432"/>
<path d="M126.445 60.7926H129.292V65.0634H126.445V60.7926Z" fill="#B4C432"/>
<path d="M130.716 60.7926H133.563V65.0634H130.716V60.7926Z" fill="#B4C432"/>
<path fill-rule="evenodd" clip-rule="evenodd" d="M124.547 52.9627H135.224V66.7243H124.547V52.9627ZM129.292 54.6236H126.445V59.369H129.292V54.6236ZM133.563 59.369V54.6236H130.716V59.369H133.563ZM129.292 60.7926H126.445V65.0634H129.292V60.7926ZM133.563 60.7926H130.716V65.0634H133.563V60.7926Z" fill="white"/>
<path fill-rule="evenodd" clip-rule="evenodd" d="M148.748 52.9627H138.071V66.7243H148.748V52.9627ZM142.817 54.6236H139.969V59.369H142.817V54.6236ZM147.087 59.369V54.6236H144.24V59.369H147.087ZM142.817 60.7926H139.969V65.0634H142.817V60.7926ZM147.087 60.7926H144.24V65.0634H147.087V60.7926Z" fill="white"/>
<path fill-rule="evenodd" clip-rule="evenodd" d="M121.7 70.7578H152.07V49.4037H121.7V70.7578ZM138.071 52.9627H148.748V66.7243H138.071V52.9627ZM135.224 52.9627H124.547V66.7243H135.224V52.9627Z" fill="#0A442D"/>
<path d="M158.714 70.7578V66.9615V50.59C158.739 49.5235 159.081 48.6011 159.663 47.9086C160.376 47.0598 161.451 46.5565 162.747 46.5565C165.594 46.5565 167.255 48.4546 167.255 50.3528V66.9615H167.73V68.8597H169.153V70.7578H170.577H173.899V49.1664L162.984 40.1502L152.07 49.4037V70.7578H158.714Z" fill="#0E6D4A"/>
<path d="M121.7 70.7578H119.327V72.656H152.07V70.7578H121.7Z" fill="#0E6D4A"/>
<path d="M158.714 72.656V70.7578H152.07V72.656H158.714Z" fill="#669B7E"/>
<path d="M162.51 70.7578V68.8597H160.612V66.9615H158.714V70.7578V72.656H163.934V70.7578H162.51Z" fill="#0A442D"/>
<path d="M170.577 70.7578V72.656H176.271V70.7578H173.899H170.577Z" fill="#669B7E"/>
<path d="M167.255 50.3528C167.255 48.4546 165.594 46.5565 162.747 46.5565C161.451 46.5565 160.376 47.0598 159.663 47.9086C161.798 47.9086 163.459 49.641 163.459 51.3018V66.9615H167.255V50.3528Z" fill="#0A442D"/>
<path d="M173.899 49.1664V46.5565L171.051 44.2044L162.984 37.5403V40.1502L173.899 49.1664Z" fill="#669B7E"/>
<path d="M162.984 37.5403L152.07 46.5565V49.4037L162.984 40.1502V37.5403Z" fill="white"/>
<path d="M152.07 46.5565H121.7V49.4037H152.07V46.5565Z" fill="#669B7E"/>
<path d="M133.563 43.2347V37.5403H132.614L121.7 46.5565H152.07L162.984 37.5403H155.629H142.342V40.6248L139.02 43.2347H133.563Z" fill="#0A442D"/>
<path d="M133.563 34.2185V37.5403V43.2347H139.02V34.2185H137.597H133.563Z" fill="#0E6D4A"/>
<path d="M139.02 43.2347L142.342 40.6248V37.5403V34.2185H139.02V43.2347Z" fill="#B4C432"/>
<path fill-rule="evenodd" clip-rule="evenodd" d="M137.597 34.2185H139.02H142.342V37.5403H155.629V21.1688H137.597V34.2185ZM139.732 24.2533H145.427V31.8458H139.732V24.2533ZM147.325 24.2533H153.019V31.8458H147.325V24.2533Z" fill="#669B7E"/>
<path fill-rule="evenodd" clip-rule="evenodd" d="M162.984 37.5403L171.051 44.2044V21.406L163.459 15.9489L155.629 21.1688V37.5403H162.984ZM156.815 24.4905H162.51V32.0831H156.815V24.4905ZM164.171 24.4905H169.865V32.0831H164.171V24.4905Z" fill="#0E6D4A"/>
<path d="M163.459 15.9489H145.189L137.597 21.1688H155.629L163.459 15.9489Z" fill="#0A442D"/>
<path fill-rule="evenodd" clip-rule="evenodd" d="M145.427 24.2533H139.732V31.8458H145.427V24.2533ZM142.342 25.2023H140.681V27.575H142.342V25.2023ZM144.478 25.2023H143.054V27.575H144.478V25.2023ZM142.342 28.5241H140.681V30.8968H142.342V28.5241ZM144.478 28.5241H143.054V30.8968H144.478V28.5241Z" fill="white"/>
<path fill-rule="evenodd" clip-rule="evenodd" d="M153.019 24.2533H147.325V31.8458H153.019V24.2533ZM149.935 25.2023H148.274V27.575H149.935V25.2023ZM152.07 25.2023H150.646V27.575H152.07V25.2023ZM149.935 28.5241H148.274V30.8968H149.935V28.5241ZM152.07 28.5241H150.646V30.8968H152.07V28.5241Z" fill="white"/>
<path d="M140.681 25.2023H142.342V27.575H140.681V25.2023Z" fill="#B4C432"/>
<path d="M143.054 25.2023H144.478V27.575H143.054V25.2023Z" fill="#B4C432"/>
<path d="M140.681 28.5241H142.342V30.8968H140.681V28.5241Z" fill="#B4C432"/>
<path d="M143.054 28.5241H144.478V30.8968H143.054V28.5241Z" fill="#B4C432"/>
<path d="M148.274 25.2023H149.935V27.575H148.274V25.2023Z" fill="#B4C432"/>
<path d="M150.646 25.2023H152.07V27.575H150.646V25.2023Z" fill="#B4C432"/>
<path d="M148.274 28.5241H149.935V30.8968H148.274V28.5241Z" fill="#B4C432"/>
<path d="M150.646 28.5241H152.07V30.8968H150.646V28.5241Z" fill="#B4C432"/>
<path d="M157.765 25.4396H159.425V27.8123H157.765V25.4396Z" fill="#B4C432"/>
<path d="M160.137 25.4396H161.561V27.8123H160.137V25.4396Z" fill="#B4C432"/>
<path d="M157.765 28.7614H159.425V31.134H157.765V28.7614Z" fill="#B4C432"/>
<path d="M160.137 28.7614H161.561V31.134H160.137V28.7614Z" fill="#B4C432"/>
<path d="M165.12 25.4396H166.781V27.8123H165.12V25.4396Z" fill="#B4C432"/>
<path d="M167.492 25.4396H168.916V27.8123H167.492V25.4396Z" fill="#B4C432"/>
<path d="M165.12 28.7614H166.781V31.134H165.12V28.7614Z" fill="#B4C432"/>
<path d="M167.492 28.7614H168.916V31.134H167.492V28.7614Z" fill="#B4C432"/>
<path fill-rule="evenodd" clip-rule="evenodd" d="M162.51 24.4905H156.815V32.0831H162.51V24.4905ZM159.425 25.4396H157.765V27.8123H159.425V25.4396ZM161.561 25.4396H160.137V27.8123H161.561V25.4396ZM159.425 28.7614H157.765V31.134H159.425V28.7614ZM161.561 28.7614H160.137V31.134H161.561V28.7614Z" fill="#669B7E"/>
<path fill-rule="evenodd" clip-rule="evenodd" d="M169.865 24.4905H164.171V32.0831H169.865V24.4905ZM166.781 25.4396H165.12V27.8123H166.781V25.4396ZM168.916 25.4396H167.492V27.8123H168.916V25.4396ZM166.781 28.7614H165.12V31.134H166.781V28.7614ZM168.916 28.7614H167.492V31.134H168.916V28.7614Z" fill="#669B7E"/>
<path d="M127.219 24.8128L127.812 30.119L133.215 30.702L127.812 31.285L127.219 36.5912L126.625 31.285L121.222 30.702L126.625 30.119L127.219 24.8128Z" fill="#0E6D4A"/>
<path d="M132.402 21.406L132.656 23.6801L134.972 23.93L132.656 24.1798L132.402 26.4539L132.148 24.1798L129.832 23.93L132.148 23.6801L132.402 21.406Z" fill="#0E6D4A"/>
<path d="M115.186 261.601V236.069L68.9402 175.881H44.3024L49.1682 181.959L70.6861 208.841L75.6016 214.982H75.8403V215.28L79.537 219.899L109.108 256.841L115.186 264.369C115.277 263.489 115.186 262.495 115.186 261.601Z" fill="#001A13"/>
<path d="M278.884 406.696C267.387 410.039 263.748 414.167 258.372 422.424L261.606 426.632L367.267 565.299L392.873 600L442.36 581.026L600.519 515.459L621.785 505.477L623.631 477.785L603.177 487.241L429.733 556.247C421.571 559.363 410.585 562.802 406.154 564.185C404.802 562.882 402.954 560.518 400.597 557.47C400.44 557.266 400.28 557.059 400.118 556.85C399.862 556.519 399.601 556.18 399.333 555.835C397.461 553.414 395.309 550.655 392.873 547.71L297.712 426.632L281.688 406.063L278.884 406.696Z" fill="#0A442D"/>
<path fill-rule="evenodd" clip-rule="evenodd" d="M307.638 394.495C305.206 395.78 302.6 397.199 299.815 398.769C300.66 398.328 301.458 397.926 302.21 397.549C302.285 397.512 302.358 397.475 302.432 397.438C304.542 396.38 306.281 395.508 307.638 394.495Z" fill="#001A13"/>
<path d="M67.3226 130.894C58.6941 120.722 48.3632 108.545 39.1385 94.5231V135.877L53.5385 154.708L68.9402 175.881L115.186 236.069L166.134 302.377V257.731L67.3397 130.914L67.3226 130.894Z" fill="#0A442D"/>
<path fill-rule="evenodd" clip-rule="evenodd" d="M326.031 221.908L315.315 222.047L286.54 222.422H214.886H184.997H175.018V231.499V259.865V334.482V364.451V373.003H183.379H209.768H286.54H316.501H325.599V364.005V334.482V259.865L325.917 231.904L326.031 221.908ZM227.77 273.272L227.671 273.206C227.56 273.132 227.453 273.061 227.353 272.994H223.453L221.113 270.646L223.453 267.515V263.21L230.472 251.077V247.946L237.492 242.859H241.002L244.902 240.119H256.601L260.891 242.859H264.791L271.811 247.946V251.077L278.441 263.21V267.515L280.391 270.646L278.441 272.994H274.541L273.917 273.385H275.711L275.451 278.081C283.121 278.081 281.951 290.605 274.606 293.345L274.541 294.519L268.301 307.434V314.087L269.861 316.435C271.72 316.435 273.543 316.626 275.321 316.981C278.037 317.525 280.647 318.452 283.121 319.672C296.691 326.366 306.13 341.855 306.13 350.875H282.731H218.773H195.374C195.374 341.161 204.993 325.797 218.773 319.391C221.249 318.24 223.859 317.378 226.573 316.891C228.227 316.593 229.919 316.435 231.642 316.435L233.202 314.087V307.434L226.573 294.519L226.529 293.345C218.383 290.214 219.177 278.081 225.966 278.081L225.793 273.385H227.942L227.806 273.296L227.79 273.285L227.77 273.272Z" fill="#8ED799"/>
<path fill-rule="evenodd" clip-rule="evenodd" d="M166.134 255.399V257.731V302.377V338.821V381.887H204.984H227.226H290.815H310.918H334.483V338.821V255.399V213.538H290.815H210.706H166.134V245.523V255.399ZM315.315 222.047L326.031 221.908L325.917 231.904L325.599 259.865V334.482V364.005V373.003H316.501H286.54H209.768H183.379H175.018V364.451V334.482V259.865V231.499V222.422H184.997H214.886H286.54L315.315 222.047Z" fill="white"/>
<path fill-rule="evenodd" clip-rule="evenodd" d="M127.219 24.8128L127.812 30.119L133.215 30.702L127.812 31.285L127.219 36.5912L126.625 31.285L121.222 30.702L126.625 30.119L127.219 24.8128ZM132.402 21.406L132.656 23.6801L134.972 23.93L132.656 24.1798L132.402 26.4539L132.148 24.1798L129.832 23.93L132.148 23.6801L132.402 21.406Z" fill="#8ED799"/>
<path fill-rule="evenodd" clip-rule="evenodd" d="M187.955 83.9289L188.065 79.7233L188.458 64.5826L188.483 63.6549V24.3828V9.45775V4.67593H183.351H167.925H130.213H114.481H109.23V9.45337V24.3828V63.6549V79.4282V83.7921L113.499 83.8241L127.38 83.9279L127.436 83.9286L127.47 83.9288L127.519 83.9289H167.925H183.694H187.955ZM163.459 66.9615H160.612V68.8597H162.51V70.7578H163.934V72.656H158.714H152.07H119.327V70.7578H121.7V49.4037V46.5565L132.614 37.5403H133.563V34.2185H137.597V21.1688L145.189 15.9489H163.459L171.051 21.406V44.2044L173.899 46.5565V49.1664V70.7578H176.271V72.656H170.577V70.7578H169.153V68.8597H167.73V66.9615H167.255H163.459ZM127.812 30.119L127.219 24.8128L126.625 30.119L121.222 30.702L126.625 31.285L127.219 36.5912L127.812 31.285L133.215 30.702L127.812 30.119ZM132.656 23.6801L132.402 21.406L132.148 23.6801L129.832 23.93L132.148 24.1798L132.402 26.4539L132.656 24.1798L134.972 23.93L132.656 23.6801Z" fill="#8ED799"/>
<path fill-rule="evenodd" clip-rule="evenodd" d="M104.554 78.704V65.9385V22.0323V0H128.013H170.175H193.159V22.0323V60.5854V65.9385C193.159 66.2762 193.15 66.6127 193.133 66.9479L193.159 88.2294L174.356 88.5366L174.109 88.2294C173.037 88.4341 171.947 88.558 170.846 88.5939L170.175 88.6049H125.001H108.319H104.554V84.7309V78.704ZM127.38 83.9279L113.499 83.8241L109.23 83.7921V79.4282V63.6549V24.3828V9.45337V4.67593H114.481H130.213H167.925H183.351H188.483V9.45775V24.3828V63.6549C188.483 63.9653 188.475 64.2746 188.458 64.5826L188.065 79.7233L187.955 83.9289H183.694H167.925H127.519L127.47 83.9288L127.436 83.9286L127.38 83.9279Z" fill="white"/>
<path fill-rule="evenodd" clip-rule="evenodd" d="M174.356 88.5366L170.846 88.5939C170.623 88.6012 170.399 88.6049 170.175 88.6049H125.001H108.319L128.034 113.636L134.4 121.846L143.835 120.209L145.976 119.838L174.552 113.636L191.631 110.031L181.197 97.0223L174.356 88.5366Z" fill="#001A13"/>
<path fill-rule="evenodd" clip-rule="evenodd" d="M298.598 69.2359V82.3499V90.4877V121.167V142.936V152.843H327.173H353.646H363.424H390.304H422.424V121.167V59.8083V29.0181H390.304H331.382H298.598V59.8083V69.2359ZM305.133 35.5527H312.472H334.457H387.16H408.717H415.889V42.2353V63.0931V117.976V139.691V146.309H409.197H387.16H330.692H311.282H305.133V140.019V117.976V63.0931V42.2292V35.5527Z" fill="#DFF1E1"/>
<path fill-rule="evenodd" clip-rule="evenodd" d="M305.133 35.5527H312.472H334.457H387.16H408.717H415.889V42.2353V63.0931V117.976V139.691V146.309H409.197H387.16H330.692H311.282H305.133V140.019V117.976V63.0931V42.2292V35.5527ZM373.235 50.0617C387.097 50.0618 403.732 62.653 403.732 81.8895C403.732 85.7854 403.152 89.4141 402.097 92.7319C405.463 96.5792 406.156 110.569 395.759 117.215L398.185 127.008L391.6 120.363C380.163 123.161 372.192 121.412 367.34 114.46C366.647 114.353 365.955 114.222 365.263 114.067L347.935 129.806H324.021L325.883 122.165L326.833 118.264L327.26 116.515L329.22 108.471C327.007 106.69 325.093 104.816 323.457 102.875C318.915 97.4866 316.515 91.5832 315.811 85.7368C314.996 78.9742 316.449 72.2881 319.48 66.564C321.155 63.4011 323.312 60.532 325.835 58.106C330.973 53.1643 337.628 50.0617 344.816 50.0617H373.235Z" fill="#8ED799"/>
<path fill-rule="evenodd" clip-rule="evenodd" d="M298.598 142.936V121.167V90.4877L283.979 93.0351L265.477 96.7385L275.561 110.978L296.605 140.66C297.176 141.47 297.848 142.229 298.598 142.936Z" fill="#001A13"/>
<path fill-rule="evenodd" clip-rule="evenodd" d="M258.372 422.424C263.748 414.167 267.387 410.039 278.884 406.696L281.688 406.063L297.712 426.632L392.873 547.71C395.309 550.655 397.461 553.414 399.333 555.835C399.601 556.18 399.862 556.519 400.118 556.85L400.119 556.851L400.597 557.47C402.954 560.518 404.802 562.882 406.154 564.185C410.585 562.802 421.571 559.363 429.733 556.247L603.177 487.241L623.631 477.785L448.783 262.935L363.424 152.843H353.646L448.783 274.675L600 458.215L607.483 467.647L612.923 474.831L597.418 480.96L429.733 547.71C427.717 548.41 425.682 549.108 423.713 549.783L423.706 549.785C418.222 551.666 413.202 553.387 410.215 554.585C408 551.251 404.463 546.867 398.722 539.946L307.68 426.632L290.117 404.16L299.815 398.769C302.6 397.199 305.206 395.78 307.638 394.495C317.908 389.069 325.077 386.036 329.545 384.146C331.956 383.126 333.584 382.437 334.483 381.887H310.918H290.815H227.226L258.372 422.424ZM399.333 555.835C399.601 556.181 399.863 556.52 400.119 556.851L400.118 556.85C399.862 556.519 399.601 556.18 399.333 555.835Z" fill="#001A13"/>
<path d="M73.099 126.483L166.134 245.523V213.538H210.706H290.815H334.483V255.399V338.821V381.887C333.584 382.437 331.956 383.126 329.545 384.146C325.077 386.036 317.908 389.069 307.638 394.495C306.281 395.508 304.542 396.38 302.432 397.438L302.21 397.549C301.458 397.926 300.66 398.328 299.815 398.769L290.117 404.16L307.68 426.632L398.722 539.946C404.463 546.867 408 551.251 410.215 554.585C413.202 553.387 418.222 551.666 423.706 549.785L423.713 549.783C425.682 549.108 427.717 548.41 429.733 547.71L597.418 480.96L612.923 474.831L607.483 467.647L600 458.215L448.783 274.675L353.646 152.843H327.173H298.598V142.936C297.848 142.229 297.176 141.47 296.605 140.66L275.561 110.978L265.477 96.7385L283.979 93.0351L298.598 90.4877V82.3499L282.207 61.3588C280.701 59.4341 279.675 58.0396 278.734 56.76L278.733 56.7585C277.295 54.8034 276.055 53.1162 273.6 50.2154C266.252 51.9428 263.849 52.473 261.894 52.9044C260.088 53.303 258.663 53.6174 254.074 54.7135L193.133 66.9479L193.159 88.2294L174.356 88.5366L181.197 97.0223L191.631 110.031L174.552 113.636L145.976 119.838C145.25 119.983 144.537 120.11 143.835 120.209L134.4 121.846L128.034 113.636L108.319 88.6049H104.554V84.7309L78.6368 89.9339C70.1538 91.9385 59.4461 94.5231 49.8461 97.8462C53.7531 103.273 59.0296 109.529 63.9335 115.343C67.3715 119.419 70.6265 123.278 73.099 126.483Z" fill="white"/>
</svg>
