<svg width="128" height="128" viewBox="0 0 128 128" fill="none" xmlns="http://www.w3.org/2000/svg">
<path fill-rule="evenodd" clip-rule="evenodd" d="M53.8176 111.637H83.5795H89.2872V45.6464H37.9174V50.5957V70.8054V104.213H70.1254V107.1H54.0214H37.9174V111.637H44.4405H53.8176ZM49.3329 52.2455H44.4405V76.5796H49.3329V52.2455Z" fill="#669B7E"/>
<path d="M93.3642 111.637H99.072V45.6464H89.2872V111.637H93.3642Z" fill="#0E6D4A"/>
<path fill-rule="evenodd" clip-rule="evenodd" d="M89.2872 11.8262H37.9174V45.6464H89.2872V11.8262ZM49.3329 28.7363H44.4405V40.2847H49.3329V28.7363Z" fill="#0E6D4A"/>
<path d="M99.072 11.8262H89.2872V45.6464H99.072V11.8262Z" fill="#0A442D"/>
<path fill-rule="evenodd" clip-rule="evenodd" d="M37.9174 50.5957H24.4634L18.3479 61.7317L24.4634 70.8054H37.9174V50.5957ZM24.8711 58.4321L30.9865 54.3077L36.6943 58.4321V63.7939L30.9865 67.5058L24.8711 63.7939V58.4321Z" fill="#0A442D"/>
<path d="M93.3642 116.174V111.637H89.2872H83.5795V116.174H93.3642Z" fill="#0A442D"/>
<path d="M53.8176 116.174V111.637H44.4405V116.174H53.8176Z" fill="#0A442D"/>
<path d="M44.4405 52.2455H49.3329V76.5796H44.4405V52.2455Z" fill="#B4C432"/>
<path d="M44.4405 28.7363H49.3329V40.2847H44.4405V28.7363Z" fill="#B4C432"/>
<path d="M70.1254 104.213H37.9174V107.1H54.0214H70.1254V104.213Z" fill="#B4C432"/>
<path d="M96.3295 53.6306L97.3496 62.8543L106.633 63.8678L97.3496 64.8812L96.3295 74.1049L95.3095 64.8812L86.0256 63.8678L95.3095 62.8543L96.3295 53.6306Z" fill="#0A442D"/>
<path d="M105.236 47.7086L105.673 51.6617L109.652 52.096L105.673 52.5303L105.236 56.4833L104.799 52.5303L100.82 52.096L104.799 51.6617L105.236 47.7086Z" fill="#0A442D"/>
</svg>
