<svg width="128" height="128" viewBox="0 0 128 128" fill="none" xmlns="http://www.w3.org/2000/svg">
<path d="M34.5751 52.9189L35.5602 61.7249L44.5268 62.6925L35.5602 63.66L34.5751 72.466L33.5899 63.66L24.6233 62.6925L33.5899 61.7249L34.5751 52.9189Z" fill="#0E6D4A"/>
<path d="M43.1774 47.2651L43.5997 51.0391L47.4425 51.4537L43.5997 51.8684L43.1774 55.6424L42.7552 51.8684L38.9124 51.4537L42.7552 51.0391L43.1774 47.2651Z" fill="#0E6D4A"/>
<path d="M64.9007 59.5407L64.1971 59.4718L64.3936 101.998C59.6684 101.998 57.3062 105.542 57.3062 109.086C57.3062 112.63 60.4555 116.174 64.3936 116.174C68.3316 116.174 71.4817 112.63 71.4817 109.086V66.1658C71.4817 62.8678 68.0715 60.0276 64.9007 59.5407Z" fill="#669B7E"/>
<path d="M64.3936 101.998L64.1971 59.4718L63.2671 59.566C59.6541 60.1861 57.3062 63.6217 57.3062 66.1658V109.086C57.3062 105.542 59.6684 101.998 64.3936 101.998Z" fill="#B4C432"/>
<path d="M41.9493 26.3955H110.071C110.071 25.8716 110.041 25.3455 109.982 24.8204C109.251 18.2425 104.092 11.8262 98.2578 11.8262H28.9551C24.2294 11.8262 18.3234 17.7327 18.3234 23.2454V26.3955H32.499V39.7835V45.69C32.499 46.4775 33.2855 47.2651 34.0735 47.2651C34.8616 47.2651 35.6491 46.4775 35.6491 45.69V39.7835V26.3955H38.7992V39.7835V40.571C38.7987 41.3586 39.5857 42.1461 40.3738 42.1461C41.1608 42.1461 41.9488 41.3586 41.9493 40.571V39.7835V26.3955Z" fill="#669B7E"/>
<path d="M110.071 26.3955H41.9493V39.7835H98.2578C103.741 39.7835 109.226 34.6916 109.982 27.9748C109.983 27.9662 109.984 27.9575 109.985 27.9488C110.042 27.4398 110.071 26.9215 110.071 26.3955Z" fill="#0E6D4A"/>
<path d="M32.499 26.3955H18.3234V29.5456C18.3234 34.2708 25.0169 39.7835 28.9551 39.7835H32.499V26.3955Z" fill="#0E6D4A"/>
<path d="M18.3234 26.3955V23.2454V19.3077H11.2356V22.4578V29.5456V32.6957H18.3234V29.5456V26.3955Z" fill="#0A442D"/>
<path d="M11.2356 22.4578H7.29798C5.7224 22.4578 4.11864 24.0329 4.14785 26.0017C4.17707 27.9706 5.72218 29.5456 7.29798 29.5456H11.2356V22.4578Z" fill="#B4C432"/>
<path d="M109.982 24.8204C110.041 25.3455 110.071 25.8716 110.071 26.3955C110.071 26.9215 110.042 27.4398 109.985 27.9488C109.984 27.9575 109.983 27.9662 109.982 27.9748C116.867 27.9926 120.309 34.2708 120.309 39.7835C120.309 47.2651 116.371 52.384 107.708 52.384L67.5441 51.9902C64.1971 51.8514 62.8189 53.5653 62.8189 56.7154V59.6114L63.2671 59.566C63.5685 59.5143 63.8787 59.4822 64.1971 59.4718C64.4293 59.4811 64.6643 59.5044 64.9007 59.5407L65.5752 59.6067V56.7154C65.5752 55.9279 66.2963 55.5908 67.5441 55.5341H110.071C117.946 55.5341 123.853 48.4464 123.853 40.1773C123.853 28.7581 115.583 24.8204 109.982 24.8204Z" fill="#0A442D"/>
<path d="M35.6491 26.3955V39.7835H38.7992V26.3955H35.6491Z" fill="#0E6D4A"/>
</svg>
