<svg width="128" height="128" viewBox="0 0 128 128" fill="none" xmlns="http://www.w3.org/2000/svg">
<path fill-rule="evenodd" clip-rule="evenodd" d="M46.7313 84.0953L81.6363 105.481V92.5759L62.8978 81.1456V58.2849L46.7313 48.6982V84.0953ZM55.9168 82.6205C55.9168 81.5143 56.6516 80.4081 58.1213 80.4081C59.591 80.4081 60.3259 81.4339 60.3259 82.6205C60.3259 83.8071 59.591 84.8328 58.1213 84.8328C56.6516 84.8328 55.9168 83.7266 55.9168 82.6205Z" fill="#B4C432"/>
<path fill-rule="evenodd" clip-rule="evenodd" d="M66.572 78.5645L81.6363 87.7825V68.9778L66.572 60.4972V78.5645ZM69.8788 70.8214C69.8788 69.7152 70.6137 68.6091 72.0834 68.6091C73.5531 68.6091 74.2879 69.6348 74.2879 70.8214C74.2879 72.008 73.5531 73.0337 72.0834 73.0337C70.6137 73.0337 69.8788 71.9276 69.8788 70.8214Z" fill="#B4C432"/>
<path fill-rule="evenodd" clip-rule="evenodd" d="M94.6566 57.7782L94.1287 62.5997L93.6917 58.6082L81.6363 68.9778V87.7825L93.0781 78.4726C92.1808 77.1666 91.5073 75.8063 91.3196 74.5107C90.4437 68.4634 94.0495 63.5662 100.138 63.4491C106.308 63.3303 109.851 68.3827 108.956 74.5107C108.205 79.6495 100.138 85.5723 100.138 85.5723C100.138 85.5723 97.5941 83.6791 95.2309 81.1268V93.5835L109.928 80.7211V44.6423L106.249 47.8065C106.059 48.0921 105.797 48.3268 105.462 48.4835L101.436 51.9469L104.416 52.2756L100.559 52.7009L94.6566 57.7782Z" fill="#0A442D"/>
<path d="M81.6363 92.5759V105.481L91.1893 97.1206V84.8328L81.6363 92.5759Z" fill="#0A442D"/>
<path d="M102.225 46.231C102.329 45.216 103.06 44.2736 104.416 44.2736C104.466 44.2736 104.515 44.2747 104.562 44.277L113.235 37.0278V19.2006L97.0681 33.7264V50.5418L102.225 46.231Z" fill="#0A442D"/>
<path fill-rule="evenodd" clip-rule="evenodd" d="M81.6363 64.5532V47.592L93.3938 37.0278V48.6633L93.1102 51.2535L83.8409 52.2756L93.1102 53.2976L93.2281 54.3745L81.6363 64.5532Z" fill="#0A442D"/>
<path d="M109.928 80.7211L113.235 77.8271V37.0278L104.562 44.277C105.935 44.3428 106.621 45.3392 106.621 46.4859C106.621 46.9732 106.497 47.4334 106.249 47.8065L109.928 44.6423V80.7211Z" fill="#669B7E"/>
<path fill-rule="evenodd" clip-rule="evenodd" d="M102.212 46.4859C102.212 47.592 102.947 48.6982 104.416 48.6982C104.821 48.6982 105.169 48.6207 105.462 48.4835L101.436 51.9469L95.1471 51.2535L94.1287 41.9514L93.3938 48.6633V37.0278L97.0681 33.7264V50.5418L102.225 46.231C102.216 46.3156 102.212 46.4007 102.212 46.4859ZM93.2281 54.3745L81.6363 64.5532V68.9778L93.6917 58.6082L93.2281 54.3745ZM94.6566 57.7782L100.559 52.7009L95.1471 53.2976L94.6566 57.7782Z" fill="#669B7E"/>
<path d="M104.416 44.2736C103.06 44.2736 102.329 45.216 102.225 46.231C102.216 46.3156 102.212 46.4007 102.212 46.4859C102.212 47.592 102.947 48.6982 104.416 48.6982C104.821 48.6982 105.169 48.6207 105.462 48.4835C105.797 48.3268 106.059 48.0921 106.249 47.8065C106.497 47.4334 106.621 46.9732 106.621 46.4859C106.621 45.3392 105.935 44.3428 104.562 44.277C104.515 44.2747 104.466 44.2736 104.416 44.2736Z" fill="white"/>
<path d="M100.138 67.6199C97.1984 67.6199 95.3613 70.086 95.3613 72.2983C95.3613 74.5107 96.831 77.0917 100.138 77.0917C103.689 77.0917 104.914 74.5107 104.914 72.2983C104.914 70.086 103.077 67.6199 100.138 67.6199Z" fill="white"/>
<path fill-rule="evenodd" clip-rule="evenodd" d="M91.3196 74.5107C91.5073 75.8063 92.1808 77.1666 93.0781 78.4726C93.7144 79.3987 94.4631 80.2976 95.2309 81.1268C97.5941 83.6791 100.138 85.5723 100.138 85.5723C100.138 85.5723 108.205 79.6495 108.956 74.5107C109.851 68.3827 106.308 63.3303 100.138 63.4491C94.0495 63.5662 90.4437 68.4634 91.3196 74.5107ZM95.3613 72.2983C95.3613 70.086 97.1984 67.6199 100.138 67.6199C103.077 67.6199 104.914 70.086 104.914 72.2983C104.914 74.5107 103.689 77.0917 100.138 77.0917C96.831 77.0917 95.3613 74.5107 95.3613 72.2983Z" fill="#0E6D4A"/>
<path fill-rule="evenodd" clip-rule="evenodd" d="M60.3259 45.3797C60.3259 45.3797 64.5722 42.2623 67.1901 38.5884C68.1395 37.2561 68.8747 35.8506 69.1155 34.4941C69.1259 34.4353 69.1354 34.3767 69.144 34.3181C70.0391 28.1902 66.4963 23.1377 60.3259 23.2565C58.0075 23.3011 56.0491 24.0389 54.561 25.2693C53.3654 26.2579 52.4735 27.5646 51.9424 29.0854C51.3987 30.6424 51.2334 32.4238 51.5077 34.3181C52.2381 39.3602 60.3259 45.3797 60.3259 45.3797ZM60.3259 27.4273C59.6621 27.4273 59.0545 27.5531 58.5116 27.7733C56.9135 28.4215 55.8758 29.888 55.6144 31.3739C55.5714 31.6186 55.5494 31.8637 55.5494 32.1058C55.5494 34.3181 57.0191 36.8991 60.3259 36.8991C61.5455 36.8991 62.4908 36.5948 63.2062 36.1055C64.5743 35.17 65.1024 33.5584 65.1024 32.1058C65.1024 32.0535 65.1013 32.0011 65.0993 31.9486C65.0149 29.7783 63.1958 27.4273 60.3259 27.4273Z" fill="#0A442D"/>
<path d="M25.2341 61.628C26.7768 62.0932 28.0598 62.9512 29.0358 64.0948L33.8715 59.7598V72.665L38.2806 69.3465V56.0726L46.7313 48.6982V44.6423L38.2806 51.648V32.0702L33.8715 35.3221V55.3352L29.4624 59.0224L29.5528 38.5073L25.2341 41.6925V61.628Z" fill="#0E6D4A"/>
<path d="M62.8978 81.1456L81.6363 92.5759V87.7825L66.572 78.5645V60.4972L81.6363 68.9778V64.5532L46.7313 44.6423V48.6982L62.8978 58.2849V81.1456Z" fill="#0A442D"/>
<path d="M93.0781 78.4726L81.6363 87.7825V92.5759L91.1893 84.8328V97.1206L95.2309 93.5835V81.1268C94.4631 80.2976 93.7144 79.3987 93.0781 78.4726Z" fill="#669B7E"/>
<path d="M46.7313 84.0953V48.6982L38.2806 56.0726V69.3465L33.8715 72.665V59.7598L29.0358 64.0948C30.7706 66.1278 31.535 69.0632 31.0624 72.2983C30.3118 77.4372 22.2443 83.36 22.2443 83.36C22.2443 83.36 18.8277 80.817 16.2352 77.6524V106.587L46.7313 84.0953Z" fill="#669B7E"/>
<path d="M22.2443 61.2367C23.3247 61.2159 24.3245 61.3537 25.2341 61.628V41.6925L16.2352 48.3295V63.4597C17.7505 62.1034 19.7968 61.2838 22.2443 61.2367Z" fill="#669B7E"/>
<path d="M33.8715 55.3352V35.3221L29.5528 38.5073L29.4624 59.0224L33.8715 55.3352Z" fill="#669B7E"/>
<path d="M46.7313 44.6423V25.8375L38.2806 32.0702V51.648L46.7313 44.6423Z" fill="#669B7E"/>
<path d="M67.1901 38.5884L81.6363 47.592V42.43L69.1155 34.4941C68.8747 35.8506 68.1395 37.2561 67.1901 38.5884Z" fill="#669B7E"/>
<path d="M46.7313 25.8375L51.9424 29.0854C52.4735 27.5646 53.3654 26.2579 54.561 25.2693L46.7313 20.3067V25.8375Z" fill="#669B7E"/>
<path d="M58.5116 27.7733C59.0545 27.5531 59.6621 27.4273 60.3259 27.4273C63.1958 27.4273 65.0149 29.7783 65.0993 31.9486C65.1013 32.0011 65.1024 32.0535 65.1024 32.1058C65.1024 33.5584 64.5743 35.17 63.2062 36.1055C62.4908 36.5948 61.5455 36.8991 60.3259 36.8991C57.0191 36.8991 55.5494 34.3181 55.5494 32.1058C55.5494 31.8637 55.5714 31.6186 55.6144 31.3739C55.8758 29.888 56.9135 28.4215 58.5116 27.7733Z" fill="#B4C432"/>
<path d="M17.4678 70.086C17.4678 67.8737 19.3049 65.4075 22.2443 65.4075C23.4397 65.4075 24.4527 65.8154 25.2341 66.4482C25.4402 66.6151 25.6303 66.7977 25.8033 66.9927C26.5868 67.8756 27.0208 69.0108 27.0208 70.086C27.0208 72.2983 25.796 74.8794 22.2443 74.8794C18.9375 74.8794 17.4678 72.2983 17.4678 70.086Z" fill="#669B7E"/>
<path d="M55.9168 82.6205C55.9168 81.5143 56.6516 80.4081 58.1213 80.4081C59.591 80.4081 60.3259 81.4339 60.3259 82.6205C60.3259 83.8071 59.591 84.8328 58.1213 84.8328C56.6516 84.8328 55.9168 83.7266 55.9168 82.6205Z" fill="#0A442D"/>
<path d="M69.8788 70.8214C69.8788 69.7152 70.6137 68.6091 72.0834 68.6091C73.5531 68.6091 74.2879 69.6348 74.2879 70.8214C74.2879 72.008 73.5531 73.0337 72.0834 73.0337C70.6137 73.0337 69.8788 71.9276 69.8788 70.8214Z" fill="white"/>
<path fill-rule="evenodd" clip-rule="evenodd" d="M67.1901 38.5884C64.5722 42.2623 60.3259 45.3797 60.3259 45.3797C60.3259 45.3797 52.2381 39.3602 51.5077 34.3181C51.2334 32.4238 51.3987 30.6424 51.9424 29.0854L46.7313 25.8375V44.6423L81.6363 64.5532V47.592L67.1901 38.5884ZM67.6743 47.9608C66.2046 47.9608 65.4698 49.0669 65.4698 50.1731C65.4698 51.2792 66.2046 52.3854 67.6743 52.3854C69.144 52.3854 69.8788 51.3597 69.8788 50.1731C69.8788 48.9865 69.144 47.9608 67.6743 47.9608Z" fill="#B4C432"/>
<path d="M65.4698 50.1731C65.4698 49.0669 66.2046 47.9608 67.6743 47.9608C69.144 47.9608 69.8788 48.9865 69.8788 50.1731C69.8788 51.3597 69.144 52.3854 67.6743 52.3854C66.2046 52.3854 65.4698 51.2792 65.4698 50.1731Z" fill="#669B7E"/>
<path d="M109.928 80.7211L95.2309 93.5835L91.1893 97.1206L81.6363 105.481V111.749L116.174 81.5143V11.8262L81.6363 42.43V47.592L93.3938 37.0278L97.0681 33.7264L113.235 19.2006V37.0278V77.8271L109.928 80.7211Z" fill="#B4C432"/>
<path d="M81.6363 105.481L46.7313 84.0953V89.6261L81.6363 111.749V105.481Z" fill="#669B7E"/>
<path d="M11.8262 46.4859V116.174L46.7313 89.6261V84.0953L16.2352 106.587V77.6524C14.839 75.948 13.6818 74.0633 13.4262 72.2983C12.9024 68.6821 13.9813 65.4771 16.2352 63.4597V48.3295L25.2341 41.6925L29.5528 38.5073L33.8715 35.3221L38.2806 32.0702L46.7313 25.8375V20.3067L11.8262 46.4859Z" fill="#B4C432"/>
<path fill-rule="evenodd" clip-rule="evenodd" d="M29.0358 64.0948C28.0598 62.9512 26.7768 62.0932 25.2341 61.628C24.3245 61.3537 23.3247 61.2159 22.2443 61.2367C19.7968 61.2838 17.7505 62.1034 16.2352 63.4597C13.9813 65.4771 12.9024 68.6821 13.4262 72.2983C13.6818 74.0633 14.839 75.948 16.2352 77.6524C18.8277 80.817 22.2443 83.36 22.2443 83.36C22.2443 83.36 30.3118 77.4372 31.0624 72.2983C31.535 69.0632 30.7706 66.1278 29.0358 64.0948ZM22.2443 65.4075C19.3049 65.4075 17.4678 67.8737 17.4678 70.086C17.4678 72.2983 18.9375 74.8794 22.2443 74.8794C25.796 74.8794 27.0208 72.2983 27.0208 70.086C27.0208 69.0108 26.5868 67.8756 25.8033 66.9927C25.6303 66.7977 25.4402 66.6151 25.2341 66.4482C24.4527 65.8154 23.4397 65.4075 22.2443 65.4075Z" fill="#B4C432"/>
<path d="M94.1287 62.5997L94.6566 57.7782L95.1471 53.2976L100.559 52.7009L104.416 52.2756L101.436 51.9469L95.1471 51.2535L94.1287 41.9514L93.3938 48.6633L93.1102 51.2535L83.8409 52.2756L93.1102 53.2976L93.2281 54.3745L93.6917 58.6082L94.1287 62.5997Z" fill="white"/>
</svg>
