<svg width="128" height="128" viewBox="0 0 128 128" fill="none" xmlns="http://www.w3.org/2000/svg">
<path fill-rule="evenodd" clip-rule="evenodd" d="M121.289 53.4738C121.289 28.3021 99.5206 11.8262 81.3814 11.8262C69.2905 11.8262 58.5363 15.6641 50.5863 22.3524C46.8931 25.4594 43.8052 29.1816 41.4695 33.4199C38.2721 39.222 36.4847 45.9913 36.4847 53.4738C36.4847 55.2146 36.5744 56.8924 36.7434 58.508C37.7521 68.1508 41.5843 75.5742 46.0079 80.9336C48.8315 84.3545 51.896 86.9345 54.6211 88.7139L52.2945 98.7826L51.7657 101.071L50.5863 106.175L48.2757 116.174L70.9509 95.579C71.8553 95.7819 72.7615 95.9528 73.6682 96.0926C93.1059 99.0881 112.767 87.7184 119.148 67.6613C120.53 63.3199 121.289 58.5716 121.289 53.4738ZM62.2487 60.0023V69.3808V75.4416H66.8851H72.6301V60.0023H80.8259L89.0217 75.4416H100.496V60.0023H105.413V56.1425H100.496V52.2826H105.413V48.4228H100.496V38.6765V29.675H93.591H90.6609V48.4228H83.6973L72.6301 29.675H62.2487V48.4228H57.3312V52.2826H62.2487V56.1425H57.3312V60.0023H62.2487Z" fill="#B4C432"/>
<path fill-rule="evenodd" clip-rule="evenodd" d="M62.2487 69.3808V60.0023H57.3312V56.1425H62.2487V52.2826H57.3312V48.4228H62.2487V29.675H72.6301L83.6973 48.4228H90.6609V29.675H93.591H100.496V38.6765V48.4228H105.413V52.2826H100.496V56.1425H105.413V60.0023H100.496V75.4416H89.0217L80.8259 60.0023H72.6301V75.4416H66.8851H62.2487V69.3808ZM90.6609 52.2826H85.9759L87.929 55.5911H90.6609V52.2826ZM72.6301 52.2826V56.1425H78.5311L76.2362 52.2826H72.6301ZM72.6301 46.2172V48.4228H73.9414L72.6301 46.2172Z" fill="white"/>
<path d="M72.6301 56.1425V52.2826H76.2362L78.5311 56.1425H72.6301Z" fill="#B4C432"/>
<path d="M85.9759 52.2826H90.6609V55.5911H87.929L85.9759 52.2826Z" fill="#B4C432"/>
<path d="M36.4847 53.4738C36.4847 45.9913 38.2721 39.222 41.4695 33.4199C39.6555 33.3531 20.4287 33.392 11.0421 33.4199C7.07536 40.91 5.17382 49.659 6.24045 58.508H36.7434C36.5744 56.8924 36.4847 55.2146 36.4847 53.4738Z" fill="#0A442D"/>
<path d="M50.5863 22.3524H19.3572C16.0565 25.5268 13.234 29.2811 11.0421 33.4199C20.4287 33.392 39.6555 33.3531 41.4695 33.4199C43.8052 29.1816 46.8931 25.4594 50.5863 22.3524Z" fill="#669B7E"/>
<path d="M81.3814 11.8262H44.1942C34.7892 11.8261 26.081 15.8859 19.3572 22.3524H50.5863C58.5363 15.6641 69.2905 11.8262 81.3814 11.8262Z" fill="#0A442D"/>
<path d="M36.7434 58.508H6.24045C7.16258 66.1582 10.3031 73.883 16.2456 80.9336H46.0079C41.5843 75.5742 37.7521 68.1508 36.7434 58.508Z" fill="#0E6D4A"/>
<path d="M54.6211 88.7139C51.896 86.9345 48.8315 84.3545 46.0079 80.9336H16.2456C18.3865 83.4737 20.8911 85.9263 23.7866 88.2564L54.6211 88.7139Z" fill="#0A442D"/>
<path d="M54.6211 88.7139L23.7866 88.2564L21.2217 98.7826H52.2945L54.6211 88.7139Z" fill="#669B7E"/>
<path d="M52.2945 98.7826H21.2217L20.6641 101.071H51.7657L52.2945 98.7826Z" fill="#0A442D"/>
<path d="M51.7657 101.071H20.6641L19.4205 106.175H50.5863L51.7657 101.071Z" fill="#0E6D4A"/>
<path d="M16.984 116.174H48.2757L50.5863 106.175H19.4205L16.984 116.174Z" fill="#0A442D"/>
<path d="M110.855 99.6979C124.461 91.0023 123.554 72.6956 119.148 67.6613C112.767 87.7184 93.1059 99.0881 73.6682 96.0926C80.0172 105.19 90.4478 107.478 105.413 103.817L114.03 112.513L110.855 99.6979Z" fill="#0A442D"/>
</svg>
