<svg xmlns="http://www.w3.org/2000/svg" viewBox="0 0 16 16" fill="none"><path d="M4.49997 1.38617L7.99997 3.38617L11.5 1.38617L15.3721 3.5988L14.6279 4.90117L11.5 3.1138L7.99997 5.1138L4.49997 3.1138L1.37208 4.90117L0.627869 3.5988L4.49997 1.38617Z" fill="currentColor"/><path d="M4.49997 10.8862L7.99997 12.8862L11.5 10.8862L15.3721 13.0988L14.6279 14.4012L11.5 12.6138L7.99997 14.6138L4.49997 12.6138L1.37208 14.4012L0.627869 13.0988L4.49997 10.8862Z" fill="currentColor"/><path d="M4.49997 6.13617L0.627869 8.3488L1.37208 9.65117L4.49997 7.8638L7.99997 9.8638L11.5 7.8638L14.6279 9.65117L15.3721 8.3488L11.5 6.13617L7.99997 8.13617L4.49997 6.13617Z" fill="currentColor"/></svg>
