<svg xmlns="http://www.w3.org/2000/svg" viewBox="0 0 16 16" fill="none"><path d="M8.74999 0V2H7.24999V0H8.74999Z" fill="currentColor"/><path d="M0.999992 10H6.99999V11.5H0.999992V10Z" fill="currentColor"/><path d="M8.99999 10H15V11.5H8.99999V10Z" fill="currentColor"/><path d="M15 13.5V15H0.999992V13.5H15Z" fill="currentColor"/><path d="M13.5066 6.80094L15.4385 6.2833L15.0503 4.83441L13.1184 5.35205L13.5066 6.80094Z" fill="currentColor"/><path d="M0.949721 4.83441L2.88157 5.35205L2.49334 6.80094L0.561493 6.2833L0.949721 4.83441Z" fill="currentColor"/><path d="M11.9432 3.59313L13.1607 2.00642L11.9707 1.09328L10.7531 2.67999L11.9432 3.59313Z" fill="currentColor"/><path d="M4.02933 1.09328L5.24686 2.67999L4.05683 3.59313L2.8393 2.00642L4.02933 1.09328Z" fill="currentColor"/><path d="M9.74999 7.25C9.74999 7.5184 9.68957 7.77269 9.58158 8H11.163C11.2199 7.75924 11.25 7.50813 11.25 7.25C11.25 5.45507 9.79492 4 7.99999 4C6.20507 4 4.74999 5.45507 4.74999 7.25C4.74999 7.50813 4.78009 7.75924 4.83696 8H6.4184C6.31041 7.77269 6.24999 7.5184 6.24999 7.25C6.24999 6.2835 7.03349 5.5 7.99999 5.5C8.96649 5.5 9.74999 6.2835 9.74999 7.25Z" fill="currentColor"/></svg>
