<svg xmlns="http://www.w3.org/2000/svg" viewBox="0 0 16 16" fill="none"><path d="M13.1716 9.82842L12 8.65686C10.9391 7.59599 9.5003 7 8.00001 7C6.49971 7 5.06087 7.59599 4.00001 8.65685L2.82843 9.82843L3.88909 10.8891L5.06067 9.71751C5.84023 8.93795 6.89754 8.5 8.00001 8.5C9.10247 8.5 10.1598 8.93795 10.9393 9.71752L12.1109 10.8891L13.1716 9.82842Z" fill="currentColor"/><path d="M10.3432 12.6568L9.17159 11.4853C8.86086 11.1746 8.43944 11 8.00001 11C7.56059 11 7.13916 11.1746 6.82844 11.4853L5.65686 12.6569L6.71752 13.7175L7.8891 12.5459C7.91851 12.5165 7.95841 12.5 8.00001 12.5C8.04161 12.5 8.08151 12.5165 8.11093 12.5459L9.28249 13.7175L10.3432 12.6568Z" fill="currentColor"/></svg>
