<svg width="41" height="49" viewBox="0 0 41 49" fill="none" xmlns="http://www.w3.org/2000/svg">
<g opacity="0.3">
<path opacity="0.3" d="M27.9904 9.90369C26.8968 9.90316 25.3789 9.90369 23.8663 9.90369C23.8663 8.55566 23.8669 6.87329 23.8663 5.7797V0.0556962H5.43836C4.64647 0.0556961 0.181847 -0.069672 0.0564476 0.055774C-0.0703403 0.182609 0.0560303 4.64687 0.0563249 5.43971V37.8817C0.0556508 39.6959 0.0563249 41.4414 0.0563249 43.2657C1.88427 43.2657 3.62228 43.2657 5.43836 43.2657H27.5583C28.2653 43.2657 28.9653 43.1264 29.6184 42.8558C30.2715 42.5852 30.8649 42.1886 31.3647 41.6886C31.8645 41.1887 32.2609 40.5951 32.5312 39.9419C32.8016 39.2887 32.9406 38.5886 32.9404 37.8817V9.9057L27.9904 9.90369Z" fill="#5B5B5B"/>
</g>
<path d="M32.9412 9.90372H27.9912C26.8976 9.90319 25.8769 9.90372 23.868 9.90372C23.8672 8.40631 23.8677 6.87331 23.8672 5.77972V0.0557251L32.9412 9.90372Z" fill="#5B5B5B"/>
<rect width="32" height="14" transform="translate(8.05469 34.0557)" fill="#5B5B5B"/>
<path d="M13.6947 44.0557V38.2957H14.2827V44.0557H13.6947ZM20.6339 44.0557L20.6379 41.2197C20.6379 40.8864 20.5445 40.6251 20.3579 40.4357C20.1739 40.2437 19.9392 40.1477 19.6539 40.1477C19.4912 40.1477 19.3325 40.1851 19.1779 40.2597C19.0232 40.3344 18.8952 40.4544 18.7939 40.6197C18.6952 40.7851 18.6459 41.0011 18.6459 41.2677L18.2979 41.1677C18.2899 40.8584 18.3499 40.5877 18.4779 40.3557C18.6085 40.1237 18.7872 39.9437 19.0139 39.8157C19.2432 39.6851 19.5019 39.6197 19.7899 39.6197C20.2245 39.6197 20.5725 39.7544 20.8339 40.0237C21.0952 40.2904 21.2259 40.6517 21.2259 41.1077L21.2219 44.0557H20.6339ZM15.4779 44.0557V39.7357H16.0059V40.7997H16.0699V44.0557H15.4779ZM18.0619 44.0557L18.0659 41.2597C18.0659 40.9157 17.9739 40.6451 17.7899 40.4477C17.6085 40.2477 17.3685 40.1477 17.0699 40.1477C16.7712 40.1477 16.5299 40.2504 16.3459 40.4557C16.1619 40.6584 16.0699 40.9291 16.0699 41.2677L15.7179 41.0757C15.7179 40.7984 15.7832 40.5504 15.9139 40.3317C16.0445 40.1104 16.2232 39.9371 16.4499 39.8117C16.6765 39.6837 16.9339 39.6197 17.2219 39.6197C17.4965 39.6197 17.7405 39.6784 17.9539 39.7957C18.1699 39.9131 18.3392 40.0837 18.4619 40.3077C18.5845 40.5317 18.6459 40.8037 18.6459 41.1237L18.6419 44.0557H18.0619ZM23.4991 44.1757C23.1738 44.1757 22.9005 44.1171 22.6791 43.9997C22.4605 43.8824 22.2965 43.7264 22.1871 43.5317C22.0778 43.3371 22.0231 43.1251 22.0231 42.8957C22.0231 42.6611 22.0698 42.4611 22.1631 42.2957C22.2591 42.1277 22.3885 41.9904 22.5511 41.8837C22.7165 41.7771 22.9071 41.6957 23.1231 41.6397C23.3418 41.5864 23.5831 41.5397 23.8471 41.4997C24.1138 41.4571 24.3738 41.4211 24.6271 41.3917C24.8831 41.3597 25.1071 41.3291 25.2991 41.2997L25.0911 41.4277C25.0991 41.0011 25.0165 40.6851 24.8431 40.4797C24.6698 40.2744 24.3685 40.1717 23.9391 40.1717C23.6431 40.1717 23.3925 40.2384 23.1871 40.3717C22.9845 40.5051 22.8418 40.7157 22.7591 41.0037L22.1871 40.8357C22.2858 40.4491 22.4845 40.1491 22.7831 39.9357C23.0818 39.7224 23.4698 39.6157 23.9471 39.6157C24.3418 39.6157 24.6765 39.6904 24.9511 39.8397C25.2285 39.9864 25.4245 40.1997 25.5391 40.4797C25.5925 40.6051 25.6271 40.7451 25.6431 40.8997C25.6591 41.0544 25.6671 41.2117 25.6671 41.3717V44.0557H25.1431V42.9717L25.2951 43.0357C25.1485 43.4064 24.9205 43.6891 24.6111 43.8837C24.3018 44.0784 23.9311 44.1757 23.4991 44.1757ZM23.5671 43.6677C23.8418 43.6677 24.0818 43.6184 24.2871 43.5197C24.4925 43.4211 24.6578 43.2864 24.7831 43.1157C24.9085 42.9424 24.9898 42.7477 25.0271 42.5317C25.0591 42.3931 25.0765 42.2411 25.0791 42.0757C25.0818 41.9077 25.0831 41.7824 25.0831 41.6997L25.3071 41.8157C25.1071 41.8424 24.8898 41.8691 24.6551 41.8957C24.4231 41.9224 24.1938 41.9531 23.9671 41.9877C23.7431 42.0224 23.5405 42.0637 23.3591 42.1117C23.2365 42.1464 23.1178 42.1957 23.0031 42.2597C22.8885 42.3211 22.7938 42.4037 22.7191 42.5077C22.6471 42.6117 22.6111 42.7411 22.6111 42.8957C22.6111 43.0211 22.6418 43.1424 22.7031 43.2597C22.7671 43.3771 22.8685 43.4744 23.0071 43.5517C23.1485 43.6291 23.3351 43.6677 23.5671 43.6677ZM28.4244 46.0957C28.2031 46.0957 27.9844 46.0624 27.7684 45.9957C27.5551 45.9317 27.3578 45.8291 27.1764 45.6877C26.9951 45.5491 26.8431 45.3677 26.7204 45.1437L27.2524 44.8477C27.3724 45.0877 27.5404 45.2597 27.7564 45.3637C27.9751 45.4704 28.1978 45.5237 28.4244 45.5237C28.7364 45.5237 28.9884 45.4651 29.1804 45.3477C29.3751 45.2331 29.5164 45.0624 29.6044 44.8357C29.6924 44.6091 29.7351 44.3264 29.7324 43.9877V42.8357H29.8004V39.7357H30.3244V43.9957C30.3244 44.1184 30.3204 44.2357 30.3124 44.3477C30.3071 44.4624 30.2951 44.5744 30.2764 44.6837C30.2258 45.0064 30.1204 45.2717 29.9604 45.4797C29.8031 45.6877 29.5951 45.8424 29.3364 45.9437C29.0804 46.0451 28.7764 46.0957 28.4244 46.0957ZM28.3844 44.1757C27.9818 44.1757 27.6378 44.0757 27.3524 43.8757C27.0671 43.6731 26.8484 43.3997 26.6964 43.0557C26.5444 42.7117 26.4684 42.3237 26.4684 41.8917C26.4684 41.4624 26.5431 41.0757 26.6924 40.7317C26.8444 40.3877 27.0618 40.1157 27.3444 39.9157C27.6271 39.7157 27.9658 39.6157 28.3604 39.6157C28.7658 39.6157 29.1071 39.7144 29.3844 39.9117C29.6618 40.1091 29.8711 40.3797 30.0124 40.7237C30.1564 41.0651 30.2284 41.4544 30.2284 41.8917C30.2284 42.3211 30.1578 42.7091 30.0164 43.0557C29.8751 43.3997 29.6671 43.6731 29.3924 43.8757C29.1178 44.0757 28.7818 44.1757 28.3844 44.1757ZM28.4444 43.6277C28.7511 43.6277 29.0044 43.5531 29.2044 43.4037C29.4044 43.2544 29.5538 43.0491 29.6524 42.7877C29.7511 42.5237 29.8004 42.2251 29.8004 41.8917C29.8004 41.5531 29.7511 41.2544 29.6524 40.9957C29.5538 40.7344 29.4044 40.5304 29.2044 40.3837C29.0071 40.2371 28.7578 40.1637 28.4564 40.1637C28.1471 40.1637 27.8911 40.2397 27.6884 40.3917C27.4858 40.5437 27.3351 40.7504 27.2364 41.0117C27.1404 41.2731 27.0924 41.5664 27.0924 41.8917C27.0924 42.2197 27.1418 42.5157 27.2404 42.7797C27.3418 43.0411 27.4924 43.2477 27.6924 43.3997C27.8924 43.5517 28.1431 43.6277 28.4444 43.6277ZM33.2708 44.1757C32.8495 44.1757 32.4841 44.0824 32.1748 43.8957C31.8681 43.7091 31.6295 43.4464 31.4588 43.1077C31.2881 42.7691 31.2028 42.3717 31.2028 41.9157C31.2028 41.4437 31.2868 41.0357 31.4548 40.6917C31.6228 40.3477 31.8588 40.0824 32.1628 39.8957C32.4695 39.7091 32.8308 39.6157 33.2468 39.6157C33.6735 39.6157 34.0375 39.7144 34.3388 39.9117C34.6401 40.1064 34.8681 40.3864 35.0228 40.7517C35.1775 41.1171 35.2481 41.5531 35.2348 42.0597H34.6348V41.8517C34.6241 41.2917 34.5028 40.8691 34.2708 40.5837C34.0415 40.2984 33.7055 40.1557 33.2628 40.1557C32.7988 40.1557 32.4428 40.3064 32.1948 40.6077C31.9495 40.9091 31.8268 41.3384 31.8268 41.8957C31.8268 42.4397 31.9495 42.8624 32.1948 43.1637C32.4428 43.4624 32.7935 43.6117 33.2468 43.6117C33.5561 43.6117 33.8255 43.5411 34.0548 43.3997C34.2868 43.2557 34.4695 43.0491 34.6028 42.7797L35.1508 42.9917C34.9801 43.3677 34.7281 43.6597 34.3948 43.8677C34.0641 44.0731 33.6895 44.1757 33.2708 44.1757ZM31.6188 42.0597V41.5677H34.9188V42.0597H31.6188Z" fill="white"/>
<path d="M20.9171 29.3378H12.0831C11.2183 29.3367 10.0568 29.3378 8.82031 29.3378C8.82088 28.4174 8.82213 26.9406 8.82107 26.0758V17.2418C8.82213 16.377 8.82038 14.8657 8.82107 13.9798C9.55734 13.9798 11.2183 13.9808 12.0831 13.9798H20.9171C21.7817 13.9808 23.0573 13.9795 24.1771 13.9795C24.1771 15.4218 24.1765 16.3772 24.1771 17.2418V26.0758C24.1765 26.9404 24.1771 27.7428 24.1772 29.3378C23.1503 29.3378 21.7817 29.3367 20.9171 29.3378ZM12.0831 15.4218C11.6006 15.4223 11.0573 15.4218 10.2631 15.4218C10.2631 16.0556 10.2636 16.7593 10.2631 17.2418V26.0758C10.2636 26.5583 10.2631 27.0556 10.2631 27.8958C11.0573 27.8958 11.6006 27.8952 12.0831 27.8958H20.9171C21.3994 27.8952 22.1386 27.8958 22.7351 27.8958C22.7351 27.0556 22.7351 26.5581 22.7351 26.0758V17.2418C22.7351 16.7594 22.7351 16.0556 22.7351 15.4218C22.1822 15.4218 21.3994 15.4223 20.9171 15.4218H12.0831Z" fill="#5B5B5B"/>
<path d="M23.453 24.3957V26.0757C23.4525 26.7492 23.1847 27.3949 22.7085 27.8712C22.2323 28.3474 21.5865 28.6152 20.913 28.6157H12.0791C11.4054 28.6157 10.7594 28.3481 10.283 27.8718C9.80667 27.3954 9.53906 26.7494 9.53906 26.0757V23.2557C10.9531 22.9517 13.107 22.8557 15.721 23.8997L17.3411 22.3557L18.445 25.1557C18.445 25.1557 18.741 24.1257 19.697 24.2717C20.653 24.4177 22.201 24.9357 22.863 24.4937C23.0414 24.3908 23.251 24.356 23.453 24.3957Z" fill="#5B5B5B"/>
<path d="M20.3648 19.0457C20.9071 19.0457 21.3468 18.6061 21.3468 18.0637C21.3468 17.5214 20.9071 17.0817 20.3648 17.0817C19.8225 17.0817 19.3828 17.5214 19.3828 18.0637C19.3828 18.6061 19.8225 19.0457 20.3648 19.0457Z" fill="#5B5B5B"/>
</svg>
