<svg width="76" height="76" viewBox="0 0 76 76" fill="none" xmlns="http://www.w3.org/2000/svg">
<g clip-path="url(#clip0_289_7893)">
<path d="M48.1372 -5.70806C47.2155 -9.33835 45.3848 -11.3282 43.8291 -11.3282H3.02148C4.81654 -11.3282 6.61159 -8.1669 7.20994 -5.88369L18.155 36.9703L23.8441 59.2754C24.5734 62.0947 25.8785 64.1931 27.4342 64.1931H32.4604C31.144 64.1931 29.4686 61.2073 29.1096 59.6267L25.9982 47.3325C25.6392 46.1031 25.2802 44.1711 26.4769 43.6442C27.6736 43.1174 28.1523 44.1711 28.6309 46.1031L32.1014 59.6267C32.7782 61.6314 34.4948 64.1931 36.0505 64.1931H41.5553C39.88 64.1931 37.9652 61.383 37.4865 59.6267L34.6144 48.3863C34.3751 47.5081 34.1358 45.9274 35.3325 45.2249C36.2898 44.8737 36.8882 45.4006 37.4865 47.3325L40.7177 59.6267C41.1963 61.383 43.111 64.1931 44.9061 64.1931H49.4535C48.0175 64.1931 46.3422 61.2073 45.8635 59.6267L42.1537 44.5224C41.9144 43.4686 41.6489 41.7836 42.8717 41.1854C43.9487 40.6585 44.5471 41.7123 45.1454 43.9955L49.2142 59.6267C49.6929 61.2073 51.3683 64.1931 52.4453 64.1931H58.1402C56.9345 64.1572 54.8322 61.5323 54.3601 59.6267L44.3077 19.4072C43.9487 18.0021 43.9487 16.5971 44.9061 15.8946C45.9831 15.3677 46.7012 16.4214 47.0602 17.8265L51.2486 33.9845C52.206 37.6728 55.6764 39.7804 58.9075 37.6728L49.9522 1.49281L48.1372 -5.70806Z" fill="#DFF1E1" fill-opacity="0.1"/>
</g>
<defs>
<clipPath id="clip0_289_7893">
<rect width="75.0198" height="75.0198" fill="white"/>
</clipPath>
</defs>
</svg>
