<svg width="128" height="128" viewBox="0 0 128 128" fill="none" xmlns="http://www.w3.org/2000/svg">
<path d="M65.1512 52.4371L62.331 55.2573L71.9197 65.41L74.7399 62.5898L65.1512 52.4371Z" fill="white"/>
<path fill-rule="evenodd" clip-rule="evenodd" d="M79.8163 68.7943C79.8163 56.3338 69.7151 46.2327 57.2546 46.2327C44.7942 46.2327 34.693 56.3338 34.693 68.7943C34.693 69.3616 34.7139 69.9241 34.7551 70.4809C42.7386 69.7242 47.1179 70.4986 53.3063 74.9991C61.0285 80.6151 74.0642 80.639 79.7438 70.616C79.7918 70.0151 79.8163 69.4075 79.8163 68.7943ZM62.331 55.2573L65.1512 52.4371L74.7399 62.5898L71.9197 65.41L62.331 55.2573Z" fill="#669B7E"/>
<path d="M105.266 80.0754L105.871 85.4814L111.376 86.0755L105.871 86.6693L105.266 92.0753L104.662 86.6693L99.157 86.0755L104.662 85.4814L105.266 80.0754Z" fill="#B4C432"/>
<path d="M93.1965 113.918L94.2062 104.893L94.3553 103.56L98.9936 103.059L107.199 102.174L98.9936 101.289L94.3553 100.788L92.9441 88.1741L91.5329 100.788L78.6888 102.174L91.5329 103.56L91.682 104.893L92.6916 113.918L92.9441 116.174L93.1965 113.918Z" fill="#B4C432"/>
<path d="M92.6916 113.918L91.682 104.893H16.6437V109.405C16.4408 112.959 17.841 113.567 21.156 113.918H92.6916Z" fill="#669B7E"/>
<path d="M94.2062 104.893L93.1965 113.918H94.4813C97.5694 113.479 98.7479 112.682 98.9936 109.405V104.893H94.2062Z" fill="#669B7E"/>
<path fill-rule="evenodd" clip-rule="evenodd" d="M94.3553 100.788L98.9936 101.289V31.0036H45.9738H16.6437V104.893H91.682L91.5329 103.56L78.6888 102.174L91.5329 100.788L92.9441 88.1741L94.3553 100.788ZM26.7964 69.3583C26.7964 86.4914 40.6856 100.381 57.8187 100.381C76.4327 100.381 88.8409 85.1517 88.8409 69.3583C88.8409 52.2252 74.9518 38.3361 57.8187 38.3361C40.6856 38.3361 26.7964 52.2252 26.7964 69.3583Z" fill="#0E6D4A"/>
<path fill-rule="evenodd" clip-rule="evenodd" d="M57.8187 100.381C40.6856 100.381 26.7964 86.4914 26.7964 69.3583C26.7964 52.2252 40.6856 38.3361 57.8187 38.3361C74.9518 38.3361 88.8409 52.2252 88.8409 69.3583C88.8409 85.1517 76.4327 100.381 57.8187 100.381ZM57.2546 46.2327C69.7151 46.2327 79.8163 56.3338 79.8163 68.7943C79.8163 69.4075 79.7918 70.0151 79.7438 70.616C79.8163 82.3315 69.1477 91.3559 57.2546 91.3559C45.3615 91.3559 35.6177 82.1536 34.7551 70.4809C34.7139 69.9241 34.693 69.3616 34.693 68.7943C34.693 56.3338 44.7942 46.2327 57.2546 46.2327Z" fill="#B4C432"/>
<path d="M53.3063 74.9991C47.1179 70.4986 42.7386 69.7242 34.7551 70.4809C35.6177 82.1536 45.3615 91.3559 57.2546 91.3559C69.1477 91.3559 79.8163 82.3315 79.7438 70.616C74.0642 80.639 61.0285 80.6151 53.3063 74.9991Z" fill="#0E6D4A"/>
<path d="M89.969 21.4149C89.969 24.53 86.9386 27.0553 83.2005 27.0553C79.4624 27.0553 76.432 24.53 76.432 21.4149C76.432 18.2998 79.4624 15.7745 83.2005 15.7745C86.9386 15.7745 89.969 18.2998 89.969 21.4149Z" fill="#0E6D4A"/>
<path d="M64.5872 19.7227H71.9197V23.107H64.5872V19.7227Z" fill="#B4C432"/>
<path d="M52.7423 19.7227H60.6389V23.107H52.7423V19.7227Z" fill="#B4C432"/>
<path fill-rule="evenodd" clip-rule="evenodd" d="M98.9936 15.7745C98.9936 12.9545 97.3022 11.8261 94.4813 11.8262H45.9738V31.0036H98.9936V15.7745ZM83.2005 27.0553C86.9386 27.0553 89.969 24.53 89.969 21.4149C89.969 18.2998 86.9386 15.7745 83.2005 15.7745C79.4624 15.7745 76.432 18.2998 76.432 21.4149C76.432 24.53 79.4624 27.0553 83.2005 27.0553ZM60.6389 19.7227H52.7423V23.107H60.6389V19.7227ZM71.9197 19.7227H64.5872V23.107H71.9197V19.7227Z" fill="#669B7E"/>
<path fill-rule="evenodd" clip-rule="evenodd" d="M21.156 11.8262C17.2084 11.8262 16.6444 13.5187 16.6437 15.7745V31.0036H45.9738V11.8262H21.156ZM31.3088 28.1834C35.0469 28.1834 38.0772 25.153 38.0772 21.4149C38.0772 17.6767 35.0469 14.6464 31.3088 14.6464C27.5706 14.6464 24.5403 17.6767 24.5403 21.4149C24.5403 25.153 27.5706 28.1834 31.3088 28.1834Z" fill="#0A442D"/>
<path d="M38.0772 21.4149C38.0772 25.153 35.0469 28.1834 31.3088 28.1834C27.5706 28.1834 24.5403 25.153 24.5403 21.4149C24.5403 17.6767 27.5706 14.6464 31.3088 14.6464C35.0469 14.6464 38.0772 17.6767 38.0772 21.4149Z" fill="#B4C432"/>
<path d="M94.3553 103.56L94.2062 104.893H98.9936V103.059L94.3553 103.56Z" fill="#0E6D4A"/>
</svg>
