<svg width="128" height="128" viewBox="0 0 128 128" fill="none" xmlns="http://www.w3.org/2000/svg">
<path fill-rule="evenodd" clip-rule="evenodd" d="M60.8424 76.691L61.1483 77.0067V76.691L60.8424 76.691ZM61.1483 99.2527V102.073H70.8291V90.7921H66.7111V99.2525L61.1483 99.2527Z" fill="#001A13"/>
<path d="M103.045 81.4253L106.678 87.9716L108.244 90.7921L114.295 91.9268L108.97 82.3315L103.045 81.4253Z" fill="#0E6D4A"/>
<path d="M102.293 70.3001L96.3912 69.4353L99.3669 74.7973L105.192 75.5233L102.293 70.3001Z" fill="#669B7E"/>
<path d="M69.422 12.5818C68.5978 12.0868 67.6628 11.8262 66.7111 11.8262H61.2891C62.2409 11.8262 63.176 12.0868 64.0003 12.5818C64.8245 13.0768 65.5087 13.7887 65.9846 14.6461L96.3912 69.4353L102.293 70.3001L71.4066 14.6461C70.9307 13.7887 70.2462 13.0768 69.422 12.5818Z" fill="#001A13"/>
<path d="M103.045 81.4253L108.97 82.3315L105.192 75.5233L99.3669 74.7973L103.045 81.4253Z" fill="#001A13"/>
<path d="M123.783 110.533C123.783 109.543 123.532 108.571 123.056 107.713L114.295 91.9268L108.244 90.7921L117.634 107.713C118.11 108.571 118.361 109.543 118.361 110.533C118.361 111.523 118.11 112.496 117.634 113.353C117.159 114.211 116.474 114.923 115.65 115.418C114.855 115.895 113.957 116.155 113.041 116.173C120.056 116.1 121.427 115.22 123.056 113.353C123.532 112.496 123.783 111.523 123.783 110.533Z" fill="#001A13"/>
<path fill-rule="evenodd" clip-rule="evenodd" d="M70.8291 51.3091H66.7111V48.4887H55.8672V71.5568L36.2467 51.3091L48.7679 28.7474L70.8291 51.3091Z" fill="#B4C432"/>
<path fill-rule="evenodd" clip-rule="evenodd" d="M65.9846 14.6461L96.3912 69.4353L99.3669 74.7973L103.045 81.4253L106.678 87.9716L71.9923 52.4987L70.8291 51.3091L48.7679 28.7474L56.5937 14.6461C57.0696 13.7887 57.7541 13.0768 58.5783 12.5818C59.4025 12.0868 60.3374 11.8262 61.2891 11.8262C62.2409 11.8262 63.176 12.0868 64.0003 12.5818C64.8245 13.0768 65.5087 13.7887 65.9846 14.6461Z" fill="#0A442D"/>
<path fill-rule="evenodd" clip-rule="evenodd" d="M14.3347 90.7921L39.4604 116.174H25.9054L9.63937 99.2525L14.3347 90.7921Z" fill="#669B7E"/>
<path fill-rule="evenodd" clip-rule="evenodd" d="M4.94394 107.713L9.63937 99.2525L25.9054 116.174H9.63937C8.68763 116.174 7.75266 115.913 6.92843 115.418C6.1042 114.923 5.41976 114.211 4.9439 113.353C4.46804 112.496 4.21753 111.523 4.21753 110.533C4.21753 109.543 4.46806 108.571 4.94394 107.713Z" fill="#0A442D"/>
<path d="M66.7111 99.2525V90.7921V87.9716H55.8672V99.2525L61.1483 99.2527L66.7111 99.2525Z" fill="white"/>
<path d="M60.8424 76.691L61.1483 76.691L66.7111 76.6908V64V51.3091V48.4887H55.8672V71.5568V76.6908L60.8424 76.691Z" fill="white"/>
<path fill-rule="evenodd" clip-rule="evenodd" d="M70.8291 79.5112V51.3091H66.7111V64V76.6908L61.1483 76.691V77.0067V79.5112H63.5753H70.8291Z" fill="#001A13"/>
<path fill-rule="evenodd" clip-rule="evenodd" d="M17.465 85.1517L50.3044 116.174H39.4604L14.3347 90.7921L17.465 85.1517Z" fill="#0A442D"/>
<path d="M17.465 85.1517L50.3044 116.174L63.8593 116.174L21.9852 77.0067L17.465 85.1517Z" fill="#669B7E"/>
<path fill-rule="evenodd" clip-rule="evenodd" d="M71.9923 52.4987L70.8291 51.3091V79.5112H63.5753L99.1022 116.174H112.939L113.041 116.173C113.957 116.155 114.855 115.895 115.65 115.418C116.474 114.923 117.159 114.211 117.634 113.353C118.11 112.496 118.361 111.523 118.361 110.533C118.361 109.543 118.11 108.571 117.634 107.713L108.244 90.7921L106.678 87.9716L71.9923 52.4987Z" fill="#B4C432"/>
<path fill-rule="evenodd" clip-rule="evenodd" d="M61.1483 77.0067L60.8424 76.691L55.8672 76.6908V71.5568L36.2467 51.3091L21.9852 77.0067L63.8593 116.174L99.1022 116.174L63.5753 79.5112H61.1483V77.0067ZM70.8291 102.073H61.1483V99.2527L55.8672 99.2525V87.9716H66.7111V90.7921H70.8291V102.073Z" fill="#0A442D"/>
</svg>
