<svg width="128" height="128" viewBox="0 0 128 128" fill="none" xmlns="http://www.w3.org/2000/svg">
<path d="M14.7696 110.377H77.0914L114.337 70.9566H93.0021L77.0914 87.9614H35.7388L14.7696 110.377Z" fill="#0A442D"/>
<path d="M77.0914 110.377V116.174L114.337 76.3672V70.9566L77.0914 110.377Z" fill="#669B7E"/>
<path d="M77.0914 116.174V110.377H14.7696V116.174H77.0914Z" fill="#B4C432"/>
<path d="M114.337 48.1547V41.9711L103.643 53.5117L102.652 54.5807L88.892 69.4298L88.046 70.3428L87.4772 70.9566L77.0914 82.1643V87.9614L93.0021 70.9566L114.337 48.1547Z" fill="#B4C432"/>
<path d="M14.7696 57.43C21.0714 57.5091 29.3077 57.5979 37.6969 57.6651C56.6357 57.8169 76.3539 57.8586 76.3539 57.43V54.5807V53.5117V51.6329H56.4404H54.2278H43.342H36.1582H33.5768H13.6633V57.43H14.7696Z" fill="#B4C432"/>
<path d="M106.695 19.8351L85.5731 41.9711L84.4667 43.1305L76.3539 51.6329V53.5117V54.5807V57.43L79.0923 54.5807L80.1197 53.5117L91.2112 41.9711L114.337 17.9091V11.8262L108.068 18.3962L106.695 19.8351Z" fill="#0A442D"/>
<path d="M73.7725 31.1498L92.2109 11.8262H73.0349C68.2313 17.013 61.5201 24.2592 55.1376 31.1498H73.7725Z" fill="#669B7E"/>
<path d="M36.1582 51.6329H43.342H54.2278L63.447 41.9711L72.4554 32.5302H53.859C44.5794 42.5484 36.3289 51.454 36.1582 51.6329Z" fill="#669B7E"/>
<path d="M85.5731 41.9711L106.695 19.8351H86.4127L65.2908 41.9711L64.1845 43.1305H84.4667L85.5731 41.9711Z" fill="#669B7E"/>
<path d="M87.7857 18.3962H108.068L114.337 11.8262H94.0547L87.7857 18.3962Z" fill="#669B7E"/>
<path d="M56.4404 51.6329H76.3539L82.9917 44.6764H63.0782L56.4404 51.6329Z" fill="#669B7E"/>
<path d="M63.3287 19.8351H44.0044L21.7762 43.1305H41.5322L63.3287 19.8351Z" fill="#669B7E"/>
<path d="M40.0857 44.6764H20.3012L13.6633 51.6329H33.5768L40.0857 44.6764Z" fill="#669B7E"/>
<path d="M64.675 18.3962L70.8223 11.8262H51.6464L45.3774 18.3962H64.675Z" fill="#669B7E"/>
<path d="M63.447 41.9711L54.2278 51.6329H56.4404L63.0782 44.6764H82.9917L84.4667 43.1305H64.1845L65.2908 41.9711L86.4127 19.8351H106.695L108.068 18.3962H87.7857L94.0547 11.8262H92.2109L73.7725 31.1498H55.1376C61.5201 24.2592 68.2313 17.013 73.0349 11.8262H70.8223L64.675 18.3962H45.3774L44.0044 19.8351H63.3287L41.5322 43.1305H21.7762L20.3012 44.6764H40.0857L33.5768 51.6329H36.1582C36.3289 51.454 44.5794 42.5484 53.859 32.5302H72.4554L63.447 41.9711Z" fill="#B6E3BD"/>
<path d="M87.4772 70.9566L88.046 70.3428H25.8327L14.7696 82.1643H41.1618H77.0914L87.4772 70.9566Z" fill="#0E6D4A"/>
<path d="M88.892 69.4298L102.652 54.5807H79.0923L76.3539 57.43C76.3539 57.8586 56.6357 57.8169 37.6969 57.6651L26.687 69.4298H88.892Z" fill="#0E6D4A"/>
<path d="M103.643 53.5117L114.337 41.9711H91.2112L80.1197 53.5117H103.643Z" fill="#0E6D4A"/>
<path fill-rule="evenodd" clip-rule="evenodd" d="M41.1618 82.1643H14.7696V87.9614H35.7388H77.0914V82.1643H41.1618Z" fill="#0A442D"/>
<path d="M88.046 70.3428L88.892 69.4298H26.687L25.8327 70.3428H88.046Z" fill="#0A442D"/>
<path d="M102.652 54.5807L103.643 53.5117H80.1197L79.0923 54.5807H102.652Z" fill="#0A442D"/>
</svg>
