<svg width="128" height="128" viewBox="0 0 128 128" fill="none" xmlns="http://www.w3.org/2000/svg">
<path d="M88.377 98.1074L92.7723 93.6829L100.83 69.3483L107.057 68.2422L108.522 63.8177C108.156 64.9238 105.592 65.2926 100.464 63.449L88.377 98.1074Z" fill="#0A442D"/>
<path d="M108.522 63.8177C109.621 60.4994 95.3363 55.4641 94.2374 58.2871C93.5725 59.9954 98.1191 62.6622 100.464 63.449C105.592 65.2926 108.156 64.9238 108.522 63.8177Z" fill="#0E6D4A"/>
<path d="M88.377 98.1074L100.464 63.449C98.1191 62.6622 93.5725 59.9954 94.2374 58.2871C93.5049 60.1307 92.406 63.0803 92.406 63.0803L96.4351 67.5048L88.0107 91.8394L88.377 98.1074Z" fill="#669B7E"/>
<path d="M110.354 37.2708C119.144 37.2708 118.045 11.4614 110.354 11.8301C106.691 11.8301 104.127 19.5729 104.127 24.3661C104.127 29.8991 105.592 37.2708 110.354 37.2708Z" fill="#B4C432"/>
<path d="M55.7783 37.2708C58.0211 67.1103 57.7329 84.511 55.7783 116.174H67.4992L67.8655 36.9021H78.1212C82.1503 34.3212 77.7549 36.9021 82.1503 34.3212C84.7142 32.8157 93.8711 33.9778 93.8711 37.2708H110.354C105.592 37.2708 104.127 29.8991 104.127 24.3661C104.127 19.5729 106.691 11.8301 110.354 11.8301H93.8711C93.8711 16.2546 78.4875 16.2546 78.4875 11.8301H53.2144C38.17 11.8864 23.1796 17.7294 11.4587 30.6341L15.4878 33.9525C23.2634 26.1253 30.1389 21.4165 44.0574 27.3158C49.5516 31.0028 51.383 33.2151 55.7783 37.2708Z" fill="#0A442D"/>
<path d="M78.1212 116.174C76.3549 85.4468 76.4284 68.0808 78.1212 36.9021H67.8655L67.4992 116.174H78.1212Z" fill="#669B7E"/>
<path d="M33.0691 33.9525L34.0844 43.2543L43.3249 44.2763L34.0844 45.2983L33.0691 54.6001L32.0538 45.2983L22.8133 44.2763L32.0538 43.2543L33.0691 33.9525Z" fill="#0A442D"/>
<path d="M38.197 32.4777L38.6321 36.4642L42.5923 36.9022L38.6321 37.3402L38.197 41.3266L37.7619 37.3402L33.8017 36.9022L37.7619 36.4642L38.197 32.4777Z" fill="#0A442D"/>
</svg>
