<svg width="128" height="128" viewBox="0 0 128 128" fill="none" xmlns="http://www.w3.org/2000/svg">
<path d="M83.106 77.962V106.253H115.807V77.962H100.375H94.8635H90.0871H83.106Z" fill="#B4C432"/>
<path d="M112.5 116.174C113.969 116.174 115.807 113.969 115.807 112.132V106.253H83.106V112.132C83.106 114.337 84.9431 116.174 86.4128 116.174H112.5Z" fill="#0E6D4A"/>
<path d="M86.4128 116.174C84.9431 116.174 83.106 114.337 83.106 112.132V106.253H12.1936C12.1936 110.295 15.5004 116.174 19.542 116.174H86.4128Z" fill="#0A442D"/>
<path d="M83.106 106.253V77.962H76.8599H57.7539H41.5874H36.4435H32.0344H12.1936V106.253H83.106Z" fill="#669B7E"/>
<path d="M94.8635 64.3673H90.0871V77.962H94.8635V64.3673Z" fill="#669B7E"/>
<path d="M90.0871 62.8977H94.8635V55.5492H90.0871V62.8977Z" fill="#669B7E"/>
<path d="M98.1703 59.2234V61.428H100.375H110.663V59.2234H100.375H98.1703Z" fill="#669B7E"/>
<path d="M113.235 61.428V59.2234H110.663V61.428H113.235Z" fill="#0A442D"/>
<path d="M100.375 77.962V61.428H98.1703V59.2234H100.375V54.8144H94.8635V55.5492V62.8977H90.0871V64.3673H94.8635V77.962H100.375Z" fill="#0A442D"/>
<path d="M76.8599 77.962V73.9203H72.4508V24.6858C72.4508 19.0282 65.4698 11.8262 57.3865 11.8262C49.3032 11.8262 43.057 19.3945 43.057 24.6858V37.1781H47.8335V25.4206C47.8335 21.3791 51.6553 16.6027 57.3865 16.6027C63.1177 16.6027 68.0417 21.3791 68.0417 25.4206V73.9203H62.8978H57.7539V77.962H76.8599Z" fill="#0A442D"/>
<path d="M47.8335 25.4206V37.1781H52.2426V26.1557C52.2426 23.7126 54.6629 21.7844 57.3865 21.7466C59.9877 21.7105 62.8978 23.8224 62.8978 26.1557V73.9203H68.0417V25.4206C68.0417 21.3791 63.1177 16.6027 57.3865 16.6027C51.6553 16.6027 47.8335 21.3791 47.8335 25.4206Z" fill="#669B7E"/>
<path d="M32.0344 63.6325H36.4435V55.5492H31.2995V59.9583H21.0117V62.1628H32.0344V63.6325Z" fill="#669B7E"/>
<path d="M36.4435 65.1022H32.0344V77.962H36.4435V65.1022Z" fill="#669B7E"/>
<path d="M41.5874 77.962V54.8144H36.4435V55.5492V63.6325H32.0344V65.1022H36.4435V77.962H41.5874Z" fill="#0A442D"/>
<path d="M18.8072 59.9583V62.1628H21.0117V59.9583H18.8072Z" fill="#0A442D"/>
<path d="M48.5684 47.4198C49.3801 47.4198 50.0381 48.0778 50.0381 48.8895C50.0381 49.7012 49.3801 50.3592 48.5684 50.3592C47.7567 50.3592 47.0987 49.7012 47.0987 48.8895C47.0987 48.0778 47.7567 47.4198 48.5684 47.4198Z" fill="white"/>
<path fill-rule="evenodd" clip-rule="evenodd" d="M47.4661 40.8525C47.4661 40.8525 51.1403 45.2616 51.1403 48.9358C51.1403 50.7733 49.3036 52.2426 47.4661 52.2426C45.6286 52.2426 43.7919 50.7733 43.7919 48.9358C43.7919 44.8941 47.4661 40.8525 47.4661 40.8525ZM50.0381 48.8895C50.0381 48.0778 49.3801 47.4198 48.5684 47.4198C47.7567 47.4198 47.0987 48.0778 47.0987 48.8895C47.0987 49.7012 47.7567 50.3592 48.5684 50.3592C49.3801 50.3592 50.0381 49.7012 50.0381 48.8895Z" fill="#669B7E"/>
<path d="M84.5757 55.5494L85.5942 64.8188L94.8635 65.8372L85.5942 66.8556L84.5757 76.125L83.5573 66.8556L74.2879 65.8372L83.5573 64.8188L84.5757 55.5494Z" fill="#0A442D"/>
<path d="M89.7196 54.0797L90.1561 58.0523L94.1287 58.4888L90.1561 58.9252L89.7196 62.8978L89.2832 58.9252L85.3106 58.4888L89.2832 58.0523L89.7196 54.0797Z" fill="#0A442D"/>
</svg>
