<svg width="128" height="128" viewBox="0 0 128 128" fill="none" xmlns="http://www.w3.org/2000/svg">
<path d="M46.3845 116.174C61.3198 116.174 78.3912 104.816 78.3912 83.166C68.788 82.1013 61.034 85.8093 56.3422 91.3293L54.9196 90.9743C55.6514 82.3374 51.3622 73.938 45.6733 68.6141C37.4611 75.8256 36.8812 81.1072 35.9568 89.5262C35.8803 90.2231 35.8014 90.9414 35.7157 91.6842L35.0044 92.0391C29.5239 87.8828 25.2597 85.2095 20.713 83.8532C17.8829 83.0089 14.9434 82.6749 11.5329 82.8111C11.9002 88.1314 13.004 92.9302 14.8013 97.1217C19.9582 109.148 30.8243 116.174 46.3845 116.174Z" fill="#0A442D"/>
<path fill-rule="evenodd" clip-rule="evenodd" d="M116.444 116.174C117.934 90.7192 102.279 67.8556 77.7523 61.278L80.525 65.7748H65.5885V81.3914H59.5428V65.7748H45.6733L48.2664 61.5694C47.6314 61.7662 47.0041 61.9754 46.3845 62.1967C40.9082 64.1528 36.0364 67.0528 31.8037 70.6499C30.5802 71.6896 29.4101 72.7877 28.2943 73.938C28.0668 74.1725 27.8417 74.4091 27.6187 74.6479C25.0015 77.451 22.6958 80.5467 20.713 83.8532C25.2597 85.2095 29.5239 87.8828 35.0044 92.0391L35.7157 91.6842C35.8014 90.9414 35.8803 90.2231 35.9568 89.5262C36.8812 81.1072 37.4611 75.8256 45.6733 68.6141C51.3622 73.938 55.6514 82.3374 54.9196 90.9743L56.3422 91.3293C61.034 85.8093 68.788 82.1013 78.3912 83.166C78.3912 104.816 61.3198 116.174 46.3845 116.174H116.444ZM102.264 89.9175L100.795 87.0702L99.3248 89.9175L96.2682 88.9414L97.2462 91.992L94.3933 93.4589L97.2462 94.9258L96.2682 97.9763L99.3248 97.0003L100.795 99.8475L102.264 97.0003L105.321 97.9763L104.343 94.9258L107.196 93.4589L104.343 91.992L105.321 88.9414L102.264 89.9175ZM88.7505 80.6894L87.2807 77.8422L85.8109 80.6894L82.7543 79.7134L83.7323 82.7639L80.8794 84.2308L83.7323 85.6977L82.7543 88.7483L85.8109 87.7722L87.2807 90.6195L88.7505 87.7722L91.8071 88.7483L90.8292 85.6977L93.682 84.2308L90.8292 82.7639L91.8071 79.7134L88.7505 80.6894ZM87.328 101.275L85.8582 98.4278L84.3884 101.275L81.3318 100.299L82.3098 103.35L79.4569 104.816L82.3098 106.283L81.3318 109.334L84.3884 108.358L85.8582 111.205L87.328 108.358L90.3846 109.334L89.4066 106.283L92.2595 104.816L89.4066 103.35L90.3846 100.299L87.328 101.275Z" fill="#0E6D4A"/>
<path d="M11.8885 116.174H46.3845C30.8243 116.174 19.9582 109.148 14.8013 97.1217C12.877 103.297 11.8885 109.773 11.8885 116.174Z" fill="#0E6D4A"/>
<path d="M87.2807 77.8422L88.7505 80.6894L91.8071 79.7134L90.8292 82.7639L93.682 84.2308L90.8292 85.6977L91.8071 88.7483L88.7505 87.7722L87.2807 90.6195L85.8109 87.7722L82.7543 88.7483L83.7323 85.6977L80.8794 84.2308L83.7323 82.7639L82.7543 79.7134L85.8109 80.6894L87.2807 77.8422Z" fill="#B4C432"/>
<path d="M100.795 87.0702L102.264 89.9175L105.321 88.9414L104.343 91.992L107.196 93.4589L104.343 94.9258L105.321 97.9763L102.264 97.0003L100.795 99.8475L99.3248 97.0003L96.2682 97.9763L97.2462 94.9258L94.3933 93.4589L97.2462 91.992L96.2682 88.9414L99.3248 89.9175L100.795 87.0702Z" fill="#B4C432"/>
<path d="M85.8582 98.4278L87.328 101.275L90.3846 100.299L89.4066 103.35L92.2595 104.816L89.4066 106.283L90.3846 109.334L87.328 108.358L85.8582 111.205L84.3884 108.358L81.3318 109.334L82.3098 106.283L79.4569 104.816L82.3098 103.35L81.3318 100.299L84.3884 101.275L85.8582 98.4278Z" fill="#B4C432"/>
<path d="M16.8673 44.4793C6.90969 52.6425 10.8202 72.5183 27.6187 74.6479C27.8417 74.4091 28.0668 74.1725 28.2943 73.938L28.2475 33.8315H31.8037V70.6499C36.0364 67.0528 40.9082 64.1528 46.3845 62.1967C49.584 54.4172 46.9217 48.4049 42.117 44.4793V43.0596C44.962 39.1554 43.5395 31.347 37.8494 28.1527V26.3781C41.0501 21.4091 36.0713 15.0205 29.67 15.0205C23.2686 15.0205 18.2898 21.4091 21.4905 26.3781V28.1527C15.8004 31.347 15.0892 39.1554 16.8673 43.0596V44.4793Z" fill="#0A442D"/>
<path d="M31.8037 33.8315H28.2475L28.2943 73.938C29.4101 72.7877 30.5802 71.6896 31.8037 70.6499V33.8315Z" fill="#669B7E"/>
<path d="M48.2664 61.5694L45.6733 65.7748H59.5428H65.5885H80.525L77.7523 61.278L69.1448 47.3187H80.525L69.8561 30.2823H76.9687L63.0991 11.8262L48.874 30.2823H55.9865L45.6733 47.3187H57.0534L48.2664 61.5694Z" fill="#669B7E"/>
<path d="M94.2118 27.5973L95.6021 39.9995L108.256 41.3621L95.6021 42.7248L94.2118 55.127L92.8216 42.7248L80.1681 41.3621L92.8216 39.9995L94.2118 27.5973Z" fill="#0A442D"/>
<path d="M106.351 19.6345L106.947 24.9498L112.37 25.5337L106.947 26.1177L106.351 31.433L105.755 26.1177L100.333 25.5337L105.755 24.9498L106.351 19.6345Z" fill="#0A442D"/>
<path d="M65.5885 65.7748H59.5428V81.3914H65.5885V65.7748Z" fill="#0A442D"/>
</svg>
