<svg width="128" height="128" viewBox="0 0 128 128" fill="none" xmlns="http://www.w3.org/2000/svg">
<path d="M58.6135 84.7388C51.4086 80.9787 46.4862 73.4064 46.4862 64.6777C46.4862 61.0237 47.3488 57.5725 48.8803 54.5187L42.8936 35.9312C39.5104 37.5342 37.5048 40.7163 37.5048 43.8984V84.1017C37.5048 89.5224 42.8936 94.4913 47.8334 94.4913H61.7546L58.6135 84.7388Z" fill="#669B7E"/>
<path d="M75.0898 42.9493C78.0407 43.7928 80.744 45.2281 83.0649 47.1196L79.2684 34.864H72.5323L75.0898 42.9493Z" fill="#669B7E"/>
<path d="M90.4827 71.0654C89.6441 73.9319 88.2554 76.5614 86.4395 78.8304L91.3933 94.4913C93.7086 94.3122 95.6002 93.4936 97.0398 92.2327L90.4827 71.0654Z" fill="#669B7E"/>
<path d="M53.7877 48.0093C54.4653 47.3857 55.1809 46.8034 55.9308 46.2663L52.3241 34.864H49.6297L53.7877 48.0093Z" fill="#669B7E"/>
<path d="M68.8989 87.2637C67.9682 87.2621 67.0508 87.2034 66.1499 87.0911L68.4907 94.4913H71.1851L68.8989 87.2637Z" fill="#669B7E"/>
<path d="M48.8803 54.5187C50.1151 52.0565 51.7847 49.8526 53.7877 48.0093L49.6297 34.864H47.8334C45.9752 34.864 44.3131 35.2586 42.8936 35.9312L48.8803 54.5187Z" fill="#0E6D4A"/>
<path d="M55.9308 46.2663C59.6011 43.6376 64.0909 42.0916 68.9398 42.0916C71.0723 42.0916 73.1353 42.3906 75.0898 42.9493L72.5323 34.864H52.3241L55.9308 46.2663Z" fill="#0E6D4A"/>
<path d="M86.4395 78.8304C82.3239 83.9731 76.0139 87.2638 68.9398 87.2638L68.8989 87.2637L71.1851 94.4913H91.3933L86.4395 78.8304Z" fill="#0E6D4A"/>
<path d="M66.1499 87.0911C63.4615 86.756 60.9205 85.9428 58.6135 84.7388L61.7546 94.4913H68.4907L66.1499 87.0911Z" fill="#0E6D4A"/>
<path fill-rule="evenodd" clip-rule="evenodd" d="M83.0649 47.1196C88.1456 51.2605 91.3933 57.5876 91.3933 64.6777C91.3933 66.8962 91.0753 69.04 90.4827 71.0654L97.0398 92.2327C99.2302 90.3144 100.375 87.3725 100.375 84.1017V43.8984C100.375 39.8329 97.6803 34.864 91.3933 34.864H79.2684L83.0649 47.1196ZM92.2915 48.4157C94.7716 48.4157 96.7822 46.3932 96.7822 43.8984C96.7822 41.4037 94.7716 39.3812 92.2915 39.3812C89.8113 39.3812 87.8007 41.4037 87.8007 43.8984C87.8007 46.3932 89.8113 48.4157 92.2915 48.4157Z" fill="#0E6D4A"/>
<path d="M96.7822 43.8984C96.7822 46.3932 94.7716 48.4157 92.2915 48.4157C89.8113 48.4157 87.8007 46.3932 87.8007 43.8984C87.8007 41.4037 89.8113 39.3812 92.2915 39.3812C94.7716 39.3812 96.7822 41.4037 96.7822 43.8984Z" fill="#0A442D"/>
<path fill-rule="evenodd" clip-rule="evenodd" d="M108.907 94.4913H111.152C116.541 94.4913 120.583 88.6189 120.583 84.1017V43.8984C120.583 39.8329 115.194 34.864 111.152 34.864H91.3933C97.6803 34.864 100.375 39.8329 100.375 43.8984V84.1017C100.375 87.3725 99.2302 90.3144 97.0398 92.2327C95.6002 93.4936 93.7086 94.3122 91.3933 94.4913H108.907ZM119.236 73.7121V79.5845H116.541V82.7466H104.416V46.6088H116.541V48.4157H117.889V71.4535H110.254V73.7121H112.051H119.236Z" fill="#0A442D"/>
<path d="M106.662 79.5845V48.4157H110.254H116.541V46.6088H104.416V82.7466H116.541V79.5845H112.051H106.662Z" fill="#0E6D4A"/>
<path d="M106.662 48.4157V79.5845H112.051V73.7121H110.254V71.4535V48.4157H106.662Z" fill="#669B7E"/>
<path d="M110.254 71.4535H117.889V48.4157H116.541H110.254V71.4535Z" fill="#B4C432"/>
<path d="M119.236 79.5845V73.7121H112.051V79.5845H116.541H119.236Z" fill="#B4C432"/>
<path d="M108.907 94.4913H91.3933V110.753L85.7729 116.174H104.416L106.662 113.915H101.273V112.56H108.009L108.907 111.657V109.398H101.273V108.043H108.907V103.977H96.7822V102.622H108.907V99.4603H101.273V98.1051H108.907V94.4913Z" fill="#B4C432"/>
<path d="M24.9308 110.753V13.1813L20.8891 16.3434H11.9077L7.41699 11.8262V23.1192H15.0512V24.4744H7.41699V27.6364H15.0512V28.9916H7.41699V32.1537H19.5419V33.5088H7.41699V36.6709H15.0512V37.5743V38.0261H7.41699V41.1881H15.0512V42.5433H7.41699V45.7053H19.5419V47.0605H7.41699V50.2226H15.0512V51.5777H7.41699V54.7398H15.0512V56.0949H7.41699V59.257H15.0512V60.6122H7.41699V64.6777H19.5419V66.0328H7.41699V69.1949H15.0512V70.5501H7.41699V74.6156H15.0512V75.9707H7.41699V79.1328H15.0512V80.4879H7.41699V83.65H19.5419V85.0052H7.41699V88.1672H15.0512V89.5224H7.41699V93.5879H15.0512V94.9431H7.41699V98.1051H15.0512V99.4603H7.41699V102.622H19.5419V103.977H7.41699V107.14H15.0512V108.495H7.41699V108.946L11.6832 112.56H15.0512V113.915H13.283L15.9493 116.174H30.3196L24.9308 110.753Z" fill="#B4C432"/>
<path d="M85.7729 116.174L91.3933 110.753H24.9308L30.3196 116.174H85.7729Z" fill="#0A442D"/>
<path d="M108.907 98.1051H101.273V99.4603H108.907V98.1051Z" fill="#0A442D"/>
<path d="M108.907 102.622H96.7822V103.977H108.907V102.622Z" fill="#0A442D"/>
<path d="M108.907 108.043H101.273V109.398H108.907V108.043Z" fill="#0A442D"/>
<path d="M108.009 112.56H101.273V113.915H106.662L108.009 112.56Z" fill="#0A442D"/>
<path d="M15.0512 112.56H11.6832L13.283 113.915H15.0512V112.56Z" fill="#0A442D"/>
<path d="M15.0512 107.14H7.41699V108.495H15.0512V107.14Z" fill="#0A442D"/>
<path d="M19.5419 102.622H7.41699V103.977H19.5419V102.622Z" fill="#0A442D"/>
<path d="M15.0512 98.1051H7.41699V99.4603H15.0512V98.1051Z" fill="#0A442D"/>
<path d="M15.0512 93.5879H7.41699V94.9431H15.0512V93.5879Z" fill="#0A442D"/>
<path d="M15.0512 88.1672H7.41699V89.5224H15.0512V88.1672Z" fill="#0A442D"/>
<path d="M19.5419 83.65H7.41699V85.0052H19.5419V83.65Z" fill="#0A442D"/>
<path d="M15.0512 79.1328H7.41699V80.4879H15.0512V79.1328Z" fill="#0A442D"/>
<path d="M15.0512 74.6156H7.41699V75.9707H15.0512V74.6156Z" fill="#0A442D"/>
<path d="M15.0512 69.1949H7.41699V70.5501H15.0512V69.1949Z" fill="#0A442D"/>
<path d="M19.5419 64.6777H7.41699V66.0328H19.5419V64.6777Z" fill="#0A442D"/>
<path d="M15.0512 59.257H7.41699V60.6122H15.0512V59.257Z" fill="#0A442D"/>
<path d="M15.0512 54.7398H7.41699V56.0949H15.0512V54.7398Z" fill="#0A442D"/>
<path d="M15.0512 50.2226H7.41699V51.5777H15.0512V50.2226Z" fill="#0A442D"/>
<path d="M19.5419 45.7053H7.41699V47.0605H19.5419V45.7053Z" fill="#0A442D"/>
<path d="M15.0512 41.1881H7.41699V42.5433H15.0512V41.1881Z" fill="#0A442D"/>
<path d="M15.0512 36.6709H7.41699V38.0261H15.0512V37.5743V36.6709Z" fill="#0A442D"/>
<path d="M19.5419 32.1537H7.41699V33.5088H19.5419V32.1537Z" fill="#0A442D"/>
<path d="M15.0512 27.6364H7.41699V28.9916H15.0512V27.6364Z" fill="#0A442D"/>
<path d="M15.0512 23.1192H7.41699V24.4744H15.0512V23.1192Z" fill="#0A442D"/>
<path d="M38.4029 12.2779L7.41699 11.8262L11.9077 16.3434H20.8891L24.9308 13.1813H27.6252L30.7687 16.3434H38.4029V12.2779Z" fill="#0A442D"/>
<path fill-rule="evenodd" clip-rule="evenodd" d="M46.4862 64.6777C46.4862 73.4064 51.4086 80.9787 58.6135 84.7388C60.9205 85.9428 63.4615 86.756 66.1499 87.0911C67.0508 87.2034 67.9682 87.2621 68.8989 87.2637L68.9398 87.2638C76.0139 87.2638 82.3239 83.9731 86.4395 78.8304C88.2554 76.5614 89.6441 73.9319 90.4827 71.0654C91.0753 69.04 91.3933 66.8962 91.3933 64.6777C91.3933 57.5876 88.1456 51.2605 83.0649 47.1196C80.744 45.2281 78.0407 43.7928 75.0898 42.9493C73.1353 42.3906 71.0723 42.0916 68.9398 42.0916C64.0909 42.0916 59.6011 43.6376 55.9308 46.2663C55.1809 46.8034 54.4653 47.3857 53.7877 48.0093C51.7847 49.8526 50.1151 52.0565 48.8803 54.5187C47.3488 57.5725 46.4862 61.0237 46.4862 64.6777ZM71.6342 53.3846H65.3472V61.5156H56.8148V67.388H65.3472V75.9707H71.6342V67.388H80.1665V61.5156H71.6342V53.3846Z" fill="#0A442D"/>
<path d="M65.3472 53.3846H71.6342V61.5156H80.1665V67.388H71.6342V75.9707H65.3472V67.388H56.8148V61.5156H65.3472V53.3846Z" fill="white"/>
</svg>
