<svg width="128" height="128" viewBox="0 0 128 128" fill="none" xmlns="http://www.w3.org/2000/svg">
<path fill-rule="evenodd" clip-rule="evenodd" d="M26.3766 72.5225L43.4215 86.6573H117.837L101.208 72.5225H26.3766ZM51.7361 75.4326H48.826V82.0843H51.7361V75.4326Z" fill="#0A442D"/>
<path fill-rule="evenodd" clip-rule="evenodd" d="M43.4215 112.848H71.2753V96.219V91.2303H89.9831V112.848H117.837V89.5674H43.4215V112.848ZM66.2866 92.8932H48.826V110.354H66.2866V92.8932ZM112.432 92.8932H94.9718V110.354H112.432V92.8932Z" fill="#669B7E"/>
<path d="M117.837 86.6573H43.4215V89.5674H117.837V86.6573Z" fill="#0E6D4A"/>
<path d="M26.3766 72.5225L10.1632 86.6573V89.5674L26.3766 75.4326L43.4215 89.5674V86.6573L26.3766 72.5225Z" fill="#669B7E"/>
<path fill-rule="evenodd" clip-rule="evenodd" d="M10.1632 112.848H43.4215V89.5674L26.3766 75.4326L10.1632 89.5674V112.848ZM38.017 92.8932H14.7362V110.354H38.017V92.8932Z" fill="#0E6D4A"/>
<path d="M17.2306 95.3876H35.5227V107.859H17.2306V95.3876Z" fill="#B4C432"/>
<path fill-rule="evenodd" clip-rule="evenodd" d="M14.7362 92.8932H38.017V110.354H14.7362V92.8932ZM35.5227 95.3876H17.2306V107.859H35.5227V95.3876Z" fill="white"/>
<path d="M51.3203 95.3876H63.7922V107.859H51.3203V95.3876Z" fill="#B4C432"/>
<path d="M71.2753 112.848V116.174H82.9157V96.219H71.2753V112.848Z" fill="#B4C432"/>
<path d="M97.4662 95.3876H109.938V107.859H97.4662V95.3876Z" fill="#B4C432"/>
<path fill-rule="evenodd" clip-rule="evenodd" d="M94.9718 92.8932H112.432V110.354H94.9718V92.8932ZM109.938 95.3876H97.4662V107.859H109.938V95.3876Z" fill="white"/>
<path d="M71.2753 116.174V112.848H43.4215V116.174H71.2753Z" fill="#0A442D"/>
<path d="M89.9831 116.174V112.848V91.2303H71.2753V96.219H82.9157V116.174H89.9831Z" fill="#0E6D4A"/>
<path d="M119.916 116.174V112.848H117.837H89.9831V116.174H119.916Z" fill="#0A442D"/>
<path d="M48.826 75.4326H51.7361V82.0843H48.826V75.4326Z" fill="#B4C432"/>
<path d="M48.826 57.5563H51.7361V68.781H48.826V57.5563Z" fill="#B4C432"/>
<path d="M8.08459 112.848V116.174H43.4215V112.848H10.1632H8.08459Z" fill="#669B7E"/>
<path d="M80.7872 40.0957H84.5121V44.8849H89.5674V48.3438H84.5121V53.399H80.7872V48.3438H75.7319V44.8849H80.7872V40.0957Z" fill="white"/>
<path fill-rule="evenodd" clip-rule="evenodd" d="M76.7976 58.5635C72.5289 56.3487 69.6124 51.8886 69.6124 46.7474C69.6124 44.5952 70.1235 42.5624 71.0308 40.7637C71.7624 39.3134 72.7517 38.0153 73.9384 36.9296C74.3398 36.5623 74.7639 36.2194 75.2082 35.903C77.3827 34.3547 80.0429 33.444 82.9157 33.444C84.1792 33.444 85.4015 33.6202 86.5595 33.9492C88.3079 34.4461 89.9095 35.2915 91.2846 36.4056C94.2948 38.8446 96.219 42.5713 96.219 46.7474C96.219 48.0541 96.0306 49.3168 95.6795 50.5098C95.1826 52.1981 94.3598 53.7469 93.284 55.0834C90.8456 58.1124 87.107 60.0507 82.9157 60.0507L82.8915 60.0506C82.3401 60.0497 81.7965 60.0151 81.2628 59.949C79.67 59.7516 78.1645 59.2726 76.7976 58.5635ZM84.5121 40.0957H80.7872V44.8849H75.7319V48.3438H80.7872V53.399H84.5121V48.3438H89.5674V44.8849H84.5121V40.0957Z" fill="#0E6D4A"/>
<path d="M117.421 38.8485H114.511V50.9046H117.421V38.8485Z" fill="#B4C432"/>
<path d="M117.421 57.1406H114.511V68.3652H117.421V57.1406Z" fill="#B4C432"/>
<path d="M117.421 75.0169H114.511V81.6685H117.421V75.0169Z" fill="#B4C432"/>
<path d="M114.511 33.0283H117.421V26.7924L111.185 23.4666L109.938 25.9609L114.511 28.0396V33.0283Z" fill="#B4C432"/>
<path d="M104.534 23.8823L105.781 21.3879L96.219 16.8149L94.9718 19.3093L104.534 23.8823Z" fill="#B4C432"/>
<path d="M82.9157 11.8262L89.1516 14.3205L87.9044 16.8149L82.9157 14.7363L78.3427 16.8149L77.0955 14.3205L82.9157 11.8262Z" fill="#B4C432"/>
<path d="M61.7136 24.298L60.4664 21.8037L70.0281 17.2306L71.2753 19.725L61.7136 24.298Z" fill="#B4C432"/>
<path d="M51.7361 33.444H48.826V27.2081L55.4776 23.8823L56.7248 26.3767L51.7361 28.4553V33.444Z" fill="#B4C432"/>
<path d="M48.826 39.2642H51.7361V51.3204H48.826V39.2642Z" fill="#B4C432"/>
<path fill-rule="evenodd" clip-rule="evenodd" d="M48.826 92.8932H66.2866V110.354H48.826V92.8932ZM63.7922 95.3876H51.3203V107.859H63.7922V95.3876Z" fill="white"/>
</svg>
