<svg width="128" height="128" viewBox="0 0 128 128" fill="none" xmlns="http://www.w3.org/2000/svg">
<path fill-rule="evenodd" clip-rule="evenodd" d="M85.4903 43.1674C85.6895 43.0359 85.8759 42.9121 86.0454 42.7986H89.7196L91.9242 40.5863L89.7196 37.6366V33.5806L83.106 22.1503V19.2006L76.4924 14.4072H73.1856V32.1058H69.5114V11.8262H58.4888V32.1058H54.4471V14.4072H50.7729L44.1593 19.2006V22.1503L37.9131 33.5806V37.6366L36.076 40.5863L37.9131 42.7986H41.5873L42.1752 43.1674L47.4661 46.4858H79.7992C80.3329 46.4858 83.5306 44.4604 85.4903 43.1674ZM43.057 40.955C46.2414 39.3573 52.757 36.1617 53.3448 36.1617H74.2879L84.9431 40.955L83.4734 41.3238L74.6553 38.374H53.7123L44.1593 41.3238L43.057 40.955Z" fill="#B2C32E"/>
<path d="M58.4888 32.1058V11.8262L54.4471 14.4072V32.1058H58.4888Z" fill="#0A442D"/>
<path d="M73.1856 32.1058V14.4072L69.5114 11.8262V32.1058H73.1856Z" fill="#0A442D"/>
<path d="M53.3448 36.1617C52.757 36.1617 46.2414 39.3573 43.057 40.955L44.1593 41.3238L53.7123 38.374H74.6553L83.4734 41.3238L84.9431 40.955L74.2879 36.1617H53.3448Z" fill="#0A442D"/>
<path fill-rule="evenodd" clip-rule="evenodd" d="M69.6414 67.1342C69.7697 66.902 69.8521 66.6555 69.8788 66.3967L69.5114 51.2792C72.0861 49.8598 74.6553 49.0669 78.697 51.2792L79.7992 50.9105C75.1076 48.1016 72.4511 48.0539 67.3069 50.9105V64.5531C67.178 65.3251 66.8509 65.5633 65.8372 65.6593H60.6933C60.3968 65.808 60.6386 66.4368 61.1772 67.1342C61.9738 68.1654 63.4197 69.3465 64.7349 69.3465C66.6151 69.3465 68.8978 68.4803 69.6414 67.1342Z" fill="#0A442D"/>
<path fill-rule="evenodd" clip-rule="evenodd" d="M59.2236 50.9105C56.2335 48.3004 53.8605 48.5771 48.5684 51.6479L49.3032 52.3854C53.5774 49.9538 55.7966 49.1554 58.4888 51.6479L59.2236 50.9105Z" fill="#0A442D"/>
<path fill-rule="evenodd" clip-rule="evenodd" d="M54.8145 51.6479C53.3448 51.6479 52.61 52.7541 52.61 53.8602C52.61 54.9664 53.3448 56.0726 54.8145 56.0726C56.2842 56.0726 57.0191 55.0468 57.0191 53.8602C57.0191 52.6736 56.2842 51.6479 54.8145 51.6479Z" fill="#0A442D"/>
<path fill-rule="evenodd" clip-rule="evenodd" d="M74.2879 51.6479C72.8182 51.6479 72.0834 52.7541 72.0834 53.8602C72.0834 54.9664 72.8182 56.0726 74.2879 56.0726C75.7576 56.0726 76.4924 55.0468 76.4924 53.8602C76.4924 52.6736 75.7576 51.6479 74.2879 51.6479Z" fill="#0A442D"/>
<path d="M80.5341 109.537C80.5341 108.062 81.7524 106.218 83.8409 106.218C85.9294 106.218 87.1477 108.062 87.1477 109.537C87.1477 111.012 86.0454 112.855 83.8409 112.855C81.6363 112.855 80.5341 111.012 80.5341 109.537Z" fill="#0A442D"/>
<path d="M44.1593 106.587C42.0708 106.587 40.8525 108.431 40.8525 109.906C40.8525 111.381 41.9548 113.224 44.1593 113.224C46.3638 113.224 47.4661 111.381 47.4661 109.906C47.4661 108.431 46.2478 106.587 44.1593 106.587Z" fill="#0A442D"/>
<path fill-rule="evenodd" clip-rule="evenodd" d="M33.5041 86.7764L38.648 104.006L33.8715 116.174H94.1287L89.3522 104.006L94.1287 86.5116C91.7958 85.4271 89.3364 84.6153 86.7802 84.1559L82.0038 102.9H45.9964L40.8525 84.2413C38.2939 84.7531 35.8343 85.6271 33.5041 86.7764ZM83.8409 106.218C81.7524 106.218 80.5341 108.062 80.5341 109.537C80.5341 111.012 81.6363 112.855 83.8409 112.855C86.0454 112.855 87.1477 111.012 87.1477 109.537C87.1477 108.062 85.9294 106.218 83.8409 106.218ZM40.8525 109.906C40.8525 108.431 42.0708 106.587 44.1593 106.587C46.2478 106.587 47.4661 108.431 47.4661 109.906C47.4661 111.381 46.3638 113.224 44.1593 113.224C41.9548 113.224 40.8525 111.381 40.8525 109.906Z" fill="#B2C32E"/>
<path d="M45.9964 83.7266C50.7729 104.006 77.2273 104.375 82.0038 83.7266L80.5341 81.5142L70.2463 91.4697H58.8562L47.4661 81.5142L45.9964 83.7266Z" fill="#75A082"/>
<path d="M86.8211 61.9721L87.3518 47.592C93.7477 47.592 94.4961 59.0223 86.8211 61.9721Z" fill="#75A082"/>
<path d="M40.73 47.592L41.5261 61.9721C34.6063 59.391 33.5041 47.592 40.73 47.592Z" fill="#75A082"/>
<path fill-rule="evenodd" clip-rule="evenodd" d="M69.8788 66.3967C69.8521 66.6555 69.7697 66.902 69.6414 67.1342H70.2463L74.2879 70.4526L76.4924 70.0839L78.3295 67.5029L79.0644 62.7095L84.9431 57.5474V51.6479L82.3712 49.0669V47.2233L79.0644 48.3294H48.5684L45.9964 47.2233V49.0669L44.1593 51.6479V57.5474L50.0381 62.7095V67.5029L52.2426 70.0839L54.4471 70.4526L57.3865 67.1342H61.1772C60.6386 66.4368 60.3968 65.808 60.6933 65.6593H65.8372C66.8509 65.5633 67.178 65.3251 67.3069 64.5531V50.9105C72.4511 48.0539 75.1076 48.1016 79.7992 50.9105L78.697 51.2792C74.6553 49.0669 72.0861 49.8598 69.5114 51.2792L69.8788 66.3967ZM48.5684 51.6479C53.8605 48.5771 56.2335 48.3004 59.2236 50.9105L58.4888 51.6479C55.7966 49.1554 53.5774 49.9538 49.3032 52.3854L48.5684 51.6479ZM52.61 53.8602C52.61 52.7541 53.3448 51.6479 54.8145 51.6479C56.2842 51.6479 57.0191 52.6736 57.0191 53.8602C57.0191 55.0468 56.2842 56.0726 54.8145 56.0726C53.3448 56.0726 52.61 54.9664 52.61 53.8602ZM72.0834 53.8602C72.0834 52.7541 72.8182 51.6479 74.2879 51.6479C75.7576 51.6479 76.4924 52.6736 76.4924 53.8602C76.4924 55.0468 75.7576 56.0726 74.2879 56.0726C72.8182 56.0726 72.0834 54.9664 72.0834 53.8602Z" fill="#75A082"/>
<path fill-rule="evenodd" clip-rule="evenodd" d="M47.4661 46.4858L42.1752 43.1674H40.4851L40.73 47.592L41.5261 61.9721L41.5873 63.0782L47.4661 75.246V81.5142L58.8562 91.4697H70.2463L80.5341 81.5142V75.246L86.7802 63.0782L86.8211 61.9721L87.3518 47.592L87.5151 43.1674H85.4903C83.5306 44.4604 80.3329 46.4858 79.7992 46.4858H47.4661ZM64.7349 69.3465C63.4197 69.3465 61.9738 68.1654 61.1772 67.1342H57.3865L54.4471 70.4526L52.2426 70.0839L50.0381 67.5029V62.7095L44.1593 57.5474V51.6479L45.9964 49.0669V47.2233L48.5684 48.3294H79.0644L82.3712 47.2233V49.0669L84.9431 51.6479V57.5474L79.0644 62.7095L78.3295 67.5029L76.4924 70.0839L74.2879 70.4526L70.2463 67.1342H69.6414C68.8978 68.4803 66.6151 69.3465 64.7349 69.3465ZM69.5114 72.665H59.9584V74.5086L63.2652 77.4583H66.2046L69.5114 74.5086V72.665Z" fill="#0E6D4A"/>
<path d="M33.5041 86.7764C20.7185 93.0824 11.8262 107.675 11.8262 116.174H33.8715L38.648 104.006L33.5041 86.7764Z" fill="#0A442D"/>
<path d="M82.0038 83.7266C77.2273 104.375 50.7729 104.006 45.9964 83.7266C44.245 83.7266 42.5275 83.9064 40.8525 84.2413L45.9964 102.9H82.0038L86.7802 84.1559C85.2218 83.8757 83.6274 83.7266 82.0038 83.7266Z" fill="#0A442D"/>
<path d="M116.174 116.174C116.174 107.022 107.111 92.5464 94.1287 86.5116L89.3522 104.006L94.1287 116.174H116.174Z" fill="#0A442D"/>
<path d="M59.9584 72.665H69.5114V74.5086L66.2046 77.4583H63.2652L59.9584 74.5086V72.665Z" fill="white"/>
</svg>
