<svg width="128" height="128" viewBox="0 0 128 128" fill="none" xmlns="http://www.w3.org/2000/svg">
<path d="M103.294 100.072V39.5506L84.6978 50.7365L68.5118 60.4724L44.7495 107.394H68.2802H103.294V100.072Z" fill="#B4C432"/>
<path d="M24.0865 107.394H26.1528L49.2264 62.0196L45.7287 59.8691L20.6427 107.394H24.0865Z" fill="#B4C432"/>
<path d="M22.709 45.7163L11 38.5174V64.0017L22.709 45.7163Z" fill="#B4C432"/>
<path d="M57.4916 12L11 38.5174L29.5966 38.7256V29.5635H84.6978V39.3424L103.294 39.5506L92.4163 33.0073L57.4916 12Z" fill="#669B7E"/>
<path fill-rule="evenodd" clip-rule="evenodd" d="M68.5118 60.4724L84.6978 50.7365V39.3424V29.5635H29.5966V38.7256V49.9509L45.7287 59.8691L49.2264 62.0196L57.4916 67.1012L68.5118 60.4724ZM37.5174 38.8143V40.5837H64.3792V39.115V37.4843H37.5174V38.8143ZM37.5174 44.3719H69.545V47.4714H37.5174V44.3719ZM37.5174 51.604H64.0349V54.7034H37.5174V51.604Z" fill="white"/>
<path d="M37.5174 40.5837V38.8143V37.4843H64.3792V39.115V40.5837H37.5174Z" fill="#0A442D"/>
<path d="M69.545 44.3719H37.5174V47.4714H69.545V44.3719Z" fill="#0A442D"/>
<path d="M64.0349 51.604H37.5174V54.7034H64.0349V51.604Z" fill="#0A442D"/>
<path d="M44.7495 107.394L68.5118 60.4724L57.4916 67.1012L49.2264 62.0196L26.1528 107.394H44.7495Z" fill="#669B7E"/>
<path d="M20.6427 107.394L45.7287 59.8691L29.5966 49.9509L22.709 45.7163L11 64.0017V107.394H20.6427Z" fill="#669B7E"/>
<path d="M84.6978 50.7365L103.294 39.5506L84.6978 39.3424V50.7365Z" fill="#0A442D"/>
<path d="M11 38.5174L22.709 45.7163L29.5966 49.9509V38.7256L11 38.5174Z" fill="#0A442D"/>
<path d="M103.294 39.5506V100.072L116.037 97.4068L103.294 30.941L92.4163 33.0073L103.294 39.5506Z" fill="#0E6D4A"/>
<path d="M68.2802 107.394H44.7495H26.1528H24.0865L25.4641 116.348L68.2802 107.394Z" fill="#0E6D4A"/>
</svg>
