<svg width="128" height="128" viewBox="0 0 128 128" fill="none" xmlns="http://www.w3.org/2000/svg">
<path fill-rule="evenodd" clip-rule="evenodd" d="M59.6843 30.7318C57.8222 30.9106 55.998 31.2197 54.2209 31.6499C54.2258 31.7997 54.2283 31.9486 54.2283 32.0966C54.2283 45.2367 44.9808 52.5797 38.8159 52.5797L45.7515 62.2415L28.0271 52.9662L28.0122 52.9588C27.5414 53.9444 27.1102 54.9526 26.7208 55.9814L47.2324 82.6308V74.7111H43.0543V71.4517H47.2324V68.1923H43.0543V64.9329H47.2324V49.1014H56.0527L65.4559 64.9329H71.3724V49.1014H73.8619L59.6843 30.7318Z" fill="#0A442D"/>
<path fill-rule="evenodd" clip-rule="evenodd" d="M102.755 71.3121C102.77 70.8669 102.778 70.4198 102.778 69.971C102.778 50.6849 88.9693 34.6336 70.728 31.2205L102.755 71.3121Z" fill="#0E6D4A"/>
<path fill-rule="evenodd" clip-rule="evenodd" d="M47.2324 74.7111V82.6308V87.7488H51.1716H56.0527V74.7111H63.0162L69.9797 87.7488H79.7285V74.7111H83.9066V71.4517H79.7285V68.1923H83.9066V64.9329H79.7285V56.7027V49.1014H73.8619H71.3724V64.9329H65.4559L56.0527 49.1014H47.2324V64.9329H43.0543V68.1923H47.2324V71.4517H43.0543V74.7111H47.2324ZM67.3918 68.1923H71.3724V70.9861H69.0512L67.3918 68.1923ZM56.0527 71.4517V68.1923H59.1167L61.0664 71.4517H56.0527ZM56.0527 64.9329V63.0704L57.1669 64.9329H56.0527Z" fill="#B4C432"/>
<path fill-rule="evenodd" clip-rule="evenodd" d="M24.1942 68.6968C24.1808 69.1199 24.174 69.5447 24.174 69.971C24.174 73.1531 24.5499 76.2471 25.2596 79.2108L47.6346 106.058C49.7637 107 51.9918 107.757 54.299 108.311L24.1942 68.6968Z" fill="#669B7E"/>
<path d="M109.445 74.9952C109.175 77.5084 108.705 79.9616 108.051 82.3382H114.216C114.87 79.9616 115.34 77.5084 115.61 74.9952H109.445Z" fill="#669B7E"/>
<path d="M106.944 85.8164C106.016 88.3768 104.87 90.8321 103.527 93.1594H109.692C111.035 90.8321 112.181 88.3768 113.109 85.8164H106.944Z" fill="#0E6D4A"/>
<path d="M109.713 69.971C109.713 71.6686 109.622 73.3448 109.445 74.9952H115.61C115.787 73.3448 115.878 71.6686 115.878 69.971C115.878 44.3578 95.177 23.5942 69.6408 23.5942C68.605 23.5942 67.5771 23.6284 66.5583 23.6956C90.6573 25.2866 109.713 45.3967 109.713 69.971Z" fill="#0A442D"/>
<path d="M103.527 93.1594C96.0166 106.183 82.3734 115.202 66.5583 116.246C67.5771 116.314 68.605 116.348 69.6408 116.348C86.7551 116.348 101.698 107.021 109.692 93.1594H103.527Z" fill="#0A442D"/>
<path d="M108.051 82.3382C107.727 83.5171 107.357 84.6772 106.944 85.8164H113.109C113.522 84.6772 113.892 83.5171 114.216 82.3382H108.051Z" fill="#0A442D"/>
<path d="M54.1346 30.4783C55.6749 30.1132 57.2493 29.8363 58.8521 29.6534C60.3694 29.4803 61.9122 29.3913 63.4758 29.3913C65.5718 29.3913 67.6306 29.5512 69.6408 29.8594C89.0589 32.8372 103.933 49.6618 103.933 69.971C103.933 70.8801 103.904 71.7822 103.845 72.6763C103.572 76.8441 102.671 80.84 101.236 84.57C95.9676 98.2708 83.5005 108.383 68.4848 110.243C66.8436 110.446 65.1719 110.551 63.4758 110.551C60.7047 110.551 57.9987 110.271 55.3843 109.739C53.2644 109.307 51.2047 108.71 49.2193 107.96C38.5977 103.947 30.1029 95.5822 25.8962 85.032C24.9142 82.5692 24.1659 79.9873 23.6788 77.314C23.2448 74.9325 23.0181 72.4783 23.0181 69.971C23.0181 69.0619 23.0479 68.1599 23.1066 67.2657C23.3914 62.9253 24.3566 58.7713 25.8962 54.91C26.23 54.0728 26.5909 53.2493 26.9776 52.4407C25.1184 51.4887 23.4525 50.5177 21.9754 49.4994C18.9423 55.6735 17.2384 62.6227 17.2384 69.971C17.2384 95.5842 37.9396 116.348 63.4758 116.348C64.5116 116.348 65.5394 116.314 66.5583 116.246C82.3734 115.202 96.0166 106.183 103.527 93.1594C104.87 90.8321 106.016 88.3768 106.944 85.8164C107.357 84.6772 107.727 83.5171 108.051 82.3382C108.705 79.9616 109.175 77.5084 109.445 74.9952C109.622 73.3448 109.713 71.6686 109.713 69.971C109.713 45.3967 90.6573 25.2866 66.5583 23.6956C65.5394 23.6284 64.5116 23.5942 63.4758 23.5942C59.7117 23.5942 56.0527 24.0453 52.5496 24.8966C53.3905 26.7644 53.9293 28.6672 54.1346 30.4783Z" fill="#B4C432"/>
<path fill-rule="evenodd" clip-rule="evenodd" d="M63.4758 30.5507C62.1968 30.5507 60.932 30.612 59.6843 30.7318L73.8619 49.1014H79.7285H82.8102V60.6957L100.405 83.4924C101.795 79.6736 102.613 75.5788 102.755 71.3121L70.728 31.2205C68.3775 30.7807 65.9534 30.5507 63.4758 30.5507Z" fill="#B4C432"/>
<path fill-rule="evenodd" clip-rule="evenodd" d="M25.2596 79.2108L47.6346 106.058C36.546 101.154 28.1447 91.2591 25.2596 79.2108Z" fill="#B4C432"/>
<path fill-rule="evenodd" clip-rule="evenodd" d="M26.7208 55.9814C25.2175 59.9528 24.3356 64.2311 24.1942 68.6968L54.299 108.311C57.2431 109.017 60.3159 109.391 63.4758 109.391C64.8891 109.391 66.2849 109.316 67.6596 109.171L52.9564 90.0676H47.2324V87.7488V82.6308L26.7208 55.9814Z" fill="#B4C432"/>
<path d="M54.2283 32.0966C54.2283 31.9486 54.2258 31.7997 54.2209 31.6499C54.2083 31.2646 54.1794 30.8737 54.1346 30.4783C53.9293 28.6672 53.3905 26.7644 52.5496 24.8966C49.5457 18.2246 42.6881 12 33.4215 12C24.9447 12 13 18.57 13 32.4831C13 40.2898 15.8815 45.2979 21.9754 49.4994C23.4525 50.5177 25.1184 51.4887 26.9776 52.4407C27.316 52.614 27.6609 52.7867 28.0122 52.9588C28.0172 52.9613 28.0222 52.9637 28.0271 52.9662L45.7515 62.2415L38.8159 52.5797C44.9808 52.5797 54.2283 45.2367 54.2283 32.0966Z" fill="#669B7E"/>
<path fill-rule="evenodd" clip-rule="evenodd" d="M24.1942 68.6968C24.3356 64.2311 25.2175 59.9528 26.7208 55.9814C27.1102 54.9526 27.5414 53.9444 28.0122 52.9588C27.6609 52.7867 27.316 52.614 26.9776 52.4407C26.5909 53.2493 26.23 54.0728 25.8962 54.91C24.3566 58.7713 23.3914 62.9253 23.1066 67.2657C23.0479 68.1599 23.0181 69.0619 23.0181 69.971C23.0181 72.4783 23.2448 74.9325 23.6788 77.314C24.1659 79.9873 24.9142 82.5692 25.8962 85.032C30.1029 95.5822 38.5977 103.947 49.2193 107.96C51.2047 108.71 53.2644 109.307 55.3843 109.739C57.9987 110.271 60.7047 110.551 63.4758 110.551C65.1719 110.551 66.8436 110.446 68.4848 110.243C83.5005 108.383 95.9676 98.2708 101.236 84.57C102.671 80.84 103.572 76.8441 103.845 72.6763C103.904 71.7822 103.933 70.8801 103.933 69.971C103.933 49.6618 89.0589 32.8372 69.6408 29.8594C67.6306 29.5512 65.5718 29.3913 63.4758 29.3913C61.9122 29.3913 60.3694 29.4803 58.8521 29.6534C57.2493 29.8363 55.6749 30.1132 54.1346 30.4783C54.1794 30.8737 54.2083 31.2646 54.2209 31.6499C55.998 31.2197 57.8222 30.9106 59.6843 30.7318C60.932 30.612 62.1968 30.5507 63.4758 30.5507C65.9534 30.5507 68.3775 30.7807 70.728 31.2205C88.9693 34.6336 102.778 50.6849 102.778 69.971C102.778 70.4198 102.77 70.8669 102.755 71.3121C102.613 75.5788 101.795 79.6736 100.405 83.4924C95.3616 97.3452 82.7916 107.564 67.6596 109.171C66.2849 109.316 64.8891 109.391 63.4758 109.391C60.3159 109.391 57.2431 109.017 54.299 108.311C51.9918 107.757 49.7637 107 47.6346 106.058C36.546 101.154 28.1447 91.2591 25.2596 79.2108C24.5499 76.2471 24.174 73.1531 24.174 69.971C24.174 69.5447 24.1808 69.1199 24.1942 68.6968Z" fill="#0A442D"/>
<path d="M51.1716 87.7488H47.2324V90.0676H52.9564L67.6596 109.171C82.7916 107.564 95.3616 97.3452 100.405 83.4924L82.8102 60.6957V49.1014H79.7285V56.7027V64.9329H83.9066V68.1923H79.7285V71.4517H83.9066V74.7111H79.7285V87.7488H69.9797L63.0162 74.7111H56.0527V87.7488H51.1716Z" fill="#0A442D"/>
<path d="M56.0527 71.4517V68.1923H59.1167L61.0664 71.4517H56.0527Z" fill="#0A442D"/>
<path d="M67.3918 68.1923H71.3724V70.9861H69.0512L67.3918 68.1923Z" fill="#0A442D"/>
<path d="M56.0527 64.9329V63.0704L57.1669 64.9329H56.0527Z" fill="#0A442D"/>
</svg>
