<svg width="300" height="300" viewBox="0 0 300 300" fill="none" xmlns="http://www.w3.org/2000/svg">
<path fill-rule="evenodd" clip-rule="evenodd" d="M211.784 90.1059C212.357 89.728 212.893 89.3719 213.38 89.0459H223.944L230.282 82.6854L223.944 74.2049V62.5441L204.93 29.682V21.2014L185.915 7.42049H176.408V58.3038H165.845V0H134.155V58.3038H122.535V7.42049H111.972L92.9577 21.2014V29.682L75 62.5441V74.2049L69.7183 82.6854L75 89.0459H85.5634L87.2535 90.1059L102.465 99.6466H195.423C196.957 99.6466 206.15 93.8234 211.784 90.1059ZM89.7887 83.7455C98.9437 79.1519 117.676 69.9646 119.366 69.9646H179.577L210.211 83.7455L205.986 84.8056L180.634 76.325H120.423L92.9577 84.8056L89.7887 83.7455Z" fill="#B2C32E"/>
<path d="M134.155 58.3038V0L122.535 7.42049V58.3038H134.155Z" fill="#0A442D"/>
<path d="M176.408 58.3038V7.42049L165.845 0V58.3038H176.408Z" fill="#0A442D"/>
<path d="M119.366 69.9646C117.676 69.9646 98.9437 79.1519 89.7887 83.7455L92.9577 84.8056L120.423 76.325H180.634L205.986 84.8056L210.211 83.7455L179.577 69.9646H119.366Z" fill="#0A442D"/>
<path fill-rule="evenodd" clip-rule="evenodd" d="M166.219 159.01C166.588 158.343 166.825 157.634 166.901 156.89L165.845 113.427C173.247 109.347 180.634 107.067 192.254 113.427L195.423 112.367C181.934 104.292 174.297 104.155 159.507 112.367V151.59C159.137 153.81 158.196 154.494 155.282 154.77H140.493C139.641 155.198 140.336 157.006 141.884 159.01C144.174 161.975 148.332 165.371 152.113 165.371C157.518 165.371 164.081 162.881 166.219 159.01Z" fill="#0A442D"/>
<path fill-rule="evenodd" clip-rule="evenodd" d="M136.268 112.367C127.671 104.863 120.849 105.659 105.634 114.488L107.746 116.608C120.035 109.617 126.415 107.322 134.155 114.488L136.268 112.367Z" fill="#0A442D"/>
<path fill-rule="evenodd" clip-rule="evenodd" d="M123.592 114.488C119.366 114.488 117.254 117.668 117.254 120.848C117.254 124.028 119.366 127.208 123.592 127.208C127.817 127.208 129.93 124.259 129.93 120.848C129.93 117.436 127.817 114.488 123.592 114.488Z" fill="#0A442D"/>
<path fill-rule="evenodd" clip-rule="evenodd" d="M179.577 114.488C175.352 114.488 173.239 117.668 173.239 120.848C173.239 124.028 175.352 127.208 179.577 127.208C183.803 127.208 185.915 124.259 185.915 120.848C185.915 117.436 183.803 114.488 179.577 114.488Z" fill="#0A442D"/>
<path d="M197.535 280.918C197.535 276.678 201.038 271.378 207.042 271.378C213.047 271.378 216.549 276.678 216.549 280.918C216.549 285.159 213.38 290.459 207.042 290.459C200.704 290.459 197.535 285.159 197.535 280.918Z" fill="#0A442D"/>
<path d="M92.9577 272.438C86.9534 272.438 83.4507 277.738 83.4507 281.979C83.4507 286.219 86.6197 291.519 92.9577 291.519C99.2958 291.519 102.465 286.219 102.465 281.979C102.465 277.738 98.9621 272.438 92.9577 272.438Z" fill="#0A442D"/>
<path fill-rule="evenodd" clip-rule="evenodd" d="M62.3239 215.482L77.1127 265.017L63.3803 300H236.62L222.887 265.017L236.62 214.721C229.913 211.603 222.842 209.269 215.493 207.948L201.761 261.837H98.2394L83.4507 208.194C76.0947 209.665 69.0234 212.178 62.3239 215.482ZM207.042 271.378C201.038 271.378 197.535 276.678 197.535 280.918C197.535 285.159 200.704 290.459 207.042 290.459C213.38 290.459 216.549 285.159 216.549 280.918C216.549 276.678 213.047 271.378 207.042 271.378ZM83.4507 281.979C83.4507 277.738 86.9534 272.438 92.9577 272.438C98.9621 272.438 102.465 277.738 102.465 281.979C102.465 286.219 99.2958 291.519 92.9577 291.519C86.6197 291.519 83.4507 286.219 83.4507 281.979Z" fill="#B2C32E"/>
<path d="M98.2394 206.714C111.972 265.017 188.028 266.078 201.761 206.714L197.535 200.353L167.958 228.975H135.211L102.465 200.353L98.2394 206.714Z" fill="#75A082"/>
<path d="M215.61 144.169L217.136 102.827C235.524 102.827 237.676 135.689 215.61 144.169Z" fill="#75A082"/>
<path d="M83.0986 102.827L85.3873 144.169C65.493 136.749 62.3239 102.827 83.0986 102.827Z" fill="#75A082"/>
<path fill-rule="evenodd" clip-rule="evenodd" d="M166.901 156.89C166.825 157.634 166.588 158.343 166.219 159.01H167.958L179.577 168.551L185.915 167.491L191.197 160.071L193.31 146.29L210.211 131.449V114.488L202.817 107.067V101.767L193.31 104.947H105.634L98.2394 101.767V107.067L92.9577 114.488V131.449L109.859 146.29V160.071L116.197 167.491L122.535 168.551L130.986 159.01H141.884C140.336 157.006 139.641 155.198 140.493 154.77H155.282C158.196 154.494 159.137 153.81 159.507 151.59V112.367C174.297 104.155 181.934 104.292 195.423 112.367L192.254 113.427C180.634 107.067 173.247 109.347 165.845 113.427L166.901 156.89ZM105.634 114.488C120.849 105.659 127.671 104.863 136.268 112.367L134.155 114.488C126.415 107.322 120.035 109.617 107.746 116.608L105.634 114.488ZM117.254 120.848C117.254 117.668 119.366 114.488 123.592 114.488C127.817 114.488 129.93 117.436 129.93 120.848C129.93 124.259 127.817 127.208 123.592 127.208C119.366 127.208 117.254 124.028 117.254 120.848ZM173.239 120.848C173.239 117.668 175.352 114.488 179.577 114.488C183.803 114.488 185.915 117.436 185.915 120.848C185.915 124.259 183.803 127.208 179.577 127.208C175.352 127.208 173.239 124.028 173.239 120.848Z" fill="#75A082"/>
<path fill-rule="evenodd" clip-rule="evenodd" d="M102.465 99.6466L87.2535 90.1059H82.3944L83.0986 102.827L85.3873 144.169L85.5634 147.35L102.465 182.332V200.353L135.211 228.975H167.958L197.535 200.353V182.332L215.493 147.35L215.61 144.169L217.136 102.827L217.606 90.1059H211.784C206.15 93.8234 196.957 99.6466 195.423 99.6466H102.465ZM152.113 165.371C148.332 165.371 144.174 161.975 141.884 159.01H130.986L122.535 168.551L116.197 167.491L109.859 160.071V146.29L92.9577 131.449V114.488L98.2394 107.067V101.767L105.634 104.947H193.31L202.817 101.767V107.067L210.211 114.488V131.449L193.31 146.29L191.197 160.071L185.915 167.491L179.577 168.551L167.958 159.01H166.219C164.081 162.881 157.518 165.371 152.113 165.371ZM165.845 174.912H138.38V180.212L147.887 188.692H156.338L165.845 180.212V174.912Z" fill="#0E6D4A"/>
<path d="M62.3239 215.482C25.5654 233.612 -2.02628e-09 275.566 0 300H63.3803L77.1127 265.017L62.3239 215.482Z" fill="#0A442D"/>
<path d="M201.761 206.714C188.028 266.078 111.972 265.017 98.2394 206.714C93.2041 206.714 88.2664 207.231 83.4507 208.194L98.2394 261.837H201.761L215.493 207.948C211.012 207.143 206.428 206.714 201.761 206.714Z" fill="#0A442D"/>
<path d="M300 300C300 273.688 273.944 232.071 236.62 214.721L222.887 265.017L236.62 300H300Z" fill="#0A442D"/>
<path d="M138.38 174.912H165.845V180.212L156.338 188.692H147.887L138.38 180.212V174.912Z" fill="white"/>
<path d="M241.172 71.1716L246.828 76.8284L226 97.6569L213.172 84.8284L218.828 79.1716L226 86.3431L241.172 71.1716Z" fill="#0E6D4A"/>
<path fill-rule="evenodd" clip-rule="evenodd" d="M262 84C262 79.5216 259.897 75.5343 256.625 72.9717C257.127 68.8458 255.794 64.5395 252.628 61.3728C249.461 58.2061 245.154 56.8735 241.029 57.3752C238.466 54.1029 234.479 52 230 52C225.522 52 221.534 54.1028 218.972 57.3749C214.846 56.8732 210.539 58.2057 207.373 61.3725C204.206 64.5392 202.873 68.8457 203.375 72.9715C200.103 75.5342 198 79.5215 198 84C198 88.4784 200.103 92.4657 203.375 95.0284C202.873 99.1542 204.206 103.461 207.372 106.627C210.539 109.794 214.846 111.127 218.972 110.625C221.534 113.897 225.522 116 230 116C234.478 116 238.466 113.897 241.028 110.625C245.154 111.127 249.46 109.794 252.627 106.628C255.794 103.461 257.126 99.1544 256.625 95.0286C259.897 92.466 262 88.4786 262 84ZM246.828 76.8284L241.172 71.1716L226 86.3431L218.828 79.1716L213.172 84.8284L226 97.6569L246.828 76.8284Z" fill="white"/>
</svg>
