<svg width="128" height="128" viewBox="0 0 128 128" fill="none" xmlns="http://www.w3.org/2000/svg">
<path fill-rule="evenodd" clip-rule="evenodd" d="M98.5172 58.0451C94.3366 53.837 88.5358 51.2302 82.1241 51.2302C69.3846 51.2302 59.0572 61.5213 59.0572 74.216C59.0572 75.1456 59.1125 76.0623 59.2202 76.9631C63.2101 83.8276 70.6614 88.4452 79.195 88.4452C85.3599 88.4452 90.9599 86.0353 95.0981 82.1092C93.6976 81.3773 92.7422 79.9145 92.7422 78.2293C92.7422 75.8113 94.7093 73.8511 97.1359 73.8511C98.3086 73.8511 99.374 74.3089 100.162 75.055C101.263 72.6703 101.966 70.0655 102.187 67.3251C102.237 66.7098 102.262 66.0876 102.262 65.4595C102.262 64.5299 102.207 63.6131 102.099 62.7124C101.107 61.0055 99.9007 59.4376 98.5172 58.0451ZM96.4036 65.0946C96.4036 69.9307 92.4694 73.8511 87.6162 73.8511C82.7631 73.8511 78.8288 69.9307 78.8288 65.0946C78.8288 60.2586 82.7631 56.3382 87.6162 56.3382C92.4694 56.3382 96.4036 60.2586 96.4036 65.0946Z" fill="#B4C432"/>
<path d="M105.191 74.216C105.191 70.0248 104.065 66.0957 102.099 62.7124C102.207 63.6131 102.262 64.5299 102.262 65.4595C102.262 66.0876 102.237 66.7098 102.187 67.3251C101.966 70.0655 101.263 72.6703 100.162 75.055C101.004 75.8527 101.53 76.9799 101.53 78.2293C101.53 80.6474 99.5625 82.6076 97.1359 82.6076C96.4004 82.6076 95.7072 82.4275 95.0981 82.1092C90.9599 86.0353 85.3599 88.4452 79.195 88.4452C70.6614 88.4452 63.2101 83.8276 59.2202 76.9631C60.5826 88.3626 70.3175 97.2017 82.1241 97.2017C89.0405 97.2017 95.246 94.1683 99.4738 89.3639C103.033 85.3189 105.191 80.0185 105.191 74.216Z" fill="#0A442D"/>
<path fill-rule="evenodd" clip-rule="evenodd" d="M48.8052 73.8511C48.8052 83.3652 52.8658 91.9343 59.3542 97.9314C60.8185 99.2848 62.4064 100.507 64.0992 101.58C68.1877 104.171 76.7103 106.107 81.7579 106.688C88.2548 106.688 94.3125 104.814 99.4167 101.58C101.109 100.507 102.697 99.2848 104.162 97.9314C110.65 91.9343 114.711 83.3652 114.711 73.8511C114.711 63.5357 109.937 54.3313 102.472 48.3114C100.74 46.9154 98.8643 45.6906 96.8694 44.6629C92.343 42.3312 87.2048 41.0144 81.7579 41.0144C79.0369 41.0144 76.393 41.343 73.8638 41.9626C71.3302 42.5833 68.9117 43.496 66.6465 44.6629C64.6516 45.6906 62.7754 46.9154 61.0441 48.3114C53.5785 54.3313 48.8052 63.5357 48.8052 73.8511ZM82.1241 51.2302C88.5358 51.2302 94.3366 53.837 98.5172 58.0451C99.9007 59.4376 101.107 61.0055 102.099 62.7124C104.065 66.0957 105.191 70.0248 105.191 74.216C105.191 80.0185 103.033 85.3189 99.4738 89.3639C95.246 94.1683 89.0405 97.2017 82.1241 97.2017C70.3175 97.2017 60.5826 88.3626 59.2202 76.9631C59.1125 76.0623 59.0572 75.1456 59.0572 74.216C59.0572 61.5213 69.3846 51.2302 82.1241 51.2302Z" fill="#0E6D4A"/>
<path d="M59.3542 97.9314C52.8658 91.9343 48.8052 83.3652 48.8052 73.8511C48.8052 63.5357 53.5785 54.3313 61.0441 48.3114C62.7754 46.9154 64.6516 45.6906 66.6465 44.6629C68.9117 43.496 71.3302 42.5833 73.8638 41.9626C76.393 41.343 79.0369 41.0144 81.7579 41.0144C76.9081 41.0144 65.2816 39.9198 56.44 44.6629C54.2428 45.6564 52.1743 46.8831 50.2665 48.3114C42.2645 54.3023 37.0887 63.8393 37.0887 74.5808C37.0887 83.7155 40.8318 91.979 46.873 97.9314C48.2315 99.2699 49.7062 100.491 51.2806 101.58C56.605 105.261 63.0704 107.418 70.0414 107.418C72.7624 107.418 79.2288 107.307 81.7579 106.688C76.7103 106.107 68.1877 104.171 64.0992 101.58C62.4064 100.507 60.8185 99.2848 59.3542 97.9314Z" fill="#0A442D"/>
<path d="M11.4587 25.3257V116.174H30.132C33.0611 116.174 34.5257 112.89 34.5257 109.607V101.58V97.9314V48.3114V44.6629V31.1634C34.5257 28.2445 31.5965 25.4006 28.3013 25.3883L23.1753 25.3693L11.4587 25.3257Z" fill="#0A442D"/>
<path d="M50.2665 48.3114C52.1743 46.8831 54.2428 45.6564 56.44 44.6629H34.5257V48.3114H50.2665Z" fill="#0A442D"/>
<path d="M96.8694 44.6629C98.8643 45.6906 100.74 46.9154 102.472 48.3114H116.541V44.6629H96.8694Z" fill="#0A442D"/>
<path fill-rule="evenodd" clip-rule="evenodd" d="M56.44 44.6629C65.2816 39.9198 76.9081 41.0144 81.7579 41.0144C87.2048 41.0144 92.343 42.3312 96.8694 44.6629H116.541V33.7173C116.541 29.3391 113.978 25.6906 109.585 25.6906L66.6465 25.3883H28.3013C31.5965 25.4006 34.5257 28.2445 34.5257 31.1634V44.6629H56.44ZM107.754 31.5282H92.7422C90.5453 31.5282 89.0808 32.9876 89.0808 35.1767C89.0808 37.3658 90.5453 38.8253 92.7422 38.8253H107.754C110.317 38.8253 111.415 37.001 111.415 35.1767C111.415 33.3525 110.317 31.5282 107.754 31.5282ZM86.1516 34.8119C86.1516 32.9872 84.6875 31.5282 82.8564 31.5282C81.0257 31.5282 79.5611 32.7969 79.5611 34.8119C79.5611 36.8269 81.0257 38.0956 82.8564 38.0956C84.6871 38.0956 86.1516 36.6366 86.1516 34.8119Z" fill="#0E6D4A"/>
<path d="M33.0611 15.8395V19.8529H56.128V15.8395C56.128 14.0153 54.6635 11.8262 52.8328 11.8262H36.3564C34.1595 11.8262 33.0611 14.0153 33.0611 15.8395Z" fill="#0A442D"/>
<path d="M26.8367 19.8529C23.9076 19.8529 23.1753 22.4069 23.1753 25.3693L28.3013 25.3883H66.6465C66.6572 22.0935 65.6477 19.8529 62.3524 19.8529H56.128H33.0611H26.8367Z" fill="#669B7E"/>
<path d="M37.0887 74.5808C37.0887 63.8393 42.2645 54.3023 50.2665 48.3114H34.5257V97.9314H46.873C40.8318 91.979 37.0887 83.7155 37.0887 74.5808Z" fill="#669B7E"/>
<path d="M114.711 73.8511C114.711 83.3652 110.65 91.9343 104.162 97.9314H116.541V48.3114H102.472C109.937 54.3313 114.711 63.5357 114.711 73.8511Z" fill="#669B7E"/>
<path d="M70.0414 107.418C63.0704 107.418 56.605 105.261 51.2806 101.58H34.5257V109.607C34.5257 112.89 33.0611 116.174 30.132 116.174H109.219C112.514 116.174 116.541 112.89 116.541 108.877V101.58H99.4167C94.3125 104.814 88.2548 106.688 81.7579 106.688C79.2288 107.307 72.7624 107.418 70.0414 107.418Z" fill="#0E6D4A"/>
<path d="M104.162 97.9314C102.697 99.2848 101.109 100.507 99.4167 101.58H116.541V97.9314H104.162Z" fill="#0A442D"/>
<path d="M51.2806 101.58C49.7062 100.491 48.2315 99.2699 46.873 97.9314H34.5257V101.58H51.2806Z" fill="#0A442D"/>
<path d="M87.6162 73.8511C92.4694 73.8511 96.4036 69.9307 96.4036 65.0946C96.4036 60.2586 92.4694 56.3382 87.6162 56.3382C82.7631 56.3382 78.8288 60.2586 78.8288 65.0946C78.8288 69.9307 82.7631 73.8511 87.6162 73.8511Z" fill="white"/>
<path d="M101.53 78.2293C101.53 76.9799 101.004 75.8527 100.162 75.055C99.374 74.3089 98.3086 73.8511 97.1359 73.8511C94.7093 73.8511 92.7422 75.8113 92.7422 78.2293C92.7422 79.9145 93.6976 81.3773 95.0981 82.1092C95.7072 82.4275 96.4004 82.6076 97.1359 82.6076C99.5625 82.6076 101.53 80.6474 101.53 78.2293Z" fill="white"/>
<path d="M92.7422 31.5282H107.754C110.317 31.5282 111.415 33.3525 111.415 35.1767C111.415 37.001 110.317 38.8253 107.754 38.8253H92.7422C90.5453 38.8253 89.0808 37.3658 89.0808 35.1767C89.0808 32.9876 90.5453 31.5282 92.7422 31.5282Z" fill="white"/>
<path d="M82.8564 31.5282C84.6875 31.5282 86.1516 32.9872 86.1516 34.8119C86.1516 36.6366 84.6871 38.0956 82.8564 38.0956C81.0257 38.0956 79.5611 36.8269 79.5611 34.8119C79.5611 32.7969 81.0257 31.5282 82.8564 31.5282Z" fill="white"/>
</svg>
