<svg width="128" height="128" viewBox="0 0 128 128" fill="none" xmlns="http://www.w3.org/2000/svg">
<path d="M91.0904 22.0694C88.0028 21.0098 85.0309 20.5313 81.1191 20.3791C58.8268 20.3212 50.289 33.0167 42.0223 61.6313C54.8782 61.2058 66.3177 62.6045 76.7283 66.0776L91.0904 22.0694Z" fill="#B4C432"/>
<path fill-rule="evenodd" clip-rule="evenodd" d="M94.2843 12.374C87.1033 10.4239 83.0028 13.8164 81.1191 20.3791C85.0309 20.5313 88.0028 21.0098 91.0904 22.0694L76.7283 66.0776C79.8781 67.1284 82.9337 68.3691 85.9059 69.8066L99.8696 26.1913C101.949 19.3492 100.269 14.7574 94.2843 12.374ZM86.7043 14.7574C88.5846 13.5657 91.4462 12.6806 91.8906 13.5657C92.3351 14.4508 91.3953 16.0131 89.098 17.5381C86.7043 19.127 84.3106 19.5243 83.9117 18.7298C83.3996 17.7101 85.1585 15.7371 86.7043 14.7574Z" fill="#669B7E"/>
<path d="M95.8778 75.5798L109.55 36.2082C108.321 34.1818 106.824 32.2941 105.056 30.5247L90.2925 72.1055C92.1868 73.177 94.0475 74.3345 95.8778 75.5798Z" fill="#669B7E"/>
<path d="M99.8696 26.1913L85.9059 69.8066C87.3884 70.5237 88.8502 71.2897 90.2925 72.1055L105.056 30.5247C103.529 28.9964 101.8 27.5563 99.8696 26.1913Z" fill="#0A442D"/>
<path d="M106.253 83.8765C114.983 61.9097 116.133 47.0675 109.55 36.2082L95.8778 75.5798C99.4445 78.0068 102.895 80.7675 106.253 83.8765Z" fill="#0A442D"/>
<path fill-rule="evenodd" clip-rule="evenodd" d="M85.9059 69.8066C82.9337 68.3691 79.8781 67.1284 76.7283 66.0776C66.3177 62.6045 54.8782 61.2058 42.0223 61.6313C32.048 62.4323 23.1076 67.5899 21.676 74.3428C18.8126 87.8489 37.0134 103.506 54.387 110.094C79.5271 119.628 112.235 118.833 114.628 101.355C115.178 97.3413 112.781 89.8351 106.253 83.8765C102.895 80.7675 99.4445 78.0068 95.8778 75.5798C94.0475 74.3345 92.1868 73.177 90.2925 72.1055C88.8502 71.2897 87.3884 70.5237 85.9059 69.8066ZM85.9059 110.094C82.9624 110.094 80.2848 108.961 78.2895 107.108C71.5154 106.018 64.5638 104.117 58.7757 102.149C42.4166 96.5881 27.7392 85.4655 30.0515 76.7263C32.3639 67.9871 57.5789 70.5456 70.3452 73.9456C73.6176 74.8171 77.6252 76.2775 81.7519 78.1331C84.2014 79.2346 86.6929 80.4753 89.0974 81.8149C99.4357 87.574 108.168 95.1595 105.056 101.355C103.011 105.426 98.3969 107.349 92.5876 107.886C90.7242 109.273 88.4114 110.094 85.9059 110.094Z" fill="#0E6D4A"/>
<path fill-rule="evenodd" clip-rule="evenodd" d="M81.7519 88.6434C78.1261 90.0905 75.4394 93.3757 74.8545 97.3413C74.776 97.8734 74.7354 98.4177 74.7354 98.9715C74.7354 102.183 76.1027 105.078 78.2895 107.108C71.5154 106.018 64.5638 104.117 58.7757 102.149C42.4166 96.5881 27.7392 85.4655 30.0515 76.7263C32.3639 67.9871 57.5789 70.5456 70.3452 73.9456C73.6176 74.8171 77.6252 76.2775 81.7519 78.1331V88.6434ZM89.0974 88.3095C90.8809 88.838 92.4777 89.798 93.7657 91.068C95.81 93.0838 97.0764 95.8804 97.0764 98.9715C97.0764 102.62 95.3125 105.857 92.5876 107.886C98.3969 107.349 103.011 105.426 105.056 101.355C108.168 95.1595 99.4357 87.574 89.0974 81.8149C86.6929 80.4753 84.2014 79.2346 81.7519 78.1331L89.0974 81.8149V88.3095Z" fill="#0A442D"/>
<path d="M81.7519 88.6434C78.1261 90.0905 75.4394 93.3757 74.8545 97.3413C76.3892 98.8546 78.3624 99.9278 80.5674 100.355C79.9136 99.5402 79.5227 98.5068 79.5227 97.3826C79.5227 94.7499 81.6661 92.6157 84.3101 92.6157C86.9541 92.6157 89.0974 94.7499 89.0974 97.3826C89.0974 97.8363 89.0338 98.2752 88.9148 98.691C91.4814 96.9824 93.2973 94.2434 93.7657 91.068C92.4777 89.798 90.8809 88.838 89.0974 88.3095V81.8149L81.7519 78.1331V88.6434Z" fill="#669B7E"/>
<path d="M78.2895 107.108C80.2848 108.961 82.9624 110.094 85.9059 110.094C88.4114 110.094 90.7242 109.273 92.5876 107.886C95.3125 105.857 97.0764 102.62 97.0764 98.9715C97.0764 95.8804 95.81 93.0838 93.7657 91.068C93.2973 94.2434 91.4814 96.9824 88.9148 98.691C88.3437 100.687 86.4984 102.149 84.3101 102.149C82.7952 102.149 81.4446 101.449 80.5674 100.355C78.3624 99.9278 76.3892 98.8546 74.8545 97.3413C74.776 97.8734 74.7354 98.4177 74.7354 98.9715C74.7354 102.183 76.1027 105.078 78.2895 107.108Z" fill="#0E6D4A"/>
<path d="M79.5227 97.3826C79.5227 98.5068 79.9136 99.5402 80.5674 100.355C81.4446 101.449 82.7952 102.149 84.3101 102.149C86.4984 102.149 88.3437 100.687 88.9148 98.691C89.0338 98.2752 89.0974 97.8363 89.0974 97.3826C89.0974 94.7499 86.9541 92.6157 84.3101 92.6157C81.6661 92.6157 79.5227 94.7499 79.5227 97.3826Z" fill="white"/>
<path d="M86.7043 14.7574C88.5846 13.5657 91.4462 12.6806 91.8906 13.5657C92.3351 14.4508 91.3953 16.0131 89.098 17.5381C86.7043 19.127 84.3106 19.5243 83.9117 18.7298C83.3996 17.7101 85.1585 15.7371 86.7043 14.7574Z" fill="white"/>
<path d="M23.3785 30.7892L24.3767 39.6729L33.4613 40.6489L24.3767 41.625L23.3785 50.5087L22.3804 41.625L13.2958 40.6489L22.3804 39.6729L23.3785 30.7892Z" fill="#0E6D4A"/>
<path d="M32.0941 25.0855L32.5219 28.8928L36.4153 29.3111L32.5219 29.7294L32.0941 33.5367L31.6663 29.7294L27.7729 29.3111L31.6663 28.8928L32.0941 25.0855Z" fill="#0E6D4A"/>
</svg>
