<svg width="128" height="128" viewBox="0 0 128 128" fill="none" xmlns="http://www.w3.org/2000/svg">
<path d="M63.3195 113.075L54.1304 83.1133H33.0297L43.5801 116.174H60.9371C62.2981 116.174 63.9998 115.141 63.3195 113.075Z" fill="#0E6D4A"/>
<path d="M36.0927 113.075C36.7395 115.37 37.5614 115.931 39.4961 116.174H43.5801L33.0297 83.1133H26.9037L36.0927 113.075Z" fill="#669B7E"/>
<path d="M29.6263 26.979V60.0397C29.8343 61.8435 30.392 62.3198 32.0087 62.4504H46.3027C48.2722 62.4492 48.9159 61.8752 49.3658 60.0397V26.979H29.6263Z" fill="#0E6D4A"/>
<path d="M93.2689 20.4357C80.593 31.186 72.7173 33.9053 57.5338 33.8666V53.4964H93.2689V20.4357Z" fill="#669B7E"/>
<path d="M93.2689 53.4964H57.5338V68.6492H93.2689V53.4964Z" fill="#0E6D4A"/>
<path d="M57.5338 71.7487C73.2181 72.5784 81.0192 75.9134 93.2689 86.5571V68.6492H57.5338V71.7487Z" fill="#0A442D"/>
<path d="M93.2689 20.4357V53.4964V68.6492V86.5571V92.4116C93.2689 95.511 95.9913 100.332 101.437 100.332C106.542 100.332 109.945 96.5442 109.945 91.7229V65.5498V46.2644V19.0582C109.945 16.3036 107.563 11.8262 101.437 11.8262C96.3316 11.8261 93.2689 15.9593 93.2689 20.4357Z" fill="#0A442D"/>
<path d="M115.391 48.3307L109.945 46.2644V65.5498L115.391 63.1391V48.3307Z" fill="#B4C432"/>
<path d="M24.181 83.1133H26.9037H33.0297H54.1304C56.1721 83.1133 57.5335 81.7357 57.5338 79.6695V71.7487V68.6492V53.4964V33.8666V30.4228C57.3417 28.5218 56.6755 27.7316 54.1304 26.979H49.3658V60.0397C48.9159 61.8752 48.2722 62.4492 46.3027 62.4504H32.0087C30.392 62.3198 29.8343 61.8435 29.6263 60.0397V26.979H24.181C22.1387 26.979 21.4583 28.7009 21.4583 30.4228V40.4099V65.8942C21.4583 65.8942 21.4591 74.5037 21.4583 79.6695C21.458 81.7357 22.8193 83.1133 24.181 83.1133Z" fill="#B4C432"/>
<path d="M15.6725 64.5166L21.4583 65.8942V40.4099L15.6726 42.1318C13.6303 42.8205 12.6096 43.8537 12.6096 45.92V60.0397C12.6095 62.4504 13.6304 63.8279 15.6725 64.5166Z" fill="#0A442D"/>
</svg>
