<svg width="128" height="128" viewBox="0 0 128 128" fill="none" xmlns="http://www.w3.org/2000/svg">
<path d="M84.0838 105.696H87.5766H92.8158V76.8798C92.8158 73.8236 89.7596 70.6358 85.8302 70.6358C84.7592 71.9101 84.1306 73.6075 84.0838 75.57V105.696Z" fill="#B4C432"/>
<path d="M49.5923 82.9923H54.8315V91.7243H49.5923V82.9923Z" fill="#B4C432"/>
<path d="M62.6903 82.9923V91.7243H57.4511V82.9923H62.6903Z" fill="#B4C432"/>
<path d="M57.4511 94.3439H62.6903V102.203H57.4511V94.3439Z" fill="#B4C432"/>
<path d="M49.5923 94.3439H54.8315V102.203H49.5923V94.3439Z" fill="#B4C432"/>
<path d="M24.706 82.9923H29.9452V91.7243H24.706V82.9923Z" fill="#B4C432"/>
<path d="M37.804 82.9923V91.7243H32.5648V82.9923H37.804Z" fill="#B4C432"/>
<path d="M24.706 94.3439H29.9452V102.203H24.706V94.3439Z" fill="#B4C432"/>
<path d="M32.5648 94.3439H37.804V102.203H32.5648V94.3439Z" fill="#B4C432"/>
<path fill-rule="evenodd" clip-rule="evenodd" d="M21.2131 79.9361H40.8602V105.259H21.2131V79.9361ZM29.9452 82.9923H24.706V91.7243H29.9452V82.9923ZM37.804 91.7243V82.9923H32.5648V91.7243H37.804ZM29.9452 94.3439H24.706V102.203H29.9452V94.3439ZM37.804 94.3439H32.5648V102.203H37.804V94.3439Z" fill="white"/>
<path fill-rule="evenodd" clip-rule="evenodd" d="M65.7465 79.9361H46.0995V105.259H65.7465V79.9361ZM54.8315 82.9923H49.5923V91.7243H54.8315V82.9923ZM62.6903 91.7243V82.9923H57.4511V91.7243H62.6903ZM54.8315 94.3439H49.5923V102.203H54.8315V94.3439ZM62.6903 94.3439H57.4511V102.203H62.6903V94.3439Z" fill="white"/>
<path fill-rule="evenodd" clip-rule="evenodd" d="M15.9739 112.681H71.859V73.387H15.9739V112.681ZM46.0995 79.9361H65.7465V105.259H46.0995V79.9361ZM40.8602 79.9361H21.2131V105.259H40.8602V79.9361Z" fill="#0A442D"/>
<path d="M84.0838 112.681V105.696V75.57C84.1306 73.6075 84.7592 71.9101 85.8302 70.6358C87.1429 69.0741 89.1203 68.1478 91.506 68.1478C96.7453 68.1478 99.8013 71.6406 99.8013 75.1334V105.696H100.675V109.188H103.294V112.681H105.914H112.026V72.9504L91.9426 56.3596L71.859 73.387V112.681H84.0838Z" fill="#0E6D4A"/>
<path d="M15.9739 112.681H11.6079V116.174H71.859V112.681H15.9739Z" fill="#0E6D4A"/>
<path d="M84.0838 116.174V112.681H71.859V116.174H84.0838Z" fill="#669B7E"/>
<path d="M91.0694 112.681V109.188H87.5766V105.696H84.0838V112.681V116.174H93.6891V112.681H91.0694Z" fill="#0A442D"/>
<path d="M105.914 112.681V116.174H116.392V112.681H112.026H105.914Z" fill="#669B7E"/>
<path d="M99.8013 75.1334C99.8013 71.6406 96.7453 68.1478 91.506 68.1478C89.1203 68.1478 87.1429 69.0741 85.8302 70.6358C89.7596 70.6358 92.8158 73.8236 92.8158 76.8798V105.696H99.8013V75.1334Z" fill="#0A442D"/>
<path d="M112.026 72.9504V68.1478L106.787 63.8198L91.9426 51.5569V56.3596L112.026 72.9504Z" fill="#669B7E"/>
<path d="M91.9426 51.5569L71.859 68.1478V73.387L91.9426 56.3596V51.5569Z" fill="white"/>
<path d="M71.859 68.1478H15.9739V73.387H71.859V68.1478Z" fill="#669B7E"/>
<path d="M37.804 62.0354V51.5569H36.0576L15.9739 68.1478H71.859L91.9426 51.5569H78.408H53.9583V57.2328L47.8459 62.0354H37.804Z" fill="#0A442D"/>
<path d="M37.804 45.4445V51.5569V62.0354H47.8459V51.5569V45.4445H45.2262H37.804Z" fill="#0E6D4A"/>
<path d="M47.8459 51.5569V62.0354L53.9583 57.2328V51.5569V45.4445H47.8459V51.5569Z" fill="#B4C432"/>
<path fill-rule="evenodd" clip-rule="evenodd" d="M45.2262 45.4445H47.8459H53.9583V51.5569H78.408V21.4314H45.2262V45.4445ZM49.1557 27.1072H59.6341V41.0785H49.1557V27.1072ZM63.1269 27.1072H73.6054V41.0785H63.1269V27.1072Z" fill="#669B7E"/>
<path fill-rule="evenodd" clip-rule="evenodd" d="M91.9426 51.5569L106.787 63.8198V21.868L92.8158 11.8262L78.408 21.4314V51.5569H91.9426ZM80.591 27.5438H91.0694V41.5151H80.591V27.5438ZM94.1256 27.5438H104.604V41.5151H94.1256V27.5438Z" fill="#0E6D4A"/>
<path d="M92.8158 11.8262H59.1975L45.2262 21.4314H78.408L92.8158 11.8262Z" fill="#0A442D"/>
<path fill-rule="evenodd" clip-rule="evenodd" d="M59.6341 27.1072H49.1557V41.0785H59.6341V27.1072ZM53.9583 28.8536H50.9021V33.2197H53.9583V28.8536ZM57.8877 28.8536H55.2681V33.2197H57.8877V28.8536ZM53.9583 34.9661H50.9021V39.3321H53.9583V34.9661ZM57.8877 34.9661H55.2681V39.3321H57.8877V34.9661Z" fill="white"/>
<path fill-rule="evenodd" clip-rule="evenodd" d="M73.6054 27.1072H63.1269V41.0785H73.6054V27.1072ZM67.9295 28.8536H64.8733V33.2197H67.9295V28.8536ZM71.859 28.8536H69.2393V33.2197H71.859V28.8536ZM67.9295 34.9661H64.8733V39.3321H67.9295V34.9661ZM71.859 34.9661H69.2393V39.3321H71.859V34.9661Z" fill="white"/>
<path d="M50.9021 28.8536H53.9583V33.2197H50.9021V28.8536Z" fill="#B4C432"/>
<path d="M55.2681 28.8536H57.8877V33.2197H55.2681V28.8536Z" fill="#B4C432"/>
<path d="M50.9021 34.9661H53.9583V39.3321H50.9021V34.9661Z" fill="#B4C432"/>
<path d="M55.2681 34.9661H57.8877V39.3321H55.2681V34.9661Z" fill="#B4C432"/>
<path d="M64.8733 28.8536H67.9295V33.2197H64.8733V28.8536Z" fill="#B4C432"/>
<path d="M69.2393 28.8536H71.859V33.2197H69.2393V28.8536Z" fill="#B4C432"/>
<path d="M64.8733 34.9661H67.9295V39.3321H64.8733V34.9661Z" fill="#B4C432"/>
<path d="M69.2393 34.9661H71.859V39.3321H69.2393V34.9661Z" fill="#B4C432"/>
<path d="M82.3374 29.2902H85.3936V33.6563H82.3374V29.2902Z" fill="#B4C432"/>
<path d="M86.7034 29.2902H89.323V33.6563H86.7034V29.2902Z" fill="#B4C432"/>
<path d="M82.3374 35.4027H85.3936V39.7687H82.3374V35.4027Z" fill="#B4C432"/>
<path d="M86.7034 35.4027H89.323V39.7687H86.7034V35.4027Z" fill="#B4C432"/>
<path d="M95.872 29.2902H98.9282V33.6563H95.872V29.2902Z" fill="#B4C432"/>
<path d="M100.238 29.2902H102.858V33.6563H100.238V29.2902Z" fill="#B4C432"/>
<path d="M95.872 35.4027H98.9282V39.7687H95.872V35.4027Z" fill="#B4C432"/>
<path d="M100.238 35.4027H102.858V39.7687H100.238V35.4027Z" fill="#B4C432"/>
<path fill-rule="evenodd" clip-rule="evenodd" d="M91.0694 27.5438H80.591V41.5151H91.0694V27.5438ZM85.3936 29.2902H82.3374V33.6563H85.3936V29.2902ZM89.323 29.2902H86.7034V33.6563H89.323V29.2902ZM85.3936 35.4027H82.3374V39.7687H85.3936V35.4027ZM89.323 35.4027H86.7034V39.7687H89.323V35.4027Z" fill="#669B7E"/>
<path fill-rule="evenodd" clip-rule="evenodd" d="M104.604 27.5438H94.1256V41.5151H104.604V27.5438ZM98.9282 29.2902H95.872V33.6563H98.9282V29.2902ZM102.858 29.2902H100.238V33.6563H102.858V29.2902ZM98.9282 35.4027H95.872V39.7687H98.9282V35.4027ZM102.858 35.4027H100.238V39.7687H102.858V35.4027Z" fill="#669B7E"/>
<path d="M26.1292 28.1369L27.2215 37.9009L37.1636 38.9737L27.2215 40.0465L26.1292 49.8105L25.0368 40.0465L15.0948 38.9737L25.0368 37.9009L26.1292 28.1369Z" fill="#0E6D4A"/>
<path d="M35.6674 21.868L36.1355 26.0526L40.3964 26.5124L36.1355 26.9721L35.6674 31.1567L35.1992 26.9721L30.9384 26.5124L35.1992 26.0526L35.6674 21.868Z" fill="#0E6D4A"/>
</svg>
