<svg xmlns="http://www.w3.org/2000/svg" viewBox="0 0 16 16" fill="none"><path fill-rule="evenodd" clip-rule="evenodd" d="M13.5 13.5H5.5V11H4V13.5H2.5V2.5H10V8.5H13.5V13.5ZM10 12H11.5V10H10V12ZM7 8V10H8.5V8H7ZM7 6V4H8.5V6H7ZM4 4V6H5.5V4H4Z" fill="currentColor" fill-opacity="0.15"/><path d="M4 4V6H5.5V4H4Z" fill="currentColor"/><path d="M7 4V6H8.5V4H7Z" fill="currentColor"/><path d="M7 8V10H8.5V8H7Z" fill="currentColor"/><path d="M11.5 12H10V10H11.5V12Z" fill="currentColor"/><path fill-rule="evenodd" clip-rule="evenodd" d="M11.5 7H15V15H1V1H11.5V7ZM13.5 8.5V13.5H5.5V11H4V13.5H2.5V2.5H10V8.5H13.5Z" fill="currentColor"/></svg>
