<svg xmlns="http://www.w3.org/2000/svg" viewBox="0 0 16 16" fill="none"><path fill-rule="evenodd" clip-rule="evenodd" d="M10.3198 9.01923L7.99981 2.63926L5.67982 9.01923L1.85791 5.83431L3.25167 13.5H12.7479L14.1417 5.83431L10.3198 9.01923ZM7.74981 8.5L6.24981 10.5L7.74981 12.5H8.24981L9.74981 10.5L8.24981 8.5H7.74981Z" fill="currentColor" fill-opacity="0.15"/><path d="M7.75 8.5L6.25 10.5L7.75 12.5H8.25L9.75 10.5L8.25 8.5H7.75Z" fill="currentColor"/><path fill-rule="evenodd" clip-rule="evenodd" d="M2 4L5 6.5L7 1H9L11 6.5L14 4H16L14 15H2L0 4H2ZM8 2.63926L10.32 9.01924L14.1419 5.83432L12.7481 13.5H3.25186L1.8581 5.83432L5.68001 9.01924L8 2.63926Z" fill="currentColor"/></svg>
