<svg xmlns="http://www.w3.org/2000/svg" viewBox="0 0 16 16" fill="none"><path d="M4.33147 0H12.9999V1.5H5.66835L5.17445 5.78044C6.00016 5.28515 6.96699 5 7.99991 5C11.0375 5 13.4999 7.46243 13.4999 10.5C13.4999 13.5376 11.0375 16 7.99991 16C5.57873 16 3.52479 14.436 2.78955 12.2653L4.21027 11.7841C4.7455 13.3643 6.24105 14.5 7.99991 14.5C10.209 14.5 11.9999 12.7091 11.9999 10.5C11.9999 8.29086 10.209 6.5 7.99991 6.5C6.84943 6.5 5.81335 6.98473 5.08265 7.76326L4.86046 8H3.40839L4.33147 0Z" fill="currentColor"/></svg>
