<svg xmlns="http://www.w3.org/2000/svg" viewBox="0 0 16 16" fill="none"><path fill-rule="evenodd" clip-rule="evenodd" d="M9.03338 6H6.96675L6.80762 9.5H9.19243L9.03338 6Z" fill="currentColor" fill-opacity="0.15"/><path d="M9.50011 1.5C9.50011 2.32843 8.82853 3 8.00011 3C7.17168 3 6.50011 2.32843 6.50011 1.5C6.50011 0.671573 7.17168 0 8.00011 0C8.82853 0 9.50011 0.671573 9.50011 1.5Z" fill="currentColor"/><path fill-rule="evenodd" clip-rule="evenodd" d="M5.15516 4.5L1.93066 8.26191L3.06955 9.23809L5.44399 6.46792L5.0106 16H6.51215L6.73948 11H9.26066L9.48788 16H10.9894L10.535 6H11.7501C12.7166 6 13.5001 5.2165 13.5001 4.25V2H12.0001V4.25C12.0001 4.38807 11.8882 4.5 11.7501 4.5H5.15516ZM9.03344 6H6.96681L6.80768 9.5H9.1925L9.03344 6Z" fill="currentColor"/></svg>
