<svg xmlns="http://www.w3.org/2000/svg" viewBox="0 0 16 16" fill="none"><path fill-rule="evenodd" clip-rule="evenodd" d="M12.596 7.28248L10.9998 8.87868V12.8787L9.99977 13.8787L2.12109 6L3.12109 5H7.12109L8.71729 3.40381C9.93627 2.18482 11.5896 1.5 13.3135 1.5H14.4998V2.68629C14.4998 4.4102 13.815 6.0635 12.596 7.28248ZM11.4998 5.5C11.4998 6.05228 11.0521 6.5 10.4998 6.5C9.94749 6.5 9.49977 6.05228 9.49977 5.5C9.49977 4.94772 9.94749 4.5 10.4998 4.5C11.0521 4.5 11.4998 4.94772 11.4998 5.5Z" fill="currentColor" fill-opacity="0.15"/><path d="M11.5 5.5C11.5 6.05228 11.0523 6.5 10.5 6.5C9.94771 6.5 9.5 6.05228 9.5 5.5C9.5 4.94772 9.94771 4.5 10.5 4.5C11.0523 4.5 11.5 4.94772 11.5 5.5Z" fill="currentColor"/><path fill-rule="evenodd" clip-rule="evenodd" d="M12.5 13.5L10 16L0 6L2.5 3.5H6.5L7.65685 2.34315C9.15714 0.842855 11.192 0 13.3137 0H16V2.68629C16 4.80802 15.1571 6.84285 13.6569 8.34314L12.5 9.5V13.5ZM11 8.87868L12.5962 7.28248C13.8152 6.0635 14.5 4.4102 14.5 2.68629V1.5H13.3137C11.5898 1.5 9.9365 2.18482 8.71751 3.40381L7.12132 5H3.12132L2.12132 6L10 13.8787L11 12.8787V8.87868Z" fill="currentColor"/><path d="M4.20221 13.0306L5.3482 14.1766L1 16L0 15L1.82344 10.6518L2.96942 11.7978L2.07907 13.9209L4.20221 13.0306Z" fill="currentColor"/></svg>
