<svg xmlns="http://www.w3.org/2000/svg" viewBox="0 0 16 16" fill="none"><path d="M9.28274 13.7175L8.11118 12.5459C8.08176 12.5165 8.04186 12.5 8.00026 12.5C7.95866 12.5 7.91877 12.5165 7.88936 12.5459L6.71777 13.7175L8.00025 15L9.28274 13.7175Z" fill="currentColor" fill-opacity="0.15"/><path d="M10.343 12.6568L9.17146 11.4853C8.86074 11.1746 8.43931 11 7.99989 11C7.56046 11 7.13904 11.1746 6.82832 11.4853L5.65674 12.6569L6.7174 13.7175L7.88898 12.5459C7.91839 12.5165 7.95829 12.5 7.99989 12.5C8.04149 12.5 8.08139 12.5165 8.1108 12.5459L9.28237 13.7175L10.343 12.6568Z" fill="currentColor"/></svg>
