<svg width="24" height="24" viewBox="0 0 24 24" fill="none" xmlns="http://www.w3.org/2000/svg">
<g clip-path="url(#clip0_338_18988)">
<path d="M24 12C24 5.37308 18.6269 0 12 0C5.37308 0 0 5.37308 0 12C0 17.989 4.38757 22.9537 10.1252 23.8549V15.4696H7.07749V12H10.1252V9.35565C10.1252 6.34847 11.9173 4.68626 14.6579 4.68626C15.9707 4.68626 17.3444 4.92083 17.3444 4.92083V7.874H15.8307C14.3406 7.874 13.8748 8.79876 13.8748 9.74884V12H17.2026L16.6711 15.4696H13.8748V23.8549C19.6124 22.9554 24 17.9907 24 12Z" fill="#272D37"/>
<path d="M16.6717 15.4698L17.2033 12.0003H13.8755V9.7491C13.8755 8.80071 14.3396 7.87426 15.8313 7.87426H17.345V4.92109C17.345 4.92109 15.9714 4.68652 14.6585 4.68652C11.918 4.68652 10.1258 6.34705 10.1258 9.35591V12.0003H7.07812V15.4698H10.1258V23.8551C10.7367 23.9513 11.3628 24.0003 12.0006 24.0003C12.6385 24.0003 13.2646 23.9496 13.8755 23.8551V15.4698H16.6717Z" fill="#FEFEFE"/>
</g>
<defs>
<clipPath id="clip0_338_18988">
<rect width="24" height="24" fill="white"/>
</clipPath>
</defs>
</svg>
