<svg preserveAspectRatio="xMidYMid meet" width="100%" height="100%" overflow="visible" style="display: block;" viewBox="0 0 42 48" fill="none" xmlns="http://www.w3.org/2000/svg">
<g id="Vector 4412">
<path fill-rule="evenodd" clip-rule="evenodd" d="M16.316 45.913H30.0065H32.6321V15.5573H9.00196V17.834V27.1304V42.498H23.8177V43.8261H16.4098H9.00196V45.913H12.0026H16.316ZM14.2531 18.5929H12.0026V29.7866H14.2531V18.5929Z" fill="var(--fill-0, #669B7E)"/>
<path d="M34.5075 45.913H37.1331V15.5573H32.6321V45.913H34.5075Z" fill="#0E6D4A"/>
<path fill-rule="evenodd" clip-rule="evenodd" d="M32.6321 0H9.00196V15.5573H32.6321V0ZM14.2531 7.77866H12.0026V13.0909H14.2531V7.77866Z" fill="#0E6D4A"/>
<path d="M37.1331 0H32.6321V15.5573H37.1331V0Z" fill="#0A442D"/>
<path fill-rule="evenodd" clip-rule="evenodd" d="M9.00196 17.834H2.81311L0 22.9565L2.81311 27.1304H9.00196V17.834ZM3.00065 21.4387L5.81376 19.5415L8.43933 21.4387V23.9051L5.81376 25.6126L3.00065 23.9051V21.4387Z" fill="#0A442D"/>
<path d="M34.5075 48V45.913H32.6321H30.0065V48H34.5075Z" fill="#0A442D"/>
<path d="M16.316 48V45.913H12.0026V48H16.316Z" fill="#0A442D"/>
<path d="M12.0026 18.5929H14.2531V29.7866H12.0026V18.5929Z" fill="#B4C432"/>
<path d="M12.0026 7.77866H14.2531V13.0909H12.0026V7.77866Z" fill="#B4C432"/>
<path d="M23.8177 42.498H9.00196V43.8261H16.4098H23.8177V42.498Z" fill="#B4C432"/>
<path d="M35.8716 19.2301L36.3408 23.473L40.6113 23.9391L36.3408 24.4053L35.8716 28.6482L35.4023 24.4053L31.1318 23.9391L35.4023 23.473L35.8716 19.2301Z" fill="#0A442D"/>
<path d="M39.9687 16.5059L40.1698 18.3243L42 18.5241L40.1698 18.7239L39.9687 20.5423L39.7676 18.7239L37.9373 18.5241L39.7676 18.3243L39.9687 16.5059Z" fill="#0A442D"/>
</g>
</svg>
