<svg preserveAspectRatio="xMidYMid meet" width="100%" height="100%" overflow="visible" style="display: block;" viewBox="0 0 60.3352 48" fill="none" xmlns="http://www.w3.org/2000/svg">
<g id="Vector 4415">
<path d="M35.0262 14.8782C34.5868 14.328 34.324 13.6304 34.324 12.8715C34.324 11.0943 35.7647 9.65363 37.5419 9.65363C39.3191 9.65363 40.7598 11.0943 40.7598 12.8715C40.7598 13.1778 40.717 13.4741 40.637 13.7548C40.2532 15.1025 39.0128 16.0894 37.5419 16.0894C36.5237 16.0894 35.6159 15.6164 35.0262 14.8782Z" fill="var(--fill-0, white)"/>
<path d="M40.2235 31.3743L44.2458 27.352L49.3408 22.257L44.7821 17.6472L36.2142 26.0112L35.6648 26.5475C34.324 27.8883 34.324 29.7654 35.6648 31.1061C37.0724 32.5138 38.6145 32.9832 40.2235 31.3743Z" fill="#669B7E"/>
<path d="M51.2179 20.3799L46.6592 15.8212L44.7821 17.6472L49.3408 22.257L51.2179 20.3799Z" fill="#0E6D4A"/>
<path d="M46.9274 10.1899L46.6592 15.8212L51.2179 20.3799L56.581 20.1117L60.3352 16.3575V11.2626L55.7765 15.8212C52.4705 15.4252 51.5099 14.4022 51.2179 11.2626L55.7765 6.70391H50.6816L47.2687 9.92179L46.9274 10.1899Z" fill="#B4C432"/>
<path d="M42.6369 41.0279H33.2514H32.9832V46.6592L34.324 48H37.5419H41.2961L42.6369 46.6592V41.0279Z" fill="#0A442D"/>
<path d="M1.60894 41.0279V46.3911L2.94972 47.7318H9.92179L11.2626 46.3911V41.0279H1.60894Z" fill="#0A442D"/>
<path d="M30.0335 29.4972V27.8883H14.4804V29.4972H30.0335Z" fill="#B4C432"/>
<path d="M11.2626 41.0279H32.9832V34.8603H11.2626V41.0279Z" fill="#B4C432"/>
<path d="M1.8771 24.657L0 26.8156V30.3017H11.2626L9.11732 24.657H1.8771Z" fill="#669B7E"/>
<path fill-rule="evenodd" clip-rule="evenodd" d="M33.2514 41.0279H42.6369H44.2458V27.352L40.2235 31.3743C38.6145 32.9832 37.0724 32.5138 35.6648 31.1061C34.324 29.7654 34.324 27.8883 35.6648 26.5475L36.2142 26.0112L34.8603 25.743V22.7933L32.9832 21.4525L30.0335 24.1341L26.3682 20.648H16H14.4804H9.92179H5.36313L1.8771 24.657H9.11732L11.2626 30.3017H0V41.0279H1.60894H11.2626V34.8603H32.9832V41.0279H33.2514ZM30.0335 27.8883V29.4972H14.4804V27.8883H30.0335Z" fill="#0E6D4A"/>
<path fill-rule="evenodd" clip-rule="evenodd" d="M46.6592 15.8212L46.9274 10.1899L47.2687 9.92179L45.8547 8.31285L48.8045 5.63128L45.0503 1.60894L42.3687 4.2905L40.4916 2.94972V0H34.8603V2.94972L32.9832 4.02235L30.3017 1.60894L26.5475 5.63128L28.9609 8.04469L28.1564 10.1899H24.4022V11.7989V15.8212H27.8883L29.2291 17.6983L26.3682 20.648L30.0335 24.1341L32.9832 21.4525L34.8603 22.7933V25.743L36.2142 26.0112L44.7821 17.6472L46.6592 15.8212ZM34.324 12.8715C34.324 13.6304 34.5868 14.328 35.0262 14.8782C35.6159 15.6164 36.5237 16.0894 37.5419 16.0894C39.0128 16.0894 40.2532 15.1025 40.637 13.7548C40.717 13.4741 40.7598 13.1778 40.7598 12.8715C40.7598 11.0943 39.3191 9.65363 37.5419 9.65363C35.7647 9.65363 34.324 11.0943 34.324 12.8715Z" fill="#0A442D"/>
<path d="M9.38548 11.7989L5.36313 20.648H9.92179L14 11.7989H9.38548Z" fill="#0A442D"/>
<path fill-rule="evenodd" clip-rule="evenodd" d="M9.92179 20.648L14 11.7989H18L14.4804 20.648H9.92179ZM20 11.7989L16 20.648H26.3682L29.2291 17.6983L27.8883 15.8212H24.4022V11.7989H20Z" fill="#669B7E"/>
<path d="M16 20.648L20 11.7989H18L14.4804 20.648H16Z" fill="#0A442D"/>
</g>
</svg>
