<svg preserveAspectRatio="xMidYMid meet" width="100%" height="100%" overflow="visible" style="display: block;" viewBox="0 0 47.3239 48" fill="none" xmlns="http://www.w3.org/2000/svg">
<g id="Vector">
<path d="M22.0386 5.65017L23.0231 14.4505L31.9839 15.4174L23.0231 16.3843L22.0386 25.1847L21.054 16.3843L12.0932 15.4174L21.054 14.4505L22.0386 5.65017Z" fill="#0A442D"/>
<path d="M30.6354 0L31.0574 3.77157L34.8977 4.18596L31.0574 4.60035L30.6354 8.37191L30.2135 4.60035L26.3731 4.18596L30.2135 3.77157L30.6354 0Z" fill="#0A442D"/>
<path d="M31.6467 33.0346C36.9671 32.4756 40.7267 37.3464 47.3239 48C47.3239 47.4737 44.065 40.9832 42.4356 37.8037L41.5927 34.1857C39.9516 29.3389 38.173 27.957 34.1759 26.7852C28.7782 24.8396 27.0955 24.0912 26.4212 23.6606C25.2413 22.9069 24.1909 23.7441 24.5677 25.3051C25.6412 28.4332 26.8664 28.9 29.2875 29.252L32.3217 30.8966C31.4256 32.2737 30.7898 32.7959 29.4554 33.4079C30.2122 33.2303 30.9163 33.1135 31.6467 33.0346Z" fill="var(--fill-0, #B4C432)"/>
<path d="M0.294271 32.8701L3.83414 39.7772C3.83414 39.7772 7.05626 42.0584 8.46202 41.4218C12.0932 39.7772 22.5449 35.8303 22.5449 35.8303C18.2973 30.2997 15.8818 28.3569 12.7674 24.8118C11.7561 23.6606 9.22763 23.825 10.5767 25.9629L11.419 27.4431L11.2504 27.6075L8.21623 24.6473C6.86771 23.3317 4.17067 23.4961 5.35063 25.4696L8.46202 31.2255L8.21618 31.39L5.0135 28.1009C4.17002 27.2786 1.81076 27.1142 2.99131 29.252L5.9412 35.008L5.68776 35.1725L2.65356 31.8834C1.81076 31.0611 -0.886326 30.7322 0.294271 32.8701Z" fill="#669B7E"/>
<path d="M30.1303 48H47.3239C40.7267 37.3464 36.9671 32.4756 31.6467 33.0346C30.9163 33.1135 30.2122 33.2303 29.4554 33.4079C27.7349 33.8116 25.7416 34.5294 22.5449 35.8303C22.5449 35.8303 12.0932 39.7772 8.46202 41.4218C7.05626 42.0584 3.83414 39.7772 3.83414 39.7772C5.85692 43.7241 9.3962 45.0473 11.9253 45.0398C13.7789 45.0343 20.3523 43.7495 21.7015 43.3953C23.8681 42.8264 26.3864 42.77 26.927 42.9019C28.2749 43.2309 29.7297 44.8441 30.1303 46.3554V48Z" fill="#0A442D"/>
</g>
</svg>
