<svg preserveAspectRatio="xMidYMid meet" width="100%" height="100%" overflow="visible" style="display: block;" viewBox="0 0 48.338 48" fill="none" xmlns="http://www.w3.org/2000/svg">
<g id="Vector">
<path d="M35.3824 39.6894L37.4042 37.6541L41.111 26.4602L43.9753 25.9514L44.6492 23.9161C44.4807 24.4249 43.3013 24.5945 40.9425 23.7465L35.3824 39.6894Z" fill="var(--fill-0, #0A442D)"/>
<path d="M44.6492 23.9161C45.1547 22.3897 38.5837 20.0735 38.0782 21.372C37.7723 22.1578 39.8637 23.3846 40.9425 23.7465C43.3013 24.5945 44.4807 24.4249 44.6492 23.9161Z" fill="#0E6D4A"/>
<path d="M35.3824 39.6894L40.9425 23.7465C39.8637 23.3846 37.7723 22.1578 38.0782 21.372C37.7412 22.2201 37.2358 23.5769 37.2358 23.5769L39.0891 25.6121L35.2139 36.8061L35.3824 39.6894Z" fill="#669B7E"/>
<path d="M45.4916 11.7045C49.5353 11.7045 49.0299 -0.1678 45.4916 0.00179993C43.8068 0.00179993 42.6274 3.5635 42.6274 5.76837C42.6274 8.31354 43.3013 11.7045 45.4916 11.7045Z" fill="#B4C432"/>
<path d="M20.387 11.7045C21.4187 25.4307 21.2861 33.435 20.387 48H25.7786L25.9471 11.5349H30.6647C32.5181 10.3477 30.4963 11.5349 32.5181 10.3477C33.6975 9.65518 37.9097 10.1898 37.9097 11.7045H45.4916C43.3013 11.7045 42.6274 8.31354 42.6274 5.76837C42.6274 3.5635 43.8068 0.00179993 45.4916 0.00179993H37.9097C37.9097 2.03706 30.8332 2.03706 30.8332 0.00179993H19.2076C12.2872 0.0276825 5.3916 2.71548 0 8.65165L1.85336 10.1781C5.43015 6.57759 8.59287 4.41153 14.9954 7.12521C17.5227 8.82126 18.3651 9.83889 20.387 11.7045Z" fill="var(--fill-0, #0A442D)"/>
<path d="M30.6647 48C29.8523 33.8655 29.8861 25.8771 30.6647 11.5349H25.9471L25.7786 48H30.6647Z" fill="#669B7E"/>
<path d="M9.94077 10.1781L10.4078 14.4569L14.6584 14.9271L10.4078 15.3972L9.94077 19.676L9.47374 15.3972L5.22311 14.9271L9.47374 14.4569L9.94077 10.1781Z" fill="var(--fill-0, #0A442D)"/>
<path d="M12.2996 9.4997L12.4997 11.3335L14.3214 11.535L12.4997 11.7364L12.2996 13.5702L12.0994 11.7364L10.2777 11.535L12.0994 11.3335L12.2996 9.4997Z" fill="var(--fill-0, #0A442D)"/>
</g>
</svg>
