<svg preserveAspectRatio="xMidYMid meet" width="100%" height="100%" overflow="visible" style="display: block;" viewBox="0 0 48 48" fill="none" xmlns="http://www.w3.org/2000/svg">
<g id="Vector">
<path d="M23.8338 47.669C26.3172 47.669 27.6407 46.1793 27.6407 45.3517H20.1925C20.1925 46.3448 21.5172 47.669 23.8338 47.669Z" fill="var(--fill-0, #0E6D4A)"/>
<path d="M29.4614 43.6966H24.1655H18.5373C18.2069 43.6966 17.8746 44.0276 17.8752 44.5241C17.8759 45.0207 18.2069 45.3517 18.869 45.3517H20.1925H27.6407H29.1304C29.7931 45.3517 30.1241 45.0207 30.1241 44.5241C30.1241 44.0276 29.7931 43.6966 29.4614 43.6966Z" fill="#0A442D"/>
<path d="M18.5373 41.3793V42.8879V43.6966H24.1655H29.4614V42.9827V41.3793H18.5373Z" fill="#669B7E"/>
<path d="M18.5373 41.3793H29.4614C30.1241 41.3793 30.1241 40.8828 30.1241 40.3862C30.1241 39.8897 29.7931 39.5586 29.4614 39.5586H18.5373C18.2069 39.5586 17.8765 39.8897 17.8759 40.3862C17.8752 40.8828 17.8752 41.3793 18.5373 41.3793Z" fill="#0A442D"/>
<path d="M29.4614 39.5586V37.7379H27.0479H20.9521H18.5373V39.5586H29.4614Z" fill="#669B7E"/>
<path fill-rule="evenodd" clip-rule="evenodd" d="M29.4614 37.7379C30.1241 37.7379 30.1241 37.4069 30.1241 36.7448C30.1241 36.7193 30.1232 36.6947 30.1212 36.6711C30.0735 36.0828 29.4486 36.0828 29.1304 36.0828H26.1517V27.1448H28.1379C29.1304 27.1448 29.4614 26.4828 29.4614 25.4897C29.4614 24.331 28.6345 23.5034 27.4759 23.5034C25.8207 23.5034 25.1586 24.4966 25.1586 25.3241V26.3172H22.5103V24.9931C22.5103 24.1655 22.0138 23.3379 20.5241 23.3379C19.0345 23.3379 18.2069 24.1655 18.2069 25.3241C18.2069 26.4828 18.5373 27.1448 19.3655 27.1448H21.6828V36.0828H18.7028C18.2876 36.0828 17.9879 36.3149 17.901 36.6819C17.8842 36.7532 17.8753 36.8296 17.8752 36.9103C17.8746 37.4069 17.8759 37.7379 18.5373 37.7379H20.9521H27.0479H29.4614ZM22.5103 36.0828H25.1586V27.1448H22.5103V36.0828ZM21.6828 25.3241C21.6828 24.8276 21.1862 24.4966 20.5241 24.4966C19.8621 24.4966 19.2 24.6621 19.2 25.3241C19.2 25.9862 19.3655 26.3172 19.8621 26.3172H21.6828V25.3241ZM27.8069 26.3172C28.3034 26.3172 28.469 26.1517 28.469 25.4897C28.469 24.8276 28.1107 24.6106 27.4759 24.4966C26.8037 24.5677 26.4909 24.709 26.1517 25.3241V26.3172H27.8069Z" fill="#0A442D"/>
<path d="M17.901 36.6819C17.9879 36.3149 18.2876 36.0828 18.7028 36.0828C18.6008 33.8733 18.2244 32.7322 16.7166 30.9517C14.4093 28.5423 13.5718 26.6483 13.5718 23.3379C13.5718 18.0414 18.2069 13.4069 23.6683 13.4069C29.1297 13.4069 34.2621 17.2138 34.2621 23.1724C34.2621 26.9793 33.4962 28.7171 30.9511 30.9517C29.4452 32.6032 29.1491 33.7717 29.1304 36.0828C29.4486 36.0828 30.0735 36.0828 30.1212 36.6711C34.825 34.3946 38.069 29.5761 38.069 24C38.069 16.2299 31.7701 9.93103 24 9.93103C16.2299 9.93103 9.93103 16.2299 9.93103 24C9.93103 29.5849 13.1853 34.4098 17.901 36.6819Z" fill="#0A442D"/>
<path d="M30.7862 19.531C30.7862 20.9936 29.6005 22.1793 28.1379 22.1793C26.6753 22.1793 25.4897 20.9936 25.4897 19.531C25.4897 18.0684 26.6753 16.8828 28.1379 16.8828C29.6005 16.8828 30.7862 18.0684 30.7862 19.531Z" fill="white"/>
<path fill-rule="evenodd" clip-rule="evenodd" d="M18.7028 36.0828H21.6828V27.1448H19.3655C18.5373 27.1448 18.2069 26.4828 18.2069 25.3241C18.2069 24.1655 19.0345 23.3379 20.5241 23.3379C22.0138 23.3379 22.5103 24.1655 22.5103 24.9931V26.3172H25.1586V25.3241C25.1586 24.4966 25.8207 23.5034 27.4759 23.5034C28.6345 23.5034 29.4614 24.331 29.4614 25.4897C29.4614 26.4828 29.1304 27.1448 28.1379 27.1448H26.1517V36.0828H29.1304C29.1491 33.7717 29.4452 32.6032 30.9511 30.9517C33.4962 28.7171 34.2621 26.9793 34.2621 23.1724C34.2621 17.2138 29.1297 13.4069 23.6683 13.4069C18.2069 13.4069 13.5718 18.0414 13.5718 23.3379C13.5718 26.6483 14.4093 28.5423 16.7166 30.9517C18.2244 32.7322 18.6008 33.8733 18.7028 36.0828ZM28.1379 22.1793C29.6005 22.1793 30.7862 20.9936 30.7862 19.531C30.7862 18.0684 29.6005 16.8828 28.1379 16.8828C26.6753 16.8828 25.4897 18.0684 25.4897 19.531C25.4897 20.9936 26.6753 22.1793 28.1379 22.1793Z" fill="#B4C432"/>
<path d="M28.469 25.4897C28.469 26.1517 28.3034 26.3172 27.8069 26.3172H26.1517V25.3241C26.4909 24.709 26.8037 24.5677 27.4759 24.4966C28.1107 24.6106 28.469 24.8276 28.469 25.4897Z" fill="#B4C432"/>
<path d="M20.5241 24.4966C21.1862 24.4966 21.6828 24.8276 21.6828 25.3241V26.3172H19.8621C19.3655 26.3172 19.2 25.9862 19.2 25.3241C19.2 24.6621 19.8621 24.4966 20.5241 24.4966Z" fill="#B4C432"/>
<path d="M25.1586 36.0828H22.5103V27.1448H25.1586V36.0828Z" fill="#B4C432"/>
<path d="M18.5373 42.8879V41.3793C17.8752 41.3793 17.8752 40.8828 17.8759 40.3862C17.8765 39.8897 18.2069 39.5586 18.5373 39.5586V37.7379C17.8759 37.7379 17.8746 37.4069 17.8752 36.9103C17.8753 36.8296 17.8842 36.7532 17.901 36.6819C13.1853 34.4098 9.93103 29.5849 9.93103 24C9.93103 16.2299 16.2299 9.93103 24 9.93103C31.7701 9.93103 38.069 16.2299 38.069 24C38.069 29.5761 34.825 34.3946 30.1212 36.6711C30.1232 36.6947 30.1241 36.7193 30.1241 36.7448C30.1241 37.4069 30.1241 37.7379 29.4614 37.7379V39.5586C29.7931 39.5586 30.1241 39.8897 30.1241 40.3862C30.1241 40.8828 30.1241 41.3793 29.4614 41.3793V42.9827C37.8599 40.665 44.0276 32.97 44.0276 23.8345C44.0276 12.865 35.135 3.97241 24.1655 3.97241C13.196 3.97241 4.30345 12.865 4.30345 23.8345C4.30345 32.8491 10.3089 40.4611 18.5373 42.8879Z" fill="white"/>
<path fill-rule="evenodd" clip-rule="evenodd" d="M48 24C48 37.2548 37.2548 48 24 48C10.7452 48 0 37.2548 0 24C0 10.7452 10.7452 0 24 0C37.2548 0 48 10.7452 48 24ZM29.4614 42.9827V43.6966C29.7931 43.6966 30.1241 44.0276 30.1241 44.5241C30.1241 45.0207 29.7931 45.3517 29.1304 45.3517H27.6407C27.6407 46.1793 26.3172 47.669 23.8338 47.669C21.5172 47.669 20.1925 46.3448 20.1925 45.3517H18.869C18.2069 45.3517 17.8759 45.0207 17.8752 44.5241C17.8746 44.0276 18.2069 43.6966 18.5373 43.6966V42.8879C10.3089 40.4611 4.30345 32.8491 4.30345 23.8345C4.30345 12.865 13.196 3.97241 24.1655 3.97241C35.135 3.97241 44.0276 12.865 44.0276 23.8345C44.0276 32.97 37.8599 40.665 29.4614 42.9827Z" fill="#B4C432"/>
</g>
</svg>
