<svg preserveAspectRatio="xMidYMid meet" width="100%" height="100%" overflow="visible" style="display: block;" viewBox="0 0 48.2008 48" fill="none" xmlns="http://www.w3.org/2000/svg">
<g id="Vector 4400">
<path d="M33.3389 43.1799H34.9456H37.3556V29.9247C37.3556 28.5188 35.9498 27.0524 34.1423 27.0524C33.6496 27.6386 33.3604 28.4194 33.3389 29.3222V43.1799Z" fill="var(--fill-0, #B4C432)"/>
<path d="M17.4728 32.7364H19.8828V36.7531H17.4728V32.7364Z" fill="#B4C432"/>
<path d="M23.4979 32.7364V36.7531H21.0879V32.7364H23.4979Z" fill="#B4C432"/>
<path d="M21.0879 37.9582H23.4979V41.5732H21.0879V37.9582Z" fill="#B4C432"/>
<path d="M17.4728 37.9582H19.8828V41.5732H17.4728V37.9582Z" fill="#B4C432"/>
<path d="M6.0251 32.7364H8.43515V36.7531H6.0251V32.7364Z" fill="#B4C432"/>
<path d="M12.0502 32.7364V36.7531H9.64017V32.7364H12.0502Z" fill="#B4C432"/>
<path d="M6.0251 37.9582H8.43515V41.5732H6.0251V37.9582Z" fill="#B4C432"/>
<path d="M9.64017 37.9582H12.0502V41.5732H9.64017V37.9582Z" fill="#B4C432"/>
<path fill-rule="evenodd" clip-rule="evenodd" d="M4.41841 31.3305H13.4561V42.9791H4.41841V31.3305ZM8.43515 32.7364H6.0251V36.7531H8.43515V32.7364ZM12.0502 36.7531V32.7364H9.64017V36.7531H12.0502ZM8.43515 37.9582H6.0251V41.5732H8.43515V37.9582ZM12.0502 37.9582H9.64017V41.5732H12.0502V37.9582Z" fill="white"/>
<path fill-rule="evenodd" clip-rule="evenodd" d="M24.9038 31.3305H15.8661V42.9791H24.9038V31.3305ZM19.8828 32.7364H17.4728V36.7531H19.8828V32.7364ZM23.4979 36.7531V32.7364H21.0879V36.7531H23.4979ZM19.8828 37.9582H17.4728V41.5732H19.8828V37.9582ZM23.4979 37.9582H21.0879V41.5732H23.4979V37.9582Z" fill="white"/>
<path fill-rule="evenodd" clip-rule="evenodd" d="M2.00837 46.3933H27.7155V28.318H2.00837V46.3933ZM15.8661 31.3305H24.9038V42.9791H15.8661V31.3305ZM13.4561 31.3305H4.41841V42.9791H13.4561V31.3305Z" fill="#0A442D"/>
<path d="M33.3389 46.3933V43.1799V29.3222C33.3604 28.4194 33.6496 27.6386 34.1423 27.0524C34.7461 26.334 35.6557 25.908 36.7531 25.908C39.1632 25.908 40.569 27.5146 40.569 29.1213V43.1799H40.9707V44.7866H42.1757V46.3933H43.3807H46.1924V28.1172L36.954 20.4854L27.7155 28.318V46.3933H33.3389Z" fill="#0E6D4A"/>
<path d="M2.00837 46.3933H0V48H27.7155V46.3933H2.00837Z" fill="#0E6D4A"/>
<path d="M33.3389 48V46.3933H27.7155V48H33.3389Z" fill="#669B7E"/>
<path d="M36.5523 46.3933V44.7866H34.9456V43.1799H33.3389V46.3933V48H37.7573V46.3933H36.5523Z" fill="#0A442D"/>
<path d="M43.3807 46.3933V48H48.2008V46.3933H46.1924H43.3807Z" fill="#669B7E"/>
<path d="M40.569 29.1213C40.569 27.5146 39.1632 25.908 36.7531 25.908C35.6557 25.908 34.7461 26.334 34.1423 27.0524C35.9498 27.0524 37.3556 28.5188 37.3556 29.9247V43.1799H40.569V29.1213Z" fill="#0A442D"/>
<path d="M46.1924 28.1172V25.908L43.7824 23.917L36.954 18.2762V20.4854L46.1924 28.1172Z" fill="#669B7E"/>
<path d="M36.954 18.2762L27.7155 25.908V28.318L36.954 20.4854V18.2762Z" fill="white"/>
<path d="M27.7155 25.908H2.00837V28.318H27.7155V25.908Z" fill="#669B7E"/>
<path d="M12.0502 23.0962V18.2762H11.2469L2.00837 25.908H27.7155L36.954 18.2762H30.728H19.4812V20.887L16.6695 23.0962H12.0502Z" fill="#0A442D"/>
<path d="M12.0502 15.4644V18.2762V23.0962H16.6695V18.2762V15.4644H15.4644H12.0502Z" fill="#0E6D4A"/>
<path d="M16.6695 18.2762V23.0962L19.4812 20.887V18.2762V15.4644H16.6695V18.2762Z" fill="#B4C432"/>
<path fill-rule="evenodd" clip-rule="evenodd" d="M15.4644 15.4644H16.6695H19.4812V18.2762H30.728V4.41841H15.4644V15.4644ZM17.272 7.02929H22.0921V13.4561H17.272V7.02929ZM23.6987 7.02929H28.5188V13.4561H23.6987V7.02929Z" fill="#669B7E"/>
<path fill-rule="evenodd" clip-rule="evenodd" d="M36.954 18.2762L43.7824 23.917V4.61925L37.3556 0L30.728 4.41841V18.2762H36.954ZM31.7322 7.23013H36.5523V13.6569H31.7322V7.23013ZM37.9582 7.23013H42.7782V13.6569H37.9582V7.23013Z" fill="#0E6D4A"/>
<path d="M37.3556 0H21.8912L15.4644 4.41841H30.728L37.3556 0Z" fill="#0A442D"/>
<path fill-rule="evenodd" clip-rule="evenodd" d="M22.0921 7.02929H17.272V13.4561H22.0921V7.02929ZM19.4812 7.83264H18.0753V9.841H19.4812V7.83264ZM21.2887 7.83264H20.0837V9.841H21.2887V7.83264ZM19.4812 10.6444H18.0753V12.6527H19.4812V10.6444ZM21.2887 10.6444H20.0837V12.6527H21.2887V10.6444Z" fill="white"/>
<path fill-rule="evenodd" clip-rule="evenodd" d="M28.5188 7.02929H23.6987V13.4561H28.5188V7.02929ZM25.908 7.83264H24.5021V9.841H25.908V7.83264ZM27.7155 7.83264H26.5105V9.841H27.7155V7.83264ZM25.908 10.6444H24.5021V12.6527H25.908V10.6444ZM27.7155 10.6444H26.5105V12.6527H27.7155V10.6444Z" fill="white"/>
<path d="M18.0753 7.83264H19.4812V9.841H18.0753V7.83264Z" fill="#B4C432"/>
<path d="M20.0837 7.83264H21.2887V9.841H20.0837V7.83264Z" fill="#B4C432"/>
<path d="M18.0753 10.6444H19.4812V12.6527H18.0753V10.6444Z" fill="#B4C432"/>
<path d="M20.0837 10.6444H21.2887V12.6527H20.0837V10.6444Z" fill="#B4C432"/>
<path d="M24.5021 7.83264H25.908V9.841H24.5021V7.83264Z" fill="#B4C432"/>
<path d="M26.5105 7.83264H27.7155V9.841H26.5105V7.83264Z" fill="#B4C432"/>
<path d="M24.5021 10.6444H25.908V12.6527H24.5021V10.6444Z" fill="#B4C432"/>
<path d="M26.5105 10.6444H27.7155V12.6527H26.5105V10.6444Z" fill="#B4C432"/>
<path d="M32.5356 8.03347H33.9414V10.0418H32.5356V8.03347Z" fill="#B4C432"/>
<path d="M34.5439 8.03347H35.749V10.0418H34.5439V8.03347Z" fill="#B4C432"/>
<path d="M32.5356 10.8452H33.9414V12.8536H32.5356V10.8452Z" fill="#B4C432"/>
<path d="M34.5439 10.8452H35.749V12.8536H34.5439V10.8452Z" fill="#B4C432"/>
<path d="M38.7615 8.03347H40.1673V10.0418H38.7615V8.03347Z" fill="#B4C432"/>
<path d="M40.7698 8.03347H41.9748V10.0418H40.7698V8.03347Z" fill="#B4C432"/>
<path d="M38.7615 10.8452H40.1673V12.8536H38.7615V10.8452Z" fill="#B4C432"/>
<path d="M40.7698 10.8452H41.9748V12.8536H40.7698V10.8452Z" fill="#B4C432"/>
<path fill-rule="evenodd" clip-rule="evenodd" d="M36.5523 7.23013H31.7322V13.6569H36.5523V7.23013ZM33.9414 8.03347H32.5356V10.0418H33.9414V8.03347ZM35.749 8.03347H34.5439V10.0418H35.749V8.03347ZM33.9414 10.8452H32.5356V12.8536H33.9414V10.8452ZM35.749 10.8452H34.5439V12.8536H35.749V10.8452Z" fill="#669B7E"/>
<path fill-rule="evenodd" clip-rule="evenodd" d="M42.7782 7.23013H37.9582V13.6569H42.7782V7.23013ZM40.1673 8.03347H38.7615V10.0418H40.1673V8.03347ZM41.9748 8.03347H40.7698V10.0418H41.9748V8.03347ZM40.1673 10.8452H38.7615V12.8536H40.1673V10.8452ZM41.9748 10.8452H40.7698V12.8536H41.9748V10.8452Z" fill="#669B7E"/>
<path d="M6.67978 7.50294L7.18226 11.9944L11.7556 12.4879L7.18226 12.9814L6.67978 17.4728L6.1773 12.9814L1.60395 12.4879L6.1773 11.9944L6.67978 7.50294Z" fill="#0E6D4A"/>
<path d="M11.0674 4.61925L11.2827 6.54415L13.2427 6.75565L11.2827 6.96714L11.0674 8.89204L10.852 6.96714L8.89201 6.75565L10.852 6.54415L11.0674 4.61925Z" fill="#0E6D4A"/>
</g>
</svg>
