<svg preserveAspectRatio="xMidYMid meet" width="100%" height="100%" overflow="visible" style="display: block;" viewBox="0 0 48.338 48" fill="none" xmlns="http://www.w3.org/2000/svg">
<g id="Vector">
<path d="M16.0659 48C22.9361 48 30.7889 42.7755 30.7889 32.8163C26.3715 32.3266 22.8046 34.0323 20.6464 36.5714L19.992 36.4082C20.3286 32.4352 18.3556 28.5715 15.7387 26.1224C11.9611 29.4397 11.6943 31.8693 11.2691 35.742C11.2339 36.0626 11.1976 36.393 11.1582 36.7347L10.831 36.8979C8.30997 34.986 6.34844 33.7563 4.25698 33.1324C2.95512 32.7441 1.60293 32.5904 0.0341018 32.653C0.203077 35.1004 0.710831 37.3079 1.53759 39.2359C3.90977 44.768 8.90818 48 16.0659 48Z" fill="var(--fill-0, #0A442D)"/>
<path fill-rule="evenodd" clip-rule="evenodd" d="M48.293 48C48.9787 36.2908 41.7774 25.7735 30.495 22.7479L31.7705 24.8163H24.8997V32H22.1187V24.8163H15.7387L16.9315 22.8819C16.6394 22.9724 16.3509 23.0686 16.0659 23.1704C13.5467 24.0703 11.3057 25.4042 9.3587 27.0589C8.79589 27.5372 8.25765 28.0423 7.74435 28.5715C7.63973 28.6793 7.53615 28.7882 7.4336 28.898C6.22968 30.1874 5.16905 31.6114 4.25698 33.1324C6.34844 33.7563 8.30997 34.986 10.831 36.8979L11.1582 36.7347C11.1976 36.393 11.2339 36.0626 11.2691 35.742C11.6943 31.8693 11.9611 29.4397 15.7387 26.1224C18.3556 28.5715 20.3286 32.4352 19.992 36.4082L20.6464 36.5714C22.8046 34.0323 26.3715 32.3266 30.7889 32.8163C30.7889 42.7755 22.9361 48 16.0659 48H48.293ZM41.7706 35.922L41.0945 34.6123L40.4184 35.922L39.0124 35.473L39.4622 36.8763L38.1499 37.5511L39.4622 38.2258L39.0124 39.6291L40.4184 39.1801L41.0945 40.4898L41.7706 39.1801L43.1767 39.6291L42.7268 38.2258L44.0391 37.5511L42.7268 36.8763L43.1767 35.473L41.7706 35.922ZM35.5542 31.6771L34.8781 30.3674L34.202 31.6771L32.796 31.2281L33.2458 32.6314L31.9335 33.3061L33.2458 33.9809L32.796 35.3842L34.202 34.9352L34.8781 36.2449L35.5542 34.9352L36.9603 35.3842L36.5104 33.9809L37.8227 33.3061L36.5104 32.6314L36.9603 31.2281L35.5542 31.6771ZM34.8999 41.1465L34.2238 39.8368L33.5476 41.1465L32.1416 40.6975L32.5915 42.1008L31.2791 42.7755L32.5915 43.4503L32.1416 44.8536L33.5476 44.4046L34.2238 45.7143L34.8999 44.4046L36.3059 44.8536L35.856 43.4503L37.1684 42.7755L35.856 42.1008L36.3059 40.6975L34.8999 41.1465Z" fill="#0E6D4A"/>
<path d="M0.197691 48H16.0659C8.90818 48 3.90977 44.768 1.53759 39.2359C0.652413 42.0765 0.197691 45.0557 0.197691 48Z" fill="#0E6D4A"/>
<path d="M34.8781 30.3674L35.5542 31.6771L36.9603 31.2281L36.5104 32.6314L37.8227 33.3061L36.5104 33.9809L36.9603 35.3842L35.5542 34.9352L34.8781 36.2449L34.202 34.9352L32.796 35.3842L33.2458 33.9809L31.9335 33.3061L33.2458 32.6314L32.796 31.2281L34.202 31.6771L34.8781 30.3674Z" fill="#B4C432"/>
<path d="M41.0945 34.6123L41.7706 35.922L43.1767 35.473L42.7268 36.8763L44.0391 37.5511L42.7268 38.2258L43.1767 39.6291L41.7706 39.1801L41.0945 40.4898L40.4184 39.1801L39.0124 39.6291L39.4622 38.2258L38.1499 37.5511L39.4622 36.8763L39.0124 35.473L40.4184 35.922L41.0945 34.6123Z" fill="#B4C432"/>
<path d="M34.2238 39.8368L34.8999 41.1465L36.3059 40.6975L35.856 42.1008L37.1684 42.7755L35.856 43.4503L36.3059 44.8536L34.8999 44.4046L34.2238 45.7143L33.5476 44.4046L32.1416 44.8536L32.5915 43.4503L31.2791 42.7755L32.5915 42.1008L32.1416 40.6975L33.5476 41.1465L34.2238 39.8368Z" fill="#B4C432"/>
<path d="M2.48794 15.0204C-2.09256 18.7755 -0.293716 27.9184 7.4336 28.898C7.53615 28.7882 7.63973 28.6793 7.74435 28.5715L7.72281 10.1225H9.3587V27.0589C11.3057 25.4042 13.5467 24.0703 16.0659 23.1704C17.5376 19.5919 16.313 16.8262 14.1028 15.0204V14.3674C15.4115 12.5714 14.7572 8.9796 12.1397 7.51021V6.69388C13.612 4.40817 11.3218 1.46939 8.37717 1.46939C5.43255 1.46939 3.1423 4.40817 4.61461 6.69388V7.51021C1.99718 8.9796 1.67 12.5714 2.48794 14.3674V15.0204Z" fill="#0A442D"/>
<path d="M9.3587 10.1225H7.72281L7.74435 28.5715C8.25765 28.0423 8.79589 27.5372 9.3587 27.0589V10.1225Z" fill="#669B7E"/>
<path d="M16.9315 22.8819L15.7387 24.8163H22.1187H24.8997H31.7705L30.495 22.7479L26.5356 16.3265H31.7705L26.8628 8.4898H30.1346L23.7546 0L17.211 8.4898H20.4828L15.7387 16.3265H20.9736L16.9315 22.8819Z" fill="#669B7E"/>
<path d="M38.0664 7.2547L38.7059 12.9597L44.5265 13.5865L38.7059 14.2134L38.0664 19.9184L37.4269 14.2134L31.6063 13.5865L37.4269 12.9597L38.0664 7.2547Z" fill="#0A442D"/>
<path d="M43.6506 3.59184L43.9247 6.03685L46.4192 6.30549L43.9247 6.57412L43.6506 9.01913L43.3765 6.57412L40.882 6.30549L43.3765 6.03685L43.6506 3.59184Z" fill="#0A442D"/>
<path d="M24.8997 24.8163H22.1187V32H24.8997V24.8163Z" fill="var(--fill-0, #0A442D)"/>
</g>
</svg>
