<svg preserveAspectRatio="xMidYMid meet" width="100%" height="100%" overflow="visible" style="display: block;" viewBox="0 0 43.5856 48" fill="none" xmlns="http://www.w3.org/2000/svg">
<g id="Vector">
<path d="M22.3223 18.681L21.025 19.9783L25.4358 24.6486L26.7331 23.3513L22.3223 18.681Z" fill="white"/>
<path fill-rule="evenodd" clip-rule="evenodd" d="M29.0682 26.2053C29.0682 20.4735 24.4217 15.827 18.6899 15.827C12.9581 15.827 8.3115 20.4735 8.3115 26.2053C8.3115 26.4663 8.32114 26.725 8.34007 26.9812C12.0125 26.6331 14.027 26.9893 16.8736 29.0596C20.4258 31.6429 26.4223 31.6539 29.0349 27.0433C29.057 26.7669 29.0682 26.4874 29.0682 26.2053ZM21.025 19.9783L22.3223 18.681L26.7331 23.3513L25.4358 24.6486L21.025 19.9783Z" fill="#669B7E"/>
<path d="M40.7753 31.3946L41.0535 33.8814L43.5856 34.1547L41.0535 34.4278L40.7753 36.9146L40.497 34.4278L37.9649 34.1547L40.497 33.8814L40.7753 31.3946Z" fill="#B4C432"/>
<path d="M35.2231 46.962L35.6876 42.8107L35.7562 42.1975L37.8898 41.9673L41.6644 41.56L37.8898 41.1527L35.7562 40.9225L35.107 35.1201L34.4578 40.9225L28.5496 41.56L34.4578 42.1975L34.5264 42.8107L34.9909 46.962L35.107 48L35.2231 46.962Z" fill="#B4C432"/>
<path d="M34.9909 46.962L34.5264 42.8107H0.00882476V44.8864C-0.0845151 46.5209 0.559581 46.8006 2.08449 46.962H34.9909Z" fill="#669B7E"/>
<path d="M35.6876 42.8107L35.2231 46.962H35.8141C37.2346 46.7604 37.7768 46.3936 37.8898 44.8864V42.8107H35.6876Z" fill="#669B7E"/>
<path fill-rule="evenodd" clip-rule="evenodd" d="M35.7562 40.9225L37.8898 41.1527V8.8216H13.5007H0.00882476V42.8107H34.5264L34.4578 42.1975L28.5496 41.56L34.4578 40.9225L35.107 35.1201L35.7562 40.9225ZM4.67908 26.4648C4.67908 34.346 11.0681 40.735 18.9493 40.735C27.5118 40.735 33.2195 33.7298 33.2195 26.4648C33.2195 18.5836 26.8305 12.1946 18.9493 12.1946C11.0681 12.1946 4.67908 18.5836 4.67908 26.4648Z" fill="#0E6D4A"/>
<path fill-rule="evenodd" clip-rule="evenodd" d="M18.9493 40.735C11.0681 40.735 4.67908 34.346 4.67908 26.4648C4.67908 18.5836 11.0681 12.1946 18.9493 12.1946C26.8305 12.1946 33.2195 18.5836 33.2195 26.4648C33.2195 33.7298 27.5118 40.735 18.9493 40.735ZM18.6899 15.827C24.4217 15.827 29.0682 20.4735 29.0682 26.2053C29.0682 26.4874 29.057 26.7669 29.0349 27.0433C29.0682 32.4325 24.1607 36.5837 18.6899 36.5837C13.219 36.5837 8.73688 32.3506 8.34007 26.9812C8.32114 26.725 8.3115 26.4663 8.3115 26.2053C8.3115 20.4735 12.9581 15.827 18.6899 15.827Z" fill="#B4C432"/>
<path d="M16.8736 29.0596C14.027 26.9893 12.0125 26.6331 8.34007 26.9812C8.73688 32.3506 13.219 36.5837 18.6899 36.5837C24.1607 36.5837 29.0682 32.4325 29.0349 27.0433C26.4223 31.6539 20.4258 31.6429 16.8736 29.0596Z" fill="var(--fill-0, #0E6D4A)"/>
<path d="M33.7385 4.4108C33.7385 5.84375 32.3445 7.00539 30.625 7.00539C28.9054 7.00539 27.5115 5.84375 27.5115 4.4108C27.5115 2.97785 28.9054 1.81621 30.625 1.81621C32.3445 1.81621 33.7385 2.97785 33.7385 4.4108Z" fill="var(--fill-0, #0E6D4A)"/>
<path d="M22.0628 3.63242H25.4358V5.18918H22.0628V3.63242Z" fill="#B4C432"/>
<path d="M16.6142 3.63242H20.2466V5.18918H16.6142V3.63242Z" fill="#B4C432"/>
<path fill-rule="evenodd" clip-rule="evenodd" d="M37.8898 1.81621C37.8898 0.519044 37.1117 -4.0596e-05 35.8141 2.38124e-09H13.5007V8.8216H37.8898V1.81621ZM30.625 7.00539C32.3445 7.00539 33.7385 5.84375 33.7385 4.4108C33.7385 2.97785 32.3445 1.81621 30.625 1.81621C28.9054 1.81621 27.5115 2.97785 27.5115 4.4108C27.5115 5.84375 28.9054 7.00539 30.625 7.00539ZM20.2466 3.63242H16.6142V5.18918H20.2466V3.63242ZM25.4358 3.63242H22.0628V5.18918H25.4358V3.63242Z" fill="#669B7E"/>
<path fill-rule="evenodd" clip-rule="evenodd" d="M2.08449 2.38124e-09C0.268586 2.38124e-09 0.00912703 0.778544 0.00882476 1.81621V8.8216H13.5007V2.38124e-09H2.08449ZM6.75475 7.5243C8.4743 7.5243 9.86826 6.13034 9.86826 4.4108C9.86826 2.69126 8.4743 1.29729 6.75475 1.29729C5.03521 1.29729 3.64125 2.69126 3.64125 4.4108C3.64125 6.13034 5.03521 7.5243 6.75475 7.5243Z" fill="#0A442D"/>
<path d="M9.86826 4.4108C9.86826 6.13034 8.4743 7.5243 6.75475 7.5243C5.03521 7.5243 3.64125 6.13034 3.64125 4.4108C3.64125 2.69126 5.03521 1.29729 6.75475 1.29729C8.4743 1.29729 9.86826 2.69126 9.86826 4.4108Z" fill="#B4C432"/>
<path d="M35.7562 42.1975L35.6876 42.8107H37.8898V41.9673L35.7562 42.1975Z" fill="var(--fill-0, #0E6D4A)"/>
</g>
</svg>
