<svg preserveAspectRatio="xMidYMid meet" width="100%" height="100%" overflow="visible" style="display: block;" viewBox="0 0 55.0643 48" fill="none" xmlns="http://www.w3.org/2000/svg">
<g id="Vector">
<path d="M13.9967 18.9027L14.4499 22.9534L18.5745 23.3985L14.4499 23.8436L13.9967 27.8943L13.5435 23.8436L9.41887 23.3985L13.5435 22.9534L13.9967 18.9027Z" fill="#0E6D4A"/>
<path d="M17.9538 16.3019L18.148 18.0379L19.9157 18.2287L18.148 18.4194L17.9538 20.1555L17.7596 18.4194L15.9919 18.2287L17.7596 18.0379L17.9538 16.3019Z" fill="#0E6D4A"/>
<path d="M27.9465 21.9487L27.6228 21.917L27.7132 41.4792C25.5396 41.4792 24.453 43.1094 24.453 44.7396C24.453 46.3698 25.9017 48 27.7132 48C29.5247 48 30.9738 46.3698 30.9738 44.7396V24.9962C30.9738 23.4791 29.405 22.1727 27.9465 21.9487Z" fill="var(--fill-0, #669B7E)"/>
<path d="M27.7132 41.4792L27.6228 21.917L27.1951 21.9603C25.5331 22.2455 24.453 23.8259 24.453 24.9962V44.7396C24.453 43.1094 25.5396 41.4792 27.7132 41.4792Z" fill="#B4C432"/>
<path d="M17.3889 6.70189H48.7247C48.7247 6.46088 48.7109 6.21888 48.684 5.97736C48.3478 2.95152 45.9745 9.88514e-06 43.2907 0H11.4115C9.23768 0 6.52094 2.71698 6.52094 5.25283V6.70189H13.0417V12.8604V15.5774C13.0417 15.9396 13.4035 16.3019 13.766 16.3019C14.1285 16.3019 14.4907 15.9396 14.4907 15.5774V12.8604V6.70189H15.9398V12.8604V13.2226C15.9396 13.5849 16.3016 13.9472 16.6641 13.9472C17.0261 13.9472 17.3886 13.5849 17.3889 13.2226V12.8604V6.70189Z" fill="var(--fill-0, #669B7E)"/>
<path d="M48.7247 6.70189H17.3889V12.8604H43.2907C45.8133 12.8604 48.3361 10.5181 48.684 7.42839C48.6845 7.42439 48.6849 7.42039 48.6854 7.41639C48.7113 7.18227 48.7247 6.94387 48.7247 6.70189Z" fill="#0E6D4A"/>
<path d="M13.0417 6.70189H6.52094V8.15094C6.52094 10.3245 9.59994 12.8604 11.4115 12.8604H13.0417V6.70189Z" fill="#0E6D4A"/>
<path d="M6.52094 6.70189V5.25283V3.44151H3.26056V4.89057V8.15094V9.6H6.52094V8.15094V6.70189Z" fill="#0A442D"/>
<path d="M3.26056 4.89057H1.44924C0.724471 4.89057 -0.0132579 5.61509 0.000180871 6.52075C0.0136197 7.42641 0.724369 8.15094 1.44924 8.15094H3.26056V4.89057Z" fill="#B4C432"/>
<path d="M48.684 5.97736C48.7109 6.21888 48.7247 6.46088 48.7247 6.70189C48.7247 6.94387 48.7113 7.18227 48.6854 7.41639C48.6849 7.42039 48.6845 7.42439 48.684 7.42839C51.851 7.43658 53.4341 10.3245 53.4341 12.8604C53.4341 16.3019 51.6226 18.6566 47.6379 18.6566L29.1624 18.4755C27.6228 18.4116 26.9889 19.2 26.9889 20.6491V21.9812L27.1951 21.9603C27.3337 21.9365 27.4764 21.9218 27.6228 21.917C27.7296 21.9213 27.8377 21.932 27.9465 21.9487L28.2568 21.979V20.6491C28.2568 20.2868 28.5884 20.1317 29.1624 20.1057H48.7247C52.3472 20.1057 55.0643 16.8453 55.0643 13.0415C55.0643 7.78868 51.2604 5.97736 48.684 5.97736Z" fill="#0A442D"/>
<path d="M14.4907 6.70189V12.8604H15.9398V6.70189H14.4907Z" fill="#0E6D4A"/>
</g>
</svg>
