<svg preserveAspectRatio="xMidYMid meet" width="100%" height="100%" overflow="visible" style="display: block;" viewBox="0 0 48.338 48" fill="none" xmlns="http://www.w3.org/2000/svg">
<g id="Vector 4398">
<path fill-rule="evenodd" clip-rule="evenodd" d="M40.0469 21.2607C38.1238 19.325 35.4555 18.1259 32.5061 18.1259C26.6459 18.1259 21.8953 22.8598 21.8953 28.6993C21.8953 29.1269 21.9208 29.5486 21.9703 29.963C23.8056 33.1207 27.2332 35.2448 31.1587 35.2448C33.9945 35.2448 36.5705 34.1362 38.4741 32.3302C37.8299 31.9935 37.3904 31.3206 37.3904 30.5455C37.3904 29.4332 38.2953 28.5315 39.4115 28.5315C39.9509 28.5315 40.441 28.7421 40.8035 29.0853C41.3099 27.9883 41.6334 26.7901 41.735 25.5295C41.7578 25.2465 41.7694 24.9602 41.7694 24.6713C41.7694 24.2437 41.744 23.822 41.6944 23.4077C41.2381 22.6225 40.6833 21.9013 40.0469 21.2607ZM39.0746 24.5035C39.0746 26.7281 37.2649 28.5315 35.0324 28.5315C32.8 28.5315 30.9902 26.7281 30.9902 24.5035C30.9902 22.2789 32.8 20.4755 35.0324 20.4755C37.2649 20.4755 39.0746 22.2789 39.0746 24.5035Z" fill="var(--fill-0, #B4C432)"/>
<path d="M43.1168 28.6993C43.1168 26.7714 42.599 24.964 41.6944 23.4077C41.744 23.822 41.7694 24.2437 41.7694 24.6713C41.7694 24.9602 41.7578 25.2465 41.735 25.5295C41.6334 26.7901 41.3099 27.9883 40.8035 29.0853C41.191 29.4522 41.4326 29.9707 41.4326 30.5455C41.4326 31.6577 40.5277 32.5594 39.4115 32.5594C39.0732 32.5594 38.7543 32.4766 38.4741 32.3302C36.5705 34.1362 33.9945 35.2448 31.1587 35.2448C27.2332 35.2448 23.8056 33.1207 21.9703 29.963C22.597 35.2068 27.075 39.2727 32.5061 39.2727C35.6876 39.2727 38.5421 37.8774 40.4869 35.6673C42.1243 33.8067 43.1168 31.3685 43.1168 28.6993Z" fill="#0A442D"/>
<path fill-rule="evenodd" clip-rule="evenodd" d="M17.1794 28.5315C17.1794 32.908 19.0472 36.8497 22.0319 39.6084C22.7055 40.231 23.4359 40.7933 24.2146 41.2867C26.0953 42.4785 30.0157 43.3691 32.3376 43.6364C35.3262 43.6364 38.1127 42.7745 40.4606 41.2867C41.2393 40.7933 41.9698 40.231 42.6434 39.6084C45.628 36.8497 47.4959 32.908 47.4959 28.5315C47.4959 23.7864 45.3002 19.5524 41.866 16.7832C41.0696 16.141 40.2066 15.5776 39.2889 15.1049C37.2067 14.0323 34.8432 13.4266 32.3376 13.4266C31.086 13.4266 29.8697 13.5777 28.7063 13.8628C27.5409 14.1483 26.4284 14.5681 25.3864 15.1049C24.4687 15.5776 23.6057 16.141 22.8093 16.7832C19.3751 19.5524 17.1794 23.7864 17.1794 28.5315ZM32.5061 18.1259C35.4555 18.1259 38.1238 19.325 40.0469 21.2607C40.6833 21.9013 41.2381 22.6225 41.6944 23.4077C42.599 24.964 43.1168 26.7714 43.1168 28.6993C43.1168 31.3685 42.1243 33.8067 40.4869 35.6673C38.5421 37.8774 35.6876 39.2727 32.5061 39.2727C27.075 39.2727 22.597 35.2068 21.9703 29.963C21.9208 29.5486 21.8953 29.1269 21.8953 28.6993C21.8953 22.8598 26.6459 18.1259 32.5061 18.1259Z" fill="#0E6D4A"/>
<path d="M22.0319 39.6084C19.0472 36.8497 17.1794 32.908 17.1794 28.5315C17.1794 23.7864 19.3751 19.5524 22.8093 16.7832C23.6057 16.141 24.4687 15.5776 25.3864 15.1049C26.4284 14.5681 27.5409 14.1483 28.7063 13.8628C29.8697 13.5777 31.086 13.4266 32.3376 13.4266C30.1067 13.4266 24.7585 12.9231 20.6914 15.1049C19.6806 15.5619 18.7292 16.1262 17.8516 16.7832C14.1707 19.539 11.7898 23.926 11.7898 28.8671C11.7898 33.0691 13.5116 36.8703 16.2906 39.6084C16.9155 40.2241 17.5938 40.7861 18.3181 41.2867C20.7673 42.9798 23.7414 43.972 26.948 43.972C28.1997 43.972 31.1742 43.9214 32.3376 43.6364C30.0157 43.3691 26.0953 42.4785 24.2146 41.2867C23.4359 40.7933 22.7055 40.231 22.0319 39.6084Z" fill="#0A442D"/>
<path d="M0 6.20979V48H8.58968C9.93709 48 10.6108 46.4895 10.6108 44.979V41.2867V39.6084V16.7832V15.1049V8.8951C10.6108 7.55245 9.26339 6.24423 7.74756 6.2386L5.38961 6.22983L0 6.20979Z" fill="#0A442D"/>
<path d="M17.8516 16.7832C18.7292 16.1262 19.6806 15.5619 20.6914 15.1049H10.6108V16.7832H17.8516Z" fill="#0A442D"/>
<path d="M39.2889 15.1049C40.2066 15.5776 41.0696 16.141 41.866 16.7832H48.338V15.1049H39.2889Z" fill="#0A442D"/>
<path fill-rule="evenodd" clip-rule="evenodd" d="M20.6914 15.1049C24.7585 12.9231 30.1067 13.4266 32.3376 13.4266C34.8432 13.4266 37.2067 14.0323 39.2889 15.1049H48.338V10.0699C48.338 8.05594 47.1591 6.37762 45.138 6.37762L25.3864 6.2386H7.74756C9.26339 6.24423 10.6108 7.55245 10.6108 8.8951V15.1049H20.6914ZM44.2958 9.06294H37.3904C36.3798 9.06294 35.7061 9.73427 35.7061 10.7413C35.7061 11.7483 36.3798 12.4196 37.3904 12.4196H44.2958C45.4748 12.4196 45.9801 11.5804 45.9801 10.7413C45.9801 9.9021 45.4748 9.06294 44.2958 9.06294ZM34.3587 10.5734C34.3587 9.73407 33.6852 9.06294 32.8429 9.06294C32.0008 9.06294 31.3271 9.64651 31.3271 10.5734C31.3271 11.5003 32.0008 12.0839 32.8429 12.0839C33.685 12.0839 34.3587 11.4128 34.3587 10.5734Z" fill="#0E6D4A"/>
<path d="M9.93709 1.84615V3.69231H20.5479V1.84615C20.5479 1.00699 19.8742 0 19.032 0H11.4529C10.4424 0 9.93709 1.00699 9.93709 1.84615Z" fill="#0A442D"/>
<path d="M7.07386 3.69231C5.72646 3.69231 5.38961 4.86713 5.38961 6.22983L7.74756 6.2386H25.3864C25.3913 4.72296 24.9269 3.69231 23.4111 3.69231H20.5479H9.93709H7.07386Z" fill="#669B7E"/>
<path d="M11.7898 28.8671C11.7898 23.926 14.1707 19.539 17.8516 16.7832H10.6108V39.6084H16.2906C13.5116 36.8703 11.7898 33.0691 11.7898 28.8671Z" fill="#669B7E"/>
<path d="M47.4959 28.5315C47.4959 32.908 45.628 36.8497 42.6434 39.6084H48.338V16.7832H41.866C45.3002 19.5524 47.4959 23.7864 47.4959 28.5315Z" fill="#669B7E"/>
<path d="M26.948 43.972C23.7414 43.972 20.7673 42.9798 18.3181 41.2867H10.6108V44.979C10.6108 46.4895 9.93709 48 8.58968 48H44.9695C46.4854 48 48.338 46.4895 48.338 44.6434V41.2867H40.4606C38.1127 42.7745 35.3262 43.6364 32.3376 43.6364C31.1742 43.9214 28.1997 43.972 26.948 43.972Z" fill="#0E6D4A"/>
<path d="M42.6434 39.6084C41.9698 40.231 41.2393 40.7933 40.4606 41.2867H48.338V39.6084H42.6434Z" fill="#0A442D"/>
<path d="M18.3181 41.2867C17.5938 40.7861 16.9155 40.2241 16.2906 39.6084H10.6108V41.2867H18.3181Z" fill="#0A442D"/>
<path d="M35.0324 28.5315C37.2649 28.5315 39.0746 26.7281 39.0746 24.5035C39.0746 22.2789 37.2649 20.4755 35.0324 20.4755C32.8 20.4755 30.9902 22.2789 30.9902 24.5035C30.9902 26.7281 32.8 28.5315 35.0324 28.5315Z" fill="white"/>
<path d="M41.4326 30.5455C41.4326 29.9707 41.191 29.4522 40.8035 29.0853C40.441 28.7421 39.9509 28.5315 39.4115 28.5315C38.2953 28.5315 37.3904 29.4332 37.3904 30.5455C37.3904 31.3206 37.8299 31.9935 38.4741 32.3302C38.7543 32.4766 39.0732 32.5594 39.4115 32.5594C40.5277 32.5594 41.4326 31.6577 41.4326 30.5455Z" fill="white"/>
<path d="M37.3904 9.06294H44.2958C45.4748 9.06294 45.9801 9.9021 45.9801 10.7413C45.9801 11.5804 45.4748 12.4196 44.2958 12.4196H37.3904C36.3798 12.4196 35.7061 11.7483 35.7061 10.7413C35.7061 9.73427 36.3798 9.06294 37.3904 9.06294Z" fill="white"/>
<path d="M32.8429 9.06294C33.6852 9.06294 34.3587 9.73407 34.3587 10.5734C34.3587 11.4128 33.685 12.0839 32.8429 12.0839C32.0008 12.0839 31.3271 11.5003 31.3271 10.5734C31.3271 9.64651 32.0008 9.06294 32.8429 9.06294Z" fill="white"/>
</g>
</svg>
