<svg preserveAspectRatio="xMidYMid meet" width="100%" height="100%" overflow="visible" style="display: block;" viewBox="0 0 47.662 47.9999" fill="none" xmlns="http://www.w3.org/2000/svg">
<g id="Vector 4394">
<path d="M32.6197 30.4225V43.4365H47.662V30.4225H40.5634H38.0282H35.831H32.6197Z" fill="#B4C432"/>
<path d="M46.1408 47.9999C46.8169 47.9999 47.662 46.9859 47.662 46.1408V43.4365H32.6197V46.1408C32.6197 47.1549 33.4648 47.9999 34.1408 47.9999H46.1408Z" fill="#0E6D4A"/>
<path d="M34.1408 47.9999C33.4648 47.9999 32.6197 47.1549 32.6197 46.1408V43.4365H0C0 45.2958 1.52113 47.9999 3.38028 47.9999H34.1408Z" fill="#0A442D"/>
<path d="M32.6197 43.4365V30.4225H29.7465H20.9577H13.5211H11.1549H9.12676H0V43.4365H32.6197Z" fill="#669B7E"/>
<path d="M38.0282 24.1689H35.831V30.4225H38.0282V24.1689Z" fill="#669B7E"/>
<path d="M35.831 23.4929H38.0282V20.1126H35.831V23.4929Z" fill="#669B7E"/>
<path d="M39.5493 21.8027V22.8168H40.5634H45.2958V21.8027H40.5634H39.5493Z" fill="#669B7E"/>
<path d="M46.4789 22.8168V21.8027H45.2958V22.8168H46.4789Z" fill="#0A442D"/>
<path d="M40.5634 30.4225V22.8168H39.5493V21.8027H40.5634V19.7746H38.0282V20.1126V23.4929H35.831V24.1689H38.0282V30.4225H40.5634Z" fill="#0A442D"/>
<path d="M29.7465 30.4225V28.5633H27.7183V5.91542C27.7183 3.31292 24.507 0 20.7887 0C17.0704 0 14.1972 3.48142 14.1972 5.91542V11.6619H16.3944V6.25345C16.3944 4.39437 18.1524 2.19718 20.7887 2.19718C23.4251 2.19718 25.6901 4.39437 25.6901 6.25345V28.5633H23.3239H20.9577V30.4225H29.7465Z" fill="#0A442D"/>
<path d="M16.3944 6.25345V11.6619H18.4225V6.59156C18.4225 5.46776 19.5359 4.58078 20.7887 4.56339C21.9853 4.54679 23.3239 5.51827 23.3239 6.59156V28.5633H25.6901V6.25345C25.6901 4.39437 23.4251 2.19718 20.7887 2.19718C18.1524 2.19718 16.3944 4.39437 16.3944 6.25345Z" fill="#669B7E"/>
<path d="M9.12676 23.8309H11.1549V20.1126H8.78873V22.1408H4.05634V23.1549H9.12676V23.8309Z" fill="#669B7E"/>
<path d="M11.1549 24.507H9.12676V30.4225H11.1549V24.507Z" fill="#669B7E"/>
<path d="M13.5211 30.4225V19.7746H11.1549V20.1126V23.8309H9.12676V24.507H11.1549V30.4225H13.5211Z" fill="#0A442D"/>
<path d="M3.04225 22.1408V23.1549H4.05634V22.1408H3.04225Z" fill="#0A442D"/>
<path d="M16.7324 16.3731C17.1058 16.3731 17.4085 16.6757 17.4085 17.0491C17.4085 17.4225 17.1058 17.7252 16.7324 17.7252C16.359 17.7252 16.0563 17.4225 16.0563 17.0491C16.0563 16.6757 16.359 16.3731 16.7324 16.3731Z" fill="var(--fill-0, white)"/>
<path fill-rule="evenodd" clip-rule="evenodd" d="M16.2254 13.3521C16.2254 13.3521 17.9155 15.3803 17.9155 17.0704C17.9155 17.9157 17.0706 18.5915 16.2254 18.5915C15.3801 18.5915 14.5352 17.9157 14.5352 17.0704C14.5352 15.2113 16.2254 13.3521 16.2254 13.3521ZM17.4085 17.0491C17.4085 16.6757 17.1058 16.3731 16.7324 16.3731C16.359 16.3731 16.0563 16.6757 16.0563 17.0491C16.0563 17.4225 16.359 17.7252 16.7324 17.7252C17.1058 17.7252 17.4085 17.4225 17.4085 17.0491Z" fill="#669B7E"/>
<path d="M33.2958 20.1127L33.7643 24.3766L38.0282 24.8451L33.7643 25.3136L33.2958 29.5775L32.8273 25.3136L28.5634 24.8451L32.8273 24.3766L33.2958 20.1127Z" fill="#0A442D"/>
<path d="M35.662 19.4366L35.8628 21.264L37.6901 21.4648L35.8628 21.6656L35.662 23.493L35.4612 21.6656L33.6338 21.4648L35.4612 21.264L35.662 19.4366Z" fill="#0A442D"/>
</g>
</svg>
