<svg preserveAspectRatio="xMidYMid meet" width="100%" height="100%" overflow="visible" style="display: block;" viewBox="0 0 46.3099 48" fill="none" xmlns="http://www.w3.org/2000/svg">
<g id="Vector 4396">
<path d="M0.5089 45.3333H29.1769L46.3099 27.2H36.4958L29.1769 35.0222H10.1547L0.5089 45.3333Z" fill="var(--fill-0, #0A442D)"/>
<path d="M29.1769 45.3333V48L46.3099 29.6889V27.2L29.1769 45.3333Z" fill="#669B7E"/>
<path d="M29.1769 48V45.3333H0.5089V48H29.1769Z" fill="#B4C432"/>
<path d="M46.3099 16.7111V13.8667L41.3905 19.1754L40.9348 19.6671L34.6052 26.4977L34.216 26.9176L33.9544 27.2L29.1769 32.3556V35.0222L36.4958 27.2L46.3099 16.7111Z" fill="#B4C432"/>
<path d="M0.5089 20.9778C3.40771 21.0142 7.1964 21.055 11.0554 21.0859C19.7673 21.1557 28.8376 21.1749 28.8376 20.9778V19.6671V19.1754V18.3111H19.6775H18.6597H13.6522H10.3476H9.16019H0V20.9778H0.5089Z" fill="#B4C432"/>
<path d="M42.7945 3.68411L33.0785 13.8667L32.5696 14.4L28.8376 18.3111V19.1754V19.6671V20.9778L30.0973 19.6671L30.5699 19.1754L35.672 13.8667L46.3099 2.79813V0L43.4261 3.02222L42.7945 3.68411Z" fill="var(--fill-0, #0A442D)"/>
<path d="M27.6502 8.88889L36.1319 0H27.3109C25.1013 2.38592 22.0141 5.71918 19.0782 8.88889H27.6502Z" fill="#669B7E"/>
<path d="M10.3476 18.3111H13.6522H18.6597L22.9005 13.8667L27.0443 9.52385H18.49C14.2214 14.1322 10.4262 18.2288 10.3476 18.3111Z" fill="#669B7E"/>
<path d="M33.0785 13.8667L42.7945 3.68411H33.4647L23.7486 13.8667L23.2397 14.4H32.5696L33.0785 13.8667Z" fill="#669B7E"/>
<path d="M34.0963 3.02222H43.4261L46.3099 0H36.98L34.0963 3.02222Z" fill="#669B7E"/>
<path d="M19.6775 18.3111H28.8376L31.891 15.1111H22.7308L19.6775 18.3111Z" fill="#669B7E"/>
<path d="M22.8461 3.68411H13.9569L3.73193 14.4H12.8197L22.8461 3.68411Z" fill="#669B7E"/>
<path d="M12.1543 15.1111H3.0534L0 18.3111H9.16019L12.1543 15.1111Z" fill="#669B7E"/>
<path d="M23.4654 3.02222L26.2931 0H17.4722L14.5885 3.02222H23.4654Z" fill="#669B7E"/>
<path d="M22.9005 13.8667L18.6597 18.3111H19.6775L22.7308 15.1111H31.891L32.5696 14.4H23.2397L23.7486 13.8667L33.4647 3.68411H42.7945L43.4261 3.02222H34.0963L36.98 0H36.1319L27.6502 8.88889H19.0782C22.0141 5.71918 25.1013 2.38592 27.3109 0H26.2931L23.4654 3.02222H14.5885L13.9569 3.68411H22.8461L12.8197 14.4H3.73193L3.0534 15.1111H12.1543L9.16019 18.3111H10.3476C10.4262 18.2288 14.2214 14.1322 18.49 9.52385H27.0443L22.9005 13.8667Z" fill="#B6E3BD"/>
<path d="M33.9544 27.2L34.216 26.9176H5.5979L0.5089 32.3556H12.6493H29.1769L33.9544 27.2Z" fill="#0E6D4A"/>
<path d="M34.6052 26.4977L40.9348 19.6671H30.0973L28.8376 20.9778C28.8376 21.1749 19.7673 21.1557 11.0554 21.0859L5.99091 26.4977H34.6052Z" fill="#0E6D4A"/>
<path d="M41.3905 19.1754L46.3099 13.8667H35.672L30.5699 19.1754H41.3905Z" fill="#0E6D4A"/>
<path fill-rule="evenodd" clip-rule="evenodd" d="M12.6493 32.3556H0.5089V35.0222H10.1547H29.1769V32.3556H12.6493Z" fill="var(--fill-0, #0A442D)"/>
<path d="M34.216 26.9176L34.6052 26.4977H5.99091L5.5979 26.9176H34.216Z" fill="#0A442D"/>
<path d="M40.9348 19.6671L41.3905 19.1754H30.5699L30.0973 19.6671H40.9348Z" fill="#0A442D"/>
</g>
</svg>
