<svg xmlns="http://www.w3.org/2000/svg" viewBox="0 0 16 16" fill="none"><path fill-rule="evenodd" clip-rule="evenodd" d="M13 8.5C13 11.2614 10.7614 13.5 8 13.5C5.23858 13.5 3 11.2614 3 8.5C3 5.73857 5.23858 3.5 8 3.5C10.7614 3.5 13 5.73857 13 8.5ZM7.25 9.31066V5H8.75V8.68933L10.5303 10.4697L9.46967 11.5303L7.25 9.31066Z" fill="currentColor" fill-opacity="0.15"/><path d="M1.13048 4.1303L4.13048 1.1303L3.06982 0.0696411L0.0698242 3.06964L1.13048 4.1303Z" fill="currentColor"/><path d="M7.25018 5H8.75018V8.68933L10.5305 10.4697L9.46985 11.5303L7.25018 9.31066V5Z" fill="currentColor"/><path fill-rule="evenodd" clip-rule="evenodd" d="M13.3104 12.2495C14.0598 11.1901 14.5002 9.89645 14.5002 8.5C14.5002 4.91014 11.59 2 8.00018 2C4.41033 2 1.50018 4.91014 1.50018 8.5C1.50018 9.89645 1.94055 11.1901 2.69 12.2495L0.469849 14.4697L1.53051 15.5303L3.69282 13.368C4.83964 14.3835 6.34791 15 8.00018 15C9.65244 15 11.1607 14.3835 12.3075 13.368L14.4698 15.5303L15.5305 14.4697L13.3104 12.2495ZM8.00018 13.5C10.7616 13.5 13.0002 11.2614 13.0002 8.5C13.0002 5.73857 10.7616 3.5 8.00018 3.5C5.23875 3.5 3.00018 5.73857 3.00018 8.5C3.00018 11.2614 5.23875 13.5 8.00018 13.5Z" fill="currentColor"/><path d="M11.8699 1.1303L14.8699 4.1303L15.9305 3.06964L12.9305 0.0696411L11.8699 1.1303Z" fill="currentColor"/></svg>
