<svg xmlns="http://www.w3.org/2000/svg" viewBox="0 0 16 16" fill="none"><path fill-rule="evenodd" clip-rule="evenodd" d="M6.62109 12.5H14.4998V3.5H6.62109L2.12109 8L6.62109 12.5ZM7.21944 6.28033L8.93911 8L7.21944 9.71967L8.2801 10.7803L9.99977 9.06066L11.7194 10.7803L12.7801 9.71967L11.0604 8L12.7801 6.28033L11.7194 5.21967L9.99977 6.93934L8.2801 5.21967L7.21944 6.28033Z" fill="currentColor" fill-opacity="0.15"/><path d="M7.21967 6.28033L8.93934 8L7.21967 9.71967L8.28033 10.7803L10 9.06066L11.7197 10.7803L12.7803 9.71967L11.0607 8L12.7803 6.28033L11.7197 5.21967L10 6.93934L8.28033 5.21967L7.21967 6.28033Z" fill="currentColor"/><path fill-rule="evenodd" clip-rule="evenodd" d="M6 14L0 8L6 2H16V14H6ZM6.62132 12.5H14.5V3.5H6.62132L2.12132 8L6.62132 12.5Z" fill="currentColor"/></svg>
