<svg xmlns="http://www.w3.org/2000/svg" viewBox="0 0 16 16" fill="none"><path fill-rule="evenodd" clip-rule="evenodd" d="M13.5 2.5H2.5V13.5H13.5V2.5ZM8 9.25C8.69036 9.25 9.25 8.69036 9.25 8C9.25 7.30964 8.69036 6.75 8 6.75C7.30964 6.75 6.75 7.30964 6.75 8C6.75 8.69036 7.30964 9.25 8 9.25Z" fill="currentColor" fill-opacity="0.15"/><path d="M8 9.25C8.69036 9.25 9.25 8.69036 9.25 8C9.25 7.30964 8.69036 6.75 8 6.75C7.30964 6.75 6.75 7.30964 6.75 8C6.75 8.69036 7.30964 9.25 8 9.25Z" fill="currentColor"/><path fill-rule="evenodd" clip-rule="evenodd" d="M1 1H15V15H1V1ZM2.5 2.5H13.5V13.5H2.5V2.5Z" fill="currentColor"/></svg>
