<svg xmlns="http://www.w3.org/2000/svg" viewBox="0 0 16 16" fill="none"><path fill-rule="evenodd" clip-rule="evenodd" d="M12.5417 12.9485L13.4533 11.5412C13.5145 11.4468 13.5737 11.3502 13.6307 11.2514C15.4256 8.14249 14.3604 4.16715 11.2515 2.37223C8.14261 0.5773 4.16728 1.64249 2.37235 4.75139C1.1102 6.9375 1.26064 9.55417 2.54834 11.5419L3.46004 12.9492L1.50154 13.9284V14.5014H14.5015V13.9284L12.5417 12.9485ZM5.1731 10.8298C4.00582 9.6625 3.71079 7.95329 4.28801 6.51206L5.60894 7.2747C5.35036 8.1288 5.55863 9.09399 6.23376 9.76912C6.72206 10.2574 7.36056 10.5014 8.00152 10.5014C9.10609 10.5014 10.0015 11.3968 10.0015 12.5014V13.0014H8.50152V12.5014C8.50152 12.2252 8.27766 12.0014 8.00152 12.0014C6.97899 12.0014 5.954 11.6107 5.1731 10.8298ZM10.4764 9.56205C10.8669 9.95257 11.5001 9.95257 11.8906 9.56205C12.2812 9.17152 12.2812 8.53836 11.8906 8.14784C11.5001 7.75731 10.8669 7.75731 10.4764 8.14784C10.0859 8.53836 10.0859 9.17152 10.4764 9.56205ZM6.9409 5.5265C7.33143 5.91702 7.96459 5.91702 8.35511 5.5265C8.74564 5.13597 8.74564 4.50281 8.35511 4.11228C7.96459 3.72176 7.33143 3.72176 6.9409 4.11228C6.55038 4.50281 6.55038 5.13597 6.9409 5.5265Z" fill="currentColor" fill-opacity="0.15"/><path d="M6.94072 5.52644C7.33124 5.91697 7.96441 5.91697 8.35493 5.52644C8.74546 5.13592 8.74546 4.50275 8.35493 4.11223C7.96441 3.7217 7.33124 3.7217 6.94072 4.11223C6.5502 4.50275 6.5502 5.13592 6.94072 5.52644Z" fill="currentColor"/><path d="M11.8905 9.56199C11.4999 9.95252 10.8668 9.95252 10.4762 9.56199C10.0857 9.17147 10.0857 8.53831 10.4762 8.14778C10.8668 7.75726 11.4999 7.75726 11.8905 8.14778C12.281 8.53831 12.281 9.17147 11.8905 9.56199Z" fill="currentColor"/><path d="M5.17292 10.8297C4.00564 9.66245 3.71061 7.95323 4.28783 6.512L5.60876 7.27465C5.35018 8.12874 5.55845 9.09394 6.23358 9.76906C6.72188 10.2574 7.36037 10.5013 8.00134 10.5013C9.10591 10.5013 10.0013 11.3967 10.0013 12.5013V13.0013H8.50134V12.5013C8.50134 12.2252 8.27748 12.0013 8.00134 12.0013C6.97881 12.0013 5.95382 11.6106 5.17292 10.8297Z" fill="currentColor"/><path fill-rule="evenodd" clip-rule="evenodd" d="M16.0014 13.0013L14.7121 12.3567C14.7872 12.2408 14.8597 12.1223 14.9295 12.0013C15.1131 11.6834 15.2724 11.3581 15.4079 11.0275C16.9034 7.3804 15.5097 3.0987 12.0013 1.07313C8.17499 -1.13601 3.28227 0.174995 1.07313 4.00134C-0.212743 6.22854 -0.305972 8.81704 0.59529 11.0273C0.783736 11.4895 1.01566 11.9351 1.28925 12.3574L0.00135532 13.0013V16.0013H7.84713C7.94506 16.0031 8.04291 16.0031 8.14064 16.0013H16.0014V13.0013ZM13.4532 11.5411L12.5415 12.9484L14.5014 13.9284V14.5013H8.12687L8.1131 14.5016C8.0337 14.503 7.95422 14.503 7.87468 14.5016L7.86091 14.5013H1.50136V13.9284L3.45986 12.9491L2.54816 11.5418C1.26046 9.55412 1.11002 6.93744 2.37217 4.75134C4.1671 1.64243 8.14243 0.577245 11.2513 2.37217C14.3602 4.1671 15.4254 8.14243 13.6305 11.2513C13.5735 11.3501 13.5143 11.4467 13.4532 11.5411Z" fill="currentColor"/></svg>
