<svg xmlns="http://www.w3.org/2000/svg" viewBox="0 0 16 16" fill="none"><path fill-rule="evenodd" clip-rule="evenodd" d="M10.5 7.5C12.1569 7.5 13.5 6.15685 13.5 4.5C13.5 2.84315 12.1569 1.5 10.5 1.5C8.84315 1.5 7.5 2.84315 7.5 4.5C7.5 6.15685 8.84315 7.5 10.5 7.5Z" fill="currentColor" fill-opacity="0.15"/><path fill-rule="evenodd" clip-rule="evenodd" d="M10.5001 9C12.9854 9 15.0001 6.98528 15.0001 4.5C15.0001 2.01472 12.9854 0 10.5001 0C8.01483 0 6.00011 2.01472 6.00011 4.5C6.00011 5.47187 6.30821 6.37179 6.83205 7.1074L0.689453 13.25L3.43978 16.0003L4.50044 14.9397L2.81077 13.25L4.75012 11.3107L6.43978 13.0003L7.50044 11.9397L5.81078 10.25L7.89271 8.16806C8.62833 8.69191 9.52824 9 10.5001 9ZM10.5001 7.5C12.157 7.5 13.5001 6.15685 13.5001 4.5C13.5001 2.84315 12.157 1.5 10.5001 1.5C8.84326 1.5 7.50011 2.84315 7.50011 4.5C7.50011 6.15685 8.84326 7.5 10.5001 7.5Z" fill="currentColor"/></svg>
