<svg xmlns="http://www.w3.org/2000/svg" viewBox="0 0 16 16" fill="none"><path fill-rule="evenodd" clip-rule="evenodd" d="M13.0001 12L11.4999 7.60666L9.99978 12H13.0001Z" fill="currentColor" fill-opacity="0.15"/><path d="M7.13445 4C6.85527 5.49101 6.08588 6.80932 4.99996 7.78124C3.91405 6.80932 3.14466 5.49101 2.86548 4H7.13445Z" fill="currentColor" fill-opacity="0.15"/><path fill-rule="evenodd" clip-rule="evenodd" d="M4.25 0H5.75V2.5H10V4H8.65592C8.37948 5.81874 7.50921 7.4424 6.24907 8.667C7.15032 9.16322 8.17713 9.45952 9.26976 9.49615L10.4636 6H12.5364L15.951 16H14.366L13.5123 13.5H9.48763L8.63397 16H7.04893L8.76721 10.9679C7.38556 10.8463 6.10166 10.3841 5 9.6658C3.70583 10.5096 2.16018 11 0.5 11H0V9.5H0.5C1.6786 9.5 2.78664 9.19793 3.75094 8.667C2.97537 7.91331 2.34748 7.00846 1.91482 6H3.58249C3.95219 6.67171 4.43294 7.2737 5 7.78124C6.08591 6.80932 6.8553 5.49101 7.13449 4H0V2.5H4.25V0ZM13.0001 12L11.5 7.60666L9.99982 12H13.0001Z" fill="currentColor"/></svg>
