<svg xmlns="http://www.w3.org/2000/svg" viewBox="0 0 16 16" fill="none"><path fill-rule="evenodd" clip-rule="evenodd" d="M9.50002 3.12134L12.8787 6.50002H9.50002V3.12134Z" fill="currentColor" fill-opacity="0.15"/><path fill-rule="evenodd" clip-rule="evenodd" d="M3.12134 9.50002L6.50002 12.8787V9.50002H3.12134Z" fill="currentColor" fill-opacity="0.15"/><path fill-rule="evenodd" clip-rule="evenodd" d="M12.7804 4.28033L15.2501 6.75L14.0001 8H8.00006V2L9.25006 0.75L11.7197 3.21967L14.4697 0.469666L15.5304 1.53033L12.7804 4.28033ZM9.50006 3.12132L12.8787 6.5H9.50006V3.12132Z" fill="currentColor"/><path fill-rule="evenodd" clip-rule="evenodd" d="M8.00006 8V14L6.75006 15.25L4.28039 12.7803L1.53039 15.5303L0.469727 14.4697L3.21973 11.7197L0.750061 9.25L2.00006 8H8.00006ZM3.12138 9.5L6.50006 12.8787V9.5H3.12138Z" fill="currentColor"/></svg>
