<svg xmlns="http://www.w3.org/2000/svg" viewBox="0 0 16 16" fill="none"><path fill-rule="evenodd" clip-rule="evenodd" d="M12.4999 10.9494V6.3787L13.8786 5.00002L10.9999 2.12134L9.62125 3.50002H5.05057L1.73608 12.6149L2.03026 12.909L6.05074 8.88855C6.0176 8.76463 5.99993 8.63439 5.99993 8.50002C5.99993 7.67159 6.6715 7.00002 7.49993 7.00002C8.32836 7.00002 8.99993 7.67159 8.99993 8.50002C8.99993 9.32844 8.32836 10 7.49993 10C7.36556 10 7.23532 9.98235 7.1114 9.94921L3.09092 13.9697L3.38509 14.2639L12.4999 10.9494Z" fill="currentColor" fill-opacity="0.15"/><path fill-rule="evenodd" clip-rule="evenodd" d="M14 7L16 5L11 0L9 2H4L0 13L3 16L14 12V7ZM12.5 10.9494V6.37868L13.8787 5L11 2.12132L9.62132 3.5H5.05064L1.73616 12.6148L2.03033 12.909L6.05081 8.88853C6.01767 8.76461 6 8.63437 6 8.5C6 7.67157 6.67157 7 7.5 7C8.32843 7 9 7.67157 9 8.5C9 9.32843 8.32843 10 7.5 10C7.36563 10 7.23539 9.98233 7.11147 9.94919L3.09099 13.9697L3.38517 14.2638L12.5 10.9494Z" fill="currentColor"/></svg>
