<svg xmlns="http://www.w3.org/2000/svg" viewBox="0 0 16 16" fill="none"><path d="M9.99991 1.5C9.99991 2.32843 9.32834 3 8.49991 3C7.67148 3 6.99991 2.32843 6.99991 1.5C6.99991 0.671573 7.67148 0 8.49991 0C9.32834 0 9.99991 0.671573 9.99991 1.5Z" fill="currentColor"/><path d="M4.51809 4C3.72525 4 3.03146 4.53302 2.82718 5.29909L2.10693 8H3.65935L4.27653 5.68558C4.30571 5.57615 4.40482 5.5 4.51809 5.5H6.29331L3.71436 16H5.25894L6.71514 10.0712L9.19691 11.3121C9.30172 11.3645 9.35607 11.4826 9.32765 11.5963L8.22673 16H9.77289L10.7829 11.9601C10.9818 11.1644 10.6014 10.3373 9.86773 9.97044L7.082 8.57757L7.76124 5.81207L9.79471 6.7506C10.2313 6.9521 10.7315 6.96508 11.178 6.7865L13.2784 5.94636L12.7213 4.55364L10.6209 5.39379C10.5571 5.4193 10.4857 5.41744 10.4233 5.38866L7.41454 4H4.51809Z" fill="currentColor"/></svg>
