<svg xmlns="http://www.w3.org/2000/svg" viewBox="0 0 16 16" fill="none"><path fill-rule="evenodd" clip-rule="evenodd" d="M5.61441 7.24995C5.72554 6.89615 5.91321 6.57625 6.15801 6.30965L4.12188 2.78296C2.71864 3.82779 1.75244 5.42408 1.54272 7.24995H5.61441ZM7.45673 10.4408L5.42025 13.9681C6.21051 14.3102 7.08238 14.5 7.99993 14.5C8.91749 14.5 9.78938 14.3102 10.5796 13.9681L8.54316 10.4408C8.36827 10.4796 8.18649 10.5 7.99993 10.5C7.81339 10.5 7.63162 10.4796 7.45673 10.4408ZM10.3855 7.24995H14.4571C14.2474 5.42409 13.2812 3.8278 11.878 2.78297L9.84188 6.30966C10.0867 6.57626 10.2743 6.89616 10.3855 7.24995Z" fill="currentColor" fill-opacity="0.15"/><path fill-rule="evenodd" clip-rule="evenodd" d="M4.64856 0.695068L7.45685 5.55917C7.63172 5.52043 7.81347 5.5 8 5.5C8.18653 5.5 8.3683 5.52043 8.54317 5.55917L11.3515 0.695078L12.0012 1.07104C14.3901 2.45324 16 5.03814 16 7.99992V8.74992H10.3856C10.2745 9.10376 10.0868 9.42369 9.84198 9.69032L12.6498 14.5536L12.0012 14.9288C10.8236 15.6102 9.45618 15.9999 8 15.9999C6.54383 15.9999 5.17641 15.6102 3.99881 14.9288L3.35025 14.5536L6.15804 9.69034C5.91322 9.42371 5.72555 9.10377 5.61443 8.74992H0V7.99992C0 5.03813 1.60991 2.45323 3.99879 1.07103L4.64856 0.695068ZM5.61447 7.24992C5.72561 6.89613 5.91328 6.57622 6.15808 6.30962L4.12194 2.78293C2.7187 3.82776 1.75251 5.42405 1.54279 7.24992H5.61447ZM7.4568 10.4408L5.42032 13.9681C6.21057 14.3102 7.08245 14.4999 8 14.4999C8.91756 14.4999 9.78944 14.3102 10.5797 13.9681L8.54322 10.4408C8.36833 10.4796 8.18655 10.5 8 10.5C7.81346 10.5 7.63168 10.4796 7.4568 10.4408ZM10.3855 7.24992H14.4572C14.2475 5.42406 13.2813 3.82777 11.8781 2.78295L9.84194 6.30964C10.0867 6.57624 10.2744 6.89613 10.3855 7.24992ZM9 8C9 8.55228 8.55228 9 8 9C7.44772 9 7 8.55228 7 8C7 7.44772 7.44772 7 8 7C8.55228 7 9 7.44772 9 8Z" fill="currentColor"/></svg>
