<svg xmlns="http://www.w3.org/2000/svg" viewBox="0 0 16 16" fill="none"><path fill-rule="evenodd" clip-rule="evenodd" d="M9.8787 2.5L6.12134 2.5L8.00002 4.37868L9.8787 2.5Z" fill="currentColor" fill-opacity="0.15"/><path fill-rule="evenodd" clip-rule="evenodd" d="M6.12134 13.5L9.8787 13.5L8.00002 11.6213L6.12134 13.5Z" fill="currentColor" fill-opacity="0.15"/><path d="M16 8.75L6.55668e-08 8.75L0 7.25L16 7.25V8.75Z" fill="currentColor"/><path fill-rule="evenodd" clip-rule="evenodd" d="M8 6.5L4 2.5V1L12 1V2.5L8 6.5ZM9.87868 2.5L6.12132 2.5L8 4.37868L9.87868 2.5Z" fill="currentColor"/><path fill-rule="evenodd" clip-rule="evenodd" d="M8 9.5L12 13.5V15L4 15V13.5L8 9.5ZM6.12132 13.5L9.87868 13.5L8 11.6213L6.12132 13.5Z" fill="currentColor"/></svg>
