<svg xmlns="http://www.w3.org/2000/svg" viewBox="0 0 16 16" fill="none"><path fill-rule="evenodd" clip-rule="evenodd" d="M1.65186 8.5L3.95955 3.5H12.0401L14.3477 8.5L12.0401 13.5H3.95955L1.65186 8.5ZM11.1231 10.9898L10.8765 9.5102L7.9998 9.98965L5.1231 9.5102L4.8765 10.9898L7.9998 11.5103L11.1231 10.9898ZM9.9998 8C10.5521 8 10.9998 7.55228 10.9998 7C10.9998 6.44772 10.5521 6 9.9998 6C9.44751 6 8.9998 6.44772 8.9998 7C8.9998 7.55228 9.44751 8 9.9998 8ZM5.9998 8C6.55208 8 6.9998 7.55228 6.9998 7C6.9998 6.44772 6.55208 6 5.9998 6C5.44751 6 4.9998 6.44772 4.9998 7C4.9998 7.55228 5.44751 8 5.9998 8Z" fill="currentColor" fill-opacity="0.15"/><path d="M6 8C6.55228 8 7 7.55228 7 7C7 6.44772 6.55228 6 6 6C5.44772 6 5 6.44772 5 7C5 7.55228 5.44772 8 6 8Z" fill="currentColor"/><path d="M11 7C11 7.55228 10.5523 8 10 8C9.44771 8 9 7.55228 9 7C9 6.44772 9.44771 6 10 6C10.5523 6 11 6.44772 11 7Z" fill="currentColor"/><path d="M4.8767 10.9898L8 11.5103L11.1233 10.9898L10.8767 9.5102L8 9.98965L5.1233 9.5102L4.8767 10.9898Z" fill="currentColor"/><path fill-rule="evenodd" clip-rule="evenodd" d="M8.75 0V2H13L16 8.5L13 15H3L0 8.5L3 2H7.25V0H8.75ZM3.95975 3.5L1.65206 8.5L3.95975 13.5H12.0403L14.3479 8.5L12.0403 3.5H3.95975Z" fill="currentColor"/></svg>
