<svg xmlns="http://www.w3.org/2000/svg" viewBox="0 0 16 16" fill="none"><path fill-rule="evenodd" clip-rule="evenodd" d="M11.7789 13.2892C10.714 14.0514 9.40938 14.5 7.99996 14.5C6.59052 14.5 5.28585 14.0514 4.22095 13.2892C5.33731 11.8201 5.99992 9.98745 5.99992 8C5.99992 6.01255 5.33731 4.17987 4.22095 2.71081C5.28585 1.9486 6.59052 1.5 7.99996 1.5C9.40938 1.5 10.714 1.94858 11.7789 2.71077C10.6625 4.17984 9.99992 6.01253 9.99992 8C9.99992 9.98746 10.6625 11.8202 11.7789 13.2892Z" fill="currentColor" fill-opacity="0.15"/><path fill-rule="evenodd" clip-rule="evenodd" d="M16 8C16 12.4183 12.4183 16 8 16C3.58172 16 0 12.4183 0 8C0 3.58172 3.58172 0 8 0C12.4183 0 16 3.58172 16 8ZM11.779 13.2892C10.7141 14.0514 9.40942 14.5 8 14.5C6.59056 14.5 5.28589 14.0514 4.22099 13.2892C5.33735 11.8201 5.99996 9.98745 5.99996 8C5.99996 6.01255 5.33735 4.17987 4.22099 2.71081C5.28589 1.9486 6.59056 1.5 8 1.5C9.40942 1.5 10.7141 1.94858 11.779 2.71077C10.6626 4.17984 9.99996 6.01253 9.99996 8C9.99996 9.98746 10.6626 11.8202 11.779 13.2892ZM12.895 12.2766C13.8944 11.1337 14.5 9.63755 14.5 8C14.5 6.36244 13.8944 4.86632 12.895 3.72335C12.0178 4.92225 11.5 6.40065 11.5 8C11.5 9.59935 12.0178 11.0777 12.895 12.2766ZM3.10491 3.72341C2.10554 4.86637 1.5 6.36247 1.5 8C1.5 9.63753 2.10554 11.1336 3.10491 12.2766C3.9821 11.0777 4.49996 9.59933 4.49996 8C4.49996 6.40067 3.9821 4.92229 3.10491 3.72341Z" fill="currentColor"/></svg>
