<svg xmlns="http://www.w3.org/2000/svg" viewBox="0 0 16 16" fill="none"><path d="M7.43721 8.53826L10.5861 12.4138L7.99989 15L6.71741 13.7175L7.88899 12.546C7.89909 12.5358 7.91044 12.5273 7.92266 12.5203L6.97551 11.3546C6.92416 11.395 6.875 11.4386 6.82833 11.4853L5.65675 12.6569L3.88898 10.8891L5.06055 9.71753C5.70627 9.07181 6.54255 8.66047 7.43721 8.53826Z" fill="currentColor" fill-opacity="0.15"/><path d="M3.99989 8.65687L2.82832 9.82844L1.06055 8.06067L2.23212 6.8891C2.95473 6.16649 3.79896 5.59346 4.7167 5.18994L6.37988 7.23693C5.48908 7.50322 4.66925 7.98751 3.99989 8.65687Z" fill="currentColor" fill-opacity="0.15"/><path d="M15.5 16H13.5L7.43732 8.53824C6.54266 8.66046 5.70638 9.0718 5.06067 9.71751L3.88909 10.8891L2.82843 9.82843L4.00001 8.65685C4.66937 7.98749 5.4892 7.50321 6.38 7.23692L4.71682 5.18993C3.79908 5.59345 2.95484 6.16648 2.23223 6.88909L1.06066 8.06066L0 7L1.17157 5.82843C1.92864 5.07136 2.79846 4.45298 3.74157 3.98963L0.5 0H2.5L15.5 16Z" fill="currentColor"/><path d="M7.52397 3.01173L8.76217 4.53566C10.6459 4.71238 12.4188 5.54008 13.7678 6.88909L14.9393 8.06066L16 7L14.8284 5.82843C14.6021 5.60205 14.3656 5.38807 14.1201 5.18694C12.4017 3.77896 10.241 3 8 3C7.84088 3 7.68216 3.00393 7.52397 3.01173Z" fill="currentColor"/><path d="M6.71752 13.7175L5.65686 12.6569L6.82844 11.4853C6.87511 11.4386 6.92428 11.395 6.97563 11.3546L7.92277 12.5203C7.91055 12.5272 7.89921 12.5358 7.8891 12.5459L6.71752 13.7175Z" fill="currentColor"/></svg>
