<svg xmlns="http://www.w3.org/2000/svg" viewBox="0 0 16 16" fill="none"><path d="M10.9394 9.71752L12.111 10.8891L10.3432 12.6568L9.17166 11.4853C8.86093 11.1746 8.43951 11 8.00008 11C7.56065 11 7.13923 11.1746 6.82851 11.4853L5.65693 12.6569L3.88916 10.8891L5.06074 9.71751C5.8403 8.93795 6.89761 8.5 8.00008 8.5C9.10254 8.5 10.1599 8.93795 10.9394 9.71752Z" fill="currentColor" fill-opacity="0.15"/><path d="M8.111 12.5459L9.28256 13.7175L8.00007 15L6.71759 13.7175L7.88917 12.5459C7.91858 12.5165 7.95848 12.5 8.00008 12.5C8.04168 12.5 8.08158 12.5165 8.111 12.5459Z" fill="currentColor" fill-opacity="0.15"/><path d="M13.1718 9.82842L12.0002 8.65686C10.9393 7.59599 9.50048 7 8.00019 7C6.4999 7 5.06106 7.59599 4.00019 8.65685L2.82861 9.82843L3.88927 10.8891L5.06085 9.71751C5.84041 8.93795 6.89772 8.5 8.00019 8.5C9.10265 8.5 10.16 8.93795 10.9395 9.71752L12.1111 10.8891L13.1718 9.82842Z" fill="currentColor"/><path d="M10.3433 12.6568L9.17177 11.4853C8.86105 11.1746 8.43962 11 8.00019 11C7.56077 11 7.13934 11.1746 6.82862 11.4853L5.65704 12.6569L6.7177 13.7175L7.88929 12.5459C7.9187 12.5165 7.95859 12.5 8.00019 12.5C8.04179 12.5 8.08169 12.5165 8.11111 12.5459L9.28267 13.7175L10.3433 12.6568Z" fill="currentColor"/></svg>
